<?xml version="1.0" encoding="UTF-8"?>
<svg xmlns="http://www.w3.org/2000/svg" xmlns:xlink="http://www.w3.org/1999/xlink" width="337.804pt" height="175.496pt" viewBox="0 0 337.804 175.496">
<defs>
<g>
<g id="glyph-0-0">
<path d="M 5.34375 -1.0625 C 4.8125 -0.65625 4.3125 -0.515625 3.578125 -0.515625 C 2.25 -0.515625 1.453125 -1.890625 1.453125 -3.078125 C 1.453125 -4.40625 2.28125 -5.6875 3.578125 -5.6875 C 4.1875 -5.6875 4.734375 -5.53125 5.171875 -5.203125 L 5.3125 -6 C 4.84375 -6.1875 4.265625 -6.296875 3.640625 -6.296875 C 1.875 -6.296875 0.59375 -4.859375 0.59375 -3.09375 C 0.59375 -1.390625 1.84375 0.09375 3.640625 0.09375 C 4.46875 0.09375 4.796875 -0.03125 5.40625 -0.40625 Z M 5.34375 -1.0625 "/>
</g>
<g id="glyph-0-1">
<path d="M 1.453125 -6.203125 L 0.734375 -6.203125 L 0.734375 0 L 1.453125 0 Z M 1.453125 -6.203125 "/>
</g>
<g id="glyph-0-2">
<path d="M 1.515625 -6.109375 L 0.65625 -6.109375 L 0.65625 -5.25 L 1.515625 -5.25 Z M 1.453125 -3.96875 L 0.734375 -3.96875 L 0.734375 0 L 1.453125 0 Z M 1.453125 -3.96875 "/>
</g>
<g id="glyph-0-3">
<path d="M 3.8125 -1.953125 C 3.8125 -2.234375 3.8125 -2.90625 3.453125 -3.453125 C 3.078125 -4.015625 2.515625 -4.125 2.171875 -4.125 C 1.140625 -4.125 0.3125 -3.15625 0.3125 -2.015625 C 0.3125 -0.84375 1.1875 0.09375 2.3125 0.09375 C 2.734375 0.09375 3.25 -0.015625 3.765625 -0.34375 L 3.71875 -0.953125 C 3.15625 -0.546875 2.625 -0.484375 2.3125 -0.484375 C 1.578125 -0.484375 1 -1.140625 0.96875 -1.953125 Z M 1.03125 -2.484375 C 1.171875 -3.0625 1.609375 -3.546875 2.171875 -3.546875 C 2.5 -3.546875 3.109375 -3.390625 3.28125 -2.484375 Z M 1.03125 -2.484375 "/>
</g>
<g id="glyph-0-4">
<path d="M 4.015625 -2.65625 C 4.015625 -3.3125 3.828125 -4.0625 2.75 -4.0625 C 2.046875 -4.0625 1.625 -3.65625 1.40625 -3.390625 L 1.40625 -4.015625 L 0.71875 -4.015625 L 0.71875 0 L 1.46875 0 L 1.46875 -2.1875 C 1.46875 -2.765625 1.703125 -3.484375 2.375 -3.484375 C 3.265625 -3.484375 3.265625 -2.84375 3.265625 -2.59375 L 3.265625 0 L 4.015625 0 Z M 4.015625 -2.65625 "/>
</g>
<g id="glyph-0-5">
<path d="M 1.625 -3.421875 L 2.90625 -3.421875 L 2.90625 -3.96875 L 1.625 -3.96875 L 1.625 -5.109375 L 0.953125 -5.109375 L 0.953125 -3.96875 L 0.171875 -3.96875 L 0.171875 -3.421875 L 0.921875 -3.421875 L 0.921875 -1.125 C 0.921875 -0.59375 1.046875 0.09375 1.703125 0.09375 C 2.09375 0.09375 2.5625 0.015625 3.0625 -0.234375 L 2.90625 -0.796875 C 2.671875 -0.609375 2.359375 -0.515625 2.078125 -0.515625 C 1.734375 -0.515625 1.625 -0.828125 1.625 -1.28125 Z M 1.625 -3.421875 "/>
</g>
<g id="glyph-0-6">
<path d="M 4.484375 -2.796875 L 4.484375 -3.375 L 1.703125 -3.375 L 1.703125 -5.5625 L 2.015625 -5.5625 C 2.71875 -5.5625 3.421875 -5.546875 4.125 -5.546875 L 4.875 -5.546875 L 4.875 -6.171875 L 0.84375 -6.171875 L 0.84375 0 L 1.703125 0 L 1.703125 -2.796875 Z M 4.484375 -2.796875 "/>
</g>
<g id="glyph-0-7">
<path d="M 3.6875 -2.578125 C 3.6875 -3.46875 3.03125 -4.125 2.140625 -4.125 C 1.5625 -4.125 1.140625 -3.96875 0.703125 -3.734375 L 0.765625 -3.09375 C 1.203125 -3.421875 1.640625 -3.5625 2.140625 -3.5625 C 2.640625 -3.5625 2.9375 -3.15625 2.9375 -2.578125 L 2.9375 -2.203125 C 1.40625 -2.15625 0.390625 -1.765625 0.390625 -1.03125 C 0.390625 -0.609375 0.671875 0.09375 1.453125 0.09375 C 1.625 0.09375 2.40625 0.078125 2.96875 -0.34375 L 2.96875 0 L 3.6875 0 Z M 2.9375 -1.25 C 2.9375 -1.0625 2.9375 -0.84375 2.625 -0.65625 C 2.390625 -0.515625 2.09375 -0.484375 1.921875 -0.484375 C 1.46875 -0.484375 1.078125 -0.703125 1.078125 -1.046875 C 1.078125 -1.6875 2.828125 -1.71875 2.9375 -1.71875 Z M 2.9375 -1.25 "/>
</g>
<g id="glyph-0-8">
<path d="M 3.765625 -0.96875 C 3.328125 -0.671875 2.859375 -0.515625 2.328125 -0.515625 C 1.5625 -0.515625 1.0625 -1.140625 1.0625 -2 C 1.0625 -2.6875 1.40625 -3.515625 2.359375 -3.515625 C 2.921875 -3.515625 3.203125 -3.40625 3.65625 -3.09375 L 3.765625 -3.734375 C 3.265625 -4.015625 3 -4.125 2.34375 -4.125 C 1.078125 -4.125 0.328125 -3.046875 0.328125 -1.984375 C 0.328125 -0.875 1.15625 0.09375 2.3125 0.09375 C 2.9375 0.09375 3.421875 -0.09375 3.8125 -0.328125 Z M 3.765625 -0.96875 "/>
</g>
<g id="glyph-0-9">
<path d="M 4 -6.203125 L 3.28125 -6.203125 L 3.28125 -3.578125 C 2.78125 -4 2.203125 -4.0625 1.921875 -4.0625 C 1.015625 -4.0625 0.328125 -3.125 0.328125 -1.984375 C 0.328125 -0.828125 1.015625 0.09375 1.890625 0.09375 C 2.15625 0.09375 2.71875 0.03125 3.25 -0.46875 L 3.25 0 L 4 0 Z M 3.25 -1.265625 C 3.25 -1.09375 3.25 -1.078125 3.15625 -0.953125 C 2.90625 -0.625 2.609375 -0.484375 2.28125 -0.484375 C 1.703125 -0.484375 1.0625 -0.90625 1.0625 -1.96875 C 1.0625 -3.125 1.828125 -3.484375 2.390625 -3.484375 C 2.796875 -3.484375 3.078125 -3.25 3.25 -3.015625 Z M 3.25 -1.265625 "/>
</g>
<g id="glyph-0-10">
<path d="M 2.1875 -3.75 C 1.71875 -3.859375 1.265625 -4.21875 1.265625 -4.734375 C 1.265625 -5.25 1.765625 -5.765625 2.578125 -5.765625 C 3.21875 -5.765625 3.671875 -5.578125 4.125 -5.1875 L 4.265625 -5.96875 C 3.828125 -6.1875 3.390625 -6.40625 2.578125 -6.40625 C 1.3125 -6.40625 0.515625 -5.515625 0.515625 -4.625 C 0.515625 -4.390625 0.546875 -4.046875 0.859375 -3.625 C 1.265625 -3.09375 1.84375 -2.953125 2.21875 -2.875 C 2.34375 -2.828125 2.890625 -2.703125 2.96875 -2.6875 C 3.375 -2.5625 3.828125 -2.15625 3.828125 -1.609375 C 3.828125 -1.015625 3.3125 -0.46875 2.515625 -0.46875 C 1.796875 -0.46875 1.125 -0.734375 0.546875 -1.203125 L 0.40625 -0.421875 C 1.28125 0.125 2.09375 0.203125 2.515625 0.203125 C 3.75 0.203125 4.578125 -0.71875 4.578125 -1.703125 C 4.578125 -2.71875 3.75 -3.375 3.078125 -3.546875 Z M 2.1875 -3.75 "/>
</g>
<g id="glyph-0-11">
<path d="M 4.015625 -3.96875 L 3.265625 -3.96875 L 3.265625 -1.390625 C 3.265625 -0.671875 2.703125 -0.421875 2.171875 -0.421875 C 1.53125 -0.421875 1.46875 -0.640625 1.46875 -1.015625 L 1.46875 -3.96875 L 0.71875 -3.96875 L 0.71875 -0.96875 C 0.71875 -0.21875 1.03125 0.09375 1.65625 0.09375 C 2.1875 0.09375 2.875 -0.046875 3.296875 -0.421875 L 3.296875 0 L 4.015625 0 Z M 4.015625 -3.96875 "/>
</g>
<g id="glyph-0-12">
<path d="M 1.453125 -6.203125 L 0.734375 -6.203125 L 0.734375 0 L 1.484375 0 L 1.484375 -0.421875 C 1.59375 -0.296875 2.0625 0.09375 2.71875 0.09375 C 3.640625 0.09375 4.421875 -0.796875 4.421875 -2 C 4.421875 -3.078125 3.828125 -4.0625 2.953125 -4.0625 C 2.703125 -4.0625 2.0625 -4.015625 1.453125 -3.546875 Z M 1.484375 -2.984375 C 1.625 -3.171875 1.9375 -3.484375 2.453125 -3.484375 C 2.984375 -3.484375 3.671875 -3.109375 3.671875 -2 C 3.671875 -0.84375 2.90625 -0.484375 2.359375 -0.484375 C 1.78125 -0.484375 1.53125 -0.953125 1.484375 -1.03125 Z M 1.484375 -2.984375 "/>
</g>
<g id="glyph-0-13">
<path d="M 3.15625 -3.828125 C 2.59375 -4.078125 2.1875 -4.125 1.828125 -4.125 C 1.625 -4.125 0.296875 -4.125 0.296875 -2.9375 C 0.296875 -2.515625 0.5625 -2.25 0.65625 -2.140625 C 1 -1.84375 1.234375 -1.8125 1.84375 -1.6875 C 2.125 -1.640625 2.640625 -1.53125 2.640625 -1.078125 C 2.640625 -0.5 1.90625 -0.5 1.796875 -0.5 C 1.265625 -0.5 0.765625 -0.671875 0.375 -0.953125 L 0.265625 -0.296875 C 0.796875 -0.015625 1.34375 0.09375 1.796875 0.09375 C 2.375 0.09375 3.3125 -0.09375 3.3125 -1.15625 C 3.3125 -1.46875 3.1875 -1.78125 2.875 -2.046875 C 2.5625 -2.3125 2.296875 -2.359375 1.75 -2.46875 C 1.421875 -2.53125 0.96875 -2.609375 0.96875 -3.03125 C 0.96875 -3.5625 1.609375 -3.5625 1.75 -3.5625 C 2.390625 -3.5625 2.78125 -3.359375 3.03125 -3.203125 Z M 3.15625 -3.828125 "/>
</g>
<g id="glyph-0-14">
<path d="M 4.109375 -3.96875 L 3.390625 -3.96875 C 2.71875 -2.34375 2.21875 -1.15625 2.1875 -0.53125 C 2.15625 -0.9375 1.78125 -1.859375 1.671875 -2.125 C 1.3125 -3.03125 1.15625 -3.328125 0.875 -3.96875 L 0.125 -3.96875 L 1.90625 0 L 1.578125 0.796875 C 1.34375 1.296875 1.1875 1.296875 1.046875 1.296875 C 0.90625 1.296875 0.59375 1.265625 0.328125 1.140625 L 0.390625 1.765625 C 0.40625 1.765625 0.734375 1.828125 1.046875 1.828125 C 1.28125 1.828125 1.671875 1.828125 2.125 0.765625 Z M 4.109375 -3.96875 "/>
</g>
<g id="glyph-0-15">
<path d="M 6.5625 -2.65625 C 6.5625 -3.3125 6.375 -4.0625 5.296875 -4.0625 C 4.546875 -4.0625 4.125 -3.609375 3.921875 -3.328125 C 3.859375 -3.515625 3.671875 -4.0625 2.75 -4.0625 C 2.046875 -4.0625 1.625 -3.65625 1.40625 -3.390625 L 1.40625 -4.015625 L 0.71875 -4.015625 L 0.71875 0 L 1.46875 0 L 1.46875 -2.1875 C 1.46875 -2.765625 1.703125 -3.484375 2.375 -3.484375 C 3.265625 -3.484375 3.265625 -2.84375 3.265625 -2.59375 L 3.265625 0 L 4.015625 0 L 4.015625 -2.1875 C 4.015625 -2.765625 4.25 -3.484375 4.921875 -3.484375 C 5.8125 -3.484375 5.8125 -2.84375 5.8125 -2.59375 L 5.8125 0 L 6.5625 0 Z M 6.5625 -2.65625 "/>
</g>
<g id="glyph-0-16">
<path d="M 3.484375 -6.203125 L 2.65625 -6.203125 L 0.265625 0 L 0.96875 0 L 1.640625 -1.78125 L 4.296875 -1.78125 L 4.984375 0 L 5.875 0 Z M 2.96875 -5.546875 L 4.078125 -2.3125 L 1.859375 -2.3125 Z M 2.96875 -5.546875 "/>
</g>
<g id="glyph-0-17">
<path d="M 0.875 -6.203125 L 0.875 0 L 3.328125 0 C 4.671875 0 5.609375 -0.828125 5.609375 -1.6875 C 5.609375 -2.46875 4.796875 -3.09375 3.84375 -3.25 C 4.734375 -3.46875 5.359375 -4 5.359375 -4.640625 C 5.359375 -5.46875 4.359375 -6.203125 3.078125 -6.203125 Z M 1.6875 -3.515625 L 1.6875 -5.671875 L 2.828125 -5.671875 C 3.734375 -5.671875 4.609375 -5.25 4.609375 -4.625 C 4.609375 -4.109375 3.96875 -3.515625 2.71875 -3.515625 Z M 1.6875 -0.53125 L 1.6875 -2.9375 L 3 -2.9375 C 3.9375 -2.9375 4.828125 -2.390625 4.828125 -1.6875 C 4.828125 -1.046875 4.0625 -0.53125 3.0625 -0.53125 Z M 1.6875 -0.53125 "/>
</g>
<g id="glyph-1-0">
<path d="M 2.96875 -2 C 2.96875 -2.71875 2.421875 -3.1875 1.734375 -3.1875 C 1.296875 -3.1875 0.953125 -3.09375 0.5625 -2.890625 L 0.609375 -2.390625 C 0.84375 -2.53125 1.1875 -2.75 1.734375 -2.75 C 2.03125 -2.75 2.359375 -2.515625 2.359375 -2 L 2.359375 -1.71875 C 1.328125 -1.6875 0.3125 -1.46875 0.3125 -0.828125 C 0.3125 -0.46875 0.546875 0.0625 1.15625 0.0625 C 1.453125 0.0625 2.015625 0 2.375 -0.265625 L 2.375 0 L 2.96875 0 Z M 2.359375 -0.984375 C 2.359375 -0.84375 2.359375 -0.671875 2.109375 -0.515625 C 1.890625 -0.390625 1.625 -0.390625 1.546875 -0.390625 C 1.15625 -0.390625 0.875 -0.5625 0.875 -0.828125 C 0.875 -1.265625 2.046875 -1.3125 2.359375 -1.328125 Z M 2.359375 -0.984375 "/>
</g>
<g id="glyph-1-1">
<path d="M 2.125 -5.21875 C 2 -5.21875 1.984375 -5.21875 1.90625 -5.140625 C 1.03125 -4.375 0.578125 -3.140625 0.578125 -1.734375 C 0.578125 -0.421875 0.984375 0.84375 1.890625 1.640625 C 1.984375 1.734375 2 1.734375 2.125 1.734375 L 2.453125 1.734375 C 2.4375 1.71875 1.765625 1.140625 1.4375 0.0625 C 1.265625 -0.484375 1.1875 -1.046875 1.1875 -1.734375 C 1.1875 -4.140625 2.3125 -5.09375 2.453125 -5.21875 Z M 2.125 -5.21875 "/>
</g>
<g id="glyph-1-2">
<path d="M 0.75 1.734375 C 0.859375 1.734375 0.875 1.734375 0.953125 1.65625 C 1.828125 0.890625 2.28125 -0.34375 2.28125 -1.734375 C 2.28125 -3.046875 1.890625 -4.3125 0.96875 -5.125 C 0.875 -5.21875 0.859375 -5.21875 0.75 -5.21875 L 0.40625 -5.21875 C 0.4375 -5.203125 1.109375 -4.625 1.421875 -3.546875 C 1.59375 -3 1.671875 -2.421875 1.671875 -1.734375 C 1.671875 0.671875 0.546875 1.625 0.40625 1.734375 Z M 0.75 1.734375 "/>
</g>
<g id="glyph-1-3">
<path d="M 1.171875 -4.828125 L 0.59375 -4.828125 L 0.59375 0 L 1.203125 0 L 1.203125 -0.328125 C 1.34375 -0.1875 1.6875 0.0625 2.1875 0.0625 C 2.953125 0.0625 3.5625 -0.640625 3.5625 -1.546875 C 3.5625 -2.390625 3.078125 -3.15625 2.390625 -3.15625 C 1.953125 -3.15625 1.515625 -3.015625 1.171875 -2.765625 Z M 1.203125 -2.1875 C 1.203125 -2.296875 1.203125 -2.390625 1.4375 -2.546875 C 1.546875 -2.609375 1.734375 -2.703125 1.96875 -2.703125 C 2.4375 -2.703125 2.953125 -2.390625 2.953125 -1.546875 C 2.953125 -0.703125 2.375 -0.390625 1.890625 -0.390625 C 1.640625 -0.390625 1.390625 -0.5 1.203125 -0.828125 Z M 1.203125 -2.1875 "/>
</g>
<g id="glyph-1-4">
<path d="M 3.03125 -0.765625 C 2.671875 -0.53125 2.296875 -0.40625 1.875 -0.40625 C 1.234375 -0.40625 0.859375 -0.921875 0.859375 -1.546875 C 0.859375 -2.09375 1.140625 -2.71875 1.890625 -2.71875 C 2.359375 -2.71875 2.59375 -2.609375 2.9375 -2.390625 L 3.03125 -2.890625 C 2.609375 -3.09375 2.4375 -3.1875 1.890625 -3.1875 C 0.84375 -3.1875 0.25 -2.34375 0.25 -1.546875 C 0.25 -0.703125 0.921875 0.0625 1.859375 0.0625 C 2.34375 0.0625 2.765625 -0.078125 3.0625 -0.25 Z M 3.03125 -0.765625 "/>
</g>
</g>
</defs>
<path fill-rule="nonzero" fill="rgb(98.429871%, 93.725586%, 80.39093%)" fill-opacity="1" stroke-width="0.3985" stroke-linecap="butt" stroke-linejoin="miter" stroke="rgb(78.431702%, 65.489197%, 28.234863%)" stroke-opacity="1" stroke-miterlimit="10" d="M 37.694287 85.040087 L -37.693471 85.040087 C -38.79428 85.040087 -39.687462 84.146905 -39.687462 83.046096 L -39.687462 64.355855 C -39.687462 63.255047 -38.79428 62.361864 -37.693471 62.361864 L 37.694287 62.361864 C 38.795096 62.361864 39.684361 63.255047 39.684361 64.355855 L 39.684361 83.046096 C 39.684361 84.146905 38.795096 85.040087 37.694287 85.040087 Z M 37.694287 85.040087 " transform="matrix(0.997136, 0, 0, -0.997136, 168.804281, 94.929376)"/>
<g fill="rgb(0%, 0%, 0%)" fill-opacity="1">
<use xlink:href="#glyph-0-0" x="157.600456" y="24.543514"/>
<use xlink:href="#glyph-0-1" x="163.470935" y="24.543514"/>
<use xlink:href="#glyph-0-2" x="165.664989" y="24.543514"/>
<use xlink:href="#glyph-0-3" x="167.859043" y="24.543514"/>
<use xlink:href="#glyph-0-4" x="171.943165" y="24.543514"/>
<use xlink:href="#glyph-0-5" x="176.689795" y="24.543514"/>
</g>
<path fill-rule="nonzero" fill="rgb(97.645569%, 87.057495%, 87.057495%)" fill-opacity="1" stroke-width="0.3985" stroke-linecap="butt" stroke-linejoin="miter" stroke="rgb(77.253723%, 36.471558%, 36.471558%)" stroke-opacity="1" stroke-miterlimit="10" d="M 37.694287 28.346488 L -37.693471 28.346488 C -38.79428 28.346488 -39.687462 27.453305 -39.687462 26.352496 L -39.687462 7.662256 C -39.687462 6.561447 -38.79428 5.668264 -37.693471 5.668264 L 37.694287 5.668264 C 38.795096 5.668264 39.684361 6.561447 39.684361 7.662256 L 39.684361 26.352496 C 39.684361 27.453305 38.795096 28.346488 37.694287 28.346488 Z M 37.694287 28.346488 " transform="matrix(0.997136, 0, 0, -0.997136, 168.804281, 94.929376)"/>
<g fill="rgb(0%, 0%, 0%)" fill-opacity="1">
<use xlink:href="#glyph-0-6" x="155.427696" y="81.074166"/>
</g>
<g fill="rgb(0%, 0%, 0%)" fill-opacity="1">
<use xlink:href="#glyph-0-7" x="160.431819" y="81.074166"/>
</g>
<g fill="rgb(0%, 0%, 0%)" fill-opacity="1">
<use xlink:href="#glyph-0-8" x="164.855689" y="81.074166"/>
</g>
<g fill="rgb(0%, 0%, 0%)" fill-opacity="1">
<use xlink:href="#glyph-0-7" x="168.930871" y="81.074166"/>
</g>
<g fill="rgb(0%, 0%, 0%)" fill-opacity="1">
<use xlink:href="#glyph-0-9" x="173.354741" y="81.074166"/>
</g>
<g fill="rgb(0%, 0%, 0%)" fill-opacity="1">
<use xlink:href="#glyph-0-3" x="178.09243" y="81.074166"/>
</g>
<path fill-rule="nonzero" fill="rgb(87.449646%, 93.331909%, 87.057495%)" fill-opacity="1" stroke-width="0.3985" stroke-linecap="butt" stroke-linejoin="miter" stroke="rgb(38.822937%, 60.392761%, 36.471558%)" stroke-opacity="1" stroke-miterlimit="10" d="M -81.365407 -43.253079 L -156.749247 -43.253079 C -157.850056 -43.253079 -158.743239 -44.146261 -158.743239 -45.24707 L -158.743239 -68.140754 C -158.743239 -69.241563 -157.850056 -70.134746 -156.749247 -70.134746 L -81.365407 -70.134746 C -80.264598 -70.134746 -79.371415 -69.241563 -79.371415 -68.140754 L -79.371415 -45.24707 C -79.371415 -44.146261 -80.264598 -43.253079 -81.365407 -43.253079 Z M -81.365407 -43.253079 " transform="matrix(0.997136, 0, 0, -0.997136, 168.804281, 94.929376)"/>
<g fill="rgb(0%, 0%, 0%)" fill-opacity="1">
<use xlink:href="#glyph-0-10" x="26.730297" y="147.247127"/>
<use xlink:href="#glyph-0-11" x="31.83545" y="147.247127"/>
<use xlink:href="#glyph-0-12" x="36.58208" y="147.247127"/>
<use xlink:href="#glyph-0-13" x="41.328711" y="147.247127"/>
<use xlink:href="#glyph-0-14" x="44.851356" y="147.247127"/>
<use xlink:href="#glyph-0-13" x="49.08747" y="147.247127"/>
<use xlink:href="#glyph-0-5" x="52.610115" y="147.247127"/>
<use xlink:href="#glyph-0-3" x="55.928018" y="147.247127"/>
<use xlink:href="#glyph-0-15" x="60.01214" y="147.247127"/>
<use xlink:href="#glyph-0-16" x="67.310453" y="147.247127"/>
</g>
<g fill="rgb(0%, 0%, 0%)" fill-opacity="1">
<use xlink:href="#glyph-1-0" x="45.442558" y="160.142094"/>
<use xlink:href="#glyph-1-1" x="48.991793" y="160.142094"/>
<use xlink:href="#glyph-1-2" x="51.865115" y="160.142094"/>
</g>
<path fill-rule="nonzero" fill="rgb(87.449646%, 93.331909%, 87.057495%)" fill-opacity="1" stroke-width="0.3985" stroke-linecap="butt" stroke-linejoin="miter" stroke="rgb(38.822937%, 60.392761%, 36.471558%)" stroke-opacity="1" stroke-miterlimit="10" d="M 37.694287 -43.253079 L -37.693471 -43.253079 C -38.79428 -43.253079 -39.687462 -44.146261 -39.687462 -45.24707 L -39.687462 -68.140754 C -39.687462 -69.241563 -38.79428 -70.134746 -37.693471 -70.134746 L 37.694287 -70.134746 C 38.795096 -70.134746 39.684361 -69.241563 39.684361 -68.140754 L 39.684361 -45.24707 C 39.684361 -44.146261 38.795096 -43.253079 37.694287 -43.253079 Z M 37.694287 -43.253079 " transform="matrix(0.997136, 0, 0, -0.997136, 168.804281, 94.929376)"/>
<g fill="rgb(0%, 0%, 0%)" fill-opacity="1">
<use xlink:href="#glyph-0-10" x="145.448356" y="147.247127"/>
<use xlink:href="#glyph-0-11" x="150.553509" y="147.247127"/>
<use xlink:href="#glyph-0-12" x="155.300139" y="147.247127"/>
<use xlink:href="#glyph-0-13" x="160.046769" y="147.247127"/>
<use xlink:href="#glyph-0-14" x="163.569414" y="147.247127"/>
<use xlink:href="#glyph-0-13" x="167.805529" y="147.247127"/>
<use xlink:href="#glyph-0-5" x="171.328174" y="147.247127"/>
<use xlink:href="#glyph-0-3" x="174.646076" y="147.247127"/>
<use xlink:href="#glyph-0-15" x="178.730199" y="147.247127"/>
<use xlink:href="#glyph-0-17" x="186.028511" y="147.247127"/>
</g>
<g fill="rgb(0%, 0%, 0%)" fill-opacity="1">
<use xlink:href="#glyph-1-3" x="164.023012" y="160.142094"/>
<use xlink:href="#glyph-1-1" x="167.837883" y="160.142094"/>
<use xlink:href="#glyph-1-2" x="170.711205" y="160.142094"/>
</g>
<path fill-rule="nonzero" fill="rgb(87.449646%, 93.331909%, 87.057495%)" fill-opacity="1" stroke-width="0.3985" stroke-linecap="butt" stroke-linejoin="miter" stroke="rgb(38.822937%, 60.392761%, 36.471558%)" stroke-opacity="1" stroke-miterlimit="10" d="M 156.750063 -43.253079 L 81.362305 -43.253079 C 80.261497 -43.253079 79.372231 -44.146261 79.372231 -45.24707 L 79.372231 -68.140754 C 79.372231 -69.241563 80.261497 -70.134746 81.362305 -70.134746 L 156.750063 -70.134746 C 157.850872 -70.134746 158.740137 -69.241563 158.740137 -68.140754 L 158.740137 -45.24707 C 158.740137 -44.146261 157.850872 -43.253079 156.750063 -43.253079 Z M 156.750063 -43.253079 " transform="matrix(0.997136, 0, 0, -0.997136, 168.804281, 94.929376)"/>
<g fill="rgb(0%, 0%, 0%)" fill-opacity="1">
<use xlink:href="#glyph-0-10" x="264.29305" y="147.247127"/>
<use xlink:href="#glyph-0-11" x="269.398203" y="147.247127"/>
<use xlink:href="#glyph-0-12" x="274.144833" y="147.247127"/>
<use xlink:href="#glyph-0-13" x="278.891464" y="147.247127"/>
<use xlink:href="#glyph-0-14" x="282.414109" y="147.247127"/>
<use xlink:href="#glyph-0-13" x="286.650223" y="147.247127"/>
<use xlink:href="#glyph-0-5" x="290.172868" y="147.247127"/>
<use xlink:href="#glyph-0-3" x="293.490771" y="147.247127"/>
<use xlink:href="#glyph-0-15" x="297.574893" y="147.247127"/>
<use xlink:href="#glyph-0-0" x="304.873206" y="147.247127"/>
</g>
<g fill="rgb(0%, 0%, 0%)" fill-opacity="1">
<use xlink:href="#glyph-1-4" x="283.003317" y="160.142094"/>
<use xlink:href="#glyph-1-1" x="286.286915" y="160.142094"/>
<use xlink:href="#glyph-1-2" x="289.160238" y="160.142094"/>
</g>
<path fill="none" stroke-width="0.49814" stroke-linecap="butt" stroke-linejoin="miter" stroke="rgb(31.373596%, 31.373596%, 31.373596%)" stroke-opacity="1" stroke-miterlimit="10" d="M 0.000408032 62.162073 L 0.000408032 32.549931 " transform="matrix(0.997136, 0, 0, -0.997136, 168.804281, 94.929376)"/>
<path fill-rule="nonzero" fill="rgb(31.373596%, 31.373596%, 31.373596%)" fill-opacity="1" stroke-width="0.49814" stroke-linecap="butt" stroke-linejoin="miter" stroke="rgb(31.373596%, 31.373596%, 31.373596%)" stroke-opacity="1" stroke-miterlimit="10" d="M 5.52715 0.000408032 L 0.802683 1.778939 L 2.357918 0.000408032 L 0.802683 -1.778123 Z M 5.52715 0.000408032 " transform="matrix(0, 0.997136, 0.997136, 0, 168.804281, 60.24649)"/>
<path fill="none" stroke-width="0.49814" stroke-linecap="butt" stroke-linejoin="miter" stroke="rgb(31.373596%, 31.373596%, 31.373596%)" stroke-opacity="1" stroke-miterlimit="10" d="M 0.000408032 5.468473 L -115.349443 -41.545063 " transform="matrix(0.997136, 0, 0, -0.997136, 168.804281, 94.929376)"/>
<path fill-rule="nonzero" fill="rgb(31.373596%, 31.373596%, 31.373596%)" fill-opacity="1" stroke-width="0.49814" stroke-linecap="butt" stroke-linejoin="miter" stroke="rgb(31.373596%, 31.373596%, 31.373596%)" stroke-opacity="1" stroke-miterlimit="10" d="M 5.528324 -0.000577354 L 0.80537 1.780501 L 2.35646 0.00186907 L 0.804752 -1.781313 Z M 5.528324 -0.000577354 " transform="matrix(-0.923358, 0.376329, 0.376329, 0.923358, 55.847028, 135.513813)"/>
<path fill="none" stroke-width="0.49814" stroke-linecap="butt" stroke-linejoin="miter" stroke="rgb(31.373596%, 31.373596%, 31.373596%)" stroke-opacity="1" stroke-miterlimit="10" d="M 0.000408032 5.468473 L 0.000408032 -39.049635 " transform="matrix(0.997136, 0, 0, -0.997136, 168.804281, 94.929376)"/>
<path fill-rule="nonzero" fill="rgb(31.373596%, 31.373596%, 31.373596%)" fill-opacity="1" stroke-width="0.49814" stroke-linecap="butt" stroke-linejoin="miter" stroke="rgb(31.373596%, 31.373596%, 31.373596%)" stroke-opacity="1" stroke-miterlimit="10" d="M 5.525886 0.000408032 L 0.805337 1.778939 L 2.356654 0.000408032 L 0.805337 -1.778123 Z M 5.525886 0.000408032 " transform="matrix(0, 0.997136, 0.997136, 0, 168.804281, 131.642282)"/>
<path fill="none" stroke-width="0.49814" stroke-linecap="butt" stroke-linejoin="miter" stroke="rgb(31.373596%, 31.373596%, 31.373596%)" stroke-opacity="1" stroke-miterlimit="10" d="M 0.000408032 5.468473 L 115.350259 -41.545063 " transform="matrix(0.997136, 0, 0, -0.997136, 168.804281, 94.929376)"/>
<path fill-rule="nonzero" fill="rgb(31.373596%, 31.373596%, 31.373596%)" fill-opacity="1" stroke-width="0.49814" stroke-linecap="butt" stroke-linejoin="miter" stroke="rgb(31.373596%, 31.373596%, 31.373596%)" stroke-opacity="1" stroke-miterlimit="10" d="M 5.525452 -0.000593225 L 0.80188 1.780142 L 2.357215 -0.00156106 L 0.806126 -1.780193 Z M 5.525452 -0.000593225 " transform="matrix(0.923358, 0.376329, 0.376329, -0.923358, 281.761533, 135.513813)"/>
</svg>
