<?xml version="1.0" encoding="UTF-8"?>
<svg xmlns="http://www.w3.org/2000/svg" xmlns:xlink="http://www.w3.org/1999/xlink" width="431.2pt" height="171.03pt" viewBox="0 0 431.2 171.03">
<defs>
<g>
<g id="glyph-0-0">
<path d="M 2.5 -0.28125 C 3.171875 -0.28125 3.59375 -0.453125 3.890625 -0.640625 L 3.890625 -1.484375 C 3.65625 -1.359375 3.28125 -1.203125 2.734375 -1.203125 C 1.875 -1.203125 1.484375 -1.625 1.484375 -2.640625 L 1.484375 -2.8125 C 1.484375 -3.71875 1.9375 -4.15625 2.6875 -4.15625 C 3.234375 -4.15625 3.484375 -4.0625 3.84375 -3.921875 L 3.84375 -4.796875 C 3.546875 -4.96875 3.1875 -5.078125 2.59375 -5.078125 C 1.21875 -5.078125 0.28125 -4.296875 0.28125 -2.71875 L 0.28125 -2.578125 C 0.28125 -1.0625 1.09375 -0.28125 2.5 -0.28125 Z M 2.5 -0.28125 "/>
</g>
<g id="glyph-0-1">
<path d="M 2.5 -0.28125 C 3.8125 -0.28125 4.75 -1.109375 4.75 -2.625 L 4.75 -2.75 C 4.75 -4.25 3.9375 -5.078125 2.515625 -5.078125 C 1.203125 -5.078125 0.28125 -4.234375 0.28125 -2.71875 L 0.28125 -2.59375 C 0.28125 -1.140625 1.0625 -0.28125 2.5 -0.28125 Z M 2.53125 -1.140625 C 1.9375 -1.140625 1.484375 -1.453125 1.484375 -2.59375 L 1.484375 -2.796875 C 1.484375 -3.78125 1.859375 -4.21875 2.5 -4.21875 C 3.09375 -4.21875 3.546875 -3.921875 3.546875 -2.75 L 3.546875 -2.546875 C 3.546875 -1.5625 3.171875 -1.140625 2.53125 -1.140625 Z M 2.53125 -1.140625 "/>
</g>
<g id="glyph-0-2">
<path d="M 0.515625 -0.359375 L 1.6875 -0.359375 L 1.6875 -3.71875 C 1.96875 -3.875 2.375 -4 2.78125 -4 C 2.90625 -4 3.046875 -3.984375 3.15625 -3.96875 L 3.15625 -5 C 3.109375 -5.015625 3 -5.03125 2.875 -5.03125 C 2.390625 -5.03125 1.921875 -4.796875 1.6875 -4.4375 L 1.640625 -4.4375 L 1.640625 -4.984375 L 0.515625 -4.984375 Z M 0.515625 -0.359375 "/>
</g>
<g id="glyph-0-3">
<path d="M 0.640625 -3.984375 L 1.828125 -3.984375 L 1.828125 -5.125 L 0.640625 -5.125 Z M 0.640625 -0.71875 L 1.828125 -0.71875 L 1.828125 -1.859375 L 0.640625 -1.859375 Z M 0.640625 -0.71875 "/>
</g>
<g id="glyph-0-4">
<path d="M 1.890625 -0.359375 L 3.15625 -0.359375 L 3.15625 -5.53125 L 4.875 -5.53125 L 4.875 -6.484375 L 0.1875 -6.484375 L 0.1875 -5.53125 L 1.890625 -5.53125 Z M 1.890625 -0.359375 "/>
</g>
<g id="glyph-0-5">
<path d="M 1.703125 -0.28125 C 2.28125 -0.28125 2.671875 -0.46875 2.875 -0.734375 L 2.9375 -0.734375 L 3.03125 -0.359375 L 3.984375 -0.359375 L 3.984375 -3.671875 C 3.984375 -4.671875 3.34375 -5.0625 2.25 -5.0625 C 1.609375 -5.0625 1.09375 -4.984375 0.640625 -4.8125 L 0.640625 -4 C 0.953125 -4.09375 1.359375 -4.140625 1.8125 -4.140625 C 2.5625 -4.140625 2.8125 -4 2.8125 -3.4375 L 2.8125 -3.125 L 1.796875 -3 C 0.859375 -2.859375 0.265625 -2.46875 0.265625 -1.59375 C 0.265625 -0.703125 0.859375 -0.28125 1.703125 -0.28125 Z M 2.0625 -1.078125 C 1.6875 -1.078125 1.40625 -1.265625 1.40625 -1.6875 C 1.40625 -2.109375 1.625 -2.28125 2.0625 -2.3125 L 2.8125 -2.40625 L 2.8125 -1.328125 C 2.671875 -1.1875 2.359375 -1.078125 2.0625 -1.078125 Z M 2.0625 -1.078125 "/>
</g>
<g id="glyph-0-6">
<path d="M 1.828125 -0.28125 C 3.03125 -0.28125 3.671875 -0.78125 3.671875 -1.75 C 3.671875 -2.5625 3.3125 -2.953125 2.40625 -3.140625 L 1.96875 -3.234375 C 1.546875 -3.3125 1.375 -3.421875 1.375 -3.71875 C 1.375 -4.046875 1.625 -4.203125 2.15625 -4.203125 C 2.6875 -4.203125 3.125 -4.078125 3.40625 -3.984375 L 3.40625 -4.8125 C 3.09375 -4.953125 2.671875 -5.0625 2.046875 -5.0625 C 0.84375 -5.0625 0.28125 -4.5 0.28125 -3.640625 C 0.28125 -2.78125 0.734375 -2.421875 1.46875 -2.28125 L 1.890625 -2.1875 C 2.359375 -2.09375 2.53125 -1.96875 2.53125 -1.65625 C 2.53125 -1.34375 2.28125 -1.15625 1.65625 -1.15625 C 1.015625 -1.15625 0.65625 -1.296875 0.296875 -1.453125 L 0.296875 -0.609375 C 0.65625 -0.40625 1.21875 -0.28125 1.828125 -0.28125 Z M 1.828125 -0.28125 "/>
</g>
<g id="glyph-0-7">
<path d="M 0.515625 -0.359375 L 1.6875 -0.359375 L 1.6875 -6.890625 L 0.515625 -6.890625 Z M 3.296875 -0.359375 L 4.5625 -0.359375 C 3.90625 -1.359375 3.5625 -1.84375 2.921875 -2.84375 L 4.453125 -4.984375 L 3.25 -4.984375 C 2.625 -4.09375 2.3125 -3.65625 1.703125 -2.75 C 2.3125 -1.796875 2.640625 -1.328125 3.296875 -0.359375 Z M 3.296875 -0.359375 "/>
</g>
<g id="glyph-0-8">
<path d="M 2.15625 -0.3125 C 2.609375 -0.3125 2.875 -0.40625 3.046875 -0.5 L 3.046875 -1.28125 C 2.921875 -1.234375 2.71875 -1.203125 2.546875 -1.203125 C 2.109375 -1.203125 1.9375 -1.34375 1.9375 -1.734375 L 1.9375 -4.125 L 3 -4.125 L 3 -4.984375 L 1.9375 -4.984375 L 1.9375 -6.078125 L 0.796875 -6.078125 L 0.796875 -4.984375 L 0.171875 -4.984375 L 0.171875 -4.125 L 0.796875 -4.125 L 0.796875 -1.546875 C 0.796875 -0.625 1.3125 -0.3125 2.15625 -0.3125 Z M 2.15625 -0.3125 "/>
</g>
<g id="glyph-0-9">
<path d="M 2.609375 -0.28125 C 3.40625 -0.28125 3.953125 -0.5 4.28125 -0.71875 L 4.28125 -1.484375 C 3.875 -1.3125 3.4375 -1.171875 2.875 -1.171875 C 2.03125 -1.171875 1.546875 -1.46875 1.46875 -2.359375 L 4.4375 -2.359375 L 4.4375 -2.796875 C 4.4375 -4.28125 3.84375 -5.0625 2.4375 -5.0625 C 1.203125 -5.0625 0.28125 -4.265625 0.28125 -2.734375 L 0.28125 -2.625 C 0.28125 -1.140625 1.046875 -0.28125 2.609375 -0.28125 Z M 2.421875 -4.234375 C 2.984375 -4.234375 3.28125 -3.9375 3.28125 -3.125 L 1.46875 -3.125 C 1.53125 -4 2 -4.234375 2.421875 -4.234375 Z M 2.421875 -4.234375 "/>
</g>
<g id="glyph-0-10">
<path d="M 0.515625 -0.359375 L 1.6875 -0.359375 L 1.6875 -3.90625 C 1.9375 -4 2.25 -4.125 2.546875 -4.125 C 3.03125 -4.125 3.1875 -3.9375 3.1875 -3.53125 L 3.1875 -0.359375 L 4.375 -0.359375 L 4.375 -3.71875 C 4.375 -3.78125 4.375 -3.828125 4.359375 -3.890625 C 4.671875 -4.015625 4.9375 -4.125 5.234375 -4.125 C 5.703125 -4.125 5.875 -3.9375 5.875 -3.53125 L 5.875 -0.359375 L 7.046875 -0.359375 L 7.046875 -3.8125 C 7.046875 -4.71875 6.578125 -5.078125 5.765625 -5.078125 C 5.234375 -5.078125 4.71875 -4.875 4.25 -4.5625 L 4.21875 -4.5625 C 3.984375 -4.921875 3.609375 -5.078125 3.09375 -5.078125 C 2.546875 -5.078125 2.0625 -4.859375 1.6875 -4.5625 L 1.640625 -4.5625 L 1.640625 -4.984375 L 0.515625 -4.984375 Z M 0.515625 -0.359375 "/>
</g>
<g id="glyph-0-11">
<path d="M 0.515625 -0.359375 L 1.6875 -0.359375 L 1.6875 -3.90625 C 1.9375 -4 2.3125 -4.125 2.625 -4.125 C 3.203125 -4.125 3.359375 -3.953125 3.359375 -3.515625 L 3.359375 -0.359375 L 4.546875 -0.359375 L 4.546875 -3.796875 C 4.546875 -4.703125 4.078125 -5.078125 3.1875 -5.078125 C 2.625 -5.078125 2.09375 -4.875 1.734375 -4.609375 L 1.6875 -4.609375 L 1.6875 -6.890625 L 0.515625 -6.890625 Z M 0.515625 -0.359375 "/>
</g>
<g id="glyph-0-12">
<path d="M 0.546875 -0.359375 L 1.71875 -0.359375 L 1.71875 -4.984375 L 0.546875 -4.984375 Z M 0.53125 -5.6875 L 1.734375 -5.6875 L 1.734375 -6.6875 L 0.53125 -6.6875 Z M 0.53125 -5.6875 "/>
</g>
<g id="glyph-0-13">
<path d="M 0.515625 -0.359375 L 1.6875 -0.359375 L 1.6875 -3.90625 C 1.9375 -4 2.3125 -4.125 2.625 -4.125 C 3.203125 -4.125 3.359375 -3.953125 3.359375 -3.515625 L 3.359375 -0.359375 L 4.546875 -0.359375 L 4.546875 -3.796875 C 4.546875 -4.703125 4.078125 -5.078125 3.1875 -5.078125 C 2.625 -5.078125 2.078125 -4.875 1.6875 -4.578125 L 1.640625 -4.578125 L 1.640625 -4.984375 L 0.515625 -4.984375 Z M 0.515625 -0.359375 "/>
</g>
<g id="glyph-1-0">
<path d="M 6.171875 -4.515625 C 6.25 -4.5625 6.359375 -4.609375 6.359375 -4.734375 C 6.359375 -4.828125 6.28125 -4.921875 6.15625 -4.921875 C 6.140625 -4.921875 6.109375 -4.921875 6 -4.875 L 0.953125 -2.4375 C 0.859375 -2.40625 0.765625 -2.359375 0.765625 -2.234375 C 0.765625 -2.109375 0.84375 -2.0625 0.953125 -2.03125 L 5.984375 0.390625 C 6.109375 0.453125 6.140625 0.453125 6.15625 0.453125 C 6.296875 0.453125 6.359375 0.328125 6.359375 0.265625 C 6.359375 0.15625 6.296875 0.109375 6.1875 0.078125 L 1.40625 -2.234375 Z M 6.171875 -4.515625 "/>
</g>
<g id="glyph-1-1">
<path d="M 6.171875 -2.03125 C 6.265625 -2.0625 6.359375 -2.109375 6.359375 -2.234375 C 6.359375 -2.359375 6.25 -2.40625 6.171875 -2.4375 L 1.140625 -4.859375 C 1.015625 -4.921875 0.96875 -4.921875 0.953125 -4.921875 C 0.84375 -4.921875 0.765625 -4.828125 0.765625 -4.734375 C 0.765625 -4.625 0.828125 -4.578125 0.953125 -4.515625 L 5.71875 -2.234375 L 0.953125 0.046875 C 0.828125 0.109375 0.765625 0.15625 0.765625 0.265625 C 0.765625 0.328125 0.828125 0.453125 0.96875 0.453125 C 0.96875 0.453125 1.015625 0.453125 1.125 0.40625 Z M 6.171875 -2.03125 "/>
</g>
<g id="glyph-2-0">
<path d="M 2.421875 -0.296875 C 3.03125 -0.296875 3.421875 -0.46875 3.71875 -0.640625 L 3.71875 -1.203125 C 3.484375 -1.078125 3.09375 -0.890625 2.5 -0.890625 C 1.546875 -0.890625 1.078125 -1.390625 1.078125 -2.53125 L 1.078125 -2.734375 C 1.078125 -3.75 1.609375 -4.296875 2.40625 -4.296875 C 2.984375 -4.296875 3.28125 -4.1875 3.671875 -4.015625 L 3.671875 -4.578125 C 3.375 -4.765625 3.03125 -4.875 2.4375 -4.875 C 1.296875 -4.875 0.375 -4.203125 0.375 -2.625 L 0.375 -2.5 C 0.375 -1.046875 1.15625 -0.296875 2.421875 -0.296875 Z M 2.421875 -0.296875 "/>
</g>
<g id="glyph-2-1">
<path d="M 0.65625 -0.375 L 1.34375 -0.375 L 1.34375 -3.859375 C 1.65625 -4.078125 2.078125 -4.234375 2.53125 -4.234375 C 2.59375 -4.234375 2.734375 -4.234375 2.84375 -4.21875 L 2.84375 -4.828125 C 2.796875 -4.828125 2.671875 -4.84375 2.578125 -4.84375 C 2.078125 -4.84375 1.59375 -4.578125 1.34375 -4.296875 L 1.296875 -4.296875 L 1.296875 -4.796875 L 0.65625 -4.796875 Z M 0.65625 -0.375 "/>
</g>
<g id="glyph-2-2">
<path d="M 2.46875 -0.296875 C 3.1875 -0.296875 3.6875 -0.515625 3.96875 -0.703125 L 3.96875 -1.21875 C 3.5625 -1.03125 3.171875 -0.890625 2.578125 -0.890625 C 1.625 -0.890625 1.109375 -1.3125 1.078125 -2.421875 L 4.09375 -2.421875 L 4.09375 -2.796875 C 4.09375 -4.171875 3.515625 -4.875 2.296875 -4.875 C 1.28125 -4.875 0.375 -4.1875 0.375 -2.65625 L 0.375 -2.53125 C 0.375 -1.140625 1.078125 -0.296875 2.46875 -0.296875 Z M 2.28125 -4.328125 C 3 -4.328125 3.375 -3.921875 3.375 -2.96875 L 1.078125 -2.96875 C 1.140625 -4 1.734375 -4.328125 2.28125 -4.328125 Z M 2.28125 -4.328125 "/>
</g>
<g id="glyph-2-3">
<path d="M 1.734375 -0.296875 C 2.328125 -0.296875 2.703125 -0.515625 2.90625 -0.765625 L 2.953125 -0.765625 L 3.03125 -0.375 L 3.578125 -0.375 L 3.578125 -3.578125 C 3.578125 -4.484375 3.03125 -4.875 2.0625 -4.875 C 1.546875 -4.875 1.125 -4.796875 0.734375 -4.640625 L 0.734375 -4.15625 C 1.015625 -4.234375 1.359375 -4.296875 1.796875 -4.296875 C 2.59375 -4.296875 2.890625 -4.109375 2.890625 -3.421875 L 2.890625 -2.96875 L 1.6875 -2.8125 C 0.84375 -2.71875 0.34375 -2.3125 0.34375 -1.53125 C 0.34375 -0.703125 0.921875 -0.296875 1.734375 -0.296875 Z M 1.90625 -0.828125 C 1.390625 -0.828125 1.0625 -1.078125 1.0625 -1.546875 C 1.0625 -2.0625 1.328125 -2.28125 1.875 -2.34375 L 2.890625 -2.453125 L 2.890625 -1.15625 C 2.703125 -0.96875 2.3125 -0.828125 1.90625 -0.828125 Z M 1.90625 -0.828125 "/>
</g>
<g id="glyph-2-4">
<path d="M 2.046875 -0.328125 C 2.4375 -0.328125 2.625 -0.421875 2.796875 -0.5 L 2.796875 -0.96875 C 2.625 -0.90625 2.421875 -0.890625 2.234375 -0.890625 C 1.71875 -0.890625 1.578125 -1.046875 1.578125 -1.484375 L 1.578125 -4.234375 L 2.71875 -4.234375 L 2.71875 -4.796875 L 1.578125 -4.796875 L 1.578125 -5.84375 L 0.90625 -5.84375 L 0.90625 -4.796875 L 0.265625 -4.796875 L 0.265625 -4.234375 L 0.90625 -4.234375 L 0.90625 -1.375 C 0.90625 -0.625 1.359375 -0.328125 2.046875 -0.328125 Z M 2.046875 -0.328125 "/>
</g>
<g id="glyph-2-5">
<path d="M 2.234375 -0.296875 C 2.828125 -0.296875 3.25 -0.484375 3.53125 -0.734375 L 3.5625 -0.734375 L 3.640625 -0.375 L 4.21875 -0.375 L 4.21875 -6.765625 L 3.53125 -6.765625 L 3.53125 -4.578125 C 3.28125 -4.734375 2.90625 -4.875 2.359375 -4.875 C 1.21875 -4.875 0.390625 -4.1875 0.390625 -2.578125 L 0.390625 -2.46875 C 0.390625 -0.828125 1.34375 -0.296875 2.234375 -0.296875 Z M 2.4375 -0.859375 C 1.640625 -0.859375 1.109375 -1.25 1.109375 -2.484375 L 1.109375 -2.671875 C 1.109375 -3.859375 1.609375 -4.296875 2.453125 -4.296875 C 2.90625 -4.296875 3.3125 -4.171875 3.53125 -4.015625 L 3.53125 -1.234375 C 3.296875 -1.046875 2.953125 -0.859375 2.4375 -0.859375 Z M 2.4375 -0.859375 "/>
</g>
<g id="glyph-2-6">
<path d="M 1.984375 -0.296875 C 2.515625 -0.296875 2.984375 -0.5 3.390625 -0.78125 L 3.421875 -0.78125 L 3.484375 -0.375 L 4.078125 -0.375 L 4.078125 -4.796875 L 3.40625 -4.796875 L 3.40625 -1.234375 C 3.03125 -1.046875 2.640625 -0.890625 2.171875 -0.890625 C 1.515625 -0.890625 1.3125 -1.109375 1.3125 -1.6875 L 1.3125 -4.796875 L 0.625 -4.796875 L 0.625 -1.59375 C 0.625 -0.734375 1.109375 -0.296875 1.984375 -0.296875 Z M 1.984375 -0.296875 "/>
</g>
<g id="glyph-2-7">
<path d="M 0.65625 -0.375 L 1.328125 -0.375 L 1.328125 -3.96875 C 1.6875 -4.140625 2.15625 -4.296875 2.578125 -4.296875 C 3.28125 -4.296875 3.46875 -4.0625 3.46875 -3.53125 L 3.46875 -0.375 L 4.15625 -0.375 L 4.15625 -3.671875 C 4.15625 -4.53125 3.734375 -4.875 2.859375 -4.875 C 2.3125 -4.875 1.75 -4.6875 1.34375 -4.421875 L 1.296875 -4.421875 L 1.296875 -4.796875 L 0.65625 -4.796875 Z M 0.65625 -0.375 "/>
</g>
<g id="glyph-2-8">
<path d="M 0.671875 -0.375 L 1.359375 -0.375 L 1.359375 -4.796875 L 0.671875 -4.796875 Z M 0.671875 -5.6875 L 1.359375 -5.6875 L 1.359375 -6.390625 L 0.671875 -6.390625 Z M 0.671875 -5.6875 "/>
</g>
<g id="glyph-2-9">
<path d="M 2.1875 0.9375 C 3.703125 0.9375 4.3125 0.34375 4.3125 -0.421875 C 4.3125 -1.234375 3.71875 -1.484375 2.90625 -1.484375 L 1.6875 -1.484375 C 1.390625 -1.484375 1.25 -1.5625 1.25 -1.8125 C 1.25 -1.953125 1.34375 -2.0625 1.453125 -2.171875 C 1.6875 -2.09375 1.9375 -2.046875 2.21875 -2.046875 C 3.140625 -2.046875 3.875 -2.515625 3.875 -3.46875 C 3.875 -3.8125 3.75 -4.09375 3.546875 -4.28125 L 4.34375 -4.28125 L 4.34375 -4.8125 L 2.84375 -4.8125 C 2.65625 -4.859375 2.4375 -4.875 2.21875 -4.875 C 1.25 -4.875 0.546875 -4.375 0.546875 -3.453125 L 0.546875 -3.4375 C 0.546875 -2.90625 0.765625 -2.546875 1.109375 -2.328125 C 0.765625 -2.078125 0.609375 -1.875 0.609375 -1.59375 C 0.609375 -1.296875 0.796875 -1.109375 1.046875 -1.046875 L 1.046875 -1 C 0.59375 -0.84375 0.21875 -0.578125 0.21875 -0.09375 C 0.21875 0.546875 0.84375 0.9375 2.1875 0.9375 Z M 2.171875 0.40625 C 1.296875 0.40625 0.921875 0.203125 0.921875 -0.1875 C 0.921875 -0.5625 1.1875 -0.765625 1.53125 -0.875 L 2.796875 -0.875 C 3.375 -0.875 3.59375 -0.734375 3.59375 -0.328125 C 3.59375 0.140625 3.21875 0.40625 2.171875 0.40625 Z M 2.21875 -2.578125 C 1.625 -2.578125 1.234375 -2.859375 1.234375 -3.4375 L 1.234375 -3.484375 C 1.234375 -4.046875 1.609375 -4.359375 2.21875 -4.359375 C 2.8125 -4.359375 3.1875 -4.09375 3.1875 -3.484375 L 3.1875 -3.4375 C 3.1875 -2.859375 2.828125 -2.578125 2.21875 -2.578125 Z M 2.21875 -2.578125 "/>
</g>
<g id="glyph-2-10">
<path d="M 1.78125 -0.296875 C 2.75 -0.296875 3.34375 -0.765625 3.34375 -1.609375 C 3.34375 -2.375 2.984375 -2.65625 2.140625 -2.875 L 1.6875 -3 C 1.21875 -3.140625 1.03125 -3.296875 1.03125 -3.6875 C 1.03125 -4.09375 1.328125 -4.296875 1.921875 -4.296875 C 2.421875 -4.296875 2.859375 -4.1875 3.09375 -4.0625 L 3.09375 -4.625 C 2.859375 -4.75 2.484375 -4.875 1.890625 -4.875 C 0.875 -4.875 0.390625 -4.375 0.390625 -3.625 C 0.390625 -2.875 0.828125 -2.578125 1.46875 -2.40625 L 1.90625 -2.28125 C 2.46875 -2.125 2.671875 -1.9375 2.671875 -1.53125 C 2.671875 -1.140625 2.375 -0.890625 1.671875 -0.890625 C 1.046875 -0.890625 0.734375 -1.015625 0.34375 -1.15625 L 0.34375 -0.609375 C 0.71875 -0.40625 1.203125 -0.296875 1.78125 -0.296875 Z M 1.78125 -0.296875 "/>
</g>
<g id="glyph-2-11">
<path d="M 0.65625 0.953125 L 1.34375 0.953125 L 1.34375 -0.59375 C 1.59375 -0.453125 1.96875 -0.296875 2.46875 -0.296875 C 3.6875 -0.296875 4.46875 -0.96875 4.46875 -2.59375 L 4.46875 -2.703125 C 4.46875 -4.34375 3.625 -4.875 2.65625 -4.875 C 2.09375 -4.875 1.625 -4.6875 1.34375 -4.4375 L 1.3125 -4.4375 L 1.3125 -4.796875 L 0.65625 -4.796875 Z M 2.40625 -0.859375 C 1.9375 -0.859375 1.546875 -1 1.34375 -1.171875 L 1.34375 -3.984375 C 1.546875 -4.125 1.96875 -4.296875 2.484375 -4.296875 C 3.296875 -4.296875 3.75 -3.921875 3.75 -2.671875 L 3.75 -2.484375 C 3.75 -1.296875 3.25 -0.859375 2.40625 -0.859375 Z M 2.40625 -0.859375 "/>
</g>
<g id="glyph-2-12">
<path d="M 2.375 -0.296875 C 3.5625 -0.296875 4.390625 -1.140625 4.390625 -2.546875 L 4.390625 -2.671875 C 4.390625 -4.0625 3.625 -4.875 2.375 -4.875 C 1.1875 -4.875 0.375 -4.046875 0.375 -2.640625 L 0.375 -2.5 C 0.375 -1.09375 1.125 -0.296875 2.375 -0.296875 Z M 2.390625 -0.859375 C 1.65625 -0.859375 1.078125 -1.265625 1.078125 -2.484375 L 1.078125 -2.71875 C 1.078125 -3.75 1.5625 -4.3125 2.375 -4.3125 C 3.09375 -4.3125 3.6875 -3.921875 3.6875 -2.6875 L 3.6875 -2.46875 C 3.6875 -1.421875 3.1875 -0.859375 2.390625 -0.859375 Z M 2.390625 -0.859375 "/>
</g>
<g id="glyph-3-0">
<path d="M 2.140625 -0.265625 C 2.6875 -0.265625 3.046875 -0.421875 3.296875 -0.578125 L 3.296875 -1.0625 C 3.09375 -0.953125 2.75 -0.78125 2.21875 -0.78125 C 1.375 -0.78125 0.953125 -1.234375 0.953125 -2.234375 L 0.953125 -2.4375 C 0.953125 -3.328125 1.421875 -3.8125 2.140625 -3.8125 C 2.65625 -3.8125 2.90625 -3.71875 3.25 -3.5625 L 3.25 -4.078125 C 3 -4.234375 2.6875 -4.328125 2.171875 -4.328125 C 1.15625 -4.328125 0.328125 -3.734375 0.328125 -2.34375 L 0.328125 -2.21875 C 0.328125 -0.921875 1.015625 -0.265625 2.140625 -0.265625 Z M 2.140625 -0.265625 "/>
</g>
<g id="glyph-3-1">
<path d="M 2.109375 -0.265625 C 3.171875 -0.265625 3.890625 -1 3.890625 -2.25 L 3.890625 -2.375 C 3.890625 -3.609375 3.21875 -4.328125 2.109375 -4.328125 C 1.046875 -4.328125 0.328125 -3.59375 0.328125 -2.34375 L 0.328125 -2.21875 C 0.328125 -0.96875 1 -0.265625 2.109375 -0.265625 Z M 2.125 -0.765625 C 1.46875 -0.765625 0.953125 -1.109375 0.953125 -2.203125 L 0.953125 -2.40625 C 0.953125 -3.328125 1.390625 -3.828125 2.109375 -3.828125 C 2.75 -3.828125 3.28125 -3.484375 3.28125 -2.390625 L 3.28125 -2.1875 C 3.28125 -1.265625 2.84375 -0.765625 2.125 -0.765625 Z M 2.125 -0.765625 "/>
</g>
<g id="glyph-3-2">
<path d="M 0.0625 0.453125 L 2.59375 0.453125 L 2.59375 0.046875 L 0.0625 0.046875 Z M 0.0625 0.453125 "/>
</g>
<g id="glyph-3-3">
<path d="M 1.53125 -0.265625 C 2.0625 -0.265625 2.40625 -0.453125 2.578125 -0.671875 L 2.625 -0.671875 L 2.6875 -0.328125 L 3.171875 -0.328125 L 3.171875 -3.171875 C 3.171875 -3.984375 2.6875 -4.328125 1.828125 -4.328125 C 1.375 -4.328125 1 -4.265625 0.65625 -4.125 L 0.65625 -3.6875 C 0.90625 -3.75 1.21875 -3.8125 1.59375 -3.8125 C 2.296875 -3.8125 2.5625 -3.65625 2.5625 -3.046875 L 2.5625 -2.625 L 1.5 -2.5 C 0.75 -2.421875 0.3125 -2.046875 0.3125 -1.359375 C 0.3125 -0.625 0.828125 -0.265625 1.53125 -0.265625 Z M 1.6875 -0.734375 C 1.234375 -0.734375 0.9375 -0.953125 0.9375 -1.375 C 0.9375 -1.828125 1.1875 -2.03125 1.65625 -2.078125 L 2.5625 -2.171875 L 2.5625 -1.015625 C 2.40625 -0.859375 2.046875 -0.734375 1.6875 -0.734375 Z M 1.6875 -0.734375 "/>
</g>
<g id="glyph-3-4">
<path d="M 1.34375 -0.328125 L 1.953125 -0.328125 L 2.890625 -3.328125 L 2.90625 -3.328125 L 3.8125 -0.328125 L 4.421875 -0.328125 L 5.546875 -4.265625 L 4.96875 -4.265625 L 4.15625 -1.109375 L 4.125 -1.109375 L 3.171875 -4.265625 L 2.65625 -4.265625 L 1.71875 -1.109375 L 1.671875 -1.109375 L 0.875 -4.265625 L 0.21875 -4.265625 Z M 1.34375 -0.328125 "/>
</g>
<g id="glyph-3-5">
<path d="M 0.609375 -0.328125 L 1.203125 -0.328125 L 1.203125 -4.25 L 0.609375 -4.25 Z M 0.59375 -5.046875 L 1.21875 -5.046875 L 1.21875 -5.6875 L 0.59375 -5.6875 Z M 0.59375 -5.046875 "/>
</g>
<g id="glyph-3-6">
<path d="M 1.828125 -0.28125 C 2.15625 -0.28125 2.328125 -0.375 2.484375 -0.4375 L 2.484375 -0.859375 C 2.328125 -0.8125 2.140625 -0.78125 1.984375 -0.78125 C 1.53125 -0.78125 1.40625 -0.9375 1.40625 -1.3125 L 1.40625 -3.75 L 2.40625 -3.75 L 2.40625 -4.25 L 1.40625 -4.25 L 1.40625 -5.1875 L 0.796875 -5.1875 L 0.796875 -4.25 L 0.234375 -4.25 L 0.234375 -3.75 L 0.796875 -3.75 L 0.796875 -1.21875 C 0.796875 -0.546875 1.203125 -0.28125 1.828125 -0.28125 Z M 1.828125 -0.28125 "/>
</g>
<g id="glyph-3-7">
<path d="M 0.578125 -0.328125 L 1.1875 -0.328125 L 1.1875 -3.421875 C 1.46875 -3.625 1.84375 -3.765625 2.234375 -3.765625 C 2.3125 -3.765625 2.421875 -3.75 2.53125 -3.734375 L 2.53125 -4.28125 C 2.484375 -4.296875 2.375 -4.296875 2.296875 -4.296875 C 1.84375 -4.296875 1.421875 -4.078125 1.203125 -3.8125 L 1.15625 -3.8125 L 1.15625 -4.265625 L 0.578125 -4.265625 Z M 0.578125 -0.328125 "/>
</g>
<g id="glyph-3-8">
<path d="M 2.1875 -0.265625 C 2.828125 -0.265625 3.28125 -0.453125 3.515625 -0.625 L 3.515625 -1.078125 C 3.15625 -0.90625 2.8125 -0.78125 2.296875 -0.78125 C 1.453125 -0.78125 0.984375 -1.171875 0.953125 -2.140625 L 3.625 -2.140625 L 3.625 -2.484375 C 3.625 -3.703125 3.125 -4.328125 2.046875 -4.328125 C 1.140625 -4.328125 0.328125 -3.71875 0.328125 -2.359375 L 0.328125 -2.234375 C 0.328125 -1.015625 0.953125 -0.265625 2.1875 -0.265625 Z M 2.03125 -3.84375 C 2.671875 -3.84375 3 -3.484375 3 -2.625 L 0.953125 -2.625 C 1.015625 -3.5625 1.53125 -3.84375 2.03125 -3.84375 Z M 2.03125 -3.84375 "/>
</g>
<g id="glyph-3-9">
<path d="M 1.578125 -0.265625 C 2.4375 -0.265625 2.96875 -0.6875 2.96875 -1.421875 C 2.96875 -2.109375 2.65625 -2.359375 1.90625 -2.5625 L 1.5 -2.671875 C 1.078125 -2.78125 0.921875 -2.9375 0.921875 -3.265625 C 0.921875 -3.640625 1.1875 -3.8125 1.71875 -3.8125 C 2.140625 -3.8125 2.546875 -3.71875 2.75 -3.609375 L 2.75 -4.109375 C 2.546875 -4.21875 2.203125 -4.328125 1.671875 -4.328125 C 0.78125 -4.328125 0.34375 -3.875 0.34375 -3.21875 C 0.34375 -2.546875 0.734375 -2.296875 1.296875 -2.125 L 1.6875 -2.03125 C 2.1875 -1.890625 2.375 -1.734375 2.375 -1.359375 C 2.375 -1 2.109375 -0.78125 1.484375 -0.78125 C 0.9375 -0.78125 0.65625 -0.90625 0.3125 -1.03125 L 0.3125 -0.546875 C 0.640625 -0.359375 1.0625 -0.265625 1.578125 -0.265625 Z M 1.578125 -0.265625 "/>
</g>
<g id="glyph-3-10">
<path d="M 1.765625 -0.265625 C 2.234375 -0.265625 2.65625 -0.4375 3.015625 -0.6875 L 3.046875 -0.6875 L 3.09375 -0.328125 L 3.625 -0.328125 L 3.625 -4.265625 L 3.015625 -4.265625 L 3.015625 -1.09375 C 2.6875 -0.9375 2.34375 -0.78125 1.921875 -0.78125 C 1.34375 -0.78125 1.171875 -0.984375 1.171875 -1.5 L 1.171875 -4.265625 L 0.546875 -4.265625 L 0.546875 -1.40625 C 0.546875 -0.65625 0.984375 -0.265625 1.765625 -0.265625 Z M 1.765625 -0.265625 "/>
</g>
<g id="glyph-3-11">
<path d="M 0.578125 -0.328125 L 1.1875 -0.328125 L 1.1875 -3.53125 C 1.5 -3.671875 1.84375 -3.8125 2.171875 -3.8125 C 2.703125 -3.8125 2.890625 -3.609375 2.890625 -3.140625 L 2.890625 -0.328125 L 3.5 -0.328125 L 3.5 -3.265625 C 3.5 -3.359375 3.484375 -3.4375 3.46875 -3.53125 C 3.84375 -3.6875 4.171875 -3.8125 4.484375 -3.8125 C 5.015625 -3.8125 5.203125 -3.609375 5.203125 -3.140625 L 5.203125 -0.328125 L 5.796875 -0.328125 L 5.796875 -3.265625 C 5.796875 -4.03125 5.40625 -4.328125 4.71875 -4.328125 C 4.28125 -4.328125 3.8125 -4.171875 3.390625 -3.890625 L 3.359375 -3.890625 C 3.171875 -4.1875 2.859375 -4.328125 2.421875 -4.328125 C 1.96875 -4.328125 1.546875 -4.15625 1.1875 -3.921875 L 1.15625 -3.921875 L 1.15625 -4.265625 L 0.578125 -4.265625 Z M 0.578125 -0.328125 "/>
</g>
<g id="glyph-3-12">
<path d="M 0.578125 -0.328125 L 1.1875 -0.328125 L 1.1875 -3.53125 C 1.5 -3.671875 1.921875 -3.8125 2.296875 -3.8125 C 2.921875 -3.8125 3.078125 -3.609375 3.078125 -3.140625 L 3.078125 -0.328125 L 3.6875 -0.328125 L 3.6875 -3.265625 C 3.6875 -4.03125 3.3125 -4.328125 2.546875 -4.328125 C 2.0625 -4.328125 1.546875 -4.15625 1.1875 -3.921875 L 1.15625 -3.921875 L 1.15625 -4.265625 L 0.578125 -4.265625 Z M 0.578125 -0.328125 "/>
</g>
<g id="glyph-3-13">
<path d="M 1.84375 -0.328125 L 2.46875 -0.328125 L 2.46875 -5.125 L 4.09375 -5.125 L 4.09375 -5.640625 L 0.21875 -5.640625 L 0.21875 -5.125 L 1.84375 -5.125 Z M 1.84375 -0.328125 "/>
</g>
<g id="glyph-3-14">
<path d="M 0.578125 -0.328125 L 1.1875 -0.328125 L 1.1875 -6 L 0.578125 -6 Z M 2.90625 -0.328125 L 3.609375 -0.328125 L 1.9375 -2.40625 L 3.484375 -4.25 L 2.828125 -4.25 L 1.25 -2.359375 Z M 2.90625 -0.328125 "/>
</g>
<g id="glyph-3-15">
<path d="M 6.546875 -2.296875 L 6.546875 -2.796875 L 0.296875 -2.796875 L 0.296875 -2.296875 Z M 5.890625 0.40625 L 5.890625 -0.09375 L 1.71875 -0.09375 L 1.71875 -1.640625 L 1.109375 -1.640625 L 1.109375 0.40625 Z M 5.859375 -3.65625 L 5.859375 -4.15625 L 1.75 -4.15625 L 1.75 -6.078125 L 1.140625 -6.078125 L 1.140625 -3.65625 Z M 5.859375 -3.65625 "/>
</g>
<g id="glyph-3-16">
<path d="M 6.421875 -3.15625 L 0.015625 -3.15625 L 0.015625 -2.765625 L 6.421875 -2.765625 Z M 6.421875 -3.15625 "/>
</g>
<g id="glyph-3-17">
<path d="M 0.5 -5.25 L 2.0625 -5.25 C 2.0625 -4.9375 2.0625 -4.796875 2.046875 -4.703125 C 2.015625 -3.78125 1.15625 -2.90625 0.28125 -2.5625 L 0.625 -2.09375 C 1.375 -2.421875 2.171875 -3.171875 2.359375 -3.8125 C 2.640625 -3.1875 3.375 -2.53125 4.046875 -2.265625 L 4.375 -2.75 C 3.59375 -3.015625 2.734375 -3.796875 2.671875 -4.6875 C 2.671875 -4.796875 2.671875 -4.9375 2.671875 -5.25 L 4.21875 -5.25 L 4.21875 -5.765625 L 0.5 -5.765625 Z M 5.953125 -1.296875 L 5.953125 -6.375 L 5.359375 -6.375 L 5.359375 -4.4375 L 3.984375 -4.4375 L 3.984375 -3.9375 L 5.359375 -3.9375 L 5.359375 -1.296875 Z M 6.109375 0.328125 L 6.109375 -0.1875 L 2.046875 -0.1875 L 2.046875 -1.8125 L 1.4375 -1.8125 L 1.4375 0.328125 Z M 6.109375 0.328125 "/>
</g>
<g id="glyph-3-18">
<path d="M 5.734375 -6.375 L 5.140625 -6.375 L 5.140625 0.546875 L 5.734375 0.546875 L 5.734375 -2.984375 L 6.78125 -2.984375 L 6.78125 -3.484375 L 5.734375 -3.484375 Z M 2.296875 -5.609375 L 0.4375 -5.609375 L 0.4375 -5.109375 L 1.6875 -5.109375 C 1.671875 -3.96875 1.109375 -2.3125 0.078125 -1.390625 L 0.578125 -1.03125 C 1.734375 -2.25 2.296875 -3.859375 2.296875 -5.609375 Z M 4.1875 -5.609375 L 2.609375 -5.609375 L 2.609375 -5.109375 L 3.59375 -5.109375 C 3.59375 -4.046875 3.1875 -2.078125 2.046875 -0.9375 L 2.5625 -0.609375 C 3.796875 -2.078125 4.1875 -3.765625 4.1875 -5.609375 Z M 4.1875 -5.609375 "/>
</g>
<g id="glyph-3-19">
<path d="M 4.578125 -1.546875 C 3.625 -2.0625 2.75 -3.171875 2.75 -4.46875 L 2.75 -5.171875 L 4.359375 -5.171875 L 4.359375 -5.671875 L 0.5 -5.671875 L 0.5 -5.171875 L 2.125 -5.171875 L 2.125 -4.453125 C 2.125 -3.15625 1.296875 -1.96875 0.28125 -1.375 L 0.65625 -0.9375 C 1.453125 -1.453125 2.203125 -2.34375 2.4375 -3.203125 C 2.671875 -2.390625 3.5625 -1.515625 4.203125 -1.09375 Z M 5.375 -6.375 L 5.375 0.546875 L 5.984375 0.546875 L 5.984375 -6.375 Z M 5.375 -6.375 "/>
</g>
<g id="glyph-3-20">
<path d="M 5.953125 -2.828125 L 5.953125 -6.375 L 5.359375 -6.375 L 5.359375 -2.828125 Z M 4.4375 -3.4375 C 3.578125 -3.75 2.671875 -4.421875 2.671875 -5.53125 L 2.671875 -6.125 L 2.0625 -6.125 L 2.0625 -5.515625 C 2.0625 -4.40625 1.1875 -3.578125 0.28125 -3.21875 L 0.625 -2.75 C 1.453125 -3.15625 2.171875 -3.828125 2.390625 -4.546875 C 2.703125 -3.8125 3.40625 -3.234375 4.09375 -2.96875 Z M 6.21875 0.46875 L 6.21875 -0.015625 L 2.0625 -0.015625 L 2.0625 -0.796875 L 5.953125 -0.796875 L 5.953125 -2.453125 L 1.4375 -2.453125 L 1.4375 -1.953125 L 5.359375 -1.953125 L 5.359375 -1.25 L 1.453125 -1.25 L 1.453125 0.46875 Z M 6.21875 0.46875 "/>
</g>
<g id="glyph-3-21">
<path d="M 3.828125 -1.515625 C 2.984375 -2.078125 2.328125 -2.9375 2.328125 -4.296875 L 2.328125 -5.046875 L 3.65625 -5.046875 L 3.65625 -5.546875 L 0.359375 -5.546875 L 0.359375 -5.046875 L 1.734375 -5.046875 L 1.734375 -4.28125 C 1.734375 -2.9375 1 -1.84375 0.1875 -1.3125 L 0.59375 -0.890625 C 1.265625 -1.375 1.890625 -2.1875 2.03125 -2.96875 C 2.234375 -2.234375 2.96875 -1.421875 3.453125 -1.078125 Z M 4.765625 0.203125 L 4.765625 -6.203125 L 4.171875 -6.203125 L 4.171875 -3.828125 L 3.0625 -3.828125 L 3.0625 -3.328125 L 4.171875 -3.328125 L 4.171875 0.203125 Z M 6.140625 0.546875 L 6.140625 -6.375 L 5.546875 -6.375 L 5.546875 0.546875 Z M 6.140625 0.546875 "/>
</g>
<g id="glyph-3-22">
<path d="M 1.03125 -5.640625 L 1.03125 -5.140625 L 5.15625 -5.140625 L 5.15625 -4.59375 C 5.15625 -4.390625 5.140625 -4.171875 5.140625 -3.921875 L 0.84375 -3.765625 L 0.9375 -3.234375 L 5.109375 -3.453125 C 5.046875 -2.78125 4.984375 -2.140625 4.90625 -1.8125 L 5.484375 -1.75 C 5.6875 -2.625 5.765625 -3.984375 5.765625 -4.90625 L 5.765625 -5.640625 Z M 6.546875 -0.390625 L 6.546875 -0.890625 L 3.34375 -0.890625 L 3.34375 -2.71875 L 2.75 -2.71875 L 2.75 -0.890625 L 0.296875 -0.890625 L 0.296875 -0.390625 Z M 6.546875 -0.390625 "/>
</g>
<g id="glyph-3-23">
<path d="M 5.796875 -2.421875 L 5.796875 -2.921875 L 1.6875 -2.921875 L 1.6875 -5.1875 L 5.734375 -5.1875 L 5.734375 -5.6875 L 1.078125 -5.6875 L 1.078125 -2.421875 Z M 6.546875 -0.390625 L 6.546875 -0.90625 L 0.296875 -0.90625 L 0.296875 -0.390625 Z M 6.546875 -0.390625 "/>
</g>
<g id="glyph-3-24">
<path d="M 5.625 -6.375 L 5.015625 -6.375 L 5.015625 0.546875 L 5.625 0.546875 L 5.625 -2.96875 L 6.75 -2.96875 L 6.75 -3.484375 L 5.625 -3.484375 Z M 3.828125 -5.625 L 0.578125 -5.625 L 0.578125 -5.125 L 3.171875 -5.125 C 3.046875 -3.5625 2.0625 -2.09375 0.328125 -1.296875 L 0.703125 -0.828125 C 2.484375 -1.75 3.78125 -3.375 3.828125 -5.625 Z M 3.828125 -5.625 "/>
</g>
<g id="glyph-3-25">
<path d="M 6.125 -0.640625 C 6.125 -1.359375 5.265625 -1.8125 3.796875 -1.8125 C 2.34375 -1.8125 1.46875 -1.359375 1.46875 -0.640625 C 1.46875 0.09375 2.34375 0.546875 3.796875 0.546875 C 5.265625 0.546875 6.125 0.09375 6.125 -0.640625 Z M 6.140625 -1.828125 L 6.140625 -6.375 L 5.53125 -6.375 L 5.53125 -4.375 L 4.703125 -4.375 L 4.703125 -6.25 L 4.109375 -6.25 L 4.109375 -2.078125 L 4.703125 -2.078125 L 4.703125 -3.875 L 5.53125 -3.875 L 5.53125 -1.828125 Z M 3.578125 -3.1875 C 3.578125 -3.875 2.9375 -4.265625 2.078125 -4.265625 C 1.234375 -4.265625 0.59375 -3.875 0.59375 -3.1875 C 0.59375 -2.5 1.234375 -2.109375 2.078125 -2.109375 C 2.9375 -2.109375 3.578125 -2.5 3.578125 -3.1875 Z M 3.796875 -1.3125 C 4.859375 -1.3125 5.515625 -1.046875 5.515625 -0.640625 C 5.515625 -0.21875 4.859375 0.046875 3.796875 0.046875 C 2.734375 0.046875 2.078125 -0.21875 2.078125 -0.640625 C 2.078125 -1.046875 2.734375 -1.3125 3.796875 -1.3125 Z M 3.765625 -4.578125 L 3.765625 -5.0625 L 0.234375 -5.0625 L 0.234375 -4.578125 Z M 2.984375 -3.1875 C 2.984375 -2.84375 2.59375 -2.59375 2.078125 -2.59375 C 1.578125 -2.59375 1.1875 -2.84375 1.1875 -3.1875 C 1.1875 -3.546875 1.578125 -3.78125 2.078125 -3.78125 C 2.578125 -3.78125 2.984375 -3.546875 2.984375 -3.1875 Z M 2.9375 -5.5625 L 2.9375 -6.078125 L 1.140625 -6.078125 L 1.140625 -5.5625 Z M 2.9375 -5.5625 "/>
</g>
<g id="glyph-3-26">
<path d="M 4.9375 -1.0625 L 4.890625 -1.546875 C 4.4375 -1.484375 3.640625 -1.4375 2.875 -1.40625 L 2.875 -2.859375 L 4.4375 -2.859375 L 4.4375 -3.34375 L 1.421875 -3.34375 L 1.421875 -5.171875 L 4.421875 -5.171875 L 4.421875 -5.671875 L 0.828125 -5.671875 L 0.828125 -2.859375 L 2.265625 -2.859375 L 2.265625 -1.375 C 1.53125 -1.359375 0.84375 -1.34375 0.3125 -1.34375 L 0.40625 -0.8125 C 0.859375 -0.8125 1.90625 -0.84375 2.671875 -0.890625 C 3.53125 -0.9375 4.390625 -1 4.9375 -1.0625 Z M 6.015625 0.546875 L 6.015625 -6.375 L 5.421875 -6.375 L 5.421875 0.546875 Z M 6.015625 0.546875 "/>
</g>
<g id="glyph-3-27">
<path d="M 6.671875 -4.28125 L 6.671875 -4.78125 L 5.625 -4.78125 L 5.625 -6.375 L 5.015625 -6.375 L 5.015625 -3.046875 L 5.625 -3.046875 L 5.625 -4.28125 Z M 5.375 -2.25 L 5.375 -2.734375 L 3.78125 -2.734375 L 3.78125 -2.25 Z M 6.296875 -1.4375 L 6.296875 -1.921875 L 2.828125 -1.921875 L 2.828125 -1.4375 Z M 5.859375 -0.296875 C 5.859375 -0.875 5.28125 -1.21875 4.546875 -1.21875 C 3.828125 -1.21875 3.25 -0.875 3.25 -0.296875 C 3.25 0.265625 3.828125 0.640625 4.546875 0.640625 C 5.28125 0.640625 5.859375 0.265625 5.859375 -0.296875 Z M 5.28125 -0.296875 C 5.28125 -0.015625 4.953125 0.171875 4.546875 0.171875 C 4.15625 0.171875 3.828125 -0.015625 3.828125 -0.296875 C 3.828125 -0.5625 4.15625 -0.75 4.546875 -0.75 C 4.953125 -0.75 5.28125 -0.578125 5.28125 -0.296875 Z M 3.03125 0.109375 L 2.921875 -0.390625 C 2.546875 -0.265625 1.921875 -0.15625 1.53125 -0.15625 L 1.53125 -2.125 L 0.9375 -2.125 L 0.9375 0.359375 C 1.8125 0.375 2.53125 0.25 3.03125 0.109375 Z M 2.171875 -6.03125 C 1.1875 -6.03125 0.375 -5.375 0.375 -4.390625 C 0.375 -3.40625 1.1875 -2.765625 2.171875 -2.765625 C 3.15625 -2.765625 3.96875 -3.40625 3.96875 -4.390625 C 3.96875 -5.375 3.15625 -6.03125 2.171875 -6.03125 Z M 2.171875 -5.515625 C 2.90625 -5.515625 3.375 -5.03125 3.375 -4.390625 C 3.375 -3.734375 2.890625 -3.28125 2.171875 -3.28125 C 1.46875 -3.28125 0.953125 -3.734375 0.953125 -4.390625 C 0.953125 -5.03125 1.46875 -5.515625 2.171875 -5.515625 Z M 2.171875 -5.515625 "/>
</g>
<g id="glyph-3-28">
<path d="M 6.546875 -2.515625 L 6.546875 -3.03125 L 0.296875 -3.03125 L 0.296875 -2.515625 Z M 5.796875 0.453125 L 5.796875 -1.796875 L 1.0625 -1.796875 L 1.0625 0.453125 Z M 5.1875 -0.046875 L 1.671875 -0.046875 L 1.671875 -1.3125 L 5.1875 -1.3125 Z M 5.84375 -4.890625 C 5.84375 -5.671875 4.9375 -6.1875 3.421875 -6.1875 C 1.90625 -6.1875 1.015625 -5.671875 1.015625 -4.890625 C 1.015625 -4.109375 1.90625 -3.59375 3.421875 -3.59375 C 4.9375 -3.59375 5.84375 -4.109375 5.84375 -4.890625 Z M 5.265625 -4.890625 C 5.265625 -4.375 4.53125 -4.078125 3.421875 -4.078125 C 2.3125 -4.078125 1.59375 -4.375 1.59375 -4.890625 C 1.59375 -5.40625 2.3125 -5.703125 3.421875 -5.703125 C 4.53125 -5.703125 5.265625 -5.40625 5.265625 -4.890625 Z M 5.265625 -4.890625 "/>
</g>
<g id="glyph-3-29">
<path d="M 0.328125 -0.140625 L 1.015625 -0.140625 L 1.015625 -0.84375 L 0.328125 -0.84375 Z M 0.328125 -0.140625 "/>
</g>
<g id="glyph-3-30">
<path d="M 0.578125 0.84375 L 1.1875 0.84375 L 1.1875 -0.515625 C 1.40625 -0.390625 1.75 -0.265625 2.1875 -0.265625 C 3.28125 -0.265625 3.96875 -0.859375 3.96875 -2.296875 L 3.96875 -2.40625 C 3.96875 -3.859375 3.21875 -4.328125 2.359375 -4.328125 C 1.859375 -4.328125 1.4375 -4.15625 1.203125 -3.9375 L 1.171875 -3.9375 L 1.171875 -4.25 L 0.578125 -4.25 Z M 2.140625 -0.765625 C 1.734375 -0.765625 1.375 -0.890625 1.1875 -1.03125 L 1.1875 -3.53125 C 1.375 -3.65625 1.75 -3.8125 2.203125 -3.8125 C 2.921875 -3.8125 3.328125 -3.484375 3.328125 -2.375 L 3.328125 -2.203125 C 3.328125 -1.15625 2.890625 -0.765625 2.140625 -0.765625 Z M 2.140625 -0.765625 "/>
</g>
<g id="glyph-3-31">
<path d="M 1.984375 -0.265625 C 2.515625 -0.265625 2.890625 -0.421875 3.125 -0.65625 L 3.15625 -0.65625 L 3.234375 -0.328125 L 3.734375 -0.328125 L 3.734375 -6 L 3.125 -6 L 3.125 -4.078125 C 2.921875 -4.203125 2.578125 -4.328125 2.09375 -4.328125 C 1.078125 -4.328125 0.34375 -3.71875 0.34375 -2.296875 L 0.34375 -2.1875 C 0.34375 -0.734375 1.203125 -0.265625 1.984375 -0.265625 Z M 2.15625 -0.765625 C 1.453125 -0.765625 0.984375 -1.109375 0.984375 -2.203125 L 0.984375 -2.375 C 0.984375 -3.4375 1.4375 -3.8125 2.171875 -3.8125 C 2.578125 -3.8125 2.953125 -3.703125 3.125 -3.5625 L 3.125 -1.09375 C 2.9375 -0.9375 2.625 -0.765625 2.15625 -0.765625 Z M 2.15625 -0.765625 "/>
</g>
<g id="glyph-3-32">
<path d="M 4.21875 -3.171875 C 3.4375 -3.453125 2.515625 -4.296875 2.515625 -5.390625 L 2.515625 -6.03125 L 1.90625 -6.03125 L 1.90625 -5.375 C 1.90625 -4.265625 1.171875 -3.40625 0.171875 -2.9375 L 0.5 -2.46875 C 1.3125 -2.890625 2.015625 -3.578125 2.234375 -4.3125 C 2.515625 -3.609375 3.1875 -3.015625 3.859375 -2.6875 Z M 5.71875 -0.78125 C 5.71875 -1.59375 4.84375 -2.109375 3.390625 -2.109375 C 1.9375 -2.109375 1.078125 -1.59375 1.078125 -0.78125 C 1.078125 0.046875 1.9375 0.546875 3.390625 0.546875 C 4.84375 0.546875 5.71875 0.046875 5.71875 -0.78125 Z M 3.390625 -1.609375 C 4.4375 -1.609375 5.109375 -1.3125 5.109375 -0.78125 C 5.109375 -0.25 4.4375 0.046875 3.390625 0.046875 C 2.34375 0.046875 1.6875 -0.25 1.6875 -0.78125 C 1.6875 -1.3125 2.34375 -1.609375 3.390625 -1.609375 Z M 6.671875 -3.984375 L 6.671875 -4.484375 L 5.625 -4.484375 L 5.625 -6.375 L 5.015625 -6.375 L 5.015625 -2.09375 L 5.625 -2.09375 L 5.625 -3.984375 Z M 6.671875 -3.984375 "/>
</g>
<g id="glyph-3-33">
<path d="M 6.140625 0.546875 L 6.140625 -6.375 L 5.546875 -6.375 L 5.546875 -3.578125 L 4.625 -3.578125 L 4.625 -6.203125 L 4.046875 -6.203125 L 4.046875 0.203125 L 4.625 0.203125 L 4.625 -3.078125 L 5.546875 -3.078125 L 5.546875 0.546875 Z M 1.171875 -1.6875 L 1.171875 -3.234375 L 3.1875 -3.234375 L 3.1875 -3.71875 L 1.171875 -3.71875 L 1.171875 -5.078125 L 3.28125 -5.078125 L 3.28125 -5.578125 L 0.5625 -5.578125 L 0.5625 -1.1875 L 0.9375 -1.1875 C 2.171875 -1.1875 3.015625 -1.25 3.671875 -1.390625 L 3.59375 -1.875 C 3.046875 -1.75 2.203125 -1.6875 1.421875 -1.6875 Z M 1.171875 -1.6875 "/>
</g>
<g id="glyph-3-34">
<path d="M 1.9375 -5.765625 C 0.921875 -5.765625 0.40625 -4.78125 0.40625 -3.40625 C 0.40625 -2 0.921875 -1.03125 1.9375 -1.03125 C 2.890625 -1.03125 3.390625 -1.875 3.453125 -3.125 L 4.203125 -3.125 L 4.203125 0.21875 L 4.78125 0.21875 L 4.78125 -6.234375 L 4.203125 -6.234375 L 4.203125 -3.625 L 3.453125 -3.625 C 3.40625 -4.890625 2.890625 -5.765625 1.9375 -5.765625 Z M 2.859375 -3.40625 C 2.859375 -2.28125 2.5 -1.5625 1.9375 -1.5625 C 1.375 -1.5625 1.015625 -2.28125 1.015625 -3.40625 C 1.015625 -4.515625 1.375 -5.234375 1.9375 -5.234375 C 2.5 -5.234375 2.859375 -4.515625 2.859375 -3.40625 Z M 6.140625 0.546875 L 6.140625 -6.375 L 5.546875 -6.375 L 5.546875 0.546875 Z M 6.140625 0.546875 "/>
</g>
<g id="glyph-3-35">
<path d="M 5.984375 0.546875 L 5.984375 -6.375 L 5.375 -6.375 L 5.375 -3.890625 L 3.765625 -3.890625 L 3.765625 -3.390625 L 5.375 -3.390625 L 5.375 0.546875 Z M 4.4375 -1.5625 C 3.5 -2.109375 2.671875 -3.234375 2.671875 -4.5 L 2.671875 -5.765625 L 2.046875 -5.765625 L 2.046875 -4.484375 C 2.046875 -3.25 1.25 -2.03125 0.234375 -1.390625 L 0.640625 -0.9375 C 1.4375 -1.515625 2.109375 -2.375 2.359375 -3.234375 C 2.640625 -2.40625 3.4375 -1.53125 4.078125 -1.09375 Z M 4.4375 -1.5625 "/>
</g>
<g id="glyph-3-36">
<path d="M 0.8125 -0.328125 L 1.421875 -0.328125 L 1.421875 -3.75 L 2.328125 -3.75 L 2.328125 -4.25 L 1.421875 -4.25 L 1.421875 -4.78125 C 1.421875 -5.328125 1.671875 -5.546875 2.140625 -5.546875 C 2.421875 -5.546875 2.578125 -5.515625 2.703125 -5.5 L 2.703125 -5.921875 C 2.5625 -6 2.34375 -6.0625 2.03125 -6.0625 C 1.328125 -6.0625 0.8125 -5.6875 0.8125 -4.828125 L 0.8125 -4.25 L 0.234375 -4.25 L 0.234375 -3.75 L 0.8125 -3.75 Z M 0.8125 -0.328125 "/>
</g>
<g id="glyph-3-37">
<path d="M 6.546875 -0.390625 L 6.546875 -0.90625 L 0.296875 -0.90625 L 0.296875 -0.390625 Z M 5.9375 -4.015625 C 5.9375 -5.0625 4.9375 -5.765625 3.421875 -5.765625 C 1.90625 -5.765625 0.90625 -5.0625 0.90625 -4.015625 C 0.90625 -2.953125 1.90625 -2.265625 3.421875 -2.265625 C 4.9375 -2.265625 5.9375 -2.953125 5.9375 -4.015625 Z M 5.34375 -4.015625 C 5.34375 -3.265625 4.578125 -2.78125 3.421875 -2.78125 C 2.265625 -2.78125 1.5 -3.265625 1.5 -4.015625 C 1.5 -4.765625 2.265625 -5.265625 3.421875 -5.265625 C 4.578125 -5.265625 5.34375 -4.765625 5.34375 -4.015625 Z M 5.34375 -4.015625 "/>
</g>
<g id="glyph-3-38">
<path d="M 6.546875 -0.328125 L 6.546875 -0.828125 L 3.71875 -0.828125 L 3.71875 -2.015625 L 5.96875 -2.015625 L 5.96875 -2.515625 L 1.671875 -2.515625 L 1.671875 -3.671875 L 5.78125 -3.671875 L 5.78125 -5.796875 L 1.0625 -5.796875 L 1.0625 -5.28125 L 5.171875 -5.28125 L 5.171875 -4.171875 L 1.0625 -4.171875 L 1.0625 -2.015625 L 3.109375 -2.015625 L 3.109375 -0.828125 L 0.296875 -0.828125 L 0.296875 -0.328125 Z M 6.546875 -0.328125 "/>
</g>
<g id="glyph-3-39">
<path d="M 5.796875 -2.21875 L 5.796875 -5.890625 L 5.1875 -5.890625 L 5.1875 -4.625 L 1.65625 -4.625 L 1.65625 -5.890625 L 1.046875 -5.890625 L 1.046875 -2.21875 L 3.109375 -2.21875 L 3.109375 -0.8125 L 0.296875 -0.8125 L 0.296875 -0.3125 L 6.546875 -0.3125 L 6.546875 -0.8125 L 3.71875 -0.8125 L 3.71875 -2.21875 Z M 5.1875 -2.71875 L 1.65625 -2.71875 L 1.65625 -4.125 L 5.1875 -4.125 Z M 5.1875 -2.71875 "/>
</g>
<g id="glyph-3-40">
<path d="M 6.25 -3.828125 C 5.21875 -3.921875 3.796875 -4.546875 3.75 -5.46875 L 5.984375 -5.46875 L 5.984375 -5.984375 L 0.859375 -5.984375 L 0.859375 -5.46875 L 3.109375 -5.46875 C 3.0625 -4.5625 1.78125 -3.921875 0.625 -3.8125 L 0.90625 -3.3125 C 2.125 -3.5 3.15625 -4.109375 3.421875 -4.734375 C 3.765625 -4.109375 4.8125 -3.515625 5.96875 -3.3125 Z M 6.546875 -2.140625 L 6.546875 -2.640625 L 3.71875 -2.640625 L 3.71875 -3.765625 L 3.109375 -3.765625 L 3.109375 -2.640625 L 0.296875 -2.640625 L 0.296875 -2.140625 Z M 5.90625 0.34375 L 5.90625 -0.171875 L 1.671875 -0.171875 L 1.671875 -1.609375 L 1.0625 -1.609375 L 1.0625 0.34375 Z M 5.90625 0.34375 "/>
</g>
<g id="glyph-3-41">
<path d="M 0.390625 -3.4375 C 0.390625 -1.96875 1.015625 -0.984375 2.140625 -0.984375 C 3.1875 -0.984375 3.8125 -1.859375 3.875 -3.1875 L 5.359375 -3.1875 L 5.359375 0.546875 L 5.953125 0.546875 L 5.953125 -6.375 L 5.359375 -6.375 L 5.359375 -3.703125 L 3.875 -3.703125 C 3.796875 -5.015625 3.1875 -5.890625 2.140625 -5.890625 C 1.015625 -5.890625 0.390625 -4.90625 0.390625 -3.4375 Z M 3.28125 -3.4375 C 3.28125 -2.3125 2.8125 -1.515625 2.140625 -1.515625 C 1.453125 -1.515625 0.984375 -2.3125 0.984375 -3.4375 C 0.984375 -4.578125 1.453125 -5.359375 2.140625 -5.359375 C 2.8125 -5.359375 3.28125 -4.578125 3.28125 -3.4375 Z M 3.28125 -3.4375 "/>
</g>
<g id="glyph-3-42">
<path d="M 5.640625 -6.375 L 5.03125 -6.375 L 5.03125 0.546875 L 5.640625 0.546875 L 5.640625 -3.109375 L 6.765625 -3.109375 L 6.765625 -3.625 L 5.640625 -3.625 Z M 1.1875 -1.65625 L 1.1875 -5.140625 L 3.859375 -5.140625 L 3.859375 -5.640625 L 0.578125 -5.640625 L 0.578125 -1.140625 L 1.25 -1.140625 C 2.453125 -1.140625 3.828125 -1.234375 4.578125 -1.375 L 4.5 -1.875 C 3.84375 -1.734375 2.46875 -1.65625 1.578125 -1.65625 Z M 1.1875 -1.65625 "/>
</g>
<g id="glyph-3-43">
<path d="M 5.890625 -3.0625 L 5.890625 -3.546875 L 1.6875 -3.546875 L 1.6875 -4.359375 L 5.765625 -4.359375 L 5.765625 -6.0625 L 1.078125 -6.0625 L 1.078125 -5.578125 L 5.15625 -5.578125 L 5.15625 -4.8125 L 1.078125 -4.8125 L 1.078125 -3.0625 Z M 6.546875 -1.90625 L 6.546875 -2.40625 L 0.296875 -2.40625 L 0.296875 -1.90625 Z M 5.84375 0.34375 L 5.84375 -0.15625 L 1.671875 -0.15625 L 1.671875 -1.453125 L 1.078125 -1.453125 L 1.078125 0.34375 Z M 5.84375 0.34375 "/>
</g>
<g id="glyph-3-44">
<path d="M 6.546875 -2.640625 L 6.546875 -3.140625 L 0.296875 -3.140625 L 0.296875 -2.640625 Z M 5.828125 -3.890625 L 5.828125 -4.390625 L 1.78125 -4.390625 L 1.78125 -6.1875 L 1.171875 -6.1875 L 1.171875 -3.890625 Z M 5.875 -0.78125 C 5.875 -1.59375 4.9375 -2.0625 3.4375 -2.0625 C 1.921875 -2.0625 1.015625 -1.59375 1.015625 -0.78125 C 1.015625 0.0625 1.921875 0.515625 3.4375 0.515625 C 4.9375 0.515625 5.875 0.0625 5.875 -0.78125 Z M 3.4375 -1.5625 C 4.53125 -1.5625 5.265625 -1.3125 5.265625 -0.78125 C 5.265625 -0.234375 4.53125 0.015625 3.4375 0.015625 C 2.34375 0.015625 1.625 -0.234375 1.625 -0.78125 C 1.625 -1.3125 2.34375 -1.5625 3.4375 -1.5625 Z M 3.4375 -1.5625 "/>
</g>
<g id="glyph-4-0">
<path d="M 5.671875 -4.09375 C 5.765625 -4.140625 5.84375 -4.1875 5.84375 -4.28125 C 5.84375 -4.390625 5.765625 -4.46875 5.65625 -4.46875 C 5.625 -4.46875 5.609375 -4.46875 5.515625 -4.40625 L 0.859375 -2.171875 C 0.765625 -2.125 0.703125 -2.078125 0.703125 -1.984375 C 0.703125 -1.875 0.765625 -1.828125 0.859375 -1.78125 L 5.515625 0.453125 C 5.609375 0.5 5.625 0.5 5.65625 0.5 C 5.765625 0.5 5.84375 0.421875 5.84375 0.328125 C 5.84375 0.21875 5.765625 0.171875 5.671875 0.125 L 1.296875 -1.984375 Z M 5.671875 -4.09375 "/>
</g>
<g id="glyph-4-1">
<path d="M 5.671875 -1.78125 C 5.765625 -1.828125 5.84375 -1.875 5.84375 -1.984375 C 5.84375 -2.078125 5.765625 -2.125 5.671875 -2.171875 L 1.015625 -4.40625 C 0.921875 -4.46875 0.90625 -4.46875 0.875 -4.46875 C 0.78125 -4.46875 0.703125 -4.390625 0.703125 -4.28125 C 0.703125 -4.1875 0.765625 -4.140625 0.859375 -4.09375 L 5.234375 -1.984375 L 0.859375 0.125 C 0.765625 0.171875 0.703125 0.21875 0.703125 0.328125 C 0.703125 0.421875 0.78125 0.5 0.875 0.5 C 0.90625 0.5 0.921875 0.5 1.015625 0.453125 Z M 5.671875 -1.78125 "/>
</g>
<g id="glyph-5-0">
<path d="M 0.484375 -0.328125 L 1.53125 -0.328125 L 1.53125 -6.109375 L 0.484375 -6.109375 Z M 0.484375 -0.328125 "/>
</g>
<g id="glyph-5-1">
<path d="M 1.515625 -0.25 C 2.03125 -0.25 2.375 -0.421875 2.5625 -0.65625 L 2.609375 -0.65625 L 2.6875 -0.328125 L 3.53125 -0.328125 L 3.53125 -3.265625 C 3.53125 -4.15625 2.96875 -4.5 2 -4.5 C 1.4375 -4.5 0.96875 -4.421875 0.578125 -4.28125 L 0.578125 -3.546875 C 0.84375 -3.625 1.203125 -3.671875 1.609375 -3.671875 C 2.28125 -3.671875 2.5 -3.5625 2.5 -3.046875 L 2.5 -2.765625 L 1.59375 -2.65625 C 0.765625 -2.546875 0.234375 -2.1875 0.234375 -1.421875 C 0.234375 -0.625 0.765625 -0.25 1.515625 -0.25 Z M 1.84375 -0.953125 C 1.5 -0.953125 1.25 -1.109375 1.25 -1.5 C 1.25 -1.875 1.4375 -2.015625 1.828125 -2.0625 L 2.5 -2.125 L 2.5 -1.1875 C 2.375 -1.046875 2.09375 -0.953125 1.84375 -0.953125 Z M 1.84375 -0.953125 "/>
</g>
<g id="glyph-5-2">
<path d="M 0.265625 -0.328125 L 3.46875 -0.328125 L 3.46875 -1.09375 L 1.484375 -1.09375 L 1.484375 -1.140625 L 3.5 -3.71875 L 3.5 -4.421875 L 0.34375 -4.421875 L 0.34375 -3.65625 L 2.21875 -3.65625 L 2.21875 -3.640625 L 0.265625 -1.0625 Z M 0.265625 -0.328125 "/>
</g>
<g id="glyph-5-3">
<path d="M 1.046875 0.828125 C 1.859375 0.828125 2.328125 0.328125 2.59375 -0.453125 L 4.078125 -4.421875 L 3.078125 -4.421875 L 2.171875 -2.015625 L 2.140625 -2.015625 L 1.1875 -4.421875 L 0.09375 -4.421875 L 1.625 -0.75 L 1.484375 -0.375 C 1.34375 -0.03125 1.1875 0.046875 0.8125 0.046875 C 0.671875 0.046875 0.515625 0.046875 0.390625 0 L 0.390625 0.703125 C 0.53125 0.78125 0.828125 0.828125 1.046875 0.828125 Z M 1.046875 0.828125 "/>
</g>
</g>
<clipPath id="clip-0">
<path clip-rule="nonzero" d="M 97 131 L 104 131 L 104 139 L 97 139 Z M 97 131 "/>
</clipPath>
<clipPath id="clip-1">
<path clip-rule="nonzero" d="M 107.511719 135.265625 C 107.511719 131.371094 104.359375 128.21875 100.464844 128.21875 C 96.574219 128.21875 93.417969 131.371094 93.417969 135.265625 C 93.417969 139.15625 96.574219 142.3125 100.464844 142.3125 C 104.359375 142.3125 107.511719 139.15625 107.511719 135.265625 Z M 107.511719 135.265625 "/>
</clipPath>
</defs>
<g fill="rgb(11.799622%, 11.799622%, 11.799622%)" fill-opacity="1">
<use xlink:href="#glyph-0-0" x="112.936259" y="20.094036"/>
<use xlink:href="#glyph-0-1" x="117.06429" y="20.094036"/>
<use xlink:href="#glyph-0-2" x="122.092821" y="20.094036"/>
<use xlink:href="#glyph-0-1" x="125.418427" y="20.094036"/>
<use xlink:href="#glyph-0-3" x="130.446957" y="20.094036"/>
<use xlink:href="#glyph-0-3" x="132.898811" y="20.094036"/>
</g>
<g fill="rgb(11.799622%, 11.799622%, 11.799622%)" fill-opacity="1">
<use xlink:href="#glyph-0-4" x="134.485829" y="20.094036"/>
</g>
<g fill="rgb(11.799622%, 11.799622%, 11.799622%)" fill-opacity="1">
<use xlink:href="#glyph-0-5" x="138.961578" y="20.094036"/>
<use xlink:href="#glyph-0-6" x="143.437326" y="20.094036"/>
<use xlink:href="#glyph-0-7" x="147.369209" y="20.094036"/>
</g>
<g fill="rgb(11.799622%, 11.799622%, 11.799622%)" fill-opacity="1">
<use xlink:href="#glyph-1-0" x="152.049428" y="20.094036"/>
</g>
<g fill="rgb(11.799622%, 11.799622%, 11.799622%)" fill-opacity="1">
<use xlink:href="#glyph-0-4" x="159.177004" y="20.094036"/>
</g>
<g fill="rgb(11.799622%, 11.799622%, 11.799622%)" fill-opacity="1">
<use xlink:href="#glyph-1-1" x="164.231338" y="20.094036"/>
</g>
<g fill="rgb(11.799622%, 11.799622%, 11.799622%)" fill-opacity="1">
<use xlink:href="#glyph-0-6" x="173.703616" y="20.094036"/>
<use xlink:href="#glyph-0-8" x="177.635499" y="20.094036"/>
<use xlink:href="#glyph-0-5" x="180.943273" y="20.094036"/>
<use xlink:href="#glyph-0-8" x="185.419022" y="20.094036"/>
<use xlink:href="#glyph-0-9" x="188.726796" y="20.094036"/>
</g>
<g fill="rgb(11.799622%, 11.799622%, 11.799622%)" fill-opacity="1">
<use xlink:href="#glyph-0-10" x="195.788136" y="20.094036"/>
<use xlink:href="#glyph-0-5" x="203.3131" y="20.094036"/>
<use xlink:href="#glyph-0-0" x="207.788848" y="20.094036"/>
<use xlink:href="#glyph-0-11" x="211.916879" y="20.094036"/>
<use xlink:href="#glyph-0-12" x="216.936494" y="20.094036"/>
<use xlink:href="#glyph-0-13" x="219.1922" y="20.094036"/>
<use xlink:href="#glyph-0-9" x="224.211814" y="20.094036"/>
</g>
<path fill-rule="nonzero" fill="rgb(11.764526%, 11.764526%, 11.764526%)" fill-opacity="1" stroke-width="0.49814" stroke-linecap="butt" stroke-linejoin="miter" stroke="rgb(11.764526%, 11.764526%, 11.764526%)" stroke-opacity="1" stroke-miterlimit="10" d="M -9.210742 85.039633 C -9.210742 87.781659 -11.434219 90.001208 -14.172317 90.001208 C -16.914343 90.001208 -19.133892 87.781659 -19.133892 85.039633 C -19.133892 82.301535 -16.914343 80.078058 -14.172317 80.078058 C -11.434219 80.078058 -9.210742 82.301535 -9.210742 85.039633 Z M -9.210742 85.039633 " transform="matrix(0.99436, 0, 0, -0.99436, 29.998642, 157.813955)"/>
<path fill-rule="nonzero" fill="rgb(86.274719%, 90.979004%, 96.862793%)" fill-opacity="1" stroke-width="0.49814" stroke-linecap="butt" stroke-linejoin="miter" stroke="rgb(28.234863%, 46.273804%, 71.372986%)" stroke-opacity="1" stroke-miterlimit="10" d="M 69.71483 96.380936 L 15.322143 96.380936 C 13.122237 96.380936 11.338741 94.593512 11.338741 92.393606 L 11.338741 77.68566 C 11.338741 75.485753 13.122237 73.702258 15.322143 73.702258 L 69.71483 73.702258 C 71.918665 73.702258 73.70216 75.485753 73.70216 77.68566 L 73.70216 92.393606 C 73.70216 94.593512 71.918665 96.380936 69.71483 96.380936 Z M 69.71483 96.380936 " transform="matrix(0.99436, 0, 0, -0.99436, 29.998642, 157.813955)"/>
<g fill="rgb(0%, 0%, 0%)" fill-opacity="1">
<use xlink:href="#glyph-2-0" x="58.178817" y="76.632378"/>
<use xlink:href="#glyph-2-1" x="62.190942" y="76.632378"/>
<use xlink:href="#glyph-2-2" x="65.275821" y="76.632378"/>
<use xlink:href="#glyph-2-3" x="69.733738" y="76.632378"/>
<use xlink:href="#glyph-2-4" x="73.942011" y="76.632378"/>
<use xlink:href="#glyph-2-2" x="77.062553" y="76.632378"/>
<use xlink:href="#glyph-2-5" x="81.52047" y="76.632378"/>
</g>
<path fill-rule="nonzero" fill="rgb(98.039246%, 98.039246%, 98.039246%)" fill-opacity="1" stroke-width="0.49814" stroke-linecap="butt" stroke-linejoin="miter" stroke="rgb(47.059631%, 47.059631%, 47.059631%)" stroke-opacity="1" stroke-miterlimit="10" d="M 168.930611 96.380936 L 114.537924 96.380936 C 112.338017 96.380936 110.550593 94.593512 110.550593 92.393606 L 110.550593 77.68566 C 110.550593 75.485753 112.338017 73.702258 114.537924 73.702258 L 168.930611 73.702258 C 171.130517 73.702258 172.914013 75.485753 172.914013 77.68566 L 172.914013 92.393606 C 172.914013 94.593512 171.130517 96.380936 168.930611 96.380936 Z M 168.930611 96.380936 " transform="matrix(0.99436, 0, 0, -0.99436, 29.998642, 157.813955)"/>
<g fill="rgb(0%, 0%, 0%)" fill-opacity="1">
<use xlink:href="#glyph-2-1" x="156.591667" y="75.981072"/>
<use xlink:href="#glyph-2-6" x="159.676545" y="75.981072"/>
<use xlink:href="#glyph-2-7" x="164.401937" y="75.981072"/>
<use xlink:href="#glyph-2-7" x="169.180824" y="75.981072"/>
<use xlink:href="#glyph-2-8" x="173.959711" y="75.981072"/>
<use xlink:href="#glyph-2-7" x="175.983605" y="75.981072"/>
<use xlink:href="#glyph-2-9" x="180.762492" y="75.981072"/>
</g>
<path fill-rule="nonzero" fill="rgb(97.645569%, 87.057495%, 87.057495%)" fill-opacity="1" stroke-width="0.49814" stroke-linecap="butt" stroke-linejoin="miter" stroke="rgb(77.253723%, 36.471558%, 36.471558%)" stroke-opacity="1" stroke-miterlimit="10" d="M 268.142463 96.380936 L 213.749776 96.380936 C 211.54987 96.380936 209.766374 94.593512 209.766374 92.393606 L 209.766374 77.68566 C 209.766374 75.485753 211.54987 73.702258 213.749776 73.702258 L 268.142463 73.702258 C 270.346298 73.702258 272.129794 75.485753 272.129794 77.68566 L 272.129794 92.393606 C 272.129794 94.593512 270.346298 96.380936 268.142463 96.380936 Z M 268.142463 96.380936 " transform="matrix(0.99436, 0, 0, -0.99436, 29.998642, 157.813955)"/>
<g fill="rgb(0%, 0%, 0%)" fill-opacity="1">
<use xlink:href="#glyph-2-10" x="249.388369" y="76.160057"/>
<use xlink:href="#glyph-2-6" x="253.08844" y="76.160057"/>
<use xlink:href="#glyph-2-10" x="257.813831" y="76.160057"/>
<use xlink:href="#glyph-2-11" x="261.513902" y="76.160057"/>
<use xlink:href="#glyph-2-2" x="266.373032" y="76.160057"/>
<use xlink:href="#glyph-2-7" x="270.830949" y="76.160057"/>
<use xlink:href="#glyph-2-5" x="275.609835" y="76.160057"/>
<use xlink:href="#glyph-2-2" x="280.468965" y="76.160057"/>
<use xlink:href="#glyph-2-5" x="284.926882" y="76.160057"/>
</g>
<path fill-rule="nonzero" fill="rgb(86.274719%, 94.119263%, 88.233948%)" fill-opacity="1" stroke-width="0.49814" stroke-linecap="butt" stroke-linejoin="miter" stroke="rgb(29.412842%, 54.902649%, 35.293579%)" stroke-opacity="1" stroke-miterlimit="10" d="M 168.930611 34.017517 L 114.537924 34.017517 C 112.338017 34.017517 110.550593 32.234021 110.550593 30.030186 L 110.550593 15.32224 C 110.550593 13.122334 112.338017 11.338838 114.537924 11.338838 L 168.930611 11.338838 C 171.130517 11.338838 172.914013 13.122334 172.914013 15.32224 L 172.914013 30.030186 C 172.914013 32.234021 171.130517 34.017517 168.930611 34.017517 Z M 168.930611 34.017517 " transform="matrix(0.99436, 0, 0, -0.99436, 29.998642, 157.813955)"/>
<g fill="rgb(0%, 0%, 0%)" fill-opacity="1">
<use xlink:href="#glyph-2-5" x="161.504802" y="138.64368"/>
<use xlink:href="#glyph-2-12" x="166.363931" y="138.64368"/>
<use xlink:href="#glyph-2-7" x="171.124987" y="138.64368"/>
<use xlink:href="#glyph-2-2" x="175.903873" y="138.64368"/>
</g>
<g clip-path="url(#clip-0)">
<g clip-path="url(#clip-1)">
<path fill-rule="nonzero" fill="rgb(11.799622%, 11.799622%, 11.799622%)" fill-opacity="1" d="M 103.847656 135.265625 C 103.847656 133.394531 102.335938 131.882812 100.464844 131.882812 C 98.597656 131.882812 97.082031 133.394531 97.082031 135.265625 C 97.082031 137.132812 98.597656 138.648438 100.464844 138.648438 C 102.335938 138.648438 103.847656 137.132812 103.847656 135.265625 Z M 103.847656 135.265625 "/>
</g>
</g>
<path fill="none" stroke-width="0.49814" stroke-linecap="butt" stroke-linejoin="miter" stroke="rgb(11.764526%, 11.764526%, 11.764526%)" stroke-opacity="1" stroke-miterlimit="10" d="M 77.952694 22.676213 C 77.952694 26.592833 74.782472 29.763055 70.865852 29.763055 C 66.953162 29.763055 63.779011 26.592833 63.779011 22.676213 C 63.779011 18.763523 66.953162 15.589372 70.865852 15.589372 C 74.782472 15.589372 77.952694 18.763523 77.952694 22.676213 Z M 77.952694 22.676213 " transform="matrix(0.99436, 0, 0, -0.99436, 29.998642, 157.813955)"/>
<path fill="none" stroke-width="0.49814" stroke-linecap="butt" stroke-linejoin="miter" stroke="rgb(31.373596%, 31.373596%, 31.373596%)" stroke-opacity="1" stroke-miterlimit="10" d="M -8.963253 85.039633 L 6.703224 85.039633 " transform="matrix(0.99436, 0, 0, -0.99436, 29.998642, 157.813955)"/>
<path fill-rule="nonzero" fill="rgb(31.373596%, 31.373596%, 31.373596%)" fill-opacity="1" stroke-width="0.49814" stroke-linecap="butt" stroke-linejoin="miter" stroke="rgb(31.373596%, 31.373596%, 31.373596%)" stroke-opacity="1" stroke-miterlimit="10" d="M 6.09379 -0.000787216 L 0.806158 1.990914 L 2.542513 -0.000787216 L 0.806158 -1.992488 Z M 6.09379 -0.000787216 " transform="matrix(0.99436, 0, 0, -0.99436, 34.260888, 73.253123)"/>
<path fill="none" stroke-width="0.49814" stroke-linecap="butt" stroke-linejoin="miter" stroke="rgb(31.373596%, 31.373596%, 31.373596%)" stroke-opacity="1" stroke-miterlimit="10" d="M 73.94965 85.039633 L 105.915076 85.039633 " transform="matrix(0.99436, 0, 0, -0.99436, 29.998642, 157.813955)"/>
<path fill-rule="nonzero" fill="rgb(31.373596%, 31.373596%, 31.373596%)" fill-opacity="1" stroke-width="0.49814" stroke-linecap="butt" stroke-linejoin="miter" stroke="rgb(31.373596%, 31.373596%, 31.373596%)" stroke-opacity="1" stroke-miterlimit="10" d="M 6.095731 -0.000787216 L 0.80417 1.990914 L 2.540525 -0.000787216 L 0.80417 -1.992488 Z M 6.095731 -0.000787216 " transform="matrix(0.99436, 0, 0, -0.99436, 132.915208, 73.253123)"/>
<path fill-rule="nonzero" fill="rgb(100%, 100%, 100%)" fill-opacity="0.85" d="M 105.5625 78.300781 L 137.652344 78.300781 L 137.652344 68.203125 L 105.5625 68.203125 Z M 105.5625 78.300781 "/>
<g fill="rgb(11.799622%, 11.799622%, 11.799622%)" fill-opacity="1">
<use xlink:href="#glyph-3-0" x="107.542848" y="75.868709"/>
<use xlink:href="#glyph-3-1" x="111.109167" y="75.868709"/>
<use xlink:href="#glyph-3-2" x="115.341198" y="75.868709"/>
<use xlink:href="#glyph-3-3" x="118.004049" y="75.868709"/>
</g>
<g fill="rgb(11.799622%, 11.799622%, 11.799622%)" fill-opacity="1">
<use xlink:href="#glyph-3-4" x="121.705095" y="75.868709"/>
</g>
<g fill="rgb(11.799622%, 11.799622%, 11.799622%)" fill-opacity="1">
<use xlink:href="#glyph-3-3" x="127.355729" y="75.868709"/>
<use xlink:href="#glyph-3-5" x="131.096401" y="75.868709"/>
<use xlink:href="#glyph-3-6" x="132.895411" y="75.868709"/>
</g>
<path fill="none" stroke-width="0.49814" stroke-linecap="butt" stroke-linejoin="miter" stroke="rgb(31.373596%, 31.373596%, 31.373596%)" stroke-opacity="1" stroke-miterlimit="10" d="M 141.734267 96.628426 C 176.799205 112.978445 205.881182 112.978445 236.970575 98.482633 " transform="matrix(0.99436, 0, 0, -0.99436, 29.998642, 157.813955)"/>
<path fill-rule="nonzero" fill="rgb(31.373596%, 31.373596%, 31.373596%)" fill-opacity="1" stroke-width="0.49814" stroke-linecap="butt" stroke-linejoin="miter" stroke="rgb(31.373596%, 31.373596%, 31.373596%)" stroke-opacity="1" stroke-miterlimit="10" d="M 6.095006 -0.000624613 L 0.804887 1.992892 L 2.539609 0.00165746 L 0.803185 -1.991355 Z M 6.095006 -0.000624613 " transform="matrix(0.901189, 0.420217, 0.420217, -0.901189, 263.45673, 58.871807)"/>
<path fill-rule="nonzero" fill="rgb(100%, 100%, 100%)" fill-opacity="0.85" d="M 204.214844 54.585938 L 236.304688 54.585938 L 236.304688 44.488281 L 204.214844 44.488281 Z M 204.214844 54.585938 "/>
<g fill="rgb(11.799622%, 11.799622%, 11.799622%)" fill-opacity="1">
<use xlink:href="#glyph-3-0" x="206.197327" y="52.151223"/>
<use xlink:href="#glyph-3-1" x="209.763646" y="52.151223"/>
<use xlink:href="#glyph-3-2" x="213.995677" y="52.151223"/>
<use xlink:href="#glyph-3-3" x="216.658529" y="52.151223"/>
</g>
<g fill="rgb(11.799622%, 11.799622%, 11.799622%)" fill-opacity="1">
<use xlink:href="#glyph-3-4" x="220.359575" y="52.151223"/>
</g>
<g fill="rgb(11.799622%, 11.799622%, 11.799622%)" fill-opacity="1">
<use xlink:href="#glyph-3-3" x="226.010208" y="52.151223"/>
<use xlink:href="#glyph-3-5" x="229.75088" y="52.151223"/>
<use xlink:href="#glyph-3-6" x="231.54989" y="52.151223"/>
</g>
<path fill="none" stroke-width="0.49814" stroke-linecap="butt" stroke-linejoin="miter" stroke="rgb(31.373596%, 31.373596%, 31.373596%)" stroke-opacity="1" stroke-miterlimit="10" d="M 240.94612 73.45084 C 205.881182 57.100821 176.799205 57.100821 145.709813 71.600561 " transform="matrix(0.99436, 0, 0, -0.99436, 29.998642, 157.813955)"/>
<path fill-rule="nonzero" fill="rgb(31.373596%, 31.373596%, 31.373596%)" fill-opacity="1" stroke-width="0.49814" stroke-linecap="butt" stroke-linejoin="miter" stroke="rgb(31.373596%, 31.373596%, 31.373596%)" stroke-opacity="1" stroke-miterlimit="10" d="M 6.092165 -0.000200992 L 0.803706 1.989755 L 2.541989 0.00018086 L 0.805565 -1.992832 Z M 6.092165 -0.000200992 " transform="matrix(-0.901189, -0.420217, -0.420217, 0.901189, 177.064326, 87.63443)"/>
<path fill-rule="nonzero" fill="rgb(100%, 100%, 100%)" fill-opacity="0.85" d="M 206.019531 101.117188 L 234.503906 101.117188 L 234.503906 92.820312 L 206.019531 92.820312 Z M 206.019531 101.117188 "/>
<g fill="rgb(11.799622%, 11.799622%, 11.799622%)" fill-opacity="1">
<use xlink:href="#glyph-3-7" x="208.000103" y="99.137738"/>
<use xlink:href="#glyph-3-8" x="210.742206" y="99.137738"/>
<use xlink:href="#glyph-3-9" x="214.704782" y="99.137738"/>
<use xlink:href="#glyph-3-10" x="217.99372" y="99.137738"/>
<use xlink:href="#glyph-3-11" x="222.194051" y="99.137738"/>
<use xlink:href="#glyph-3-8" x="228.557948" y="99.137738"/>
</g>
<path fill="none" stroke-width="0.49814" stroke-linecap="butt" stroke-linejoin="miter" stroke="rgb(31.373596%, 31.373596%, 31.373596%)" stroke-opacity="1" stroke-miterlimit="10" d="M 141.734267 73.45084 L 141.734267 38.653034 " transform="matrix(0.99436, 0, 0, -0.99436, 29.998642, 157.813955)"/>
<path fill-rule="nonzero" fill="rgb(31.373596%, 31.373596%, 31.373596%)" fill-opacity="1" stroke-width="0.49814" stroke-linecap="butt" stroke-linejoin="miter" stroke="rgb(31.373596%, 31.373596%, 31.373596%)" stroke-opacity="1" stroke-miterlimit="10" d="M 6.092463 0.000227351 L 0.80483 1.991928 L 2.541185 0.000227351 L 0.80483 -1.991474 Z M 6.092463 0.000227351 " transform="matrix(0, 0.99436, 0.99436, 0, 170.933368, 116.977052)"/>
<path fill-rule="nonzero" fill="rgb(100%, 100%, 100%)" fill-opacity="0.85" d="M 153.367188 109.0625 L 188.5 109.0625 L 188.5 99.457031 L 153.367188 99.457031 Z M 153.367188 109.0625 "/>
<g fill="rgb(11.799622%, 11.799622%, 11.799622%)" fill-opacity="1">
<use xlink:href="#glyph-3-0" x="155.348716" y="106.628256"/>
<use xlink:href="#glyph-3-1" x="158.915035" y="106.628256"/>
<use xlink:href="#glyph-3-2" x="163.147066" y="106.628256"/>
<use xlink:href="#glyph-3-7" x="165.809917" y="106.628256"/>
<use xlink:href="#glyph-3-8" x="168.55202" y="106.628256"/>
</g>
<g fill="rgb(11.799622%, 11.799622%, 11.799622%)" fill-opacity="1">
<use xlink:href="#glyph-3-6" x="172.546297" y="106.628256"/>
<use xlink:href="#glyph-3-10" x="175.3201" y="106.628256"/>
<use xlink:href="#glyph-3-7" x="179.520431" y="106.628256"/>
<use xlink:href="#glyph-3-12" x="182.262534" y="106.628256"/>
</g>
<path fill="none" stroke-width="0.49814" stroke-linecap="butt" stroke-linejoin="miter" stroke="rgb(31.373596%, 31.373596%, 31.373596%)" stroke-opacity="1" stroke-miterlimit="10" d="M 110.303104 22.676213 L 82.588211 22.676213 " transform="matrix(0.99436, 0, 0, -0.99436, 29.998642, 157.813955)"/>
<path fill-rule="nonzero" fill="rgb(31.373596%, 31.373596%, 31.373596%)" fill-opacity="1" stroke-width="0.49814" stroke-linecap="butt" stroke-linejoin="miter" stroke="rgb(31.373596%, 31.373596%, 31.373596%)" stroke-opacity="1" stroke-miterlimit="10" d="M 6.094775 0.00130665 L 0.803215 1.993008 L 2.539569 0.00130665 L 0.803215 -1.990394 Z M 6.094775 0.00130665 " transform="matrix(-0.99436, 0, 0, 0.99436, 114.525247, 135.264326)"/>
<path fill-rule="nonzero" fill="rgb(98.429871%, 93.725586%, 80.39093%)" fill-opacity="1" stroke-width="0.3985" stroke-linecap="butt" stroke-linejoin="miter" stroke="rgb(78.431702%, 65.489197%, 28.234863%)" stroke-opacity="1" stroke-miterlimit="10" d="M 388.705194 45.154543 L 218.624926 45.154543 C 216.974996 45.154543 215.63541 43.818886 215.63541 42.165027 L 215.63541 0.830357 C 215.63541 -0.819573 216.974996 -2.159159 218.624926 -2.159159 L 388.705194 -2.159159 C 390.355123 -2.159159 391.694709 -0.819573 391.694709 0.830357 L 391.694709 42.165027 C 391.694709 43.818886 390.355123 45.154543 388.705194 45.154543 Z M 388.705194 45.154543 " transform="matrix(0.99436, 0, 0, -0.99436, 29.998642, 157.813955)"/>
<g fill="rgb(0%, 0%, 0%)" fill-opacity="1">
<use xlink:href="#glyph-3-13" x="247.389704" y="122.256619"/>
</g>
<g fill="rgb(0%, 0%, 0%)" fill-opacity="1">
<use xlink:href="#glyph-3-3" x="251.098675" y="122.256619"/>
<use xlink:href="#glyph-3-9" x="254.839347" y="122.256619"/>
<use xlink:href="#glyph-3-14" x="258.128285" y="122.256619"/>
</g>
<g fill="rgb(0%, 0%, 0%)" fill-opacity="1">
<use xlink:href="#glyph-4-0" x="261.916316" y="122.256619"/>
</g>
<g fill="rgb(0%, 0%, 0%)" fill-opacity="1">
<use xlink:href="#glyph-3-13" x="268.465174" y="122.256619"/>
</g>
<g fill="rgb(0%, 0%, 0%)" fill-opacity="1">
<use xlink:href="#glyph-4-1" x="272.776721" y="122.256619"/>
</g>
<g fill="rgb(0%, 0%, 0%)" fill-opacity="1">
<use xlink:href="#glyph-3-15" x="281.967595" y="122.256619"/>
</g>
<g fill="rgb(0%, 0%, 0%)" fill-opacity="1">
<use xlink:href="#glyph-5-0" x="291.463737" y="122.256619"/>
<use xlink:href="#glyph-5-1" x="293.468801" y="122.256619"/>
<use xlink:href="#glyph-5-2" x="297.447227" y="122.256619"/>
<use xlink:href="#glyph-5-3" x="301.211675" y="122.256619"/>
</g>
<g fill="rgb(0%, 0%, 0%)" fill-opacity="1">
<use xlink:href="#glyph-3-16" x="308.029783" y="122.256619"/>
</g>
<g fill="rgb(0%, 0%, 0%)" fill-opacity="1">
<use xlink:href="#glyph-3-0" x="317.104082" y="122.256619"/>
<use xlink:href="#glyph-3-1" x="320.670401" y="122.256619"/>
<use xlink:href="#glyph-3-2" x="324.902432" y="122.256619"/>
<use xlink:href="#glyph-3-3" x="327.565283" y="122.256619"/>
</g>
<g fill="rgb(0%, 0%, 0%)" fill-opacity="1">
<use xlink:href="#glyph-3-4" x="331.274254" y="122.256619"/>
</g>
<g fill="rgb(0%, 0%, 0%)" fill-opacity="1">
<use xlink:href="#glyph-3-3" x="336.924888" y="122.256619"/>
<use xlink:href="#glyph-3-5" x="340.66556" y="122.256619"/>
<use xlink:href="#glyph-3-6" x="342.46457" y="122.256619"/>
</g>
<g fill="rgb(0%, 0%, 0%)" fill-opacity="1">
<use xlink:href="#glyph-3-17" x="347.869524" y="122.256619"/>
<use xlink:href="#glyph-3-18" x="354.72478" y="122.256619"/>
<use xlink:href="#glyph-3-19" x="361.580037" y="122.256619"/>
<use xlink:href="#glyph-3-15" x="368.435294" y="122.256619"/>
</g>
<g fill="rgb(0%, 0%, 0%)" fill-opacity="1">
<use xlink:href="#glyph-3-20" x="247.389704" y="133.649007"/>
<use xlink:href="#glyph-3-21" x="254.244961" y="133.649007"/>
</g>
<g fill="rgb(0%, 0%, 0%)" fill-opacity="1">
<use xlink:href="#glyph-3-22" x="263.739293" y="133.649007"/>
<use xlink:href="#glyph-3-23" x="270.59455" y="133.649007"/>
<use xlink:href="#glyph-3-24" x="277.449807" y="133.649007"/>
</g>
<g fill="rgb(0%, 0%, 0%)" fill-opacity="1">
<use xlink:href="#glyph-3-20" x="286.944139" y="133.649007"/>
<use xlink:href="#glyph-3-25" x="293.799396" y="133.649007"/>
<use xlink:href="#glyph-3-26" x="300.654653" y="133.649007"/>
<use xlink:href="#glyph-3-19" x="307.50991" y="133.649007"/>
</g>
<g fill="rgb(0%, 0%, 0%)" fill-opacity="1">
<use xlink:href="#glyph-3-27" x="317.004242" y="133.649007"/>
<use xlink:href="#glyph-3-28" x="323.859499" y="133.649007"/>
<use xlink:href="#glyph-3-29" x="330.714756" y="133.649007"/>
</g>
<g fill="rgb(0%, 0%, 0%)" fill-opacity="1">
<use xlink:href="#glyph-3-9" x="336.468416" y="133.649007"/>
<use xlink:href="#glyph-3-10" x="339.757355" y="133.649007"/>
<use xlink:href="#glyph-3-9" x="343.957685" y="133.649007"/>
<use xlink:href="#glyph-3-30" x="347.246624" y="133.649007"/>
<use xlink:href="#glyph-3-8" x="351.565832" y="133.649007"/>
<use xlink:href="#glyph-3-12" x="355.528408" y="133.649007"/>
<use xlink:href="#glyph-3-31" x="359.776289" y="133.649007"/>
<use xlink:href="#glyph-3-8" x="364.095497" y="133.649007"/>
<use xlink:href="#glyph-3-31" x="368.058074" y="133.649007"/>
</g>
<g fill="rgb(0%, 0%, 0%)" fill-opacity="1">
<use xlink:href="#glyph-3-32" x="247.389704" y="145.041395"/>
<use xlink:href="#glyph-3-33" x="254.244961" y="145.041395"/>
<use xlink:href="#glyph-3-34" x="261.100218" y="145.041395"/>
<use xlink:href="#glyph-3-35" x="267.955474" y="145.041395"/>
<use xlink:href="#glyph-3-15" x="274.810731" y="145.041395"/>
</g>
<g fill="rgb(0%, 0%, 0%)" fill-opacity="1">
<use xlink:href="#glyph-3-36" x="284.305064" y="145.041395"/>
<use xlink:href="#glyph-3-7" x="286.864888" y="145.041395"/>
</g>
<g fill="rgb(0%, 0%, 0%)" fill-opacity="1">
<use xlink:href="#glyph-3-3" x="289.527739" y="145.041395"/>
<use xlink:href="#glyph-3-11" x="293.268411" y="145.041395"/>
<use xlink:href="#glyph-3-8" x="299.632308" y="145.041395"/>
</g>
<g fill="rgb(0%, 0%, 0%)" fill-opacity="1">
<use xlink:href="#glyph-3-37" x="306.226035" y="145.041395"/>
<use xlink:href="#glyph-3-38" x="313.081292" y="145.041395"/>
</g>
<g fill="rgb(0%, 0%, 0%)" fill-opacity="1">
<use xlink:href="#glyph-3-39" x="322.575624" y="145.041395"/>
<use xlink:href="#glyph-3-40" x="329.430881" y="145.041395"/>
<use xlink:href="#glyph-3-26" x="336.286138" y="145.041395"/>
<use xlink:href="#glyph-3-41" x="343.141395" y="145.041395"/>
</g>
<g fill="rgb(0%, 0%, 0%)" fill-opacity="1">
<use xlink:href="#glyph-3-42" x="352.643652" y="145.041395"/>
<use xlink:href="#glyph-3-43" x="359.498909" y="145.041395"/>
</g>
<g fill="rgb(0%, 0%, 0%)" fill-opacity="1">
<use xlink:href="#glyph-3-6" x="247.389704" y="156.433783"/>
<use xlink:href="#glyph-3-3" x="250.163507" y="156.433783"/>
<use xlink:href="#glyph-3-9" x="253.904179" y="156.433783"/>
<use xlink:href="#glyph-3-14" x="257.193118" y="156.433783"/>
</g>
<g fill="rgb(0%, 0%, 0%)" fill-opacity="1">
<use xlink:href="#glyph-3-24" x="263.620416" y="156.433783"/>
</g>
<g fill="rgb(0%, 0%, 0%)" fill-opacity="1">
<use xlink:href="#glyph-3-20" x="273.114749" y="156.433783"/>
<use xlink:href="#glyph-3-25" x="279.970005" y="156.433783"/>
</g>
<g fill="rgb(0%, 0%, 0%)" fill-opacity="1">
<use xlink:href="#glyph-3-24" x="289.464338" y="156.433783"/>
<use xlink:href="#glyph-3-44" x="296.319595" y="156.433783"/>
</g>
</svg>
