<?xml version="1.0" encoding="UTF-8"?>
<svg xmlns="http://www.w3.org/2000/svg" xmlns:xlink="http://www.w3.org/1999/xlink" width="306.22pt" height="151.95pt" viewBox="0 0 306.22 151.95">
<defs>
<g>
<g id="glyph-0-0">
</g>
<g id="glyph-0-1">
<path d="M 2.90625 1.890625 C 2.90625 1.859375 2.90625 1.84375 2.8125 1.734375 C 2.3125 1.125 1.765625 0.15625 1.765625 -1.984375 C 1.765625 -4.328125 2.421875 -5.25 2.859375 -5.78125 C 2.890625 -5.8125 2.90625 -5.828125 2.90625 -5.859375 C 2.90625 -5.96875 2.828125 -5.96875 2.703125 -5.96875 L 2.546875 -5.96875 C 2.40625 -5.96875 2.390625 -5.96875 2.25 -5.84375 C 1.296875 -5.03125 0.6875 -3.671875 0.6875 -1.984375 C 0.6875 -1.03125 0.875 0.640625 2.21875 1.84375 C 2.375 1.984375 2.390625 1.984375 2.546875 1.984375 L 2.703125 1.984375 C 2.828125 1.984375 2.90625 1.984375 2.90625 1.890625 Z M 2.90625 1.890625 "/>
</g>
<g id="glyph-0-2">
<path d="M 2.71875 -1.984375 C 2.71875 -2.953125 2.515625 -4.609375 1.1875 -5.8125 C 1.015625 -5.96875 1 -5.96875 0.84375 -5.96875 L 0.703125 -5.96875 C 0.578125 -5.96875 0.484375 -5.96875 0.484375 -5.859375 C 0.484375 -5.84375 0.484375 -5.828125 0.578125 -5.71875 C 1.078125 -5.109375 1.625 -4.125 1.625 -1.984375 C 1.625 0.34375 0.96875 1.265625 0.53125 1.796875 C 0.484375 1.859375 0.484375 1.890625 0.484375 1.890625 C 0.484375 1.984375 0.578125 1.984375 0.703125 1.984375 L 0.84375 1.984375 C 0.984375 1.984375 1 1.984375 1.140625 1.859375 C 2.09375 1.0625 2.71875 -0.296875 2.71875 -1.984375 Z M 2.71875 -1.984375 "/>
</g>
<g id="glyph-1-0">
<path d="M 1.65625 -3.203125 L 1.65625 -3.96875 L 0.890625 -3.96875 L 0.890625 -3.203125 Z M 1.65625 0 L 1.65625 -0.765625 L 0.890625 -0.765625 L 0.890625 0 Z M 1.65625 0 "/>
</g>
<g id="glyph-1-1">
<path d="M 4.578125 -1.703125 C 4.578125 -2.71875 3.75 -3.375 3.078125 -3.546875 L 2.1875 -3.75 C 1.71875 -3.859375 1.265625 -4.21875 1.265625 -4.734375 C 1.265625 -5.25 1.765625 -5.765625 2.578125 -5.765625 C 3.21875 -5.765625 3.671875 -5.578125 4.125 -5.1875 L 4.265625 -5.96875 C 3.828125 -6.1875 3.390625 -6.40625 2.578125 -6.40625 C 1.3125 -6.40625 0.515625 -5.515625 0.515625 -4.625 C 0.515625 -4.390625 0.546875 -4.046875 0.859375 -3.625 C 1.265625 -3.09375 1.84375 -2.953125 2.21875 -2.875 L 2.96875 -2.6875 C 3.375 -2.5625 3.828125 -2.15625 3.828125 -1.609375 C 3.828125 -1.015625 3.3125 -0.46875 2.515625 -0.46875 C 1.796875 -0.46875 1.125 -0.734375 0.546875 -1.203125 L 0.40625 -0.421875 C 1.28125 0.125 2.09375 0.203125 2.515625 0.203125 C 3.75 0.203125 4.578125 -0.71875 4.578125 -1.703125 Z M 4.578125 -1.703125 "/>
</g>
<g id="glyph-1-2">
<path d="M 4.015625 0 L 4.015625 -3.96875 L 3.265625 -3.96875 L 3.265625 -1.390625 C 3.265625 -0.671875 2.703125 -0.421875 2.171875 -0.421875 C 1.53125 -0.421875 1.46875 -0.640625 1.46875 -1.015625 L 1.46875 -3.96875 L 0.71875 -3.96875 L 0.71875 -0.96875 C 0.71875 -0.21875 1.03125 0.09375 1.65625 0.09375 C 2.1875 0.09375 2.875 -0.046875 3.296875 -0.421875 L 3.296875 0 Z M 4.015625 0 "/>
</g>
<g id="glyph-1-3">
<path d="M 4.421875 -2 C 4.421875 -3.078125 3.828125 -4.0625 2.953125 -4.0625 C 2.703125 -4.0625 2.0625 -4.015625 1.453125 -3.546875 L 1.453125 -6.203125 L 0.734375 -6.203125 L 0.734375 0 L 1.484375 0 L 1.484375 -0.421875 C 1.59375 -0.296875 2.0625 0.09375 2.71875 0.09375 C 3.640625 0.09375 4.421875 -0.796875 4.421875 -2 Z M 3.671875 -2 C 3.671875 -0.84375 2.90625 -0.484375 2.359375 -0.484375 C 1.78125 -0.484375 1.53125 -0.953125 1.484375 -1.03125 L 1.484375 -2.984375 C 1.625 -3.171875 1.9375 -3.484375 2.453125 -3.484375 C 2.984375 -3.484375 3.671875 -3.109375 3.671875 -2 Z M 3.671875 -2 "/>
</g>
<g id="glyph-1-4">
<path d="M 1.703125 0.53125 L 1.703125 -3.96875 L 0.984375 -3.96875 L 0.984375 0.609375 C 0.984375 1.203125 0.453125 1.21875 0.3125 1.21875 C 0.0625 1.21875 -0.15625 1.125 -0.359375 0.953125 L -0.5625 1.53125 C -0.109375 1.78125 0.3125 1.828125 0.546875 1.828125 C 1.15625 1.828125 1.703125 1.34375 1.703125 0.53125 Z M 1.703125 -5.03125 L 1.703125 -5.890625 L 0.84375 -5.890625 L 0.84375 -5.03125 Z M 1.703125 -5.03125 "/>
</g>
<g id="glyph-1-5">
<path d="M 3.8125 -1.953125 C 3.8125 -2.234375 3.8125 -2.90625 3.453125 -3.453125 C 3.078125 -4.015625 2.515625 -4.125 2.171875 -4.125 C 1.140625 -4.125 0.3125 -3.15625 0.3125 -2.015625 C 0.3125 -0.84375 1.1875 0.09375 2.3125 0.09375 C 2.734375 0.09375 3.25 -0.015625 3.765625 -0.34375 L 3.71875 -0.953125 C 3.15625 -0.546875 2.625 -0.484375 2.3125 -0.484375 C 1.578125 -0.484375 1 -1.140625 0.96875 -1.953125 Z M 3.28125 -2.484375 L 1.03125 -2.484375 C 1.171875 -3.0625 1.609375 -3.546875 2.171875 -3.546875 C 2.5 -3.546875 3.109375 -3.390625 3.28125 -2.484375 Z M 3.28125 -2.484375 "/>
</g>
<g id="glyph-1-6">
<path d="M 3.8125 -0.328125 L 3.765625 -0.96875 C 3.328125 -0.671875 2.859375 -0.515625 2.328125 -0.515625 C 1.5625 -0.515625 1.0625 -1.140625 1.0625 -2 C 1.0625 -2.6875 1.40625 -3.515625 2.359375 -3.515625 C 2.921875 -3.515625 3.203125 -3.40625 3.65625 -3.09375 L 3.765625 -3.734375 C 3.265625 -4.015625 3 -4.125 2.34375 -4.125 C 1.078125 -4.125 0.328125 -3.046875 0.328125 -1.984375 C 0.328125 -0.875 1.15625 0.09375 2.3125 0.09375 C 2.9375 0.09375 3.421875 -0.09375 3.8125 -0.328125 Z M 3.8125 -0.328125 "/>
</g>
<g id="glyph-1-7">
<path d="M 3.0625 -0.234375 L 2.90625 -0.796875 C 2.671875 -0.609375 2.359375 -0.515625 2.078125 -0.515625 C 1.734375 -0.515625 1.625 -0.828125 1.625 -1.28125 L 1.625 -3.421875 L 2.90625 -3.421875 L 2.90625 -3.96875 L 1.625 -3.96875 L 1.625 -5.109375 L 0.953125 -5.109375 L 0.953125 -3.96875 L 0.171875 -3.96875 L 0.171875 -3.421875 L 0.921875 -3.421875 L 0.921875 -1.125 C 0.921875 -0.59375 1.046875 0.09375 1.703125 0.09375 C 2.09375 0.09375 2.5625 0.015625 3.0625 -0.234375 Z M 3.0625 -0.234375 "/>
</g>
<g id="glyph-1-8">
<path d="M 6.265625 -3.078125 C 6.265625 -4.953125 4.9375 -6.40625 3.390625 -6.40625 C 1.84375 -6.40625 0.515625 -4.953125 0.515625 -3.078125 C 0.515625 -1.21875 1.84375 0.203125 3.390625 0.203125 C 4.9375 0.203125 6.265625 -1.21875 6.265625 -3.078125 Z M 5.40625 -3.203125 C 5.40625 -1.53125 4.453125 -0.421875 3.390625 -0.421875 C 2.328125 -0.421875 1.375 -1.53125 1.375 -3.203125 C 1.375 -4.84375 2.375 -5.796875 3.390625 -5.796875 C 4.40625 -5.796875 5.40625 -4.828125 5.40625 -3.203125 Z M 5.40625 -3.203125 "/>
</g>
<g id="glyph-1-9">
<path d="M 3.3125 -1.15625 C 3.3125 -1.46875 3.1875 -1.78125 2.875 -2.046875 C 2.5625 -2.3125 2.296875 -2.359375 1.75 -2.46875 C 1.421875 -2.53125 0.96875 -2.609375 0.96875 -3.03125 C 0.96875 -3.5625 1.609375 -3.5625 1.75 -3.5625 C 2.390625 -3.5625 2.78125 -3.359375 3.03125 -3.203125 L 3.15625 -3.828125 C 2.59375 -4.078125 2.1875 -4.125 1.828125 -4.125 C 1.625 -4.125 0.296875 -4.125 0.296875 -2.9375 C 0.296875 -2.515625 0.5625 -2.25 0.65625 -2.140625 C 1 -1.84375 1.234375 -1.8125 1.84375 -1.6875 C 2.125 -1.640625 2.640625 -1.53125 2.640625 -1.078125 C 2.640625 -0.5 1.90625 -0.5 1.796875 -0.5 C 1.265625 -0.5 0.765625 -0.671875 0.375 -0.953125 L 0.265625 -0.296875 C 0.796875 -0.015625 1.34375 0.09375 1.796875 0.09375 C 2.375 0.09375 3.3125 -0.09375 3.3125 -1.15625 Z M 3.3125 -1.15625 "/>
</g>
<g id="glyph-1-10">
<path d="M 3 -3.421875 L 3 -4.0625 C 2.359375 -4.0625 1.765625 -3.734375 1.40625 -3.203125 L 1.40625 -4.015625 L 0.734375 -4.015625 L 0.734375 0 L 1.453125 0 L 1.453125 -1.90625 C 1.453125 -2.84375 2.1875 -3.421875 3 -3.421875 Z M 3 -3.421875 "/>
</g>
<g id="glyph-1-11">
<path d="M 4.109375 -3.96875 L 3.390625 -3.96875 C 3.015625 -2.984375 3 -2.96875 2.6875 -2.15625 C 2.515625 -1.6875 2.1875 -0.828125 2.140625 -0.484375 L 2.125 -0.484375 C 2.09375 -0.640625 2.078125 -0.8125 1.578125 -2.09375 L 0.859375 -3.96875 L 0.125 -3.96875 L 1.703125 0 L 2.53125 0 Z M 4.109375 -3.96875 "/>
</g>
<g id="glyph-2-0">
<path d="M 0.5 -0.296875 L 1.03125 -0.296875 L 1.03125 -3.09375 C 1.328125 -3.21875 1.6875 -3.34375 2.015625 -3.34375 C 2.5625 -3.34375 2.703125 -3.171875 2.703125 -2.75 L 2.703125 -0.296875 L 3.234375 -0.296875 L 3.234375 -2.859375 C 3.234375 -3.53125 2.90625 -3.796875 2.234375 -3.796875 C 1.8125 -3.796875 1.359375 -3.65625 1.046875 -3.4375 L 1.015625 -3.4375 L 1.015625 -3.734375 L 0.5 -3.734375 Z M 0.5 -0.296875 "/>
</g>
<g id="glyph-2-1">
<path d="M 1.84375 -0.234375 C 2.78125 -0.234375 3.421875 -0.890625 3.421875 -1.984375 L 3.421875 -2.078125 C 3.421875 -3.171875 2.828125 -3.796875 1.859375 -3.796875 C 0.921875 -3.796875 0.296875 -3.15625 0.296875 -2.0625 L 0.296875 -1.953125 C 0.296875 -0.859375 0.875 -0.234375 1.84375 -0.234375 Z M 1.859375 -0.671875 C 1.28125 -0.671875 0.828125 -0.984375 0.828125 -1.9375 L 0.828125 -2.109375 C 0.828125 -2.921875 1.21875 -3.359375 1.84375 -3.359375 C 2.40625 -3.359375 2.875 -3.046875 2.875 -2.09375 L 2.875 -1.921875 C 2.875 -1.109375 2.484375 -0.671875 1.859375 -0.671875 Z M 1.859375 -0.671875 "/>
</g>
<g id="glyph-2-2">
<path d="M 1.59375 -0.25 C 1.890625 -0.25 2.046875 -0.328125 2.1875 -0.390625 L 2.1875 -0.75 C 2.046875 -0.703125 1.890625 -0.6875 1.734375 -0.6875 C 1.34375 -0.6875 1.234375 -0.828125 1.234375 -1.15625 L 1.234375 -3.296875 L 2.109375 -3.296875 L 2.109375 -3.734375 L 1.234375 -3.734375 L 1.234375 -4.546875 L 0.703125 -4.546875 L 0.703125 -3.734375 L 0.203125 -3.734375 L 0.203125 -3.296875 L 0.703125 -3.296875 L 0.703125 -1.078125 C 0.703125 -0.484375 1.0625 -0.25 1.59375 -0.25 Z M 1.59375 -0.25 "/>
</g>
<g id="glyph-2-3">
<path d="M 0.53125 -0.296875 L 1.0625 -0.296875 L 1.0625 -3.734375 L 0.53125 -3.734375 Z M 0.515625 -4.421875 L 1.0625 -4.421875 L 1.0625 -4.984375 L 0.515625 -4.984375 Z M 0.515625 -4.421875 "/>
</g>
<g id="glyph-2-4">
<path d="M 0.703125 -0.296875 L 1.25 -0.296875 L 1.25 -3.296875 L 2.03125 -3.296875 L 2.03125 -3.734375 L 1.25 -3.734375 L 1.25 -4.203125 C 1.25 -4.671875 1.46875 -4.875 1.890625 -4.875 C 2.125 -4.875 2.265625 -4.84375 2.375 -4.828125 L 2.375 -5.203125 C 2.25 -5.265625 2.0625 -5.3125 1.78125 -5.3125 C 1.15625 -5.3125 0.703125 -5 0.703125 -4.234375 L 0.703125 -3.734375 L 0.203125 -3.734375 L 0.203125 -3.296875 L 0.703125 -3.296875 Z M 0.703125 -0.296875 "/>
</g>
<g id="glyph-2-5">
<path d="M 1.921875 -0.234375 C 2.484375 -0.234375 2.875 -0.40625 3.09375 -0.546875 L 3.09375 -0.953125 C 2.78125 -0.796875 2.46875 -0.6875 2.015625 -0.6875 C 1.265625 -0.6875 0.859375 -1.015625 0.828125 -1.890625 L 3.1875 -1.890625 L 3.1875 -2.1875 C 3.1875 -3.25 2.734375 -3.796875 1.796875 -3.796875 C 1 -3.796875 0.296875 -3.265625 0.296875 -2.0625 L 0.296875 -1.96875 C 0.296875 -0.890625 0.84375 -0.234375 1.921875 -0.234375 Z M 1.78125 -3.375 C 2.34375 -3.375 2.625 -3.0625 2.625 -2.3125 L 0.828125 -2.3125 C 0.890625 -3.125 1.34375 -3.375 1.78125 -3.375 Z M 1.78125 -3.375 "/>
</g>
<g id="glyph-2-6">
<path d="M 1.390625 -0.234375 C 2.140625 -0.234375 2.59375 -0.59375 2.59375 -1.25 C 2.59375 -1.84375 2.328125 -2.078125 1.671875 -2.25 L 1.328125 -2.34375 C 0.953125 -2.453125 0.8125 -2.578125 0.8125 -2.875 C 0.8125 -3.1875 1.03125 -3.34375 1.5 -3.34375 C 1.890625 -3.34375 2.234375 -3.265625 2.40625 -3.171875 L 2.40625 -3.609375 C 2.234375 -3.703125 1.9375 -3.796875 1.46875 -3.796875 C 0.6875 -3.796875 0.296875 -3.40625 0.296875 -2.828125 C 0.296875 -2.234375 0.640625 -2.015625 1.140625 -1.875 L 1.484375 -1.78125 C 1.921875 -1.65625 2.078125 -1.515625 2.078125 -1.203125 C 2.078125 -0.890625 1.859375 -0.6875 1.3125 -0.6875 C 0.828125 -0.6875 0.5625 -0.796875 0.265625 -0.90625 L 0.265625 -0.484375 C 0.5625 -0.3125 0.9375 -0.234375 1.390625 -0.234375 Z M 1.390625 -0.234375 "/>
</g>
<g id="glyph-3-0">
<path d="M 1.828125 -0.234375 C 3.078125 -0.234375 3.625 -0.859375 3.625 -1.796875 C 3.625 -2.6875 3.125 -3.015625 2.328125 -3.296875 L 1.8125 -3.453125 C 1.203125 -3.671875 1.015625 -3.890625 1.015625 -4.390625 C 1.015625 -4.90625 1.375 -5.21875 2.03125 -5.21875 C 2.609375 -5.21875 3.03125 -5.078125 3.34375 -4.9375 L 3.34375 -5.46875 C 3.046875 -5.609375 2.6875 -5.765625 2.046875 -5.765625 C 0.9375 -5.765625 0.390625 -5.171875 0.390625 -4.34375 C 0.390625 -3.53125 0.8125 -3.15625 1.5625 -2.90625 L 2.078125 -2.71875 C 2.71875 -2.515625 2.984375 -2.296875 2.984375 -1.734375 C 2.984375 -1.15625 2.625 -0.78125 1.8125 -0.78125 C 1.234375 -0.78125 0.71875 -0.921875 0.3125 -1.125 L 0.3125 -0.59375 C 0.671875 -0.390625 1.171875 -0.234375 1.828125 -0.234375 Z M 1.828125 -0.234375 "/>
</g>
<g id="glyph-3-1">
<path d="M 1.765625 -0.265625 C 2.25 -0.265625 2.671875 -0.453125 3.015625 -0.6875 L 3.046875 -0.6875 L 3.109375 -0.328125 L 3.640625 -0.328125 L 3.640625 -4.28125 L 3.03125 -4.28125 L 3.03125 -1.09375 C 2.703125 -0.9375 2.359375 -0.78125 1.9375 -0.78125 C 1.359375 -0.78125 1.171875 -1 1.171875 -1.5 L 1.171875 -4.28125 L 0.5625 -4.28125 L 0.5625 -1.421875 C 0.5625 -0.65625 1 -0.265625 1.765625 -0.265625 Z M 1.765625 -0.265625 "/>
</g>
<g id="glyph-3-2">
<path d="M 2.015625 -0.25 C 3.296875 -0.25 3.984375 -1 3.984375 -2.3125 L 3.984375 -2.421875 C 3.984375 -3.890625 3.203125 -4.34375 2.453125 -4.34375 C 1.90625 -4.34375 1.53125 -4.203125 1.234375 -4.015625 L 1.1875 -4.015625 L 1.1875 -6.03125 L 0.578125 -6.03125 L 0.578125 -0.46875 C 0.9375 -0.328125 1.5625 -0.25 2.015625 -0.25 Z M 2.046875 -0.75 C 1.65625 -0.75 1.375 -0.8125 1.1875 -0.90625 L 1.1875 -3.578125 C 1.40625 -3.671875 1.765625 -3.828125 2.171875 -3.828125 C 2.96875 -3.828125 3.34375 -3.46875 3.34375 -2.375 L 3.34375 -2.21875 C 3.34375 -1.09375 2.765625 -0.75 2.046875 -0.75 Z M 2.046875 -0.75 "/>
</g>
<g id="glyph-3-3">
<path d="M 0.15625 0.84375 C 0.90625 0.84375 1.203125 0.40625 1.203125 -0.21875 L 1.203125 -4.28125 L 0.609375 -4.28125 L 0.609375 -0.265625 C 0.609375 0.171875 0.375 0.34375 -0.015625 0.34375 C -0.140625 0.34375 -0.296875 0.3125 -0.421875 0.28125 L -0.421875 0.71875 C -0.28125 0.796875 -0.109375 0.84375 0.15625 0.84375 Z M 0.59375 -5.078125 L 1.21875 -5.078125 L 1.21875 -5.703125 L 0.59375 -5.703125 Z M 0.59375 -5.078125 "/>
</g>
<g id="glyph-3-4">
<path d="M 2.203125 -0.265625 C 2.84375 -0.265625 3.296875 -0.46875 3.53125 -0.625 L 3.53125 -1.078125 C 3.171875 -0.921875 2.828125 -0.78125 2.296875 -0.78125 C 1.453125 -0.78125 0.984375 -1.171875 0.953125 -2.15625 L 3.640625 -2.15625 L 3.640625 -2.5 C 3.640625 -3.71875 3.140625 -4.34375 2.046875 -4.34375 C 1.140625 -4.34375 0.328125 -3.734375 0.328125 -2.359375 L 0.328125 -2.25 C 0.328125 -1.015625 0.96875 -0.265625 2.203125 -0.265625 Z M 2.03125 -3.859375 C 2.6875 -3.859375 3 -3.5 3 -2.640625 L 0.953125 -2.640625 C 1.015625 -3.578125 1.546875 -3.859375 2.03125 -3.859375 Z M 2.03125 -3.859375 "/>
</g>
<g id="glyph-3-5">
<path d="M 2.15625 -0.265625 C 2.703125 -0.265625 3.046875 -0.421875 3.3125 -0.578125 L 3.3125 -1.0625 C 3.109375 -0.953125 2.765625 -0.78125 2.234375 -0.78125 C 1.390625 -0.78125 0.96875 -1.234375 0.96875 -2.25 L 0.96875 -2.4375 C 0.96875 -3.34375 1.4375 -3.828125 2.140625 -3.828125 C 2.671875 -3.828125 2.921875 -3.734375 3.265625 -3.578125 L 3.265625 -4.09375 C 3 -4.25 2.703125 -4.34375 2.171875 -4.34375 C 1.15625 -4.34375 0.328125 -3.75 0.328125 -2.34375 L 0.328125 -2.234375 C 0.328125 -0.9375 1.03125 -0.265625 2.15625 -0.265625 Z M 2.15625 -0.265625 "/>
</g>
<g id="glyph-3-6">
<path d="M 1.828125 -0.28125 C 2.171875 -0.28125 2.34375 -0.375 2.5 -0.453125 L 2.5 -0.859375 C 2.34375 -0.8125 2.15625 -0.78125 1.984375 -0.78125 C 1.53125 -0.78125 1.40625 -0.9375 1.40625 -1.3125 L 1.40625 -3.765625 L 2.421875 -3.765625 L 2.421875 -4.265625 L 1.40625 -4.265625 L 1.40625 -5.203125 L 0.796875 -5.203125 L 0.796875 -4.265625 L 0.234375 -4.265625 L 0.234375 -3.765625 L 0.796875 -3.765625 L 0.796875 -1.21875 C 0.796875 -0.5625 1.203125 -0.28125 1.828125 -0.28125 Z M 1.828125 -0.28125 "/>
</g>
<g id="glyph-3-7">
<path d="M 0.328125 -0.140625 L 1.03125 -0.140625 L 1.03125 -0.84375 L 0.328125 -0.84375 Z M 0.328125 -0.140625 "/>
</g>
<g id="glyph-3-8">
<path d="M 1.578125 -0.265625 C 2.453125 -0.265625 2.96875 -0.6875 2.96875 -1.4375 C 2.96875 -2.109375 2.671875 -2.375 1.90625 -2.5625 L 1.515625 -2.6875 C 1.09375 -2.796875 0.921875 -2.9375 0.921875 -3.28125 C 0.921875 -3.65625 1.1875 -3.828125 1.71875 -3.828125 C 2.15625 -3.828125 2.546875 -3.734375 2.765625 -3.625 L 2.765625 -4.125 C 2.546875 -4.234375 2.21875 -4.34375 1.6875 -4.34375 C 0.78125 -4.34375 0.34375 -3.890625 0.34375 -3.234375 C 0.34375 -2.5625 0.734375 -2.296875 1.296875 -2.140625 L 1.6875 -2.03125 C 2.1875 -1.890625 2.375 -1.734375 2.375 -1.375 C 2.375 -1.015625 2.125 -0.78125 1.5 -0.78125 C 0.9375 -0.78125 0.65625 -0.90625 0.3125 -1.03125 L 0.3125 -0.546875 C 0.640625 -0.359375 1.0625 -0.265625 1.578125 -0.265625 Z M 1.578125 -0.265625 "/>
</g>
<g id="glyph-3-9">
<path d="M 1.546875 -0.265625 C 2.078125 -0.265625 2.40625 -0.453125 2.59375 -0.671875 L 2.625 -0.671875 L 2.703125 -0.328125 L 3.1875 -0.328125 L 3.1875 -3.1875 C 3.1875 -4 2.703125 -4.34375 1.84375 -4.34375 C 1.390625 -4.34375 1 -4.28125 0.65625 -4.140625 L 0.65625 -3.703125 C 0.90625 -3.765625 1.21875 -3.828125 1.59375 -3.828125 C 2.3125 -3.828125 2.578125 -3.671875 2.578125 -3.046875 L 2.578125 -2.640625 L 1.515625 -2.515625 C 0.75 -2.421875 0.3125 -2.0625 0.3125 -1.375 C 0.3125 -0.625 0.828125 -0.265625 1.546875 -0.265625 Z M 1.6875 -0.734375 C 1.234375 -0.734375 0.953125 -0.953125 0.953125 -1.390625 C 0.953125 -1.84375 1.1875 -2.03125 1.671875 -2.078125 L 2.578125 -2.1875 L 2.578125 -1.03125 C 2.40625 -0.859375 2.0625 -0.734375 1.6875 -0.734375 Z M 1.6875 -0.734375 "/>
</g>
<g id="glyph-3-10">
<path d="M 1.828125 0.484375 L 2.375 0.484375 C 1.671875 -0.3125 1.09375 -1.53125 1.09375 -2.765625 L 1.09375 -2.953125 C 1.09375 -4.21875 1.671875 -5.359375 2.375 -6.140625 L 1.828125 -6.140625 C 1.09375 -5.390625 0.453125 -4.3125 0.453125 -2.890625 L 0.453125 -2.765625 C 0.453125 -1.359375 1.09375 -0.265625 1.828125 0.484375 Z M 1.828125 0.484375 "/>
</g>
<g id="glyph-3-11">
<path d="M 0.140625 0.484375 L 0.6875 0.484375 C 1.421875 -0.265625 2.046875 -1.359375 2.046875 -2.765625 L 2.046875 -2.890625 C 2.046875 -4.296875 1.421875 -5.390625 0.6875 -6.140625 L 0.140625 -6.140625 C 0.84375 -5.34375 1.421875 -4.125 1.421875 -2.90625 L 1.421875 -2.703125 C 1.421875 -1.453125 0.84375 -0.3125 0.140625 0.484375 Z M 0.140625 0.484375 "/>
</g>
<g id="glyph-3-12">
<path d="M 0 -2.984375 L 4.140625 -2.984375 L 3.578125 -2.046875 L 3.6875 -1.921875 L 5.234375 -3.203125 L 3.6875 -4.5 L 3.578125 -4.375 L 4.140625 -3.421875 L 0 -3.421875 Z M 0 -2.984375 "/>
</g>
<g id="glyph-3-13">
<path d="M 0.578125 -0.328125 L 1.1875 -0.328125 L 1.1875 -3.546875 C 1.515625 -3.6875 1.921875 -3.828125 2.296875 -3.828125 C 2.921875 -3.828125 3.09375 -3.625 3.09375 -3.15625 L 3.09375 -0.328125 L 3.703125 -0.328125 L 3.703125 -3.28125 C 3.703125 -4.046875 3.328125 -4.34375 2.546875 -4.34375 C 2.0625 -4.34375 1.5625 -4.171875 1.1875 -3.9375 L 1.15625 -3.9375 L 1.15625 -4.28125 L 0.578125 -4.28125 Z M 0.578125 -0.328125 "/>
</g>
<g id="glyph-3-14">
<path d="M 2.109375 -0.265625 C 3.1875 -0.265625 3.90625 -1.015625 3.90625 -2.265625 L 3.90625 -2.375 C 3.90625 -3.625 3.234375 -4.34375 2.125 -4.34375 C 1.0625 -4.34375 0.328125 -3.609375 0.328125 -2.359375 L 0.328125 -2.234375 C 0.328125 -0.984375 1 -0.265625 2.109375 -0.265625 Z M 2.125 -0.765625 C 1.46875 -0.765625 0.953125 -1.125 0.953125 -2.21875 L 0.953125 -2.421875 C 0.953125 -3.34375 1.40625 -3.84375 2.109375 -3.84375 C 2.765625 -3.84375 3.296875 -3.484375 3.296875 -2.390625 L 3.296875 -2.1875 C 3.296875 -1.265625 2.84375 -0.765625 2.125 -0.765625 Z M 2.125 -0.765625 "/>
</g>
<g id="glyph-3-15">
<path d="M 0.609375 -0.328125 L 1.203125 -0.328125 L 1.203125 -4.265625 L 0.609375 -4.265625 Z M 0.59375 -5.0625 L 1.21875 -5.0625 L 1.21875 -5.703125 L 0.59375 -5.703125 Z M 0.59375 -5.0625 "/>
</g>
<g id="glyph-3-16">
<path d="M 0.8125 -0.328125 L 1.421875 -0.328125 L 1.421875 -3.765625 L 2.328125 -3.765625 L 2.328125 -4.265625 L 1.421875 -4.265625 L 1.421875 -4.796875 C 1.421875 -5.359375 1.6875 -5.578125 2.15625 -5.578125 C 2.421875 -5.578125 2.59375 -5.546875 2.71875 -5.515625 L 2.71875 -5.953125 C 2.5625 -6.015625 2.359375 -6.078125 2.046875 -6.078125 C 1.328125 -6.078125 0.8125 -5.703125 0.8125 -4.84375 L 0.8125 -4.265625 L 0.234375 -4.265625 L 0.234375 -3.765625 L 0.8125 -3.765625 Z M 0.8125 -0.328125 "/>
</g>
<g id="glyph-3-17">
<path d="M 0.875 0.84375 C 1.53125 0.84375 1.859375 0.609375 2.125 -0.09375 L 3.671875 -4.28125 L 3.0625 -4.28125 L 2 -1.28125 L 1.984375 -1.28125 L 0.8125 -4.28125 L 0.171875 -4.28125 L 1.671875 -0.484375 L 1.5625 -0.15625 C 1.390625 0.28125 1.15625 0.34375 0.765625 0.34375 C 0.625 0.34375 0.484375 0.296875 0.390625 0.28125 L 0.390625 0.734375 C 0.5 0.796875 0.703125 0.84375 0.875 0.84375 Z M 0.875 0.84375 "/>
</g>
<g id="glyph-3-18">
<path d="M 0.578125 -0.328125 L 1.1875 -0.328125 L 1.1875 -3.4375 C 1.46875 -3.640625 1.859375 -3.78125 2.25 -3.78125 C 2.3125 -3.78125 2.4375 -3.765625 2.53125 -3.75 L 2.53125 -4.296875 C 2.5 -4.3125 2.390625 -4.3125 2.296875 -4.3125 C 1.859375 -4.3125 1.421875 -4.09375 1.203125 -3.828125 L 1.15625 -3.828125 L 1.15625 -4.28125 L 0.578125 -4.28125 Z M 0.578125 -0.328125 "/>
</g>
<g id="glyph-3-19">
<path d="M 0.578125 -0.328125 L 1.1875 -0.328125 L 1.1875 -3.53125 C 1.515625 -3.6875 1.921875 -3.828125 2.296875 -3.828125 C 2.921875 -3.828125 3.09375 -3.625 3.09375 -3.15625 L 3.09375 -0.328125 L 3.703125 -0.328125 L 3.703125 -3.265625 C 3.703125 -4.03125 3.328125 -4.34375 2.546875 -4.34375 C 2.0625 -4.34375 1.5625 -4.1875 1.21875 -3.9375 L 1.1875 -3.9375 L 1.1875 -6.03125 L 0.578125 -6.03125 Z M 0.578125 -0.328125 "/>
</g>
<g id="glyph-3-20">
<path d="M 0.796875 -3.75 L 1.484375 -3.75 L 1.484375 -4.46875 L 0.796875 -4.46875 Z M 0.796875 -0.8125 L 1.484375 -0.8125 L 1.484375 -1.546875 L 0.796875 -1.546875 Z M 0.796875 -0.8125 "/>
</g>
<g id="glyph-3-21">
<path d="M 0.578125 0.84375 L 1.1875 0.84375 L 1.1875 -0.53125 C 1.421875 -0.390625 1.75 -0.265625 2.203125 -0.265625 C 3.296875 -0.265625 3.984375 -0.859375 3.984375 -2.3125 L 3.984375 -2.40625 C 3.984375 -3.875 3.234375 -4.34375 2.375 -4.34375 C 1.859375 -4.34375 1.453125 -4.171875 1.203125 -3.953125 L 1.171875 -3.953125 L 1.171875 -4.265625 L 0.578125 -4.265625 Z M 2.140625 -0.765625 C 1.734375 -0.765625 1.375 -0.890625 1.1875 -1.046875 L 1.1875 -3.546875 C 1.375 -3.671875 1.75 -3.828125 2.21875 -3.828125 C 2.9375 -3.828125 3.34375 -3.484375 3.34375 -2.375 L 3.34375 -2.21875 C 3.34375 -1.15625 2.890625 -0.765625 2.140625 -0.765625 Z M 2.140625 -0.765625 "/>
</g>
<g id="glyph-3-22">
<path d="M 1.984375 -0.265625 C 2.515625 -0.265625 2.90625 -0.421875 3.140625 -0.65625 L 3.171875 -0.65625 L 3.25 -0.328125 L 3.75 -0.328125 L 3.75 -6.03125 L 3.140625 -6.03125 L 3.140625 -4.09375 C 2.921875 -4.21875 2.59375 -4.34375 2.109375 -4.34375 C 1.09375 -4.34375 0.34375 -3.734375 0.34375 -2.296875 L 0.34375 -2.1875 C 0.34375 -0.734375 1.203125 -0.265625 1.984375 -0.265625 Z M 2.171875 -0.765625 C 1.46875 -0.765625 0.984375 -1.109375 0.984375 -2.21875 L 0.984375 -2.375 C 0.984375 -3.4375 1.4375 -3.828125 2.1875 -3.828125 C 2.59375 -3.828125 2.953125 -3.71875 3.140625 -3.578125 L 3.140625 -1.09375 C 2.9375 -0.9375 2.625 -0.765625 2.171875 -0.765625 Z M 2.171875 -0.765625 "/>
</g>
</g>
</defs>
<g fill="rgb(0%, 0%, 0%)" fill-opacity="1">
<use xlink:href="#glyph-0-0" x="13.247257" y="13.411361"/>
<use xlink:href="#glyph-0-0" x="15.473215" y="13.411361"/>
</g>
<path fill-rule="nonzero" fill="rgb(98.039246%, 98.039246%, 98.039246%)" fill-opacity="1" stroke-width="0.3985" stroke-linecap="butt" stroke-linejoin="miter" stroke="rgb(47.059631%, 47.059631%, 47.059631%)" stroke-opacity="1" stroke-miterlimit="10" d="M -41.678193 51.022893 L -128.402441 51.022893 C -129.502893 51.022893 -130.395787 50.133916 -130.395787 49.033464 L -130.395787 30.337525 C -130.395787 29.237073 -129.502893 28.348095 -128.402441 28.348095 L -41.678193 28.348095 C -40.577741 28.348095 -39.684847 29.237073 -39.684847 30.337525 L -39.684847 49.033464 C -39.684847 50.133916 -40.577741 51.022893 -41.678193 51.022893 Z M -41.678193 51.022893 " transform="matrix(0.997459, 0, 0, -0.997459, 165.248082, 75.615915)"/>
<g fill="rgb(0%, 0%, 0%)" fill-opacity="1">
<use xlink:href="#glyph-1-0" x="64.870762" y="38.316922"/>
<use xlink:href="#glyph-1-1" x="67.428637" y="38.316922"/>
<use xlink:href="#glyph-1-2" x="72.535443" y="38.316922"/>
<use xlink:href="#glyph-1-3" x="77.284505" y="38.316922"/>
<use xlink:href="#glyph-1-4" x="82.033567" y="38.316922"/>
<use xlink:href="#glyph-1-5" x="84.484118" y="38.316922"/>
<use xlink:href="#glyph-1-6" x="88.571352" y="38.316922"/>
<use xlink:href="#glyph-1-7" x="92.658586" y="38.316922"/>
</g>
<path fill-rule="nonzero" fill="rgb(98.039246%, 98.039246%, 98.039246%)" fill-opacity="1" stroke-width="0.3985" stroke-linecap="butt" stroke-linejoin="miter" stroke="rgb(47.059631%, 47.059631%, 47.059631%)" stroke-opacity="1" stroke-miterlimit="10" d="M 128.402371 51.022893 L 41.678123 51.022893 C 40.577671 51.022893 39.684777 50.133916 39.684777 49.033464 L 39.684777 30.337525 C 39.684777 29.237073 40.577671 28.348095 41.678123 28.348095 L 128.402371 28.348095 C 129.502823 28.348095 130.395717 29.237073 130.395717 30.337525 L 130.395717 49.033464 C 130.395717 50.133916 129.502823 51.022893 128.402371 51.022893 Z M 128.402371 51.022893 " transform="matrix(0.997459, 0, 0, -0.997459, 165.248082, 75.615915)"/>
<g fill="rgb(0%, 0%, 0%)" fill-opacity="1">
<use xlink:href="#glyph-1-0" x="231.916266" y="39.134839"/>
<use xlink:href="#glyph-1-8" x="234.474141" y="39.134839"/>
<use xlink:href="#glyph-1-3" x="241.262347" y="39.134839"/>
<use xlink:href="#glyph-1-9" x="246.011409" y="39.134839"/>
<use xlink:href="#glyph-1-5" x="249.535195" y="39.134839"/>
<use xlink:href="#glyph-1-10" x="253.622429" y="39.134839"/>
<use xlink:href="#glyph-1-11" x="256.761639" y="39.134839"/>
<use xlink:href="#glyph-1-5" x="261.000914" y="39.134839"/>
<use xlink:href="#glyph-1-10" x="265.088148" y="39.134839"/>
</g>
<path fill="none" stroke-width="0.44832" stroke-linecap="butt" stroke-linejoin="miter" stroke="rgb(31.373596%, 31.373596%, 31.373596%)" stroke-opacity="1" stroke-miterlimit="10" d="M -39.485121 39.685494 L 35.842985 39.685494 " transform="matrix(0.997459, 0, 0, -0.997459, 165.248082, 75.615915)"/>
<path fill-rule="nonzero" fill="rgb(31.373596%, 31.373596%, 31.373596%)" fill-opacity="1" stroke-width="0.44832" stroke-linecap="butt" stroke-linejoin="miter" stroke="rgb(31.373596%, 31.373596%, 31.373596%)" stroke-opacity="1" stroke-miterlimit="10" d="M 5.0298 0.000144252 L 0.72198 1.621451 L 2.139645 0.000144252 L 0.72198 -1.621163 Z M 5.0298 0.000144252 " transform="matrix(0.997459, 0, 0, -0.997459, 198.979073, 36.031394)"/>
<g fill="rgb(0%, 0%, 0%)" fill-opacity="1">
<use xlink:href="#glyph-2-0" x="154.424651" y="32.49575"/>
<use xlink:href="#glyph-2-1" x="158.153111" y="32.49575"/>
<use xlink:href="#glyph-2-2" x="161.867659" y="32.49575"/>
<use xlink:href="#glyph-2-3" x="164.302287" y="32.49575"/>
<use xlink:href="#glyph-2-4" x="165.881318" y="32.49575"/>
<use xlink:href="#glyph-2-3" x="168.128132" y="32.49575"/>
<use xlink:href="#glyph-2-5" x="169.707163" y="32.49575"/>
<use xlink:href="#glyph-2-6" x="173.185203" y="32.49575"/>
</g>
<g fill="rgb(0%, 0%, 0%)" fill-opacity="1">
<use xlink:href="#glyph-0-0" x="13.247257" y="77.603851"/>
<use xlink:href="#glyph-0-0" x="15.473215" y="77.603851"/>
</g>
<g fill="rgb(0%, 0%, 0%)" fill-opacity="1">
<use xlink:href="#glyph-0-1" x="20.608818" y="77.603851"/>
<use xlink:href="#glyph-0-0" x="24.011354" y="77.603851"/>
<use xlink:href="#glyph-0-0" x="26.237312" y="77.603851"/>
<use xlink:href="#glyph-0-0" x="28.46327" y="77.603851"/>
<use xlink:href="#glyph-0-2" x="30.689228" y="77.603851"/>
</g>
<g fill="rgb(0%, 0%, 0%)" fill-opacity="1">
<use xlink:href="#glyph-3-0" x="41.522235" y="95.227959"/>
<use xlink:href="#glyph-3-1" x="45.52896" y="95.227959"/>
<use xlink:href="#glyph-3-2" x="49.74238" y="95.227959"/>
<use xlink:href="#glyph-3-3" x="54.075049" y="95.227959"/>
<use xlink:href="#glyph-3-4" x="55.879665" y="95.227959"/>
<use xlink:href="#glyph-3-5" x="59.85459" y="95.227959"/>
</g>
<g fill="rgb(0%, 0%, 0%)" fill-opacity="1">
<use xlink:href="#glyph-3-6" x="63.495621" y="95.227959"/>
<use xlink:href="#glyph-3-7" x="66.278069" y="95.227959"/>
<use xlink:href="#glyph-3-8" x="68.074735" y="95.227959"/>
<use xlink:href="#glyph-3-4" x="71.373923" y="95.227959"/>
</g>
<g fill="rgb(0%, 0%, 0%)" fill-opacity="1">
<use xlink:href="#glyph-3-6" x="75.388597" y="95.227959"/>
<use xlink:href="#glyph-3-0" x="78.171045" y="95.227959"/>
<use xlink:href="#glyph-3-6" x="82.177769" y="95.227959"/>
<use xlink:href="#glyph-3-9" x="84.960217" y="95.227959"/>
<use xlink:href="#glyph-3-6" x="88.712546" y="95.227959"/>
<use xlink:href="#glyph-3-4" x="91.494994" y="95.227959"/>
<use xlink:href="#glyph-3-10" x="95.469919" y="95.227959"/>
<use xlink:href="#glyph-3-11" x="97.990021" y="95.227959"/>
</g>
<g fill="rgb(0%, 0%, 0%)" fill-opacity="1">
<use xlink:href="#glyph-3-12" x="75.45181" y="109.361957"/>
</g>
<g fill="rgb(0%, 0%, 0%)" fill-opacity="1">
<use xlink:href="#glyph-3-0" x="83.139315" y="109.361957"/>
<use xlink:href="#glyph-3-1" x="87.14604" y="109.361957"/>
<use xlink:href="#glyph-3-2" x="91.35946" y="109.361957"/>
<use xlink:href="#glyph-3-3" x="95.692129" y="109.361957"/>
<use xlink:href="#glyph-3-4" x="97.496745" y="109.361957"/>
<use xlink:href="#glyph-3-5" x="101.47167" y="109.361957"/>
</g>
<g fill="rgb(0%, 0%, 0%)" fill-opacity="1">
<use xlink:href="#glyph-3-6" x="105.120651" y="109.361957"/>
<use xlink:href="#glyph-3-7" x="107.903099" y="109.361957"/>
<use xlink:href="#glyph-3-13" x="109.699765" y="109.361957"/>
<use xlink:href="#glyph-3-14" x="113.960885" y="109.361957"/>
<use xlink:href="#glyph-3-6" x="118.206105" y="109.361957"/>
<use xlink:href="#glyph-3-15" x="120.988552" y="109.361957"/>
<use xlink:href="#glyph-3-16" x="122.793168" y="109.361957"/>
<use xlink:href="#glyph-3-17" x="125.36097" y="109.361957"/>
<use xlink:href="#glyph-3-10" x="129.192798" y="109.361957"/>
<use xlink:href="#glyph-3-11" x="131.7129" y="109.361957"/>
</g>
<g fill="rgb(0%, 0%, 0%)" fill-opacity="1">
<use xlink:href="#glyph-3-12" x="109.381385" y="123.896934"/>
</g>
<g fill="rgb(0%, 0%, 0%)" fill-opacity="1">
<use xlink:href="#glyph-3-16" x="117.06889" y="123.896934"/>
<use xlink:href="#glyph-3-14" x="119.636692" y="123.896934"/>
<use xlink:href="#glyph-3-18" x="123.881912" y="123.896934"/>
</g>
<g fill="rgb(0%, 0%, 0%)" fill-opacity="1">
<use xlink:href="#glyph-3-4" x="128.723371" y="123.896934"/>
<use xlink:href="#glyph-3-9" x="132.698296" y="123.896934"/>
<use xlink:href="#glyph-3-5" x="136.450625" y="123.896934"/>
<use xlink:href="#glyph-3-19" x="140.028058" y="123.896934"/>
</g>
<g fill="rgb(0%, 0%, 0%)" fill-opacity="1">
<use xlink:href="#glyph-3-14" x="146.379988" y="123.896934"/>
<use xlink:href="#glyph-3-2" x="150.625208" y="123.896934"/>
<use xlink:href="#glyph-3-8" x="154.957876" y="123.896934"/>
<use xlink:href="#glyph-3-20" x="158.257064" y="123.896934"/>
</g>
<g fill="rgb(0%, 0%, 0%)" fill-opacity="1">
<use xlink:href="#glyph-3-14" x="148.966554" y="137.640925"/>
<use xlink:href="#glyph-3-2" x="153.211774" y="137.640925"/>
<use xlink:href="#glyph-3-8" x="157.544443" y="137.640925"/>
<use xlink:href="#glyph-3-7" x="160.84363" y="137.640925"/>
<use xlink:href="#glyph-3-1" x="162.640297" y="137.640925"/>
<use xlink:href="#glyph-3-21" x="166.853717" y="137.640925"/>
<use xlink:href="#glyph-3-22" x="171.186386" y="137.640925"/>
<use xlink:href="#glyph-3-9" x="175.519054" y="137.640925"/>
<use xlink:href="#glyph-3-6" x="179.271383" y="137.640925"/>
<use xlink:href="#glyph-3-4" x="182.053831" y="137.640925"/>
<use xlink:href="#glyph-3-10" x="186.028756" y="137.640925"/>
<use xlink:href="#glyph-3-11" x="188.548858" y="137.640925"/>
</g>
</svg>
