<?xml version="1.0" encoding="UTF-8"?>
<svg xmlns="http://www.w3.org/2000/svg" xmlns:xlink="http://www.w3.org/1999/xlink" width="450.89pt" height="249.09pt" viewBox="0 0 450.89 249.09">
<defs>
<g>
<g id="glyph-0-0">
<path d="M 2.53125 -0.484375 L 4.203125 -0.484375 L 4.203125 -7.375 L 6.5 -7.375 L 6.5 -8.65625 L 0.25 -8.65625 L 0.25 -7.375 L 2.53125 -7.375 Z M 2.53125 -0.484375 "/>
</g>
<g id="glyph-0-1">
<path d="M 0.125 -0.484375 L 1.671875 -0.484375 L 2.328125 -2.4375 L 5.234375 -2.4375 L 5.921875 -0.484375 L 7.65625 -0.484375 L 4.78125 -8.65625 L 3.03125 -8.65625 Z M 3.734375 -6.734375 L 3.78125 -6.734375 L 4.84375 -3.640625 L 2.71875 -3.640625 Z M 3.734375 -6.734375 "/>
</g>
<g id="glyph-0-2">
<path d="M 2.9375 -0.359375 C 4.953125 -0.359375 5.9375 -1.3125 5.9375 -2.90625 C 5.9375 -4.421875 5.171875 -4.96875 3.828125 -5.328125 L 3.125 -5.515625 C 2.34375 -5.71875 2.078125 -5.96875 2.078125 -6.53125 C 2.078125 -7.15625 2.53125 -7.484375 3.375 -7.484375 C 4.28125 -7.484375 4.953125 -7.265625 5.5 -7.078125 L 5.5 -8.34375 C 5.03125 -8.578125 4.40625 -8.78125 3.265625 -8.78125 C 1.375 -8.78125 0.46875 -7.828125 0.46875 -6.421875 C 0.46875 -4.90625 1.21875 -4.328125 2.390625 -4.03125 L 3.125 -3.828125 C 4 -3.609375 4.28125 -3.375 4.28125 -2.71875 C 4.28125 -2.078125 3.828125 -1.65625 2.78125 -1.65625 C 1.875 -1.65625 1.109375 -1.875 0.4375 -2.15625 L 0.4375 -0.859375 C 1.015625 -0.5625 1.84375 -0.359375 2.9375 -0.359375 Z M 2.9375 -0.359375 "/>
</g>
<g id="glyph-0-3">
<path d="M 9.609375 -4.921875 L 0.0625 -4.921875 L 0.0625 -4.03125 L 9.609375 -4.03125 Z M 9.609375 -4.921875 "/>
</g>
<g id="glyph-0-4">
<path d="M 4.1875 -0.359375 C 5.1875 -0.359375 5.921875 -0.546875 6.46875 -0.84375 L 6.46875 -2.125 C 6.015625 -1.921875 5.453125 -1.703125 4.546875 -1.703125 C 2.890625 -1.703125 2.25 -2.71875 2.25 -4.484375 L 2.25 -4.875 C 2.25 -6.703125 3.140625 -7.46875 4.53125 -7.46875 C 5.28125 -7.46875 5.828125 -7.296875 6.40625 -7.109375 L 6.40625 -8.375 C 5.921875 -8.640625 5.265625 -8.78125 4.328125 -8.78125 C 2.171875 -8.78125 0.4375 -7.671875 0.4375 -4.734375 L 0.4375 -4.421875 C 0.4375 -1.671875 1.875 -0.359375 4.1875 -0.359375 Z M 4.1875 -0.359375 "/>
</g>
<g id="glyph-0-5">
<path d="M 2.28125 -0.375 C 3.046875 -0.375 3.578125 -0.625 3.84375 -0.984375 L 3.921875 -0.984375 L 4.03125 -0.484375 L 5.3125 -0.484375 L 5.3125 -4.90625 C 5.3125 -6.234375 4.46875 -6.765625 3.015625 -6.765625 C 2.15625 -6.765625 1.46875 -6.640625 0.859375 -6.421875 L 0.859375 -5.328125 C 1.265625 -5.453125 1.8125 -5.53125 2.421875 -5.53125 C 3.421875 -5.53125 3.765625 -5.34375 3.765625 -4.578125 L 3.765625 -4.171875 L 2.40625 -4 C 1.15625 -3.828125 0.34375 -3.296875 0.34375 -2.125 C 0.34375 -0.9375 1.140625 -0.375 2.28125 -0.375 Z M 2.765625 -1.4375 C 2.25 -1.4375 1.875 -1.671875 1.875 -2.25 C 1.875 -2.828125 2.171875 -3.03125 2.75 -3.09375 L 3.765625 -3.203125 L 3.765625 -1.78125 C 3.578125 -1.578125 3.15625 -1.4375 2.765625 -1.4375 Z M 2.765625 -1.4375 "/>
</g>
<g id="glyph-0-6">
<path d="M 3.34375 -0.375 C 4.234375 -0.375 4.796875 -0.609375 5.1875 -0.84375 L 5.1875 -1.96875 C 4.875 -1.828125 4.375 -1.609375 3.640625 -1.609375 C 2.515625 -1.609375 1.984375 -2.171875 1.984375 -3.53125 L 1.984375 -3.765625 C 1.984375 -4.96875 2.59375 -5.53125 3.59375 -5.53125 C 4.3125 -5.53125 4.65625 -5.421875 5.125 -5.234375 L 5.125 -6.40625 C 4.734375 -6.625 4.25 -6.78125 3.453125 -6.78125 C 1.625 -6.78125 0.375 -5.734375 0.375 -3.625 L 0.375 -3.4375 C 0.375 -1.421875 1.46875 -0.375 3.34375 -0.375 Z M 3.34375 -0.375 "/>
</g>
<g id="glyph-0-7">
<path d="M 0.6875 -0.484375 L 2.25 -0.484375 L 2.25 -5.203125 C 2.59375 -5.34375 3.078125 -5.515625 3.515625 -5.515625 C 4.28125 -5.515625 4.484375 -5.28125 4.484375 -4.6875 L 4.484375 -0.484375 L 6.0625 -0.484375 L 6.0625 -5.0625 C 6.0625 -6.28125 5.4375 -6.78125 4.265625 -6.78125 C 3.5 -6.78125 2.796875 -6.515625 2.328125 -6.140625 L 2.25 -6.140625 L 2.25 -9.1875 L 0.6875 -9.1875 Z M 0.6875 -0.484375 "/>
</g>
<g id="glyph-0-8">
<path d="M 3.484375 -0.375 C 4.546875 -0.375 5.28125 -0.671875 5.703125 -0.953125 L 5.703125 -1.96875 C 5.171875 -1.75 4.59375 -1.578125 3.828125 -1.578125 C 2.71875 -1.578125 2.078125 -1.96875 1.96875 -3.15625 L 5.921875 -3.15625 L 5.921875 -3.734375 C 5.921875 -5.703125 5.125 -6.765625 3.265625 -6.765625 C 1.59375 -6.765625 0.375 -5.6875 0.375 -3.65625 L 0.375 -3.5 C 0.375 -1.53125 1.40625 -0.375 3.484375 -0.375 Z M 3.234375 -5.65625 C 3.984375 -5.65625 4.375 -5.25 4.375 -4.171875 L 1.96875 -4.171875 C 2.046875 -5.328125 2.671875 -5.65625 3.234375 -5.65625 Z M 3.234375 -5.65625 "/>
</g>
<g id="glyph-0-9">
<path d="M 0.828125 -0.484375 L 5.875 -0.484375 L 5.875 -1.78125 L 2.53125 -1.78125 L 2.53125 -8.65625 L 0.828125 -8.65625 Z M 0.828125 -0.484375 "/>
</g>
<g id="glyph-0-10">
<path d="M 0.71875 -0.484375 L 2.296875 -0.484375 L 2.296875 -6.65625 L 0.71875 -6.65625 Z M 0.71875 -7.578125 L 2.3125 -7.578125 L 2.3125 -8.921875 L 0.71875 -8.921875 Z M 0.71875 -7.578125 "/>
</g>
<g id="glyph-0-11">
<path d="M 0.6875 -0.484375 L 2.25 -0.484375 L 2.25 -5.203125 C 2.59375 -5.34375 3.078125 -5.515625 3.515625 -5.515625 C 4.28125 -5.515625 4.484375 -5.28125 4.484375 -4.6875 L 4.484375 -0.484375 L 6.0625 -0.484375 L 6.0625 -5.0625 C 6.0625 -6.28125 5.4375 -6.78125 4.265625 -6.78125 C 3.5 -6.78125 2.78125 -6.5 2.25 -6.109375 L 2.1875 -6.109375 L 2.1875 -6.65625 L 0.6875 -6.65625 Z M 0.6875 -0.484375 "/>
</g>
<g id="glyph-0-12">
<path d="M 0.828125 -0.484375 L 2.53125 -0.484375 L 2.53125 -3.453125 L 3.921875 -3.453125 C 5.734375 -3.453125 6.828125 -4.421875 6.828125 -6.171875 C 6.828125 -7.8125 5.84375 -8.65625 3.859375 -8.65625 L 0.828125 -8.65625 Z M 2.53125 -4.6875 L 2.53125 -7.375 L 3.65625 -7.375 C 4.640625 -7.375 5.0625 -7.125 5.0625 -6.09375 C 5.0625 -5.15625 4.671875 -4.6875 3.625 -4.6875 Z M 2.53125 -4.6875 "/>
</g>
<g id="glyph-0-13">
<path d="M 3.015625 1.28125 C 5.21875 1.28125 6.203125 0.4375 6.203125 -0.796875 C 6.203125 -1.984375 5.375 -2.421875 4.171875 -2.421875 L 2.453125 -2.421875 C 2.078125 -2.421875 1.9375 -2.421875 1.9375 -2.71875 C 1.9375 -2.859375 2 -2.90625 2.125 -3.015625 C 2.40625 -2.921875 2.71875 -2.90625 3.078125 -2.90625 C 4.515625 -2.90625 5.5625 -3.46875 5.5625 -4.78125 L 5.5625 -4.875 C 5.5625 -5.25 5.46875 -5.453125 5.265625 -5.6875 L 6.1875 -5.6875 L 6.1875 -6.65625 L 4.078125 -6.65625 C 3.78125 -6.734375 3.453125 -6.765625 3.078125 -6.765625 C 1.578125 -6.765625 0.5625 -6.125 0.5625 -4.828125 L 0.5625 -4.75 C 0.5625 -4.03125 0.84375 -3.578125 1.34375 -3.28125 C 0.875 -2.921875 0.625 -2.71875 0.625 -2.265625 C 0.625 -1.796875 0.875 -1.578125 1.265625 -1.421875 L 1.265625 -1.359375 C 0.625 -1.15625 0.109375 -0.78125 0.109375 -0.140625 C 0.109375 0.78125 1.03125 1.28125 3.015625 1.28125 Z M 2.984375 0.21875 C 1.96875 0.21875 1.625 0.0625 1.625 -0.375 C 1.625 -0.765625 1.875 -0.96875 2.1875 -1.078125 L 3.703125 -1.078125 C 4.40625 -1.078125 4.609375 -0.984375 4.609375 -0.53125 C 4.609375 -0.03125 4.203125 0.21875 2.984375 0.21875 Z M 3.078125 -3.859375 C 2.4375 -3.859375 2.0625 -4.09375 2.0625 -4.78125 L 2.0625 -4.921875 C 2.0625 -5.53125 2.421875 -5.78125 3.078125 -5.78125 C 3.671875 -5.78125 4.0625 -5.59375 4.0625 -4.890625 L 4.0625 -4.765625 C 4.0625 -4.09375 3.6875 -3.859375 3.078125 -3.859375 Z M 3.078125 -3.859375 "/>
</g>
<g id="glyph-0-14">
<path d="M 0.578125 -3.171875 L 3.984375 -3.171875 L 3.984375 -4.421875 L 0.578125 -4.421875 Z M 0.578125 -3.171875 "/>
</g>
<g id="glyph-0-15">
<path d="M 3.34375 -0.375 C 5.09375 -0.375 6.328125 -1.484375 6.328125 -3.515625 L 6.328125 -3.671875 C 6.328125 -5.671875 5.265625 -6.78125 3.359375 -6.78125 C 1.609375 -6.78125 0.375 -5.640625 0.375 -3.625 L 0.375 -3.46875 C 0.375 -1.515625 1.421875 -0.375 3.34375 -0.375 Z M 3.375 -1.53125 C 2.578125 -1.53125 1.96875 -1.921875 1.96875 -3.46875 L 1.96875 -3.734375 C 1.96875 -5.046875 2.46875 -5.625 3.328125 -5.625 C 4.125 -5.625 4.734375 -5.234375 4.734375 -3.671875 L 4.734375 -3.390625 C 4.734375 -2.09375 4.234375 -1.53125 3.375 -1.53125 Z M 3.375 -1.53125 "/>
</g>
<g id="glyph-0-16">
<path d="M 2.765625 0.75 L 4.078125 0.75 C 3.015625 -0.453125 2.140625 -2.25 2.140625 -4.171875 L 2.140625 -4.53125 C 2.140625 -6.453125 3.015625 -8.171875 4.078125 -9.359375 L 2.765625 -9.359375 C 1.625 -8.3125 0.53125 -6.640625 0.53125 -4.421875 L 0.53125 -4.203125 C 0.53125 -1.96875 1.625 -0.296875 2.765625 0.75 Z M 2.765625 0.75 "/>
</g>
<g id="glyph-0-17">
<path d="M 0.828125 -0.484375 L 2.296875 -0.484375 L 2.296875 -6.609375 L 2.328125 -6.609375 L 4.25 -0.484375 L 5.578125 -0.484375 L 7.515625 -6.59375 L 7.546875 -6.59375 L 7.546875 -0.484375 L 9.21875 -0.484375 L 9.21875 -8.65625 L 6.90625 -8.65625 L 5.078125 -2.84375 L 5.03125 -2.84375 L 3.171875 -8.65625 L 0.828125 -8.65625 Z M 0.828125 -0.484375 "/>
</g>
<g id="glyph-0-18">
<path d="M 0.828125 -0.484375 L 6.15625 -0.484375 L 6.15625 -1.78125 L 2.53125 -1.78125 L 2.53125 -4.046875 L 5.296875 -4.046875 L 5.296875 -5.3125 L 2.53125 -5.3125 L 2.53125 -7.375 L 6.078125 -7.375 L 6.078125 -8.65625 L 0.828125 -8.65625 Z M 0.828125 -0.484375 "/>
</g>
<g id="glyph-0-19">
<path d="M 0.875 -0.484375 L 2.578125 -0.484375 L 2.578125 -8.65625 L 0.875 -8.65625 Z M 0.875 -0.484375 "/>
</g>
<g id="glyph-0-20">
<path d="M 0.09375 0.75 L 1.421875 0.75 C 2.53125 -0.296875 3.625 -1.96875 3.625 -4.1875 L 3.625 -4.421875 C 3.625 -6.625 2.53125 -8.3125 1.421875 -9.359375 L 0.09375 -9.359375 C 1.171875 -8.15625 2.0625 -6.34375 2.0625 -4.4375 L 2.0625 -4.078125 C 2.0625 -2.171875 1.171875 -0.4375 0.09375 0.75 Z M 0.09375 0.75 "/>
</g>
<g id="glyph-1-0">
<path d="M 1.828125 -0.28125 C 2.171875 -0.28125 2.328125 -0.375 2.5 -0.4375 L 2.5 -0.859375 C 2.328125 -0.8125 2.15625 -0.78125 1.984375 -0.78125 C 1.53125 -0.78125 1.40625 -0.9375 1.40625 -1.3125 L 1.40625 -3.765625 L 2.40625 -3.765625 L 2.40625 -4.265625 L 1.40625 -4.265625 L 1.40625 -5.203125 L 0.796875 -5.203125 L 0.796875 -4.265625 L 0.234375 -4.265625 L 0.234375 -3.765625 L 0.796875 -3.765625 L 0.796875 -1.21875 C 0.796875 -0.5625 1.203125 -0.28125 1.828125 -0.28125 Z M 1.828125 -0.28125 "/>
</g>
<g id="glyph-1-1">
<path d="M 0.609375 -0.328125 L 1.203125 -0.328125 L 1.203125 -4.265625 L 0.609375 -4.265625 Z M 0.59375 -5.0625 L 1.21875 -5.0625 L 1.21875 -5.6875 L 0.59375 -5.6875 Z M 0.59375 -5.0625 "/>
</g>
<g id="glyph-1-2">
<path d="M 0.578125 -0.328125 L 1.1875 -0.328125 L 1.1875 -3.53125 C 1.5 -3.6875 1.84375 -3.8125 2.1875 -3.8125 C 2.703125 -3.8125 2.890625 -3.625 2.890625 -3.140625 L 2.890625 -0.328125 L 3.5 -0.328125 L 3.5 -3.265625 C 3.5 -3.359375 3.5 -3.4375 3.484375 -3.53125 C 3.84375 -3.703125 4.1875 -3.8125 4.5 -3.8125 C 5.03125 -3.8125 5.21875 -3.625 5.21875 -3.140625 L 5.21875 -0.328125 L 5.8125 -0.328125 L 5.8125 -3.265625 C 5.8125 -4.03125 5.40625 -4.34375 4.734375 -4.34375 C 4.28125 -4.34375 3.828125 -4.1875 3.390625 -3.90625 L 3.359375 -3.90625 C 3.1875 -4.203125 2.859375 -4.34375 2.421875 -4.34375 C 1.96875 -4.34375 1.5625 -4.15625 1.1875 -3.921875 L 1.15625 -3.921875 L 1.15625 -4.265625 L 0.578125 -4.265625 Z M 0.578125 -0.328125 "/>
</g>
<g id="glyph-1-3">
<path d="M 2.203125 -0.265625 C 2.828125 -0.265625 3.28125 -0.453125 3.53125 -0.625 L 3.53125 -1.078125 C 3.171875 -0.90625 2.8125 -0.78125 2.296875 -0.78125 C 1.453125 -0.78125 0.984375 -1.171875 0.953125 -2.15625 L 3.640625 -2.15625 L 3.640625 -2.5 C 3.640625 -3.71875 3.125 -4.34375 2.046875 -4.34375 C 1.140625 -4.34375 0.328125 -3.734375 0.328125 -2.359375 L 0.328125 -2.25 C 0.328125 -1.015625 0.953125 -0.265625 2.203125 -0.265625 Z M 2.03125 -3.84375 C 2.671875 -3.84375 3 -3.5 3 -2.640625 L 0.953125 -2.640625 C 1.015625 -3.5625 1.546875 -3.84375 2.03125 -3.84375 Z M 2.03125 -3.84375 "/>
</g>
<g id="glyph-1-4">
<path d="M 2.703125 -0.25 C 3.328125 -0.25 3.8125 -0.390625 4.171875 -0.59375 L 4.171875 -1.125 C 3.84375 -0.953125 3.4375 -0.78125 2.78125 -0.78125 C 1.5625 -0.78125 1.0625 -1.578125 1.0625 -2.9375 L 1.0625 -3.203125 C 1.0625 -4.609375 1.765625 -5.21875 2.78125 -5.21875 C 3.296875 -5.21875 3.703125 -5.09375 4.125 -4.921875 L 4.125 -5.453125 C 3.796875 -5.625 3.375 -5.75 2.8125 -5.75 C 1.453125 -5.75 0.390625 -5 0.390625 -3.09375 L 0.390625 -2.9375 C 0.390625 -1.140625 1.265625 -0.25 2.703125 -0.25 Z M 2.703125 -0.25 "/>
</g>
<g id="glyph-1-5">
<path d="M 2.109375 -0.265625 C 3.171875 -0.265625 3.90625 -1.015625 3.90625 -2.265625 L 3.90625 -2.375 C 3.90625 -3.625 3.234375 -4.34375 2.125 -4.34375 C 1.0625 -4.34375 0.328125 -3.59375 0.328125 -2.34375 L 0.328125 -2.234375 C 0.328125 -0.96875 1 -0.265625 2.109375 -0.265625 Z M 2.125 -0.765625 C 1.46875 -0.765625 0.953125 -1.125 0.953125 -2.21875 L 0.953125 -2.40625 C 0.953125 -3.328125 1.390625 -3.84375 2.109375 -3.84375 C 2.75 -3.84375 3.28125 -3.484375 3.28125 -2.390625 L 3.28125 -2.1875 C 3.28125 -1.265625 2.84375 -0.765625 2.125 -0.765625 Z M 2.125 -0.765625 "/>
</g>
<g id="glyph-1-6">
<path d="M 0.578125 -0.328125 L 1.1875 -0.328125 L 1.1875 -3.421875 C 1.46875 -3.625 1.84375 -3.765625 2.25 -3.765625 C 2.3125 -3.765625 2.421875 -3.765625 2.53125 -3.75 L 2.53125 -4.296875 C 2.5 -4.296875 2.375 -4.3125 2.296875 -4.3125 C 1.84375 -4.3125 1.421875 -4.078125 1.203125 -3.828125 L 1.15625 -3.828125 L 1.15625 -4.265625 L 0.578125 -4.265625 Z M 0.578125 -0.328125 "/>
</g>
<g id="glyph-1-7">
<path d="M 0.15625 -0.328125 L 0.75 -0.328125 L 1.296875 -1.890625 L 3.4375 -1.890625 L 4 -0.328125 L 4.65625 -0.328125 L 2.71875 -5.65625 L 2.109375 -5.65625 Z M 2.359375 -4.8125 L 2.375 -4.8125 L 3.234375 -2.421875 L 1.484375 -2.421875 Z M 2.359375 -4.8125 "/>
</g>
<g id="glyph-1-8">
<path d="M 0.6875 -0.328125 L 2.46875 -0.328125 C 3.671875 -0.328125 4.265625 -0.953125 4.265625 -1.828125 C 4.265625 -2.640625 3.796875 -3.015625 3.140625 -3.125 L 3.140625 -3.15625 C 3.765625 -3.34375 4.03125 -3.765625 4.03125 -4.3125 C 4.03125 -5.171875 3.546875 -5.65625 2.3125 -5.65625 L 0.6875 -5.65625 Z M 1.3125 -0.859375 L 1.3125 -2.828125 L 2.359375 -2.828125 C 3.15625 -2.828125 3.609375 -2.5625 3.609375 -1.875 C 3.609375 -1.1875 3.203125 -0.859375 2.421875 -0.859375 Z M 1.3125 -3.328125 L 1.3125 -5.125 L 2.265625 -5.125 C 3.015625 -5.125 3.390625 -4.90625 3.390625 -4.25 C 3.390625 -3.5625 2.890625 -3.328125 2.21875 -3.328125 Z M 1.3125 -3.328125 "/>
</g>
<g id="glyph-1-9">
<path d="M 0.53125 -3.5 L 3.6875 -3.5 L 3.6875 -4 L 0.53125 -4 Z M 0.53125 -1.90625 L 3.6875 -1.90625 L 3.6875 -2.421875 L 0.53125 -2.421875 Z M 0.53125 -1.90625 "/>
</g>
<g id="glyph-1-10">
<path d="M 0.6875 -0.328125 L 1.265625 -0.328125 L 1.265625 -4.828125 L 1.296875 -4.828125 L 2.828125 -0.328125 L 3.421875 -0.328125 L 4.984375 -4.828125 L 5 -4.828125 L 5 -0.328125 L 5.640625 -0.328125 L 5.640625 -5.65625 L 4.703125 -5.65625 L 3.171875 -1.15625 L 3.15625 -1.15625 L 1.625 -5.65625 L 0.6875 -5.65625 Z M 0.6875 -0.328125 "/>
</g>
<g id="glyph-1-11">
<path d="M 1.984375 -0.265625 C 2.515625 -0.265625 2.890625 -0.421875 3.140625 -0.65625 L 3.171875 -0.65625 L 3.234375 -0.328125 L 3.75 -0.328125 L 3.75 -6.015625 L 3.140625 -6.015625 L 3.140625 -4.078125 C 2.921875 -4.203125 2.59375 -4.34375 2.109375 -4.34375 C 1.09375 -4.34375 0.34375 -3.71875 0.34375 -2.296875 L 0.34375 -2.1875 C 0.34375 -0.734375 1.203125 -0.265625 1.984375 -0.265625 Z M 2.171875 -0.765625 C 1.453125 -0.765625 0.984375 -1.109375 0.984375 -2.21875 L 0.984375 -2.375 C 0.984375 -3.4375 1.4375 -3.828125 2.1875 -3.828125 C 2.59375 -3.828125 2.953125 -3.71875 3.140625 -3.578125 L 3.140625 -1.09375 C 2.9375 -0.9375 2.625 -0.765625 2.171875 -0.765625 Z M 2.171875 -0.765625 "/>
</g>
<g id="glyph-1-12">
<path d="M 0.8125 -0.328125 L 1.421875 -0.328125 L 1.421875 -3.765625 L 2.328125 -3.765625 L 2.328125 -4.265625 L 1.421875 -4.265625 L 1.421875 -4.796875 C 1.421875 -5.34375 1.6875 -5.5625 2.15625 -5.5625 C 2.421875 -5.5625 2.59375 -5.53125 2.703125 -5.515625 L 2.703125 -5.9375 C 2.5625 -6.015625 2.34375 -6.078125 2.046875 -6.078125 C 1.328125 -6.078125 0.8125 -5.703125 0.8125 -4.828125 L 0.8125 -4.265625 L 0.234375 -4.265625 L 0.234375 -3.765625 L 0.8125 -3.765625 Z M 0.8125 -0.328125 "/>
</g>
<g id="glyph-1-13">
<path d="M 1.828125 0.46875 L 2.375 0.46875 C 1.671875 -0.3125 1.09375 -1.53125 1.09375 -2.75 L 1.09375 -2.9375 C 1.09375 -4.203125 1.671875 -5.34375 2.375 -6.125 L 1.828125 -6.125 C 1.09375 -5.375 0.453125 -4.296875 0.453125 -2.890625 L 0.453125 -2.765625 C 0.453125 -1.359375 1.09375 -0.265625 1.828125 0.46875 Z M 1.828125 0.46875 "/>
</g>
<g id="glyph-1-14">
<path d="M 6.015625 0.5625 L 6.015625 -6.375 L 5.40625 -6.375 L 5.40625 0.5625 Z M 0.53125 -3.40625 C 0.53125 -1.9375 1.1875 -0.953125 2.3125 -0.953125 C 3.46875 -0.953125 4.109375 -1.9375 4.109375 -3.40625 C 4.109375 -4.875 3.46875 -5.859375 2.3125 -5.859375 C 1.1875 -5.859375 0.53125 -4.875 0.53125 -3.40625 Z M 3.546875 -3.40625 C 3.546875 -2.265625 3.0625 -1.46875 2.3125 -1.46875 C 1.59375 -1.46875 1.109375 -2.265625 1.109375 -3.40625 C 1.109375 -4.546875 1.59375 -5.328125 2.3125 -5.328125 C 3.0625 -5.328125 3.546875 -4.546875 3.546875 -3.40625 Z M 3.546875 -3.40625 "/>
</g>
<g id="glyph-1-15">
<path d="M 1.03125 -5.65625 L 1.03125 -5.15625 L 5.15625 -5.15625 L 5.15625 -4.609375 C 5.15625 -4.390625 5.15625 -4.171875 5.140625 -3.921875 L 0.84375 -3.765625 L 0.9375 -3.234375 L 5.109375 -3.453125 C 5.0625 -2.796875 5 -2.15625 4.90625 -1.8125 L 5.5 -1.75 C 5.703125 -2.640625 5.78125 -3.984375 5.78125 -4.90625 L 5.78125 -5.65625 Z M 6.5625 -0.390625 L 6.5625 -0.890625 L 3.359375 -0.890625 L 3.359375 -2.734375 L 2.75 -2.734375 L 2.75 -0.890625 L 0.296875 -0.890625 L 0.296875 -0.390625 Z M 6.5625 -0.390625 "/>
</g>
<g id="glyph-1-16">
<path d="M 0.390625 -3.4375 C 0.390625 -1.96875 1.03125 -0.984375 2.140625 -0.984375 C 3.203125 -0.984375 3.8125 -1.859375 3.875 -3.203125 L 5.359375 -3.203125 L 5.359375 0.5625 L 5.96875 0.5625 L 5.96875 -6.375 L 5.359375 -6.375 L 5.359375 -3.71875 L 3.875 -3.71875 C 3.796875 -5.03125 3.1875 -5.890625 2.140625 -5.890625 C 1.03125 -5.890625 0.390625 -4.90625 0.390625 -3.4375 Z M 3.296875 -3.4375 C 3.296875 -2.3125 2.828125 -1.515625 2.140625 -1.515625 C 1.453125 -1.515625 0.984375 -2.3125 0.984375 -3.4375 C 0.984375 -4.578125 1.453125 -5.375 2.140625 -5.375 C 2.828125 -5.375 3.296875 -4.578125 3.296875 -3.4375 Z M 3.296875 -3.4375 "/>
</g>
<g id="glyph-1-17">
<path d="M 3.828125 -2.5625 L 3.828125 -5.765625 L 0.546875 -5.765625 L 0.546875 -2.5625 Z M 3.21875 -3.0625 L 1.140625 -3.0625 L 1.140625 -5.265625 L 3.21875 -5.265625 Z M 6.6875 -3.796875 L 6.6875 -4.3125 L 5.640625 -4.3125 L 5.640625 -6.375 L 5.03125 -6.375 L 5.03125 -1.34375 L 5.640625 -1.34375 L 5.640625 -3.796875 Z M 5.90625 0.3125 L 5.90625 -0.1875 L 1.890625 -0.1875 L 1.890625 -1.8125 L 1.296875 -1.8125 L 1.296875 0.3125 Z M 5.90625 0.3125 "/>
</g>
<g id="glyph-1-18">
<path d="M 5.640625 -6.375 L 5.03125 -6.375 L 5.03125 0.5625 L 5.640625 0.5625 L 5.640625 -2.96875 L 6.765625 -2.96875 L 6.765625 -3.5 L 5.640625 -3.5 Z M 3.828125 -5.640625 L 0.578125 -5.640625 L 0.578125 -5.125 L 3.1875 -5.125 C 3.0625 -3.5625 2.0625 -2.109375 0.328125 -1.296875 L 0.703125 -0.828125 C 2.5 -1.75 3.796875 -3.375 3.828125 -5.640625 Z M 3.828125 -5.640625 "/>
</g>
<g id="glyph-1-19">
<path d="M 5.984375 0.453125 L 5.984375 -2 L 1.46875 -2 L 1.46875 0.453125 Z M 0.578125 -5.359375 L 2.15625 -5.359375 C 2.15625 -5.234375 2.15625 -5.078125 2.140625 -5 C 2.109375 -4.078125 1.234375 -3.1875 0.359375 -2.84375 L 0.703125 -2.375 C 1.453125 -2.703125 2.265625 -3.46875 2.4375 -4.125 C 2.734375 -3.5 3.453125 -2.859375 4.125 -2.59375 L 4.453125 -3.078125 C 3.671875 -3.34375 2.8125 -4.109375 2.765625 -5 C 2.765625 -5.078125 2.765625 -5.234375 2.765625 -5.359375 L 4.390625 -5.359375 L 4.390625 -5.859375 L 0.578125 -5.859375 Z M 5.375 -0.046875 L 2.078125 -0.046875 L 2.078125 -1.515625 L 5.375 -1.515625 Z M 5.359375 -6.375 L 5.359375 -2.390625 L 5.96875 -2.390625 L 5.96875 -6.375 Z M 5.359375 -6.375 "/>
</g>
<g id="glyph-1-20">
<path d="M 0.15625 0.703125 L 0.578125 0.703125 L 1.171875 -0.84375 L 0.4375 -0.84375 Z M 0.15625 0.703125 "/>
</g>
<g id="glyph-1-21">
<path d="M 6.6875 -4.046875 L 6.6875 -4.5625 L 5.625 -4.5625 L 5.625 -6.375 L 5.03125 -6.375 L 5.03125 -2.125 L 5.625 -2.125 L 5.625 -4.046875 Z M 1.109375 -1.765625 L 1.109375 -1.265625 L 5.03125 -1.265625 L 5.03125 0.5625 L 5.625 0.5625 L 5.625 -1.765625 Z M 4.390625 -3.1875 C 3.578125 -3.03125 2.0625 -2.96875 1.25 -2.96875 L 1.171875 -2.96875 L 1.171875 -4.03125 L 3.6875 -4.03125 L 3.6875 -5.953125 L 0.546875 -5.953125 L 0.546875 -5.453125 L 3.078125 -5.453125 L 3.078125 -4.515625 L 0.5625 -4.515625 L 0.5625 -2.453125 L 1.21875 -2.453125 C 2.1875 -2.453125 3.734375 -2.5625 4.4375 -2.6875 Z M 4.390625 -3.1875 "/>
</g>
<g id="glyph-1-22">
<path d="M 6.015625 0.5625 L 6.015625 -6.375 L 5.40625 -6.375 L 5.40625 0.5625 Z M 4.53125 -1.578125 C 3.5625 -2.140625 2.71875 -3.28125 2.71875 -4.546875 L 2.71875 -5.78125 L 2.109375 -5.78125 L 2.109375 -4.53125 C 2.109375 -3.296875 1.28125 -2.03125 0.265625 -1.390625 L 0.65625 -0.9375 C 1.453125 -1.515625 2.171875 -2.359375 2.421875 -3.234375 C 2.703125 -2.390625 3.515625 -1.546875 4.140625 -1.109375 Z M 4.53125 -1.578125 "/>
</g>
<g id="glyph-1-23">
<path d="M 6.5625 -0.328125 L 6.5625 -0.828125 L 3.71875 -0.828125 L 3.71875 -2.53125 L 5.859375 -2.53125 L 5.859375 -3.03125 L 1.671875 -3.03125 L 1.671875 -5.296875 L 5.8125 -5.296875 L 5.8125 -5.796875 L 1.0625 -5.796875 L 1.0625 -2.53125 L 3.125 -2.53125 L 3.125 -0.828125 L 0.296875 -0.828125 L 0.296875 -0.328125 Z M 6.5625 -0.328125 "/>
</g>
<g id="glyph-1-24">
<path d="M 5.875 -0.703125 C 5.875 -1.4375 5.0625 -1.859375 3.71875 -1.921875 L 3.71875 -2.65625 L 6.5625 -2.65625 L 6.5625 -3.15625 L 0.296875 -3.15625 L 0.296875 -2.65625 L 3.125 -2.65625 L 3.125 -1.921875 C 1.796875 -1.859375 1 -1.421875 1 -0.703125 C 1 0.09375 1.921875 0.53125 3.421875 0.53125 C 4.9375 0.53125 5.875 0.09375 5.875 -0.703125 Z M 6.234375 -4.09375 C 5.28125 -4.1875 4 -4.703125 3.78125 -5.53125 L 5.96875 -5.53125 L 5.96875 -6.015625 L 0.890625 -6.015625 L 0.890625 -5.53125 L 3.09375 -5.53125 C 2.890625 -4.703125 1.703125 -4.1875 0.625 -4.09375 L 0.890625 -3.578125 C 2.125 -3.765625 3.15625 -4.328125 3.421875 -4.984375 C 3.78125 -4.34375 4.8125 -3.78125 5.96875 -3.59375 Z M 3.421875 -1.421875 C 4.53125 -1.421875 5.25 -1.1875 5.25 -0.703125 C 5.25 -0.1875 4.53125 0.046875 3.421875 0.046875 C 2.34375 0.046875 1.625 -0.1875 1.625 -0.703125 C 1.625 -1.1875 2.34375 -1.421875 3.421875 -1.421875 Z M 3.421875 -1.421875 "/>
</g>
<g id="glyph-1-25">
<path d="M 0.140625 0.46875 L 0.6875 0.46875 C 1.421875 -0.265625 2.046875 -1.34375 2.046875 -2.765625 L 2.046875 -2.890625 C 2.046875 -4.296875 1.421875 -5.375 0.6875 -6.125 L 0.140625 -6.125 C 0.84375 -5.328125 1.421875 -4.125 1.421875 -2.890625 L 1.421875 -2.703125 C 1.421875 -1.4375 0.84375 -0.3125 0.140625 0.46875 Z M 0.140625 0.46875 "/>
</g>
<g id="glyph-1-26">
<path d="M 0.71875 -0.328125 L 1.34375 -0.328125 L 1.34375 -5.65625 L 0.71875 -5.65625 Z M 0.71875 -0.328125 "/>
</g>
<g id="glyph-1-27">
<path d="M 0.578125 -0.328125 L 1.1875 -0.328125 L 1.1875 -3.53125 C 1.515625 -3.6875 1.921875 -3.8125 2.296875 -3.8125 C 2.921875 -3.8125 3.09375 -3.625 3.09375 -3.140625 L 3.09375 -0.328125 L 3.6875 -0.328125 L 3.6875 -3.265625 C 3.6875 -4.03125 3.3125 -4.34375 2.546875 -4.34375 C 2.0625 -4.34375 1.5625 -4.171875 1.1875 -3.921875 L 1.15625 -3.921875 L 1.15625 -4.265625 L 0.578125 -4.265625 Z M 0.578125 -0.328125 "/>
</g>
<g id="glyph-1-28">
<path d="M 1.65625 -0.328125 L 2.25 -0.328125 L 3.71875 -4.265625 L 3.125 -4.265625 L 1.984375 -1.109375 L 1.953125 -1.109375 L 0.84375 -4.265625 L 0.1875 -4.265625 Z M 1.65625 -0.328125 "/>
</g>
<g id="glyph-1-29">
<path d="M 1.546875 -0.265625 C 2.078125 -0.265625 2.40625 -0.453125 2.59375 -0.671875 L 2.625 -0.671875 L 2.6875 -0.328125 L 3.1875 -0.328125 L 3.1875 -3.1875 C 3.1875 -3.984375 2.703125 -4.34375 1.828125 -4.34375 C 1.375 -4.34375 1 -4.265625 0.65625 -4.125 L 0.65625 -3.6875 C 0.90625 -3.765625 1.21875 -3.8125 1.59375 -3.8125 C 2.296875 -3.8125 2.578125 -3.65625 2.578125 -3.046875 L 2.578125 -2.640625 L 1.515625 -2.515625 C 0.75 -2.421875 0.3125 -2.0625 0.3125 -1.359375 C 0.3125 -0.625 0.828125 -0.265625 1.546875 -0.265625 Z M 1.6875 -0.734375 C 1.234375 -0.734375 0.9375 -0.953125 0.9375 -1.375 C 0.9375 -1.828125 1.1875 -2.03125 1.671875 -2.078125 L 2.578125 -2.1875 L 2.578125 -1.03125 C 2.40625 -0.859375 2.0625 -0.734375 1.6875 -0.734375 Z M 1.6875 -0.734375 "/>
</g>
<g id="glyph-1-30">
<path d="M 0.59375 -0.328125 L 1.203125 -0.328125 L 1.203125 -6.015625 L 0.59375 -6.015625 Z M 0.59375 -0.328125 "/>
</g>
<g id="glyph-1-31">
<path d="M 5.65625 -6.375 L 5.046875 -6.375 L 5.046875 0.5625 L 5.65625 0.5625 L 5.65625 -3.125 L 6.78125 -3.125 L 6.78125 -3.625 L 5.65625 -3.625 Z M 1.1875 -1.65625 L 1.1875 -5.15625 L 3.859375 -5.15625 L 3.859375 -5.65625 L 0.578125 -5.65625 L 0.578125 -1.140625 L 1.25 -1.140625 C 2.453125 -1.140625 3.828125 -1.234375 4.578125 -1.375 L 4.515625 -1.875 C 3.84375 -1.734375 2.46875 -1.65625 1.578125 -1.65625 Z M 1.1875 -1.65625 "/>
</g>
<g id="glyph-1-32">
<path d="M 5.90625 -3.0625 L 5.90625 -3.5625 L 1.6875 -3.5625 L 1.6875 -4.359375 L 5.765625 -4.359375 L 5.765625 -6.078125 L 1.09375 -6.078125 L 1.09375 -5.59375 L 5.15625 -5.59375 L 5.15625 -4.828125 L 1.09375 -4.828125 L 1.09375 -3.0625 Z M 6.5625 -1.90625 L 6.5625 -2.40625 L 0.296875 -2.40625 L 0.296875 -1.90625 Z M 5.859375 0.34375 L 5.859375 -0.15625 L 1.6875 -0.15625 L 1.6875 -1.453125 L 1.078125 -1.453125 L 1.078125 0.34375 Z M 5.859375 0.34375 "/>
</g>
<g id="glyph-1-33">
<path d="M 0.6875 -0.328125 L 1.3125 -0.328125 L 1.3125 -2.625 L 2.328125 -2.625 L 3.65625 -0.328125 L 4.359375 -0.328125 L 2.953125 -2.734375 L 2.953125 -2.765625 C 3.609375 -2.96875 4 -3.40625 4 -4.171875 C 4 -5.125 3.40625 -5.65625 2.234375 -5.65625 L 0.6875 -5.65625 Z M 1.3125 -3.109375 L 1.3125 -5.125 L 2.1875 -5.125 C 3 -5.125 3.328125 -4.8125 3.328125 -4.15625 C 3.328125 -3.46875 3.03125 -3.109375 2.1875 -3.109375 Z M 1.3125 -3.109375 "/>
</g>
<g id="glyph-1-34">
<path d="M 0.6875 -0.328125 L 1.3125 -0.328125 L 1.3125 -2.71875 L 3.203125 -2.71875 L 3.203125 -3.265625 L 1.3125 -3.265625 L 1.3125 -5.125 L 3.765625 -5.125 L 3.765625 -5.65625 L 0.6875 -5.65625 Z M 0.6875 -0.328125 "/>
</g>
<g id="glyph-1-35">
<path d="M 2.703125 -0.25 C 4.171875 -0.25 5.046875 -1.25 5.046875 -2.921875 L 5.046875 -3.0625 C 5.046875 -4.796875 4.171875 -5.75 2.734375 -5.75 C 1.265625 -5.75 0.375 -4.734375 0.375 -3.0625 L 0.375 -2.9375 C 0.375 -1.1875 1.265625 -0.25 2.703125 -0.25 Z M 2.71875 -0.765625 C 1.53125 -0.765625 1.0625 -1.65625 1.0625 -2.9375 L 1.0625 -3.1875 C 1.0625 -4.375 1.609375 -5.234375 2.703125 -5.234375 C 3.90625 -5.21875 4.375 -4.34375 4.375 -3.0625 L 4.375 -2.8125 C 4.375 -1.625 3.828125 -0.765625 2.71875 -0.765625 Z M 2.71875 -0.765625 "/>
</g>
<g id="glyph-1-36">
<path d="M 6.5625 -0.328125 L 6.5625 -0.828125 L 3.71875 -0.828125 L 3.71875 -2.015625 L 5.984375 -2.015625 L 5.984375 -2.53125 L 1.671875 -2.53125 L 1.671875 -3.6875 L 5.78125 -3.6875 L 5.78125 -5.796875 L 1.0625 -5.796875 L 1.0625 -5.296875 L 5.1875 -5.296875 L 5.1875 -4.1875 L 1.078125 -4.1875 L 1.078125 -2.015625 L 3.125 -2.015625 L 3.125 -0.828125 L 0.296875 -0.828125 L 0.296875 -0.328125 Z M 6.5625 -0.328125 "/>
</g>
<g id="glyph-1-37">
<path d="M 6.265625 0.5625 L 6.265625 -6.375 L 5.703125 -6.375 L 5.703125 -3.578125 L 5.109375 -3.578125 L 5.109375 -6.21875 L 4.546875 -6.21875 L 4.546875 0.203125 L 5.109375 0.203125 L 5.109375 -3.078125 L 5.703125 -3.078125 L 5.703125 0.5625 Z M 2.0625 -1.1875 L 2.0625 -5.578125 L 1.53125 -5.578125 L 1.53125 -3.8125 L 1 -3.8125 L 1 -5.5625 L 0.46875 -5.5625 L 0.46875 -1.1875 Z M 4.046875 -1.1875 L 4.046875 -5.578125 L 3.53125 -5.578125 L 3.53125 -3.8125 L 2.984375 -3.8125 L 2.984375 -5.578125 L 2.453125 -5.578125 L 2.453125 -1.1875 Z M 3.53125 -1.6875 L 2.984375 -1.6875 L 2.984375 -3.3125 L 3.53125 -3.3125 Z M 1.53125 -1.6875 L 1 -1.6875 L 1 -3.3125 L 1.53125 -3.3125 Z M 1.53125 -1.6875 "/>
</g>
<g id="glyph-1-38">
<path d="M 6.6875 -3.9375 L 6.6875 -4.4375 L 5.640625 -4.4375 L 5.640625 -6.375 L 5.03125 -6.375 L 5.03125 -1.796875 L 5.640625 -1.796875 L 5.640625 -3.9375 Z M 2.171875 -5.859375 C 1.1875 -5.859375 0.375 -5.1875 0.375 -4.171875 C 0.375 -3.125 1.1875 -2.484375 2.171875 -2.484375 C 3.15625 -2.484375 3.96875 -3.125 3.96875 -4.171875 C 3.96875 -5.1875 3.15625 -5.859375 2.171875 -5.859375 Z M 2.171875 -5.375 C 2.90625 -5.375 3.390625 -4.875 3.390625 -4.171875 C 3.390625 -3.453125 2.890625 -2.96875 2.171875 -2.96875 C 1.46875 -2.96875 0.953125 -3.453125 0.953125 -4.171875 C 0.953125 -4.875 1.46875 -5.375 2.171875 -5.375 Z M 6.21875 0.0625 C 5.1875 -0.078125 3.890625 -0.875 3.890625 -1.875 L 3.890625 -2.15625 L 3.265625 -2.15625 L 3.265625 -1.875 C 3.265625 -0.875 2.015625 -0.0625 0.890625 0.078125 L 1.1875 0.578125 C 2.1875 0.375 3.296875 -0.34375 3.5625 -1.015625 C 3.84375 -0.359375 5.015625 0.375 5.90625 0.5625 Z M 6.21875 0.0625 "/>
</g>
<g id="glyph-1-39">
<path d="M 6.5625 -2.53125 L 6.5625 -3.03125 L 0.296875 -3.03125 L 0.296875 -2.53125 Z M 5.796875 0.453125 L 5.796875 -1.796875 L 1.078125 -1.796875 L 1.078125 0.453125 Z M 5.203125 -0.046875 L 1.671875 -0.046875 L 1.671875 -1.3125 L 5.203125 -1.3125 Z M 5.859375 -4.890625 C 5.859375 -5.6875 4.953125 -6.203125 3.421875 -6.203125 C 1.90625 -6.203125 1.015625 -5.6875 1.015625 -4.890625 C 1.015625 -4.109375 1.90625 -3.59375 3.421875 -3.59375 C 4.953125 -3.59375 5.859375 -4.109375 5.859375 -4.890625 Z M 5.265625 -4.890625 C 5.265625 -4.390625 4.546875 -4.078125 3.421875 -4.078125 C 2.3125 -4.078125 1.609375 -4.390625 1.609375 -4.890625 C 1.609375 -5.40625 2.3125 -5.71875 3.421875 -5.71875 C 4.546875 -5.71875 5.265625 -5.40625 5.265625 -4.890625 Z M 5.265625 -4.890625 "/>
</g>
<g id="glyph-1-40">
<path d="M 3.28125 -1.296875 L 3.28125 -5.625 L 0.53125 -5.625 L 0.53125 -1.296875 Z M 6.15625 0.5625 L 6.15625 -6.375 L 5.5625 -6.375 L 5.5625 -3.609375 L 4.703125 -3.609375 L 4.703125 -6.21875 L 4.125 -6.21875 L 4.125 0.203125 L 4.703125 0.203125 L 4.703125 -3.109375 L 5.5625 -3.109375 L 5.5625 0.5625 Z M 2.6875 -1.796875 L 1.125 -1.796875 L 1.125 -5.125 L 2.6875 -5.125 Z M 2.6875 -1.796875 "/>
</g>
<g id="glyph-1-41">
<path d="M 2.15625 -0.265625 C 2.703125 -0.265625 3.046875 -0.421875 3.296875 -0.578125 L 3.296875 -1.0625 C 3.109375 -0.953125 2.75 -0.78125 2.21875 -0.78125 C 1.375 -0.78125 0.953125 -1.234375 0.953125 -2.25 L 0.953125 -2.4375 C 0.953125 -3.34375 1.421875 -3.828125 2.140625 -3.828125 C 2.65625 -3.828125 2.90625 -3.734375 3.265625 -3.578125 L 3.265625 -4.078125 C 3 -4.25 2.6875 -4.34375 2.171875 -4.34375 C 1.15625 -4.34375 0.328125 -3.734375 0.328125 -2.34375 L 0.328125 -2.21875 C 0.328125 -0.921875 1.03125 -0.265625 2.15625 -0.265625 Z M 2.15625 -0.265625 "/>
</g>
<g id="glyph-1-42">
<path d="M 0.578125 -0.328125 L 1.1875 -0.328125 L 1.1875 -3.53125 C 1.515625 -3.6875 1.921875 -3.8125 2.296875 -3.8125 C 2.921875 -3.8125 3.09375 -3.625 3.09375 -3.140625 L 3.09375 -0.328125 L 3.6875 -0.328125 L 3.6875 -3.265625 C 3.6875 -4.03125 3.3125 -4.34375 2.546875 -4.34375 C 2.0625 -4.34375 1.5625 -4.171875 1.21875 -3.921875 L 1.1875 -3.921875 L 1.1875 -6.015625 L 0.578125 -6.015625 Z M 0.578125 -0.328125 "/>
</g>
<g id="glyph-1-43">
<path d="M 0.578125 0.84375 L 1.1875 0.84375 L 1.1875 -0.53125 C 1.40625 -0.390625 1.75 -0.265625 2.203125 -0.265625 C 3.28125 -0.265625 3.984375 -0.859375 3.984375 -2.296875 L 3.984375 -2.40625 C 3.984375 -3.859375 3.234375 -4.34375 2.359375 -4.34375 C 1.859375 -4.34375 1.4375 -4.171875 1.203125 -3.9375 L 1.171875 -3.9375 L 1.171875 -4.265625 L 0.578125 -4.265625 Z M 2.140625 -0.765625 C 1.734375 -0.765625 1.375 -0.890625 1.1875 -1.046875 L 1.1875 -3.546875 C 1.375 -3.671875 1.75 -3.828125 2.203125 -3.828125 C 2.921875 -3.828125 3.34375 -3.484375 3.34375 -2.375 L 3.34375 -2.21875 C 3.34375 -1.15625 2.890625 -0.765625 2.140625 -0.765625 Z M 2.140625 -0.765625 "/>
</g>
<g id="glyph-1-44">
<path d="M 1.953125 0.828125 C 3.296875 0.828125 3.828125 0.296875 3.828125 -0.375 C 3.828125 -1.109375 3.296875 -1.3125 2.59375 -1.3125 L 1.5 -1.3125 C 1.234375 -1.3125 1.109375 -1.390625 1.109375 -1.609375 C 1.109375 -1.734375 1.1875 -1.828125 1.296875 -1.921875 C 1.5 -1.859375 1.71875 -1.8125 1.96875 -1.8125 C 2.796875 -1.8125 3.4375 -2.234375 3.4375 -3.078125 L 3.4375 -3.09375 C 3.4375 -3.390625 3.34375 -3.640625 3.15625 -3.8125 L 3.859375 -3.8125 L 3.859375 -4.28125 L 2.53125 -4.28125 C 2.359375 -4.3125 2.171875 -4.34375 1.96875 -4.34375 C 1.109375 -4.34375 0.484375 -3.890625 0.484375 -3.078125 L 0.484375 -3.0625 C 0.484375 -2.59375 0.6875 -2.265625 0.984375 -2.078125 C 0.6875 -1.84375 0.546875 -1.671875 0.546875 -1.421875 C 0.546875 -1.15625 0.71875 -0.984375 0.9375 -0.921875 L 0.9375 -0.890625 C 0.53125 -0.75 0.1875 -0.515625 0.1875 -0.09375 C 0.1875 0.484375 0.75 0.828125 1.953125 0.828125 Z M 1.9375 0.359375 C 1.15625 0.359375 0.828125 0.1875 0.828125 -0.171875 C 0.828125 -0.5 1.0625 -0.671875 1.359375 -0.78125 L 2.5 -0.78125 C 3.015625 -0.78125 3.203125 -0.65625 3.203125 -0.296875 C 3.203125 0.125 2.859375 0.359375 1.9375 0.359375 Z M 1.96875 -2.296875 C 1.4375 -2.296875 1.09375 -2.546875 1.09375 -3.0625 L 1.09375 -3.109375 C 1.09375 -3.59375 1.421875 -3.875 1.96875 -3.875 C 2.5 -3.875 2.828125 -3.640625 2.828125 -3.09375 L 2.828125 -3.0625 C 2.828125 -2.546875 2.515625 -2.296875 1.96875 -2.296875 Z M 1.96875 -2.296875 "/>
</g>
<g id="glyph-1-45">
<path d="M 0.40625 -2.65625 L 3.03125 -2.65625 L 3.03125 -3.171875 L 0.40625 -3.171875 Z M 0.40625 -2.65625 "/>
</g>
<g id="glyph-1-46">
<path d="M 6.5625 -2.875 L 6.5625 -3.375 L 0.296875 -3.375 L 0.296875 -2.875 Z M 5.859375 -5.078125 C 5.859375 -5.84375 4.9375 -6.28125 3.4375 -6.28125 C 1.9375 -6.28125 1.03125 -5.84375 1.03125 -5.078125 C 1.03125 -4.3125 1.9375 -3.875 3.4375 -3.875 C 4.9375 -3.875 5.859375 -4.3125 5.859375 -5.078125 Z M 3.4375 -5.796875 C 4.546875 -5.796875 5.25 -5.515625 5.25 -5.078125 C 5.25 -4.65625 4.546875 -4.375 3.4375 -4.375 C 2.34375 -4.375 1.640625 -4.65625 1.640625 -5.078125 C 1.640625 -5.515625 2.34375 -5.796875 3.4375 -5.796875 Z M 6.015625 0.484375 L 6.015625 0 L 1.640625 0 L 1.640625 -0.703125 L 5.78125 -0.703125 L 5.78125 -2.25 L 1.015625 -2.25 L 1.015625 -1.765625 L 5.171875 -1.765625 L 5.171875 -1.15625 L 1.03125 -1.15625 L 1.03125 0.484375 Z M 6.015625 0.484375 "/>
</g>
<g id="glyph-1-47">
<path d="M 5.96875 -2.875 L 5.96875 -6.375 L 5.359375 -6.375 L 5.359375 -2.875 Z M 6.21875 0.453125 L 6.21875 -0.03125 L 2.078125 -0.03125 L 2.078125 -0.828125 L 5.96875 -0.828125 L 5.96875 -2.515625 L 1.453125 -2.515625 L 1.453125 -2.015625 L 5.359375 -2.015625 L 5.359375 -1.296875 L 1.46875 -1.296875 L 1.46875 0.453125 Z M 2.296875 -6.171875 C 1.296875 -6.171875 0.484375 -5.53125 0.484375 -4.59375 C 0.484375 -3.65625 1.296875 -3.046875 2.296875 -3.046875 C 3.28125 -3.046875 4.09375 -3.65625 4.09375 -4.59375 C 4.09375 -5.546875 3.28125 -6.171875 2.296875 -6.171875 Z M 2.296875 -5.640625 C 3.015625 -5.640625 3.5 -5.21875 3.5 -4.59375 C 3.5 -3.984375 3.015625 -3.578125 2.296875 -3.578125 C 1.609375 -3.578125 1.078125 -3.984375 1.078125 -4.609375 C 1.078125 -5.21875 1.609375 -5.640625 2.296875 -5.640625 Z M 2.296875 -5.640625 "/>
</g>
<g id="glyph-1-48">
<path d="M 6.5625 -0.390625 L 6.5625 -0.90625 L 0.296875 -0.90625 L 0.296875 -0.390625 Z M 5.953125 -4.03125 C 5.953125 -5.078125 4.953125 -5.78125 3.421875 -5.78125 C 1.90625 -5.78125 0.90625 -5.078125 0.90625 -4.03125 C 0.90625 -2.953125 1.90625 -2.265625 3.421875 -2.265625 C 4.9375 -2.265625 5.953125 -2.953125 5.953125 -4.03125 Z M 5.34375 -4.015625 C 5.34375 -3.28125 4.578125 -2.78125 3.421875 -2.78125 C 2.265625 -2.78125 1.515625 -3.28125 1.515625 -4.015625 C 1.515625 -4.765625 2.265625 -5.265625 3.421875 -5.265625 C 4.59375 -5.265625 5.34375 -4.765625 5.34375 -4.015625 Z M 5.34375 -4.015625 "/>
</g>
<g id="glyph-1-49">
<path d="M 3.921875 -5.796875 L 0.765625 -5.796875 L 0.765625 -5.296875 L 3.265625 -5.296875 C 3.234375 -5.03125 3.1875 -4.75 3.09375 -4.5 L 0.46875 -4.34375 L 0.609375 -3.8125 L 2.859375 -4.03125 C 2.421875 -3.28125 1.609375 -2.6875 0.46875 -2.359375 L 0.78125 -1.890625 C 2.609375 -2.453125 3.859375 -3.765625 3.921875 -5.796875 Z M 6.21875 0.390625 L 6.21875 -0.125 L 2.140625 -0.125 L 2.140625 -1.796875 L 1.546875 -1.796875 L 1.546875 0.390625 Z M 5.96875 -1.34375 L 5.96875 -6.375 L 5.359375 -6.375 L 5.359375 -1.34375 Z M 5.96875 -1.34375 "/>
</g>
<g id="glyph-1-50">
<path d="M 6.421875 -3.15625 L 0.015625 -3.15625 L 0.015625 -2.765625 L 6.421875 -2.765625 Z M 6.421875 -3.15625 "/>
</g>
<g id="glyph-1-51">
<path d="M 1.84375 -0.328125 L 2.46875 -0.328125 L 2.46875 -5.125 L 4.09375 -5.125 L 4.09375 -5.65625 L 0.21875 -5.65625 L 0.21875 -5.125 L 1.84375 -5.125 Z M 1.84375 -0.328125 "/>
</g>
<g id="glyph-1-52">
<path d="M 1.828125 -0.234375 C 3.078125 -0.234375 3.609375 -0.859375 3.609375 -1.78125 C 3.609375 -2.6875 3.109375 -3.015625 2.328125 -3.28125 L 1.796875 -3.453125 C 1.203125 -3.65625 1.015625 -3.875 1.015625 -4.390625 C 1.015625 -4.890625 1.375 -5.21875 2.03125 -5.21875 C 2.609375 -5.21875 3.03125 -5.0625 3.34375 -4.921875 L 3.34375 -5.453125 C 3.046875 -5.59375 2.671875 -5.75 2.046875 -5.75 C 0.9375 -5.75 0.390625 -5.15625 0.390625 -4.328125 C 0.390625 -3.53125 0.8125 -3.140625 1.5625 -2.890625 L 2.078125 -2.71875 C 2.71875 -2.515625 2.96875 -2.28125 2.96875 -1.734375 C 2.96875 -1.15625 2.625 -0.78125 1.796875 -0.78125 C 1.234375 -0.78125 0.71875 -0.921875 0.3125 -1.125 L 0.3125 -0.59375 C 0.671875 -0.390625 1.171875 -0.234375 1.828125 -0.234375 Z M 1.828125 -0.234375 "/>
</g>
<g id="glyph-1-53">
<path d="M 3.71875 0.5625 L 3.71875 -1.953125 L 6.5625 -1.953125 L 6.5625 -2.453125 L 0.296875 -2.453125 L 0.296875 -1.953125 L 3.125 -1.953125 L 3.125 0.5625 Z M 6.3125 -3.71875 C 5.09375 -3.859375 3.75 -4.75 3.75 -5.703125 L 3.75 -6.140625 L 3.125 -6.140625 L 3.125 -5.703125 C 3.125 -4.75 1.890625 -3.875 0.5625 -3.703125 L 0.859375 -3.1875 C 1.90625 -3.390625 3.09375 -4.0625 3.421875 -4.875 C 3.84375 -4.0625 4.984375 -3.40625 6.03125 -3.203125 Z M 6.3125 -3.71875 "/>
</g>
<g id="glyph-1-54">
<path d="M 1.9375 -5.78125 C 0.921875 -5.78125 0.40625 -4.796875 0.40625 -3.40625 C 0.40625 -2.015625 0.921875 -1.03125 1.9375 -1.03125 C 2.890625 -1.03125 3.390625 -1.875 3.453125 -3.140625 L 4.203125 -3.140625 L 4.203125 0.21875 L 4.796875 0.21875 L 4.796875 -6.25 L 4.203125 -6.25 L 4.203125 -3.640625 L 3.453125 -3.640625 C 3.40625 -4.890625 2.890625 -5.78125 1.9375 -5.78125 Z M 2.859375 -3.40625 C 2.859375 -2.28125 2.5 -1.5625 1.9375 -1.5625 C 1.375 -1.5625 1.03125 -2.28125 1.03125 -3.40625 C 1.03125 -4.53125 1.375 -5.25 1.9375 -5.25 C 2.5 -5.25 2.859375 -4.53125 2.859375 -3.40625 Z M 6.15625 0.5625 L 6.15625 -6.375 L 5.5625 -6.375 L 5.5625 0.5625 Z M 6.15625 0.5625 "/>
</g>
<g id="glyph-1-55">
<path d="M 4.109375 -4.90625 L 5.359375 -4.90625 L 5.359375 -3.765625 L 4.109375 -3.765625 L 4.09375 -3.265625 L 5.359375 -3.265625 L 5.359375 -2.296875 L 5.96875 -2.296875 L 5.96875 -6.375 L 5.359375 -6.375 L 5.359375 -5.40625 L 4.09375 -5.40625 Z M 1.3125 -1.921875 L 1.3125 -1.421875 L 5.359375 -1.421875 L 5.359375 0.5625 L 5.96875 0.5625 L 5.96875 -1.921875 Z M 2.15625 -5.984375 C 1.1875 -5.984375 0.375 -5.3125 0.375 -4.296875 C 0.375 -3.296875 1.1875 -2.671875 2.15625 -2.671875 C 3.140625 -2.671875 3.9375 -3.296875 3.9375 -4.3125 C 3.9375 -5.328125 3.140625 -5.984375 2.15625 -5.984375 Z M 2.15625 -5.46875 C 2.875 -5.46875 3.328125 -5 3.328125 -4.296875 C 3.328125 -3.609375 2.859375 -3.15625 2.15625 -3.15625 C 1.46875 -3.15625 0.96875 -3.609375 0.96875 -4.3125 C 0.96875 -5.015625 1.46875 -5.46875 2.15625 -5.46875 Z M 2.15625 -5.46875 "/>
</g>
<g id="glyph-1-56">
<path d="M 6 0.5625 L 6 -6.375 L 5.390625 -6.375 L 5.390625 0.5625 Z M 3.953125 -1.171875 L 3.953125 -5.796875 L 3.34375 -5.796875 L 3.34375 -4.015625 L 1.265625 -4.015625 L 1.265625 -5.796875 L 0.671875 -5.796875 L 0.671875 -1.171875 Z M 3.34375 -1.671875 L 1.265625 -1.671875 L 1.265625 -3.515625 L 3.34375 -3.515625 Z M 3.34375 -1.671875 "/>
</g>
<g id="glyph-1-57">
<path d="M 6.15625 0.5625 L 6.15625 -6.375 L 5.5625 -6.375 L 5.5625 0.5625 Z M 4.296875 -2.40625 L 4.296875 0.203125 L 4.875 0.203125 L 4.875 -6.21875 L 4.296875 -6.21875 L 4.296875 -4.578125 L 3.34375 -4.578125 L 3.34375 -4.078125 L 4.296875 -4.078125 L 4.296875 -2.921875 L 3.34375 -2.921875 L 3.34375 -2.40625 Z M 3.46875 -1.84375 C 2.84375 -1.71875 1.953125 -1.671875 1.1875 -1.6875 L 1.1875 -3.21875 L 3.03125 -3.21875 L 3.03125 -5.5625 L 0.5625 -5.5625 L 0.5625 -5.0625 L 2.421875 -5.0625 L 2.421875 -3.71875 L 0.578125 -3.71875 L 0.578125 -1.171875 L 1.015625 -1.171875 C 1.9375 -1.171875 2.875 -1.234375 3.53125 -1.359375 Z M 3.46875 -1.84375 "/>
</g>
<g id="glyph-1-58">
<path d="M 6.765625 -2.9375 L 6.765625 -3.453125 L 5.640625 -3.453125 L 5.640625 -6.375 L 5.03125 -6.375 L 5.03125 0.5625 L 5.640625 0.5625 L 5.640625 -2.9375 Z M 3.34375 -5.390625 L 3.34375 -5.90625 L 1.296875 -5.90625 L 1.296875 -5.390625 Z M 4.359375 -4.21875 L 4.359375 -4.71875 L 0.265625 -4.71875 L 0.265625 -4.21875 Z M 3.953125 -2.328125 C 3.953125 -3.15625 3.296875 -3.765625 2.328125 -3.765625 C 1.359375 -3.765625 0.71875 -3.140625 0.71875 -2.328125 C 0.71875 -1.53125 1.359375 -0.90625 2.328125 -0.90625 C 3.296875 -0.90625 3.953125 -1.53125 3.953125 -2.328125 Z M 3.34375 -2.328125 C 3.34375 -1.796875 2.921875 -1.40625 2.328125 -1.40625 C 1.75 -1.40625 1.3125 -1.796875 1.3125 -2.328125 C 1.3125 -2.875 1.75 -3.265625 2.328125 -3.265625 C 2.921875 -3.265625 3.34375 -2.875 3.34375 -2.328125 Z M 3.34375 -2.328125 "/>
</g>
<g id="glyph-1-59">
<path d="M 6.5625 -2.296875 L 6.5625 -2.796875 L 0.296875 -2.796875 L 0.296875 -2.296875 Z M 5.890625 0.40625 L 5.890625 -0.09375 L 1.71875 -0.09375 L 1.71875 -1.640625 L 1.125 -1.640625 L 1.125 0.40625 Z M 5.859375 -3.671875 L 5.859375 -4.171875 L 1.75 -4.171875 L 1.75 -6.09375 L 1.140625 -6.09375 L 1.140625 -3.671875 Z M 5.859375 -3.671875 "/>
</g>
<g id="glyph-1-60">
<path d="M 5.890625 -4.5625 C 5.890625 -5.46875 4.96875 -6.0625 3.421875 -6.0625 C 1.890625 -6.0625 0.96875 -5.46875 0.96875 -4.5625 C 0.96875 -3.65625 1.890625 -3.0625 3.421875 -3.0625 C 4.96875 -3.0625 5.890625 -3.671875 5.890625 -4.5625 Z M 2.53125 0.5625 L 2.53125 -1.90625 L 4.3125 -1.90625 L 4.3125 0.5625 L 4.921875 0.5625 L 4.921875 -1.90625 L 6.5625 -1.90625 L 6.5625 -2.40625 L 0.296875 -2.40625 L 0.296875 -1.90625 L 1.921875 -1.90625 L 1.921875 0.5625 Z M 3.421875 -5.53125 C 4.59375 -5.53125 5.296875 -5.15625 5.296875 -4.5625 C 5.296875 -3.96875 4.59375 -3.59375 3.421875 -3.59375 C 2.28125 -3.59375 1.5625 -3.96875 1.5625 -4.5625 C 1.5625 -5.15625 2.28125 -5.53125 3.421875 -5.53125 Z M 3.421875 -5.53125 "/>
</g>
<g id="glyph-2-0">
<path d="M 2.46875 -0.296875 C 3.1875 -0.296875 3.703125 -0.515625 3.96875 -0.703125 L 3.96875 -1.21875 C 3.5625 -1.03125 3.171875 -0.890625 2.578125 -0.890625 C 1.640625 -0.890625 1.109375 -1.3125 1.078125 -2.421875 L 4.09375 -2.421875 L 4.09375 -2.8125 C 4.09375 -4.1875 3.515625 -4.890625 2.3125 -4.890625 C 1.28125 -4.890625 0.375 -4.203125 0.375 -2.65625 L 0.375 -2.53125 C 0.375 -1.140625 1.078125 -0.296875 2.46875 -0.296875 Z M 2.28125 -4.328125 C 3.015625 -4.328125 3.375 -3.9375 3.375 -2.96875 L 1.078125 -2.96875 C 1.140625 -4.015625 1.734375 -4.328125 2.28125 -4.328125 Z M 2.28125 -4.328125 "/>
</g>
<g id="glyph-2-1">
<path d="M 0.203125 -0.375 L 0.953125 -0.375 L 2.109375 -2.140625 L 3.234375 -0.375 L 4.046875 -0.375 L 2.5625 -2.625 L 3.9375 -4.8125 L 3.203125 -4.8125 L 2.1875 -3.125 L 1.078125 -4.8125 L 0.28125 -4.8125 L 1.71875 -2.625 Z M 0.203125 -0.375 "/>
</g>
<g id="glyph-2-2">
<path d="M 2.421875 -0.296875 C 3.03125 -0.296875 3.4375 -0.46875 3.71875 -0.640625 L 3.71875 -1.203125 C 3.5 -1.078125 3.09375 -0.890625 2.5 -0.890625 C 1.5625 -0.890625 1.078125 -1.390625 1.078125 -2.53125 L 1.078125 -2.75 C 1.078125 -3.765625 1.609375 -4.3125 2.40625 -4.3125 C 3 -4.3125 3.28125 -4.203125 3.671875 -4.015625 L 3.671875 -4.59375 C 3.375 -4.78125 3.03125 -4.890625 2.453125 -4.890625 C 1.3125 -4.890625 0.375 -4.203125 0.375 -2.640625 L 0.375 -2.5 C 0.375 -1.046875 1.15625 -0.296875 2.421875 -0.296875 Z M 2.421875 -0.296875 "/>
</g>
<g id="glyph-2-3">
<path d="M 0.65625 -0.375 L 1.328125 -0.375 L 1.328125 -3.96875 C 1.703125 -4.140625 2.15625 -4.296875 2.578125 -4.296875 C 3.28125 -4.296875 3.484375 -4.078125 3.484375 -3.546875 L 3.484375 -0.375 L 4.15625 -0.375 L 4.15625 -3.671875 C 4.15625 -4.53125 3.734375 -4.890625 2.875 -4.890625 C 2.328125 -4.890625 1.765625 -4.703125 1.375 -4.421875 L 1.328125 -4.421875 L 1.328125 -6.78125 L 0.65625 -6.78125 Z M 0.65625 -0.375 "/>
</g>
<g id="glyph-2-4">
<path d="M 1.734375 -0.296875 C 2.328125 -0.296875 2.703125 -0.515625 2.90625 -0.765625 L 2.953125 -0.765625 L 3.03125 -0.375 L 3.578125 -0.375 L 3.578125 -3.578125 C 3.578125 -4.484375 3.03125 -4.890625 2.0625 -4.890625 C 1.5625 -4.890625 1.125 -4.8125 0.734375 -4.640625 L 0.734375 -4.15625 C 1.015625 -4.234375 1.375 -4.296875 1.796875 -4.296875 C 2.59375 -4.296875 2.890625 -4.125 2.890625 -3.4375 L 2.890625 -2.96875 L 1.703125 -2.828125 C 0.84375 -2.71875 0.34375 -2.3125 0.34375 -1.53125 C 0.34375 -0.703125 0.921875 -0.296875 1.734375 -0.296875 Z M 1.90625 -0.828125 C 1.390625 -0.828125 1.0625 -1.078125 1.0625 -1.5625 C 1.0625 -2.0625 1.328125 -2.28125 1.875 -2.34375 L 2.890625 -2.453125 L 2.890625 -1.15625 C 2.703125 -0.96875 2.3125 -0.828125 1.90625 -0.828125 Z M 1.90625 -0.828125 "/>
</g>
<g id="glyph-2-5">
<path d="M 0.65625 -0.375 L 1.328125 -0.375 L 1.328125 -3.984375 C 1.703125 -4.140625 2.15625 -4.296875 2.578125 -4.296875 C 3.28125 -4.296875 3.484375 -4.078125 3.484375 -3.546875 L 3.484375 -0.375 L 4.15625 -0.375 L 4.15625 -3.6875 C 4.15625 -4.546875 3.734375 -4.890625 2.875 -4.890625 C 2.328125 -4.890625 1.75 -4.6875 1.34375 -4.421875 L 1.3125 -4.421875 L 1.3125 -4.8125 L 0.65625 -4.8125 Z M 0.65625 -0.375 "/>
</g>
<g id="glyph-2-6">
<path d="M 2.203125 0.9375 C 3.703125 0.9375 4.3125 0.34375 4.3125 -0.421875 C 4.3125 -1.25 3.71875 -1.484375 2.90625 -1.484375 L 1.6875 -1.484375 C 1.390625 -1.484375 1.25 -1.578125 1.25 -1.8125 C 1.25 -1.953125 1.34375 -2.0625 1.453125 -2.171875 C 1.6875 -2.09375 1.9375 -2.046875 2.21875 -2.046875 C 3.140625 -2.046875 3.875 -2.515625 3.875 -3.46875 L 3.875 -3.484375 C 3.875 -3.828125 3.765625 -4.09375 3.5625 -4.296875 L 4.359375 -4.296875 L 4.359375 -4.8125 L 2.84375 -4.8125 C 2.65625 -4.859375 2.453125 -4.890625 2.21875 -4.890625 C 1.25 -4.890625 0.546875 -4.375 0.546875 -3.453125 L 0.546875 -3.4375 C 0.546875 -2.90625 0.765625 -2.5625 1.109375 -2.328125 C 0.765625 -2.078125 0.609375 -1.875 0.609375 -1.59375 C 0.609375 -1.3125 0.796875 -1.125 1.046875 -1.046875 L 1.046875 -1 C 0.59375 -0.84375 0.21875 -0.578125 0.21875 -0.09375 C 0.21875 0.546875 0.84375 0.9375 2.203125 0.9375 Z M 2.1875 0.40625 C 1.3125 0.40625 0.921875 0.203125 0.921875 -0.1875 C 0.921875 -0.5625 1.1875 -0.765625 1.53125 -0.875 L 2.8125 -0.875 C 3.390625 -0.875 3.609375 -0.734375 3.609375 -0.328125 C 3.609375 0.140625 3.21875 0.40625 2.1875 0.40625 Z M 2.21875 -2.578125 C 1.625 -2.578125 1.234375 -2.875 1.234375 -3.453125 L 1.234375 -3.5 C 1.234375 -4.046875 1.609375 -4.375 2.21875 -4.375 C 2.8125 -4.375 3.1875 -4.09375 3.1875 -3.484375 L 3.1875 -3.4375 C 3.1875 -2.875 2.828125 -2.578125 2.21875 -2.578125 Z M 2.21875 -2.578125 "/>
</g>
<g id="glyph-2-7">
<path d="M 2.0625 0.53125 L 2.671875 0.53125 C 1.875 -0.359375 1.234375 -1.71875 1.234375 -3.09375 L 1.234375 -3.3125 C 1.234375 -4.734375 1.875 -6.015625 2.671875 -6.90625 L 2.0625 -6.90625 C 1.234375 -6.0625 0.515625 -4.84375 0.515625 -3.25 L 0.515625 -3.109375 C 0.515625 -1.53125 1.234375 -0.296875 2.0625 0.53125 Z M 2.0625 0.53125 "/>
</g>
<g id="glyph-2-8">
<path d="M 0.765625 -0.375 L 1.46875 -0.375 L 1.46875 -2.953125 L 2.625 -2.953125 L 4.109375 -0.375 L 4.921875 -0.375 L 3.328125 -3.078125 L 3.328125 -3.125 C 4.0625 -3.359375 4.5 -3.828125 4.5 -4.6875 C 4.5 -5.78125 3.828125 -6.375 2.515625 -6.375 L 0.765625 -6.375 Z M 1.46875 -3.5 L 1.46875 -5.78125 L 2.453125 -5.78125 C 3.375 -5.78125 3.75 -5.421875 3.75 -4.6875 C 3.75 -3.90625 3.40625 -3.5 2.46875 -3.5 Z M 1.46875 -3.5 "/>
</g>
<g id="glyph-2-9">
<path d="M 0.765625 -0.375 L 1.46875 -0.375 L 1.46875 -3.0625 L 3.609375 -3.0625 L 3.609375 -3.671875 L 1.46875 -3.671875 L 1.46875 -5.78125 L 4.25 -5.78125 L 4.25 -6.375 L 0.765625 -6.375 Z M 0.765625 -0.375 "/>
</g>
<g id="glyph-2-10">
<path d="M 3.046875 -0.28125 C 4.6875 -0.28125 5.6875 -1.40625 5.6875 -3.296875 L 5.6875 -3.4375 C 5.6875 -5.40625 4.6875 -6.46875 3.078125 -6.46875 C 1.421875 -6.46875 0.421875 -5.328125 0.421875 -3.453125 L 0.421875 -3.3125 C 0.421875 -1.34375 1.421875 -0.28125 3.046875 -0.28125 Z M 3.0625 -0.859375 C 1.71875 -0.859375 1.1875 -1.859375 1.1875 -3.3125 L 1.1875 -3.578125 C 1.1875 -4.921875 1.8125 -5.890625 3.03125 -5.890625 C 4.390625 -5.875 4.921875 -4.890625 4.921875 -3.4375 L 4.921875 -3.15625 C 4.921875 -1.828125 4.3125 -0.859375 3.0625 -0.859375 Z M 3.0625 -0.859375 "/>
</g>
<g id="glyph-2-11">
<path d="M 0.90625 -0.375 L 1.59375 -0.375 L 1.59375 -4.234375 L 2.625 -4.234375 L 2.625 -4.796875 L 1.59375 -4.796875 L 1.59375 -5.390625 C 1.59375 -6.015625 1.890625 -6.265625 2.421875 -6.265625 C 2.71875 -6.265625 2.90625 -6.234375 3.046875 -6.203125 L 3.046875 -6.6875 C 2.890625 -6.765625 2.640625 -6.84375 2.296875 -6.84375 C 1.5 -6.84375 0.90625 -6.421875 0.90625 -5.4375 L 0.90625 -4.796875 L 0.265625 -4.796875 L 0.265625 -4.234375 L 0.90625 -4.234375 Z M 0.90625 -0.375 "/>
</g>
<g id="glyph-2-12">
<path d="M 0.65625 -0.375 L 1.34375 -0.375 L 1.34375 -3.859375 C 1.65625 -4.078125 2.078125 -4.25 2.53125 -4.25 C 2.59375 -4.25 2.734375 -4.234375 2.84375 -4.21875 L 2.84375 -4.828125 C 2.8125 -4.84375 2.6875 -4.859375 2.578125 -4.859375 C 2.078125 -4.859375 1.59375 -4.59375 1.34375 -4.3125 L 1.3125 -4.3125 L 1.3125 -4.8125 L 0.65625 -4.8125 Z M 0.65625 -0.375 "/>
</g>
<g id="glyph-2-13">
<path d="M 2.375 -0.296875 C 3.578125 -0.296875 4.390625 -1.140625 4.390625 -2.546875 L 4.390625 -2.671875 C 4.390625 -4.078125 3.640625 -4.890625 2.390625 -4.890625 C 1.1875 -4.890625 0.375 -4.046875 0.375 -2.640625 L 0.375 -2.515625 C 0.375 -1.09375 1.125 -0.296875 2.375 -0.296875 Z M 2.390625 -0.859375 C 1.65625 -0.859375 1.078125 -1.265625 1.078125 -2.5 L 1.078125 -2.71875 C 1.078125 -3.75 1.578125 -4.328125 2.375 -4.328125 C 3.09375 -4.328125 3.703125 -3.921875 3.703125 -2.6875 L 3.703125 -2.46875 C 3.703125 -1.421875 3.203125 -0.859375 2.390625 -0.859375 Z M 2.390625 -0.859375 "/>
</g>
<g id="glyph-2-14">
<path d="M 0.65625 -0.375 L 1.328125 -0.375 L 1.328125 -3.984375 C 1.6875 -4.140625 2.078125 -4.296875 2.453125 -4.296875 C 3.046875 -4.296875 3.265625 -4.078125 3.265625 -3.546875 L 3.265625 -0.375 L 3.9375 -0.375 L 3.9375 -3.6875 C 3.9375 -3.796875 3.9375 -3.875 3.921875 -3.984375 C 4.328125 -4.171875 4.703125 -4.296875 5.0625 -4.296875 C 5.65625 -4.296875 5.875 -4.078125 5.875 -3.546875 L 5.875 -0.375 L 6.546875 -0.375 L 6.546875 -3.6875 C 6.546875 -4.546875 6.09375 -4.890625 5.328125 -4.890625 C 4.828125 -4.890625 4.3125 -4.703125 3.828125 -4.390625 L 3.796875 -4.390625 C 3.578125 -4.734375 3.21875 -4.890625 2.71875 -4.890625 C 2.21875 -4.890625 1.75 -4.6875 1.34375 -4.421875 L 1.3125 -4.421875 L 1.3125 -4.8125 L 0.65625 -4.8125 Z M 0.65625 -0.375 "/>
</g>
<g id="glyph-2-15">
<path d="M 0.765625 -0.375 L 2.78125 -0.375 C 4.125 -0.375 4.8125 -1.078125 4.8125 -2.0625 C 4.8125 -2.96875 4.265625 -3.390625 3.546875 -3.515625 L 3.546875 -3.5625 C 4.25 -3.765625 4.546875 -4.234375 4.546875 -4.859375 C 4.546875 -5.8125 3.984375 -6.375 2.59375 -6.375 L 0.765625 -6.375 Z M 1.46875 -0.96875 L 1.46875 -3.1875 L 2.65625 -3.1875 C 3.5625 -3.1875 4.0625 -2.890625 4.0625 -2.109375 C 4.0625 -1.34375 3.609375 -0.96875 2.734375 -0.96875 Z M 1.46875 -3.75 L 1.46875 -5.78125 L 2.546875 -5.78125 C 3.390625 -5.78125 3.8125 -5.53125 3.8125 -4.78125 C 3.8125 -4 3.25 -3.75 2.5 -3.75 Z M 1.46875 -3.75 "/>
</g>
<g id="glyph-2-16">
<path d="M 0.15625 0.53125 L 0.765625 0.53125 C 1.59375 -0.296875 2.3125 -1.515625 2.3125 -3.109375 L 2.3125 -3.25 C 2.3125 -4.828125 1.59375 -6.0625 0.765625 -6.90625 L 0.15625 -6.90625 C 0.953125 -6 1.59375 -4.640625 1.59375 -3.265625 L 1.59375 -3.03125 C 1.59375 -1.625 0.953125 -0.34375 0.15625 0.53125 Z M 0.15625 0.53125 "/>
</g>
<g id="glyph-2-17">
<path d="M 1.78125 -0.296875 C 2.75 -0.296875 3.34375 -0.765625 3.34375 -1.609375 C 3.34375 -2.375 3 -2.65625 2.140625 -2.890625 L 1.703125 -3.015625 C 1.21875 -3.140625 1.03125 -3.3125 1.03125 -3.6875 C 1.03125 -4.109375 1.328125 -4.3125 1.9375 -4.3125 C 2.421875 -4.3125 2.875 -4.1875 3.09375 -4.078125 L 3.09375 -4.625 C 2.875 -4.75 2.484375 -4.890625 1.890625 -4.890625 C 0.875 -4.890625 0.390625 -4.375 0.390625 -3.625 C 0.390625 -2.875 0.828125 -2.578125 1.46875 -2.40625 L 1.90625 -2.28125 C 2.46875 -2.125 2.671875 -1.953125 2.671875 -1.53125 C 2.671875 -1.140625 2.390625 -0.890625 1.6875 -0.890625 C 1.046875 -0.890625 0.734375 -1.015625 0.34375 -1.15625 L 0.34375 -0.609375 C 0.71875 -0.40625 1.203125 -0.296875 1.78125 -0.296875 Z M 1.78125 -0.296875 "/>
</g>
<g id="glyph-2-18">
<path d="M 2.0625 -0.328125 C 2.4375 -0.328125 2.625 -0.421875 2.8125 -0.5 L 2.8125 -0.96875 C 2.625 -0.90625 2.421875 -0.890625 2.234375 -0.890625 C 1.71875 -0.890625 1.578125 -1.046875 1.578125 -1.484375 L 1.578125 -4.234375 L 2.71875 -4.234375 L 2.71875 -4.796875 L 1.578125 -4.796875 L 1.578125 -5.859375 L 0.90625 -5.859375 L 0.90625 -4.796875 L 0.265625 -4.796875 L 0.265625 -4.234375 L 0.90625 -4.234375 L 0.90625 -1.375 C 0.90625 -0.625 1.359375 -0.328125 2.0625 -0.328125 Z M 2.0625 -0.328125 "/>
</g>
<g id="glyph-2-19">
<path d="M 1.984375 -0.296875 C 2.515625 -0.296875 3 -0.5 3.390625 -0.78125 L 3.4375 -0.78125 L 3.5 -0.375 L 4.078125 -0.375 L 4.078125 -4.8125 L 3.40625 -4.8125 L 3.40625 -1.234375 C 3.03125 -1.046875 2.640625 -0.890625 2.171875 -0.890625 C 1.515625 -0.890625 1.3125 -1.125 1.3125 -1.6875 L 1.3125 -4.8125 L 0.625 -4.8125 L 0.625 -1.59375 C 0.625 -0.734375 1.125 -0.296875 1.984375 -0.296875 Z M 1.984375 -0.296875 "/>
</g>
<g id="glyph-2-20">
<path d="M 3.046875 -0.28125 C 3.75 -0.28125 4.296875 -0.4375 4.703125 -0.671875 L 4.703125 -1.265625 C 4.328125 -1.078125 3.875 -0.875 3.140625 -0.875 C 1.765625 -0.875 1.1875 -1.765625 1.1875 -3.3125 L 1.1875 -3.609375 C 1.1875 -5.1875 2 -5.875 3.125 -5.875 C 3.71875 -5.875 4.171875 -5.734375 4.640625 -5.546875 L 4.640625 -6.140625 C 4.265625 -6.34375 3.8125 -6.46875 3.15625 -6.46875 C 1.640625 -6.46875 0.4375 -5.625 0.4375 -3.484375 L 0.4375 -3.3125 C 0.4375 -1.28125 1.4375 -0.28125 3.046875 -0.28125 Z M 3.046875 -0.28125 "/>
</g>
<g id="glyph-2-21">
<path d="M 0.984375 0.953125 C 1.71875 0.953125 2.09375 0.6875 2.390625 -0.09375 L 4.125 -4.8125 L 3.4375 -4.8125 L 2.25 -1.4375 L 2.21875 -1.4375 L 0.921875 -4.8125 L 0.1875 -4.8125 L 1.890625 -0.53125 L 1.75 -0.171875 C 1.5625 0.3125 1.296875 0.390625 0.859375 0.390625 C 0.703125 0.390625 0.546875 0.34375 0.4375 0.328125 L 0.4375 0.828125 C 0.5625 0.890625 0.78125 0.953125 0.984375 0.953125 Z M 0.984375 0.953125 "/>
</g>
<g id="glyph-3-0">
<path d="M 0.625 -0.359375 L 1.71875 -0.359375 L 1.71875 -4.953125 L 1.75 -4.953125 L 3.1875 -0.359375 L 4.1875 -0.359375 L 5.640625 -4.953125 L 5.671875 -4.953125 L 5.671875 -0.359375 L 6.921875 -0.359375 L 6.921875 -6.5 L 5.1875 -6.5 L 3.8125 -2.140625 L 3.78125 -2.140625 L 2.390625 -6.5 L 0.625 -6.5 Z M 0.625 -0.359375 "/>
</g>
<g id="glyph-3-1">
<path d="M 0.65625 -0.359375 L 1.9375 -0.359375 L 1.9375 -6.5 L 0.65625 -6.5 Z M 0.65625 -0.359375 "/>
</g>
<g id="glyph-4-0">
<path d="M 0.59375 -0.296875 L 1.140625 -0.296875 L 1.140625 -2.296875 L 2.03125 -2.296875 L 3.203125 -0.296875 L 3.828125 -0.296875 L 2.59375 -2.390625 L 2.59375 -2.421875 C 3.15625 -2.609375 3.5 -2.984375 3.5 -3.65625 C 3.5 -4.484375 2.984375 -4.953125 1.953125 -4.953125 L 0.59375 -4.953125 Z M 1.140625 -2.71875 L 1.140625 -4.484375 L 1.90625 -4.484375 C 2.625 -4.484375 2.90625 -4.21875 2.90625 -3.640625 C 2.90625 -3.03125 2.65625 -2.71875 1.921875 -2.71875 Z M 1.140625 -2.71875 "/>
</g>
<g id="glyph-4-1">
<path d="M 0.59375 -0.296875 L 1.140625 -0.296875 L 1.140625 -2.390625 L 2.8125 -2.390625 L 2.8125 -2.859375 L 1.140625 -2.859375 L 1.140625 -4.484375 L 3.296875 -4.484375 L 3.296875 -4.953125 L 0.59375 -4.953125 Z M 0.59375 -0.296875 "/>
</g>
<g id="glyph-4-2">
<path d="M 2.375 -0.21875 C 3.65625 -0.21875 4.421875 -1.09375 4.421875 -2.5625 L 4.421875 -2.671875 C 4.421875 -4.203125 3.65625 -5.03125 2.390625 -5.03125 C 1.109375 -5.03125 0.328125 -4.15625 0.328125 -2.6875 L 0.328125 -2.578125 C 0.328125 -1.046875 1.109375 -0.21875 2.375 -0.21875 Z M 2.390625 -0.671875 C 1.34375 -0.671875 0.921875 -1.453125 0.921875 -2.578125 L 0.921875 -2.78125 C 0.921875 -3.828125 1.40625 -4.578125 2.359375 -4.578125 C 3.421875 -4.578125 3.828125 -3.8125 3.828125 -2.671875 L 3.828125 -2.46875 C 3.828125 -1.421875 3.34375 -0.671875 2.390625 -0.671875 Z M 2.390625 -0.671875 "/>
</g>
<g id="glyph-5-0">
<path d="M 0.5625 -0.328125 L 1.53125 -0.328125 L 1.53125 -4.40625 L 1.5625 -4.40625 L 2.828125 -0.328125 L 3.71875 -0.328125 L 5.015625 -4.390625 L 5.03125 -4.390625 L 5.03125 -0.328125 L 6.140625 -0.328125 L 6.140625 -5.765625 L 4.609375 -5.765625 L 3.375 -1.890625 L 3.359375 -1.890625 L 2.125 -5.765625 L 0.5625 -5.765625 Z M 0.5625 -0.328125 "/>
</g>
<g id="glyph-5-1">
<path d="M 0.578125 -0.328125 L 1.71875 -0.328125 L 1.71875 -5.765625 L 0.578125 -5.765625 Z M 0.578125 -0.328125 "/>
</g>
</g>
</defs>
<g fill="rgb(0%, 0%, 0%)" fill-opacity="1">
<use xlink:href="#glyph-0-0" x="134.942632" y="22.595452"/>
</g>
<g fill="rgb(0%, 0%, 0%)" fill-opacity="1">
<use xlink:href="#glyph-0-1" x="140.969944" y="22.595452"/>
<use xlink:href="#glyph-0-2" x="148.748273" y="22.595452"/>
</g>
<g fill="rgb(0%, 0%, 0%)" fill-opacity="1">
<use xlink:href="#glyph-0-3" x="158.182326" y="22.595452"/>
</g>
<g fill="rgb(0%, 0%, 0%)" fill-opacity="1">
<use xlink:href="#glyph-0-4" x="170.987385" y="22.595452"/>
</g>
<g fill="rgb(0%, 0%, 0%)" fill-opacity="1">
<use xlink:href="#glyph-0-5" x="177.860426" y="22.595452"/>
<use xlink:href="#glyph-0-6" x="183.840091" y="22.595452"/>
<use xlink:href="#glyph-0-7" x="189.3552" y="22.595452"/>
<use xlink:href="#glyph-0-8" x="196.061478" y="22.595452"/>
</g>
<g fill="rgb(0%, 0%, 0%)" fill-opacity="1">
<use xlink:href="#glyph-0-9" x="205.495531" y="22.595452"/>
<use xlink:href="#glyph-0-10" x="211.701518" y="22.595452"/>
<use xlink:href="#glyph-0-11" x="214.715174" y="22.595452"/>
<use xlink:href="#glyph-0-8" x="221.421451" y="22.595452"/>
</g>
<g fill="rgb(0%, 0%, 0%)" fill-opacity="1">
<use xlink:href="#glyph-0-12" x="230.855504" y="22.595452"/>
<use xlink:href="#glyph-0-10" x="237.978691" y="22.595452"/>
<use xlink:href="#glyph-0-11" x="240.992347" y="22.595452"/>
<use xlink:href="#glyph-0-13" x="247.698624" y="22.595452"/>
</g>
<g fill="rgb(0%, 0%, 0%)" fill-opacity="1">
<use xlink:href="#glyph-0-14" x="253.809317" y="22.595452"/>
<use xlink:href="#glyph-0-12" x="258.323845" y="22.595452"/>
<use xlink:href="#glyph-0-15" x="265.447032" y="22.595452"/>
<use xlink:href="#glyph-0-11" x="272.165221" y="22.595452"/>
<use xlink:href="#glyph-0-13" x="278.871499" y="22.595452"/>
</g>
<g fill="rgb(0%, 0%, 0%)" fill-opacity="1">
<use xlink:href="#glyph-0-16" x="288.341287" y="22.595452"/>
<use xlink:href="#glyph-0-17" x="292.534199" y="22.595452"/>
<use xlink:href="#glyph-0-18" x="302.58766" y="22.595452"/>
<use xlink:href="#glyph-0-2" x="309.329672" y="22.595452"/>
<use xlink:href="#glyph-0-19" x="315.642864" y="22.595452"/>
<use xlink:href="#glyph-0-20" x="319.097252" y="22.595452"/>
</g>
<path fill="none" stroke-width="0.59776" stroke-linecap="butt" stroke-linejoin="miter" stroke="rgb(31.373596%, 31.373596%, 31.373596%)" stroke-opacity="1" stroke-miterlimit="10" d="M 0.000891977 90.709016 L 370.595952 90.709016 " transform="matrix(0.99636, 0, 0, -0.99636, 45.534268, 148.472585)"/>
<path fill-rule="nonzero" fill="rgb(31.373596%, 31.373596%, 31.373596%)" fill-opacity="1" stroke-width="0.59776" stroke-linecap="butt" stroke-linejoin="miter" stroke="rgb(31.373596%, 31.373596%, 31.373596%)" stroke-opacity="1" stroke-miterlimit="10" d="M 4.816194 -0.000683781 L 0.966243 1.453829 L 2.236492 -0.000683781 L 0.966243 -1.455197 Z M 4.816194 -0.000683781 " transform="matrix(0.99636, 0, 0, -0.99636, 412.701337, 58.093069)"/>
<g fill="rgb(47.099304%, 47.099304%, 47.099304%)" fill-opacity="1">
<use xlink:href="#glyph-1-0" x="421.857447" y="60.940367"/>
<use xlink:href="#glyph-1-1" x="424.636828" y="60.940367"/>
<use xlink:href="#glyph-1-2" x="426.439455" y="60.940367"/>
<use xlink:href="#glyph-1-3" x="432.816149" y="60.940367"/>
</g>
<g fill="rgb(47.099304%, 47.099304%, 47.099304%)" fill-opacity="1">
<use xlink:href="#glyph-1-4" x="14.00047" y="94.860447"/>
<use xlink:href="#glyph-1-5" x="18.526891" y="94.860447"/>
<use xlink:href="#glyph-1-6" x="22.767432" y="94.860447"/>
<use xlink:href="#glyph-1-3" x="25.515049" y="94.860447"/>
</g>
<g fill="rgb(47.099304%, 47.099304%, 47.099304%)" fill-opacity="1">
<use xlink:href="#glyph-1-7" x="31.566158" y="94.860447"/>
</g>
<g fill="rgb(47.099304%, 47.099304%, 47.099304%)" fill-opacity="1">
<use xlink:href="#glyph-1-4" x="14.15092" y="140.050354"/>
<use xlink:href="#glyph-1-5" x="18.677341" y="140.050354"/>
<use xlink:href="#glyph-1-6" x="22.917882" y="140.050354"/>
<use xlink:href="#glyph-1-3" x="25.665499" y="140.050354"/>
</g>
<g fill="rgb(47.099304%, 47.099304%, 47.099304%)" fill-opacity="1">
<use xlink:href="#glyph-1-8" x="31.716609" y="140.050354"/>
</g>
<g fill="rgb(47.099304%, 47.099304%, 47.099304%)" fill-opacity="1">
<use xlink:href="#glyph-1-4" x="14.278454" y="185.239266"/>
<use xlink:href="#glyph-1-5" x="18.804875" y="185.239266"/>
<use xlink:href="#glyph-1-6" x="23.045416" y="185.239266"/>
<use xlink:href="#glyph-1-3" x="25.793033" y="185.239266"/>
</g>
<g fill="rgb(47.099304%, 47.099304%, 47.099304%)" fill-opacity="1">
<use xlink:href="#glyph-1-4" x="31.844143" y="185.239266"/>
</g>
<path fill-rule="nonzero" fill="rgb(87.449646%, 93.331909%, 87.057495%)" fill-opacity="1" stroke-width="0.3985" stroke-linecap="butt" stroke-linejoin="miter" stroke="rgb(38.822937%, 60.392761%, 36.471558%)" stroke-opacity="1" stroke-miterlimit="10" d="M 57.534533 70.043952 L 10.496126 70.043952 C 9.39446 70.043952 8.504501 69.153993 8.504501 68.052327 L 8.504501 45.33683 C 8.504501 44.235164 9.39446 43.341285 10.496126 43.341285 L 57.534533 43.341285 C 58.636199 43.341285 59.530078 44.235164 59.530078 45.33683 L 59.530078 68.052327 C 59.530078 69.153993 58.636199 70.043952 57.534533 70.043952 Z M 57.534533 70.043952 " transform="matrix(0.99636, 0, 0, -0.99636, 45.534268, 148.472585)"/>
<g fill="rgb(0%, 0%, 0%)" fill-opacity="1">
<use xlink:href="#glyph-2-0" x="61.706187" y="88.432928"/>
</g>
<g fill="rgb(0%, 0%, 0%)" fill-opacity="1">
<use xlink:href="#glyph-2-1" x="66.08373" y="88.432928"/>
<use xlink:href="#glyph-2-2" x="70.345135" y="88.432928"/>
<use xlink:href="#glyph-2-3" x="74.365328" y="88.432928"/>
<use xlink:href="#glyph-2-4" x="79.153824" y="88.432928"/>
<use xlink:href="#glyph-2-5" x="83.37056" y="88.432928"/>
<use xlink:href="#glyph-2-6" x="88.159057" y="88.432928"/>
<use xlink:href="#glyph-2-0" x="92.679541" y="88.432928"/>
</g>
<g fill="rgb(0%, 0%, 0%)" fill-opacity="1">
<use xlink:href="#glyph-3-0" x="75.656223" y="102.31023"/>
</g>
<path fill-rule="nonzero" fill="rgb(93.331909%, 93.331909%, 93.331909%)" fill-opacity="1" stroke-width="0.3985" stroke-linecap="butt" stroke-linejoin="miter" stroke="rgb(66.665649%, 66.665649%, 66.665649%)" stroke-opacity="1" stroke-miterlimit="10" d="M 153.348138 70.173329 L 101.773689 70.173329 C 100.672022 70.173329 99.778144 69.283371 99.778144 68.181704 L 99.778144 45.203533 C 99.778144 44.105787 100.672022 43.211908 101.773689 43.211908 L 153.348138 43.211908 C 154.449805 43.211908 155.343683 44.105787 155.343683 45.203533 L 155.343683 68.181704 C 155.343683 69.283371 154.449805 70.173329 153.348138 70.173329 Z M 153.348138 70.173329 " transform="matrix(0.99636, 0, 0, -0.99636, 45.534268, 148.472585)"/>
<g fill="rgb(0%, 0%, 0%)" fill-opacity="1">
<use xlink:href="#glyph-3-1" x="171.334681" y="88.026413"/>
</g>
<g fill="rgb(0%, 0%, 0%)" fill-opacity="1">
<use xlink:href="#glyph-2-7" x="147.928192" y="101.903715"/>
<use xlink:href="#glyph-2-8" x="150.760195" y="101.903715"/>
<use xlink:href="#glyph-2-9" x="155.923909" y="101.903715"/>
<use xlink:href="#glyph-2-10" x="160.533731" y="101.903715"/>
</g>
<g fill="rgb(0%, 0%, 0%)" fill-opacity="1">
<use xlink:href="#glyph-2-11" x="168.98507" y="101.903715"/>
<use xlink:href="#glyph-2-12" x="171.870675" y="101.903715"/>
<use xlink:href="#glyph-2-13" x="174.961757" y="101.903715"/>
<use xlink:href="#glyph-2-14" x="179.732386" y="101.903715"/>
</g>
<g fill="rgb(0%, 0%, 0%)" fill-opacity="1">
<use xlink:href="#glyph-2-15" x="189.255776" y="101.903715"/>
</g>
<g fill="rgb(0%, 0%, 0%)" fill-opacity="1">
<use xlink:href="#glyph-2-16" x="194.499895" y="101.903715"/>
</g>
<path fill-rule="nonzero" fill="rgb(87.449646%, 93.331909%, 87.057495%)" fill-opacity="1" stroke-width="0.3985" stroke-linecap="butt" stroke-linejoin="miter" stroke="rgb(38.822937%, 60.392761%, 36.471558%)" stroke-opacity="1" stroke-miterlimit="10" d="M 153.485357 24.957964 L 101.63647 24.957964 C 100.538725 24.957964 99.644846 24.068005 99.644846 22.966339 L 99.644846 -0.29019 C 99.644846 -1.387935 100.538725 -2.281814 101.63647 -2.281814 L 153.485357 -2.281814 C 154.583102 -2.281814 155.476981 -1.387935 155.476981 -0.29019 L 155.476981 22.966339 C 155.476981 24.068005 154.583102 24.957964 153.485357 24.957964 Z M 153.485357 24.957964 " transform="matrix(0.99636, 0, 0, -0.99636, 45.534268, 148.472585)"/>
<g fill="rgb(0%, 0%, 0%)" fill-opacity="1">
<use xlink:href="#glyph-2-0" x="154.910683" y="133.354815"/>
</g>
<g fill="rgb(0%, 0%, 0%)" fill-opacity="1">
<use xlink:href="#glyph-2-1" x="159.288226" y="133.354815"/>
<use xlink:href="#glyph-2-2" x="163.549631" y="133.354815"/>
<use xlink:href="#glyph-2-3" x="167.569824" y="133.354815"/>
<use xlink:href="#glyph-2-4" x="172.358321" y="133.354815"/>
<use xlink:href="#glyph-2-5" x="176.575056" y="133.354815"/>
<use xlink:href="#glyph-2-6" x="181.363553" y="133.354815"/>
<use xlink:href="#glyph-2-0" x="185.884037" y="133.354815"/>
</g>
<g fill="rgb(0%, 0%, 0%)" fill-opacity="1">
<use xlink:href="#glyph-3-0" x="147.79468" y="147.232117"/>
</g>
<g fill="rgb(0%, 0%, 0%)" fill-opacity="1">
<use xlink:href="#glyph-2-7" x="157.684549" y="147.232117"/>
<use xlink:href="#glyph-2-17" x="160.516552" y="147.232117"/>
<use xlink:href="#glyph-2-0" x="164.224063" y="147.232117"/>
<use xlink:href="#glyph-2-0" x="168.690944" y="147.232117"/>
<use xlink:href="#glyph-2-17" x="173.157825" y="147.232117"/>
</g>
<g fill="rgb(0%, 0%, 0%)" fill-opacity="1">
<use xlink:href="#glyph-2-18" x="179.205983" y="147.232117"/>
<use xlink:href="#glyph-2-12" x="182.332799" y="147.232117"/>
<use xlink:href="#glyph-2-19" x="185.423881" y="147.232117"/>
<use xlink:href="#glyph-2-0" x="190.158775" y="147.232117"/>
<use xlink:href="#glyph-2-16" x="194.625656" y="147.232117"/>
</g>
<path fill="none" stroke-width="0.59776" stroke-linecap="butt" stroke-linejoin="miter" stroke="rgb(31.373596%, 31.373596%, 31.373596%)" stroke-opacity="1" stroke-miterlimit="10" d="M 127.558953 25.15791 L 127.558953 39.432526 " transform="matrix(0.99636, 0, 0, -0.99636, 45.534268, 148.472585)"/>
<path fill-rule="nonzero" fill="rgb(31.373596%, 31.373596%, 31.373596%)" fill-opacity="1" stroke-width="0.59776" stroke-linecap="butt" stroke-linejoin="miter" stroke="rgb(31.373596%, 31.373596%, 31.373596%)" stroke-opacity="1" stroke-miterlimit="10" d="M 4.817258 0.00166668 L 0.963387 1.45618 L 2.237556 0.00166668 L 0.963387 -1.452846 Z M 4.817258 0.00166668 " transform="matrix(0, -0.99636, -0.99636, 0, 172.630567, 111.264567)"/>
<g fill="rgb(47.099304%, 47.099304%, 47.099304%)" fill-opacity="1">
<use xlink:href="#glyph-4-0" x="176.236772" y="117.026467"/>
<use xlink:href="#glyph-4-1" x="180.252956" y="117.026467"/>
<use xlink:href="#glyph-4-2" x="183.838339" y="117.026467"/>
</g>
<path fill-rule="nonzero" fill="rgb(93.331909%, 93.331909%, 93.331909%)" fill-opacity="1" stroke-width="0.3985" stroke-linecap="butt" stroke-linejoin="miter" stroke="rgb(66.665649%, 66.665649%, 66.665649%)" stroke-opacity="1" stroke-miterlimit="10" d="M 252.490266 24.820745 L 201.056955 24.820745 C 199.955288 24.820745 199.06533 23.926867 199.06533 22.8252 L 199.06533 -0.149051 C 199.06533 -1.250717 199.955288 -2.140675 201.056955 -2.140675 L 252.490266 -2.140675 C 253.591932 -2.140675 254.485811 -1.250717 254.485811 -0.149051 L 254.485811 22.8252 C 254.485811 23.926867 253.591932 24.820745 252.490266 24.820745 Z M 252.490266 24.820745 " transform="matrix(0.99636, 0, 0, -0.99636, 45.534268, 148.472585)"/>
<g fill="rgb(0%, 0%, 0%)" fill-opacity="1">
<use xlink:href="#glyph-3-1" x="270.187542" y="133.216321"/>
</g>
<g fill="rgb(0%, 0%, 0%)" fill-opacity="1">
<use xlink:href="#glyph-2-7" x="246.852791" y="147.093623"/>
<use xlink:href="#glyph-2-8" x="249.684794" y="147.093623"/>
<use xlink:href="#glyph-2-9" x="254.848508" y="147.093623"/>
<use xlink:href="#glyph-2-10" x="259.45833" y="147.093623"/>
</g>
<g fill="rgb(0%, 0%, 0%)" fill-opacity="1">
<use xlink:href="#glyph-2-11" x="267.909669" y="147.093623"/>
<use xlink:href="#glyph-2-12" x="270.795274" y="147.093623"/>
<use xlink:href="#glyph-2-13" x="273.886356" y="147.093623"/>
<use xlink:href="#glyph-2-14" x="278.656985" y="147.093623"/>
</g>
<g fill="rgb(0%, 0%, 0%)" fill-opacity="1">
<use xlink:href="#glyph-2-20" x="288.180375" y="147.093623"/>
</g>
<g fill="rgb(0%, 0%, 0%)" fill-opacity="1">
<use xlink:href="#glyph-2-16" x="293.281554" y="147.093623"/>
</g>
<path fill-rule="nonzero" fill="rgb(87.449646%, 93.331909%, 87.057495%)" fill-opacity="1" stroke-width="0.3985" stroke-linecap="butt" stroke-linejoin="miter" stroke="rgb(38.822937%, 60.392761%, 36.471558%)" stroke-opacity="1" stroke-miterlimit="10" d="M 252.698053 -20.39462 L 200.853088 -20.39462 C 199.751421 -20.39462 198.857543 -21.288498 198.857543 -22.390165 L 198.857543 -45.642773 C 198.857543 -46.744439 199.751421 -47.634398 200.853088 -47.634398 L 252.698053 -47.634398 C 253.79972 -47.634398 254.689678 -46.744439 254.689678 -45.642773 L 254.689678 -22.390165 C 254.689678 -21.288498 253.79972 -20.39462 252.698053 -20.39462 Z M 252.698053 -20.39462 " transform="matrix(0.99636, 0, 0, -0.99636, 45.534268, 148.472585)"/>
<g fill="rgb(0%, 0%, 0%)" fill-opacity="1">
<use xlink:href="#glyph-2-0" x="253.763544" y="178.543727"/>
</g>
<g fill="rgb(0%, 0%, 0%)" fill-opacity="1">
<use xlink:href="#glyph-2-1" x="258.141087" y="178.543727"/>
<use xlink:href="#glyph-2-2" x="262.402492" y="178.543727"/>
<use xlink:href="#glyph-2-3" x="266.422685" y="178.543727"/>
<use xlink:href="#glyph-2-4" x="271.211182" y="178.543727"/>
<use xlink:href="#glyph-2-5" x="275.427918" y="178.543727"/>
<use xlink:href="#glyph-2-6" x="280.216414" y="178.543727"/>
<use xlink:href="#glyph-2-0" x="284.736898" y="178.543727"/>
</g>
<g fill="rgb(0%, 0%, 0%)" fill-opacity="1">
<use xlink:href="#glyph-3-0" x="246.647541" y="192.421029"/>
</g>
<g fill="rgb(0%, 0%, 0%)" fill-opacity="1">
<use xlink:href="#glyph-2-7" x="256.53741" y="192.421029"/>
<use xlink:href="#glyph-2-17" x="259.369413" y="192.421029"/>
<use xlink:href="#glyph-2-0" x="263.076924" y="192.421029"/>
<use xlink:href="#glyph-2-0" x="267.543805" y="192.421029"/>
<use xlink:href="#glyph-2-17" x="272.010686" y="192.421029"/>
</g>
<g fill="rgb(0%, 0%, 0%)" fill-opacity="1">
<use xlink:href="#glyph-2-18" x="278.058844" y="192.421029"/>
<use xlink:href="#glyph-2-12" x="281.18566" y="192.421029"/>
<use xlink:href="#glyph-2-19" x="284.276742" y="192.421029"/>
<use xlink:href="#glyph-2-0" x="289.011636" y="192.421029"/>
<use xlink:href="#glyph-2-16" x="293.478517" y="192.421029"/>
</g>
<path fill="none" stroke-width="0.59776" stroke-linecap="butt" stroke-linejoin="miter" stroke="rgb(31.373596%, 31.373596%, 31.373596%)" stroke-opacity="1" stroke-miterlimit="10" d="M 226.775571 -20.198594 L 226.775571 -5.923978 " transform="matrix(0.99636, 0, 0, -0.99636, 45.534268, 148.472585)"/>
<path fill-rule="nonzero" fill="rgb(31.373596%, 31.373596%, 31.373596%)" fill-opacity="1" stroke-width="0.59776" stroke-linecap="butt" stroke-linejoin="miter" stroke="rgb(31.373596%, 31.373596%, 31.373596%)" stroke-opacity="1" stroke-miterlimit="10" d="M 4.819735 -0.00109056 L 0.965863 1.453423 L 2.236112 -0.00109056 L 0.965863 -1.455604 Z M 4.819735 -0.00109056 " transform="matrix(0, -0.99636, -0.99636, 0, 271.483288, 156.454535)"/>
<g fill="rgb(47.099304%, 47.099304%, 47.099304%)" fill-opacity="1">
<use xlink:href="#glyph-4-0" x="275.089633" y="162.216375"/>
<use xlink:href="#glyph-4-1" x="279.105817" y="162.216375"/>
<use xlink:href="#glyph-4-2" x="282.6912" y="162.216375"/>
</g>
<path fill-rule="nonzero" fill="rgb(87.449646%, 93.331909%, 87.057495%)" fill-opacity="1" stroke-width="0.3985" stroke-linecap="butt" stroke-linejoin="miter" stroke="rgb(38.822937%, 60.392761%, 36.471558%)" stroke-opacity="1" stroke-miterlimit="10" d="M 349.507471 69.58133 L 302.469064 69.58133 C 301.367397 69.58133 300.477439 68.691372 300.477439 67.589706 L 300.477439 45.795531 C 300.477439 44.697785 301.367397 43.803907 302.469064 43.803907 L 349.507471 43.803907 C 350.609137 43.803907 351.499095 44.697785 351.499095 45.795531 L 351.499095 67.589706 C 351.499095 68.691372 350.609137 69.58133 349.507471 69.58133 Z M 349.507471 69.58133 " transform="matrix(0.99636, 0, 0, -0.99636, 45.534268, 148.472585)"/>
<g fill="rgb(0%, 0%, 0%)" fill-opacity="1">
<use xlink:href="#glyph-2-12" x="361.272781" y="87.97261"/>
<use xlink:href="#glyph-2-0" x="364.363862" y="87.97261"/>
</g>
<g fill="rgb(0%, 0%, 0%)" fill-opacity="1">
<use xlink:href="#glyph-2-18" x="368.866479" y="87.97261"/>
<use xlink:href="#glyph-2-12" x="371.993295" y="87.97261"/>
<use xlink:href="#glyph-2-21" x="375.084377" y="87.97261"/>
</g>
<g fill="rgb(0%, 0%, 0%)" fill-opacity="1">
<use xlink:href="#glyph-3-0" x="366.566441" y="101.849912"/>
</g>
<path fill-rule="nonzero" fill="rgb(93.331909%, 93.331909%, 93.331909%)" fill-opacity="1" stroke-width="0.3985" stroke-linecap="butt" stroke-linejoin="miter" stroke="rgb(66.665649%, 66.665649%, 66.665649%)" stroke-opacity="1" stroke-miterlimit="10" d="M 349.507471 -21.261055 L 302.469064 -21.261055 C 301.367397 -21.261055 300.477439 -22.151013 300.477439 -23.252679 L 300.477439 -44.780258 C 300.477439 -45.881925 301.367397 -46.771883 302.469064 -46.771883 L 349.507471 -46.771883 C 350.609137 -46.771883 351.499095 -45.881925 351.499095 -44.780258 L 351.499095 -23.252679 C 351.499095 -22.151013 350.609137 -21.261055 349.507471 -21.261055 Z M 349.507471 -21.261055 " transform="matrix(0.99636, 0, 0, -0.99636, 45.534268, 148.472585)"/>
<g fill="rgb(0%, 0%, 0%)" fill-opacity="1">
<use xlink:href="#glyph-3-1" x="369.040403" y="185.611904"/>
</g>
<path fill="none" stroke-width="0.59776" stroke-linecap="butt" stroke-linejoin="miter" stroke="rgb(31.373596%, 31.373596%, 31.373596%)" stroke-opacity="1" stroke-miterlimit="10" d="M 325.988267 43.60396 L 325.988267 -17.481673 " transform="matrix(0.99636, 0, 0, -0.99636, 45.534268, 148.472585)"/>
<path fill-rule="nonzero" fill="rgb(31.373596%, 31.373596%, 31.373596%)" fill-opacity="1" stroke-width="0.59776" stroke-linecap="butt" stroke-linejoin="miter" stroke="rgb(31.373596%, 31.373596%, 31.373596%)" stroke-opacity="1" stroke-miterlimit="10" d="M 4.818935 -0.0000327271 L 0.965063 1.45448 L 2.239233 -0.0000327271 L 0.965063 -1.454546 Z M 4.818935 -0.0000327271 " transform="matrix(0, 0.99636, 0.99636, 0, 370.33597, 163.807981)"/>
<g fill="rgb(47.099304%, 47.099304%, 47.099304%)" fill-opacity="1">
<use xlink:href="#glyph-4-0" x="373.942494" y="139.756428"/>
<use xlink:href="#glyph-4-1" x="377.958678" y="139.756428"/>
<use xlink:href="#glyph-4-2" x="381.544061" y="139.756428"/>
</g>
<g fill="rgb(47.099304%, 47.099304%, 47.099304%)" fill-opacity="1">
<use xlink:href="#glyph-5-0" x="49.041455" y="215.247636"/>
</g>
<g fill="rgb(47.099304%, 47.099304%, 47.099304%)" fill-opacity="1">
<use xlink:href="#glyph-1-9" x="57.832339" y="215.247636"/>
</g>
<g fill="rgb(47.099304%, 47.099304%, 47.099304%)" fill-opacity="1">
<use xlink:href="#glyph-1-10" x="64.066094" y="215.247636"/>
<use xlink:href="#glyph-1-5" x="70.3872" y="215.247636"/>
<use xlink:href="#glyph-1-11" x="74.627742" y="215.247636"/>
<use xlink:href="#glyph-1-1" x="78.955635" y="215.247636"/>
<use xlink:href="#glyph-1-12" x="80.758262" y="215.247636"/>
<use xlink:href="#glyph-1-1" x="83.323234" y="215.247636"/>
<use xlink:href="#glyph-1-3" x="85.125861" y="215.247636"/>
<use xlink:href="#glyph-1-11" x="89.096406" y="215.247636"/>
</g>
<g fill="rgb(47.099304%, 47.099304%, 47.099304%)" fill-opacity="1">
<use xlink:href="#glyph-1-13" x="95.512806" y="215.247636"/>
<use xlink:href="#glyph-1-14" x="98.030131" y="215.247636"/>
</g>
<g fill="rgb(47.099304%, 47.099304%, 47.099304%)" fill-opacity="1">
<use xlink:href="#glyph-1-15" x="106.987679" y="215.247636"/>
<use xlink:href="#glyph-1-16" x="113.856721" y="215.247636"/>
<use xlink:href="#glyph-1-17" x="120.725763" y="215.247636"/>
</g>
<g fill="rgb(47.099304%, 47.099304%, 47.099304%)" fill-opacity="1">
<use xlink:href="#glyph-1-18" x="129.683311" y="215.247636"/>
<use xlink:href="#glyph-1-19" x="136.552353" y="215.247636"/>
<use xlink:href="#glyph-1-20" x="143.421394" y="215.247636"/>
</g>
<g fill="rgb(47.099304%, 47.099304%, 47.099304%)" fill-opacity="1">
<use xlink:href="#glyph-1-21" x="147.304587" y="215.247636"/>
</g>
<g fill="rgb(47.099304%, 47.099304%, 47.099304%)" fill-opacity="1">
<use xlink:href="#glyph-1-22" x="156.262135" y="215.247636"/>
</g>
<g fill="rgb(47.099304%, 47.099304%, 47.099304%)" fill-opacity="1">
<use xlink:href="#glyph-1-23" x="163.139118" y="215.247636"/>
</g>
<g fill="rgb(47.099304%, 47.099304%, 47.099304%)" fill-opacity="1">
<use xlink:href="#glyph-1-24" x="172.096666" y="215.247636"/>
<use xlink:href="#glyph-1-25" x="178.965708" y="215.247636"/>
</g>
<g fill="rgb(47.099304%, 47.099304%, 47.099304%)" fill-opacity="1">
<use xlink:href="#glyph-5-1" x="49.041455" y="224.677187"/>
</g>
<g fill="rgb(47.099304%, 47.099304%, 47.099304%)" fill-opacity="1">
<use xlink:href="#glyph-1-9" x="53.432413" y="224.677187"/>
</g>
<g fill="rgb(47.099304%, 47.099304%, 47.099304%)" fill-opacity="1">
<use xlink:href="#glyph-1-26" x="59.674109" y="224.677187"/>
<use xlink:href="#glyph-1-27" x="61.730851" y="224.677187"/>
<use xlink:href="#glyph-1-28" x="65.987275" y="224.677187"/>
</g>
<g fill="rgb(47.099304%, 47.099304%, 47.099304%)" fill-opacity="1">
<use xlink:href="#glyph-1-29" x="69.783115" y="224.677187"/>
<use xlink:href="#glyph-1-30" x="73.531309" y="224.677187"/>
<use xlink:href="#glyph-1-1" x="75.333936" y="224.677187"/>
<use xlink:href="#glyph-1-11" x="77.136563" y="224.677187"/>
</g>
<g fill="rgb(47.099304%, 47.099304%, 47.099304%)" fill-opacity="1">
<use xlink:href="#glyph-1-13" x="83.545022" y="224.677187"/>
<use xlink:href="#glyph-1-31" x="86.062347" y="224.677187"/>
<use xlink:href="#glyph-1-32" x="92.931389" y="224.677187"/>
</g>
<g fill="rgb(47.099304%, 47.099304%, 47.099304%)" fill-opacity="1">
<use xlink:href="#glyph-1-15" x="101.888937" y="224.677187"/>
<use xlink:href="#glyph-1-16" x="108.757979" y="224.677187"/>
<use xlink:href="#glyph-1-18" x="115.627021" y="224.677187"/>
</g>
<g fill="rgb(47.099304%, 47.099304%, 47.099304%)" fill-opacity="1">
<use xlink:href="#glyph-1-33" x="124.584569" y="224.677187"/>
<use xlink:href="#glyph-1-34" x="129.174519" y="224.677187"/>
<use xlink:href="#glyph-1-35" x="133.27212" y="224.677187"/>
<use xlink:href="#glyph-1-36" x="138.703825" y="224.677187"/>
</g>
<g fill="rgb(47.099304%, 47.099304%, 47.099304%)" fill-opacity="1">
<use xlink:href="#glyph-1-37" x="147.661373" y="224.677187"/>
<use xlink:href="#glyph-1-38" x="154.530415" y="224.677187"/>
<use xlink:href="#glyph-1-39" x="161.399457" y="224.677187"/>
<use xlink:href="#glyph-1-25" x="168.268499" y="224.677187"/>
</g>
<g fill="rgb(47.099304%, 47.099304%, 47.099304%)" fill-opacity="1">
<use xlink:href="#glyph-1-40" x="49.041455" y="234.107735"/>
</g>
<g fill="rgb(47.099304%, 47.099304%, 47.099304%)" fill-opacity="1">
<use xlink:href="#glyph-1-22" x="57.991062" y="234.107735"/>
<use xlink:href="#glyph-1-23" x="64.860104" y="234.107735"/>
<use xlink:href="#glyph-1-18" x="71.729146" y="234.107735"/>
</g>
<g fill="rgb(47.099304%, 47.099304%, 47.099304%)" fill-opacity="1">
<use xlink:href="#glyph-1-41" x="80.686694" y="234.107735"/>
<use xlink:href="#glyph-1-29" x="84.260184" y="234.107735"/>
<use xlink:href="#glyph-1-41" x="88.008378" y="234.107735"/>
<use xlink:href="#glyph-1-42" x="91.581868" y="234.107735"/>
<use xlink:href="#glyph-1-3" x="95.838291" y="234.107735"/>
</g>
<g fill="rgb(47.099304%, 47.099304%, 47.099304%)" fill-opacity="1">
<use xlink:href="#glyph-1-30" x="101.897342" y="234.107735"/>
</g>
<g fill="rgb(47.099304%, 47.099304%, 47.099304%)" fill-opacity="1">
<use xlink:href="#glyph-1-1" x="103.70791" y="234.107735"/>
<use xlink:href="#glyph-1-27" x="105.510537" y="234.107735"/>
<use xlink:href="#glyph-1-3" x="109.766961" y="234.107735"/>
</g>
<g fill="rgb(47.099304%, 47.099304%, 47.099304%)" fill-opacity="1">
<use xlink:href="#glyph-1-43" x="115.826012" y="234.107735"/>
<use xlink:href="#glyph-1-1" x="120.153905" y="234.107735"/>
<use xlink:href="#glyph-1-27" x="121.956532" y="234.107735"/>
<use xlink:href="#glyph-1-44" x="126.212956" y="234.107735"/>
</g>
<g fill="rgb(47.099304%, 47.099304%, 47.099304%)" fill-opacity="1">
<use xlink:href="#glyph-1-45" x="130.064384" y="234.107735"/>
<use xlink:href="#glyph-1-43" x="133.494934" y="234.107735"/>
<use xlink:href="#glyph-1-5" x="137.822828" y="234.107735"/>
<use xlink:href="#glyph-1-27" x="142.063369" y="234.107735"/>
<use xlink:href="#glyph-1-44" x="146.319793" y="234.107735"/>
<use xlink:href="#glyph-1-46" x="150.337984" y="234.107735"/>
</g>
<g fill="rgb(47.099304%, 47.099304%, 47.099304%)" fill-opacity="1">
<use xlink:href="#glyph-1-47" x="159.287591" y="234.107735"/>
<use xlink:href="#glyph-1-48" x="166.156633" y="234.107735"/>
<use xlink:href="#glyph-1-49" x="173.025675" y="234.107735"/>
<use xlink:href="#glyph-1-31" x="179.894717" y="234.107735"/>
</g>
<g fill="rgb(47.099304%, 47.099304%, 47.099304%)" fill-opacity="1">
<use xlink:href="#glyph-1-50" x="188.852265" y="234.107735"/>
</g>
<g fill="rgb(47.099304%, 47.099304%, 47.099304%)" fill-opacity="1">
<use xlink:href="#glyph-1-51" x="197.388935" y="234.107735"/>
</g>
<g fill="rgb(47.099304%, 47.099304%, 47.099304%)" fill-opacity="1">
<use xlink:href="#glyph-1-7" x="201.280069" y="234.107735"/>
<use xlink:href="#glyph-1-52" x="206.084428" y="234.107735"/>
<use xlink:href="#glyph-1-18" x="210.086736" y="234.107735"/>
</g>
<g fill="rgb(47.099304%, 47.099304%, 47.099304%)" fill-opacity="1">
<use xlink:href="#glyph-1-15" x="219.036343" y="234.107735"/>
<use xlink:href="#glyph-1-16" x="225.905385" y="234.107735"/>
</g>
<g fill="rgb(47.099304%, 47.099304%, 47.099304%)" fill-opacity="1">
<use xlink:href="#glyph-1-53" x="234.862933" y="234.107735"/>
<use xlink:href="#glyph-1-54" x="241.731975" y="234.107735"/>
</g>
<g fill="rgb(47.099304%, 47.099304%, 47.099304%)" fill-opacity="1">
<use xlink:href="#glyph-1-55" x="250.689524" y="234.107735"/>
<use xlink:href="#glyph-1-56" x="257.558565" y="234.107735"/>
<use xlink:href="#glyph-1-57" x="264.427607" y="234.107735"/>
<use xlink:href="#glyph-1-58" x="271.296649" y="234.107735"/>
<use xlink:href="#glyph-1-59" x="278.165691" y="234.107735"/>
</g>
<g fill="rgb(47.099304%, 47.099304%, 47.099304%)" fill-opacity="1">
<use xlink:href="#glyph-1-14" x="287.123239" y="234.107735"/>
<use xlink:href="#glyph-1-60" x="293.992281" y="234.107735"/>
</g>
</svg>
