<?xml version="1.0" encoding="UTF-8"?>
<svg xmlns="http://www.w3.org/2000/svg" xmlns:xlink="http://www.w3.org/1999/xlink" width="317.88pt" height="202.66pt" viewBox="0 0 317.88 202.66">
<defs>
<g>
<g id="glyph-0-0">
<path d="M 4.0625 -1.109375 C 4.796875 -1.921875 5.0625 -2.953125 5.0625 -3.015625 C 5.0625 -3.09375 5.015625 -3.125 4.9375 -3.125 C 4.828125 -3.125 4.828125 -3.09375 4.78125 -2.921875 C 4.5625 -2.109375 4.078125 -1.5 4.0625 -1.5 C 4.046875 -1.5 4.046875 -1.6875 4.046875 -1.828125 C 4.03125 -3.21875 3.125 -3.5 2.578125 -3.5 C 1.453125 -3.5 0.34375 -2.421875 0.34375 -1.296875 C 0.34375 -0.515625 0.90625 0.078125 1.734375 0.078125 C 2.296875 0.078125 2.890625 -0.125 3.515625 -0.59375 C 3.6875 0.046875 4.15625 0.078125 4.296875 0.078125 C 4.75 0.078125 5.015625 -0.328125 5.015625 -0.484375 C 5.015625 -0.578125 4.921875 -0.578125 4.890625 -0.578125 C 4.796875 -0.578125 4.78125 -0.546875 4.765625 -0.5 C 4.640625 -0.15625 4.359375 -0.140625 4.328125 -0.140625 C 4.21875 -0.140625 4.09375 -0.140625 4.0625 -1.109375 Z M 3.453125 -0.84375 C 2.890625 -0.34375 2.234375 -0.140625 1.765625 -0.140625 C 1.359375 -0.140625 1 -0.375 1 -1.015625 C 1 -1.296875 1.125 -2.109375 1.5 -2.640625 C 1.8125 -3.09375 2.25 -3.28125 2.5625 -3.28125 C 3 -3.28125 3.25 -2.96875 3.359375 -2.484375 C 3.46875 -1.953125 3.40625 -1.3125 3.453125 -0.84375 Z M 3.453125 -0.84375 "/>
</g>
<g id="glyph-0-1">
<path d="M 4.765625 -4.53125 C 4.765625 -5.25 4.1875 -5.609375 3.515625 -5.609375 C 2.5 -5.609375 1.734375 -4.453125 1.515625 -3.578125 L 0.25 1.453125 C 0.234375 1.5 0.296875 1.546875 0.34375 1.546875 C 0.40625 1.546875 0.484375 1.546875 0.5 1.484375 L 1.03125 -0.640625 C 1.21875 -0.21875 1.59375 0.078125 2.15625 0.078125 C 3.265625 0.078125 4.46875 -0.703125 4.46875 -1.96875 C 4.46875 -2.5 4.265625 -2.84375 3.859375 -3.171875 C 3.90625 -3.1875 4.0625 -3.28125 4.09375 -3.3125 C 4.5 -3.59375 4.765625 -4.046875 4.765625 -4.53125 Z M 3.203125 -3.171875 C 3.0625 -3.15625 2.921875 -3.140625 2.765625 -3.140625 C 2.6875 -3.140625 2.59375 -3.140625 2.5 -3.171875 C 2.65625 -3.203125 2.8125 -3.203125 2.96875 -3.203125 C 3.046875 -3.203125 3.125 -3.203125 3.203125 -3.171875 Z M 4.265625 -4.671875 C 4.265625 -4.28125 4.09375 -3.8125 3.8125 -3.53125 C 3.78125 -3.484375 3.609375 -3.34375 3.5625 -3.328125 C 3.34375 -3.375 3.171875 -3.421875 2.9375 -3.421875 C 2.734375 -3.421875 2.234375 -3.4375 2.234375 -3.140625 C 2.234375 -2.890625 2.6875 -2.90625 2.84375 -2.90625 C 3.078125 -2.90625 3.3125 -2.9375 3.546875 -3.015625 C 3.78125 -2.828125 3.90625 -2.578125 3.90625 -2.171875 C 3.90625 -1.703125 3.75 -1.1875 3.515625 -0.859375 C 3.21875 -0.453125 2.734375 -0.15625 2.125 -0.15625 C 1.609375 -0.15625 1.1875 -0.5625 1.1875 -1.109375 C 1.1875 -1.21875 1.203125 -1.3125 1.21875 -1.40625 L 1.75 -3.515625 C 1.921875 -4.21875 2.59375 -5.390625 3.484375 -5.390625 C 3.890625 -5.390625 4.265625 -5.1875 4.265625 -4.671875 Z M 4.265625 -4.671875 "/>
</g>
<g id="glyph-0-2">
<path d="M 1.484375 -0.125 C 1.484375 0.390625 1.375 0.84375 0.875 1.34375 C 0.84375 1.375 0.828125 1.390625 0.828125 1.421875 C 0.828125 1.484375 0.90625 1.53125 0.953125 1.53125 C 1.046875 1.53125 1.703125 0.90625 1.703125 -0.03125 C 1.703125 -0.53125 1.515625 -0.875 1.171875 -0.875 C 0.890625 -0.875 0.734375 -0.65625 0.734375 -0.453125 C 0.734375 -0.21875 0.875 0 1.171875 0 C 1.375 0 1.484375 -0.109375 1.484375 -0.125 Z M 1.484375 -0.125 "/>
</g>
<g id="glyph-1-0">
<path d="M 7.109375 0.640625 L 7.109375 -0.203125 L 2.671875 -0.203125 L 2.671875 -0.75 L 6.859375 -0.75 L 6.859375 -2.875 L 1.578125 -2.875 L 1.578125 -2.046875 L 5.8125 -2.046875 L 5.8125 -1.5 L 1.625 -1.5 L 1.625 0.640625 Z M 6.859375 -3.28125 L 6.859375 -7.265625 L 5.8125 -7.265625 L 5.8125 -3.28125 Z M 0.5 -5.140625 C 0.5 -4.0625 1.4375 -3.359375 2.625 -3.359375 C 3.84375 -3.359375 4.734375 -4.078125 4.734375 -5.140625 C 4.734375 -6.234375 3.84375 -7 2.625 -7 C 1.390625 -7 0.5 -6.21875 0.5 -5.140625 Z M 1.546875 -5.15625 C 1.546875 -5.6875 2.03125 -6.140625 2.625 -6.140625 C 3.296875 -6.140625 3.6875 -5.703125 3.6875 -5.15625 C 3.6875 -4.671875 3.28125 -4.234375 2.625 -4.234375 C 2 -4.234375 1.546875 -4.625 1.546875 -5.15625 Z M 1.546875 -5.15625 "/>
</g>
<g id="glyph-1-1">
<path d="M 5.125 -1.5625 C 4 -2.15625 3.25 -3.015625 3.171875 -4.546875 L 4.75 -4.546875 L 4.75 -5.375 L 0.5 -5.375 L 0.5 -4.546875 L 2.09375 -4.546875 C 2.03125 -3.015625 1.328125 -2.0625 0.078125 -1.375 L 0.734375 -0.625 C 1.671875 -1.0625 2.453125 -2.015625 2.65625 -2.8125 C 2.90625 -2.046875 3.8125 -1.140625 4.578125 -0.78125 Z M 6.515625 -7.265625 L 5.46875 -7.265625 L 5.46875 0.703125 L 6.515625 0.703125 L 6.515625 -3.296875 L 7.65625 -3.296875 L 7.65625 -4.15625 L 6.515625 -4.15625 Z M 1.421875 -5.96875 L 3.8125 -5.96875 L 3.8125 -6.796875 L 1.421875 -6.796875 Z M 1.421875 -5.96875 "/>
</g>
<g id="glyph-1-2">
<path d="M 6.640625 -4.25 L 6.640625 -5.078125 L 2.28125 -5.078125 L 2.28125 -6.25 L 6.578125 -6.25 L 6.578125 -7.078125 L 1.234375 -7.078125 L 1.234375 -4.25 L 3.328125 -4.25 L 3.328125 -3.453125 L 0.265625 -3.453125 L 0.265625 -2.609375 L 7.46875 -2.609375 L 7.46875 -3.453125 L 4.375 -3.453125 L 4.375 -4.25 Z M 1.109375 -2 L 1.109375 -1.15625 L 5.5 -1.15625 L 5.5 0.71875 L 6.546875 0.71875 L 6.546875 -2 Z M 1.109375 -2 "/>
</g>
<g id="glyph-1-3">
<path d="M 6.859375 0.59375 L 6.859375 -2.46875 L 5.8125 -2.46875 L 5.8125 -1.703125 L 2.65625 -1.703125 L 2.65625 -2.453125 L 1.609375 -2.453125 L 1.609375 0.59375 Z M 5.046875 -3.25 L 4.953125 -4.046875 C 4.328125 -3.875 2.71875 -3.75 1.71875 -3.8125 L 1.71875 -4.609375 L 4.3125 -4.609375 L 4.3125 -6.875 L 0.640625 -6.875 L 0.640625 -6.046875 L 3.265625 -6.046875 L 3.265625 -5.40625 L 0.671875 -5.40625 L 0.671875 -2.96875 L 1.75 -2.96875 C 2.8125 -2.96875 4.328125 -3.078125 5.046875 -3.25 Z M 6.859375 -2.859375 L 6.859375 -7.265625 L 5.8125 -7.265625 L 5.8125 -2.859375 Z M 5.8125 -0.234375 L 2.65625 -0.234375 L 2.65625 -0.890625 L 5.8125 -0.890625 Z M 5.8125 -0.234375 "/>
</g>
<g id="glyph-1-4">
<path d="M 6.65625 -0.78125 C 6.65625 -1.6875 5.640625 -2.25 3.875 -2.25 C 2.109375 -2.25 1.09375 -1.6875 1.09375 -0.78125 C 1.09375 0.140625 2.109375 0.703125 3.875 0.703125 C 5.640625 0.703125 6.65625 0.140625 6.65625 -0.78125 Z M 7.140625 -4.78125 C 6.109375 -4.8125 4.875 -5.359375 4.53125 -6.140625 L 6.765625 -6.140625 L 6.765625 -6.96875 L 1 -6.96875 L 1 -6.140625 L 3.234375 -6.140625 C 2.921875 -5.359375 1.828125 -4.828125 0.625 -4.765625 L 1.0625 -3.953125 C 2.3125 -4.046875 3.484375 -4.65625 3.875 -5.46875 C 4.328125 -4.671875 5.5625 -4.0625 6.6875 -3.953125 Z M 7.46875 -2.609375 L 7.46875 -3.453125 L 4.375 -3.453125 L 4.375 -4.453125 L 3.328125 -4.453125 L 3.328125 -3.453125 L 0.265625 -3.453125 L 0.265625 -2.609375 Z M 5.578125 -0.765625 C 5.578125 -0.359375 4.90625 -0.109375 3.875 -0.109375 C 2.84375 -0.109375 2.171875 -0.359375 2.171875 -0.765625 C 2.171875 -1.171875 2.84375 -1.421875 3.875 -1.421875 C 4.90625 -1.421875 5.578125 -1.171875 5.578125 -0.765625 Z M 5.578125 -0.765625 "/>
</g>
<g id="glyph-1-5">
<path d="M 3.875 -5.71875 C 4.28125 -4.796875 5.671875 -4.15625 6.734375 -4 L 7.1875 -4.828125 C 6.046875 -4.890625 4.421875 -5.6875 4.421875 -6.890625 L 4.421875 -7.125 L 3.34375 -7.125 L 3.34375 -6.890625 C 3.34375 -5.6875 1.921875 -4.953125 0.578125 -4.828125 L 1.015625 -4.015625 C 2.171875 -4.15625 3.46875 -4.796875 3.875 -5.71875 Z M 7.46875 -2.5625 L 7.46875 -3.390625 L 4.390625 -3.390625 L 4.390625 -4.453125 L 3.34375 -4.453125 L 3.34375 -3.390625 L 0.265625 -3.390625 L 0.265625 -2.5625 Z M 1.125 -1.953125 L 1.125 -1.125 L 5.5 -1.125 L 5.5 0.71875 L 6.546875 0.71875 L 6.546875 -1.953125 Z M 1.125 -1.953125 "/>
</g>
<g id="glyph-2-0">
<path d="M 3.046875 -1.03125 C 3.046875 -1.40625 2.8125 -1.96875 1.875 -2.140625 C 1.8125 -2.15625 1.359375 -2.234375 1.328125 -2.234375 C 1.078125 -2.296875 0.703125 -2.453125 0.703125 -2.78125 C 0.703125 -3.015625 0.875 -3.34375 1.640625 -3.34375 C 2.53125 -3.34375 2.5625 -2.703125 2.578125 -2.46875 C 2.59375 -2.40625 2.640625 -2.390625 2.703125 -2.390625 C 2.828125 -2.390625 2.828125 -2.4375 2.828125 -2.59375 L 2.828125 -3.34375 C 2.828125 -3.46875 2.828125 -3.546875 2.734375 -3.546875 C 2.6875 -3.546875 2.671875 -3.546875 2.53125 -3.421875 C 2.515625 -3.40625 2.453125 -3.34375 2.421875 -3.34375 C 2.421875 -3.34375 2.40625 -3.34375 2.359375 -3.375 C 2.234375 -3.453125 2 -3.546875 1.640625 -3.546875 C 0.53125 -3.546875 0.28125 -2.9375 0.28125 -2.5625 C 0.28125 -2.15625 0.578125 -1.9375 0.59375 -1.90625 C 0.921875 -1.671875 1.09375 -1.640625 1.625 -1.546875 C 2 -1.46875 2.609375 -1.359375 2.609375 -0.8125 C 2.609375 -0.515625 2.40625 -0.140625 1.671875 -0.140625 C 0.875 -0.140625 0.640625 -0.765625 0.546875 -1.1875 C 0.515625 -1.28125 0.5 -1.328125 0.40625 -1.328125 C 0.28125 -1.328125 0.28125 -1.265625 0.28125 -1.109375 L 0.28125 -0.125 C 0.28125 0 0.28125 0.078125 0.375 0.078125 C 0.421875 0.078125 0.4375 0.078125 0.578125 -0.078125 C 0.625 -0.125 0.703125 -0.21875 0.75 -0.265625 C 1.109375 0.0625 1.484375 0.078125 1.6875 0.078125 C 2.703125 0.078125 3.046875 -0.5 3.046875 -1.03125 Z M 3.046875 -1.03125 "/>
</g>
<g id="glyph-2-1">
<path d="M 4.40625 -1.71875 C 4.40625 -2.71875 3.609375 -3.5 2.640625 -3.5 C 2.328125 -3.5 1.875 -3.421875 1.46875 -3.015625 L 1.46875 -3.5 L 0.28125 -3.421875 L 0.28125 -3.15625 C 0.84375 -3.15625 0.875 -3.109375 0.875 -2.78125 L 0.875 0.921875 C 0.875 1.28125 0.78125 1.28125 0.28125 1.28125 L 0.28125 1.546875 C 0.625 1.515625 0.96875 1.515625 1.1875 1.515625 C 1.421875 1.515625 1.75 1.515625 2.09375 1.546875 L 2.09375 1.28125 C 1.578125 1.28125 1.484375 1.28125 1.484375 0.921875 L 1.484375 -0.390625 C 1.859375 0.015625 2.265625 0.078125 2.515625 0.078125 C 3.53125 0.078125 4.40625 -0.703125 4.40625 -1.71875 Z M 3.703125 -1.71875 C 3.703125 -0.796875 3.125 -0.140625 2.484375 -0.140625 C 2.203125 -0.140625 1.84375 -0.265625 1.578125 -0.65625 C 1.484375 -0.796875 1.484375 -0.796875 1.484375 -0.953125 L 1.484375 -2.640625 C 1.671875 -2.96875 2.0625 -3.265625 2.5625 -3.265625 C 3.1875 -3.265625 3.703125 -2.578125 3.703125 -1.71875 Z M 3.703125 -1.71875 "/>
</g>
<g id="glyph-2-2">
<path d="M 4.09375 -0.71875 L 4.09375 -1.15625 L 3.84375 -1.15625 L 3.84375 -0.71875 C 3.84375 -0.390625 3.71875 -0.265625 3.5625 -0.265625 C 3.265625 -0.265625 3.265625 -0.625 3.265625 -0.71875 L 3.265625 -2.375 C 3.265625 -3.15625 2.5 -3.546875 1.78125 -3.546875 C 1.125 -3.546875 0.53125 -3.296875 0.53125 -2.765625 C 0.53125 -2.53125 0.703125 -2.390625 0.90625 -2.390625 C 1.125 -2.390625 1.28125 -2.546875 1.28125 -2.765625 C 1.28125 -2.953125 1.15625 -3.078125 0.984375 -3.125 C 1.28125 -3.328125 1.703125 -3.328125 1.765625 -3.328125 C 2.21875 -3.328125 2.65625 -3.015625 2.65625 -2.359375 L 2.65625 -2.109375 C 2.1875 -2.09375 1.65625 -2.0625 1.109375 -1.84375 C 0.40625 -1.53125 0.265625 -1.078125 0.265625 -0.8125 C 0.265625 -0.125 1.078125 0.078125 1.625 0.078125 C 2.203125 0.078125 2.5625 -0.25 2.734375 -0.5625 C 2.78125 -0.265625 2.984375 0.046875 3.328125 0.046875 C 3.40625 0.046875 4.09375 0.015625 4.09375 -0.71875 Z M 2.65625 -1.125 C 2.65625 -0.34375 2 -0.140625 1.6875 -0.140625 C 1.265625 -0.140625 0.921875 -0.421875 0.921875 -0.796875 C 0.921875 -1.328125 1.421875 -1.875 2.65625 -1.90625 Z M 2.65625 -1.125 "/>
</g>
<g id="glyph-2-3">
<path d="M 4.46875 0 L 4.46875 -0.265625 C 3.953125 -0.265625 3.859375 -0.265625 3.859375 -0.625 L 3.859375 -2.40625 C 3.859375 -3.078125 3.5625 -3.5 2.734375 -3.5 C 1.9375 -3.5 1.578125 -2.9375 1.484375 -2.75 L 1.484375 -3.5 L 0.328125 -3.421875 L 0.328125 -3.15625 C 0.859375 -3.15625 0.9375 -3.109375 0.9375 -2.71875 L 0.9375 -0.625 C 0.9375 -0.265625 0.828125 -0.265625 0.328125 -0.265625 L 0.328125 0 C 0.671875 -0.03125 1.015625 -0.03125 1.234375 -0.03125 C 1.46875 -0.03125 1.796875 -0.03125 2.140625 0 L 2.140625 -0.265625 C 1.625 -0.265625 1.53125 -0.265625 1.53125 -0.625 L 1.53125 -2.0625 C 1.53125 -2.890625 2.171875 -3.28125 2.65625 -3.28125 C 3.140625 -3.28125 3.265625 -2.9375 3.265625 -2.4375 L 3.265625 -0.625 C 3.265625 -0.265625 3.171875 -0.265625 2.65625 -0.265625 L 2.65625 0 C 3 -0.03125 3.34375 -0.03125 3.5625 -0.03125 C 3.796875 -0.03125 4.125 -0.03125 4.46875 0 Z M 4.46875 0 "/>
</g>
<g id="glyph-3-0">
<path d="M 2.40625 -4.8125 C 2.40625 -5.015625 2.40625 -5.21875 2.6875 -5.46875 C 2.75 -5.515625 2.96875 -5.703125 3.46875 -5.734375 C 3.5625 -5.75 3.625 -5.75 3.625 -5.859375 C 3.625 -5.96875 3.546875 -5.96875 3.4375 -5.96875 C 2.578125 -5.96875 1.828125 -5.5625 1.8125 -4.96875 L 1.8125 -2.9375 C 1.796875 -2.515625 1.40625 -2.140625 0.75 -2.09375 C 0.65625 -2.09375 0.59375 -2.09375 0.59375 -1.984375 C 0.59375 -1.890625 0.65625 -1.890625 0.71875 -1.875 C 1.484375 -1.828125 1.734375 -1.421875 1.796875 -1.203125 C 1.8125 -1.109375 1.8125 -1.09375 1.8125 -0.796875 L 1.8125 0.828125 C 1.8125 1.078125 1.8125 1.4375 2.328125 1.71875 C 2.671875 1.921875 3.15625 1.984375 3.4375 1.984375 C 3.546875 1.984375 3.625 1.984375 3.625 1.875 C 3.625 1.78125 3.5625 1.78125 3.484375 1.765625 C 2.75 1.71875 2.484375 1.34375 2.4375 1.09375 C 2.40625 1.015625 2.40625 1 2.40625 0.71875 L 2.40625 -0.953125 C 2.40625 -1.15625 2.40625 -1.703125 1.484375 -1.984375 C 2.078125 -2.171875 2.3125 -2.453125 2.390625 -2.75 C 2.40625 -2.84375 2.40625 -2.90625 2.40625 -3.15625 Z M 2.40625 -4.8125 "/>
</g>
<g id="glyph-3-1">
<path d="M 2.40625 -4.796875 C 2.40625 -5.03125 2.40625 -5.375 1.984375 -5.65625 C 1.65625 -5.875 1.125 -5.96875 0.78125 -5.96875 C 0.671875 -5.96875 0.59375 -5.96875 0.59375 -5.859375 C 0.59375 -5.75 0.65625 -5.75 0.71875 -5.734375 C 1.453125 -5.6875 1.734375 -5.34375 1.796875 -5.046875 C 1.8125 -4.96875 1.8125 -4.921875 1.8125 -4.796875 L 1.8125 -3.140625 C 1.8125 -2.78125 1.8125 -2.265625 2.734375 -1.984375 C 2.296875 -1.859375 1.953125 -1.625 1.84375 -1.21875 C 1.8125 -1.125 1.8125 -1.078125 1.8125 -0.828125 L 1.8125 0.609375 C 1.8125 1.140625 1.8125 1.203125 1.546875 1.484375 C 1.53125 1.5 1.296875 1.71875 0.75 1.765625 C 0.640625 1.78125 0.59375 1.78125 0.59375 1.875 C 0.59375 1.984375 0.671875 1.984375 0.78125 1.984375 C 1.640625 1.984375 2.40625 1.59375 2.40625 0.984375 L 2.40625 -0.609375 C 2.40625 -1.15625 2.40625 -1.34375 2.640625 -1.5625 C 2.90625 -1.796875 3.203125 -1.859375 3.46875 -1.875 C 3.578125 -1.890625 3.625 -1.890625 3.625 -1.984375 C 3.625 -2.09375 3.5625 -2.09375 3.484375 -2.09375 C 2.609375 -2.15625 2.40625 -2.703125 2.40625 -2.9375 Z M 2.40625 -4.796875 "/>
</g>
<g id="glyph-3-2">
<path d="M 5.5625 -1.8125 C 5.6875 -1.8125 5.859375 -1.8125 5.859375 -1.984375 C 5.859375 -2.171875 5.6875 -2.171875 5.5625 -2.171875 L 1 -2.171875 C 0.875 -2.171875 0.703125 -2.171875 0.703125 -1.984375 C 0.703125 -1.8125 0.875 -1.8125 1 -1.8125 Z M 5.5625 -1.8125 "/>
</g>
<g id="glyph-4-0">
<path d="M 5.8125 -2.640625 C 5.9375 -2.640625 6.09375 -2.640625 6.09375 -2.828125 C 6.09375 -3.015625 5.90625 -3.015625 5.78125 -3.015625 L 0.78125 -3.015625 C 0.65625 -3.015625 0.46875 -3.015625 0.46875 -2.828125 C 0.46875 -2.640625 0.625 -2.640625 0.75 -2.640625 Z M 5.78125 -0.96875 C 5.90625 -0.96875 6.09375 -0.96875 6.09375 -1.140625 C 6.09375 -1.328125 5.9375 -1.328125 5.8125 -1.328125 L 0.75 -1.328125 C 0.625 -1.328125 0.46875 -1.328125 0.46875 -1.140625 C 0.46875 -0.96875 0.65625 -0.96875 0.78125 -0.96875 Z M 5.78125 -0.96875 "/>
</g>
<g id="glyph-5-0">
<path d="M 2.125 -2.5 L 2.421875 -2.5 L 3.609375 -0.65625 C 3.6875 -0.53125 3.875 -0.21875 3.96875 -0.09375 C 4.03125 0 4.046875 0 4.234375 0 L 5.328125 0 C 5.46875 0 5.59375 0 5.59375 -0.140625 C 5.59375 -0.203125 5.546875 -0.265625 5.46875 -0.28125 C 5.171875 -0.34375 4.78125 -0.859375 4.59375 -1.125 C 4.546875 -1.203125 4.140625 -1.71875 3.609375 -2.578125 C 4.3125 -2.71875 5 -3.015625 5 -3.953125 C 5 -5.0625 3.828125 -5.453125 2.890625 -5.453125 L 0.390625 -5.453125 C 0.25 -5.453125 0.125 -5.453125 0.125 -5.3125 C 0.125 -5.171875 0.28125 -5.171875 0.34375 -5.171875 C 0.796875 -5.171875 0.828125 -5.109375 0.828125 -4.71875 L 0.828125 -0.734375 C 0.828125 -0.328125 0.796875 -0.28125 0.34375 -0.28125 C 0.28125 -0.28125 0.125 -0.28125 0.125 -0.140625 C 0.125 0 0.25 0 0.390625 0 L 2.578125 0 C 2.71875 0 2.84375 0 2.84375 -0.140625 C 2.84375 -0.28125 2.703125 -0.28125 2.609375 -0.28125 C 2.15625 -0.28125 2.125 -0.34375 2.125 -0.734375 Z M 3.671875 -2.890625 C 3.890625 -3.1875 3.90625 -3.609375 3.90625 -3.953125 C 3.90625 -4.328125 3.859375 -4.75 3.609375 -5.078125 C 3.9375 -5.015625 4.71875 -4.765625 4.71875 -3.953125 C 4.71875 -3.4375 4.484375 -3.03125 3.671875 -2.890625 Z M 2.125 -4.734375 C 2.125 -4.90625 2.125 -5.171875 2.625 -5.171875 C 3.296875 -5.171875 3.640625 -4.890625 3.640625 -3.953125 C 3.640625 -2.921875 3.390625 -2.78125 2.125 -2.78125 Z M 1.046875 -0.28125 C 1.109375 -0.421875 1.109375 -0.640625 1.109375 -0.71875 L 1.109375 -4.734375 C 1.109375 -4.8125 1.109375 -5.03125 1.046875 -5.171875 L 1.953125 -5.171875 C 1.859375 -5.046875 1.859375 -4.890625 1.859375 -4.765625 L 1.859375 -0.71875 C 1.859375 -0.640625 1.859375 -0.421875 1.921875 -0.28125 Z M 2.75 -2.5 C 2.796875 -2.5 2.828125 -2.515625 2.890625 -2.515625 C 3.015625 -2.515625 3.1875 -2.53125 3.3125 -2.546875 C 3.421875 -2.359375 4.28125 -0.9375 4.953125 -0.28125 L 4.171875 -0.28125 Z M 2.75 -2.5 "/>
</g>
<g id="glyph-6-0">
<path d="M 3.21875 -1.109375 L 2.984375 -1.109375 C 2.984375 -1.03125 2.921875 -0.640625 2.828125 -0.578125 C 2.78125 -0.53125 2.296875 -0.53125 2.21875 -0.53125 L 1.109375 -0.53125 L 1.875 -1.15625 C 2.078125 -1.3125 2.609375 -1.703125 2.78125 -1.875 C 2.96875 -2.0625 3.21875 -2.359375 3.21875 -2.78125 C 3.21875 -3.53125 2.53125 -3.96875 1.734375 -3.96875 C 0.96875 -3.96875 0.4375 -3.46875 0.4375 -2.90625 C 0.4375 -2.59375 0.6875 -2.5625 0.75 -2.5625 C 0.90625 -2.5625 1.078125 -2.671875 1.078125 -2.890625 C 1.078125 -3.015625 1 -3.203125 0.734375 -3.203125 C 0.875 -3.515625 1.234375 -3.734375 1.640625 -3.734375 C 2.28125 -3.734375 2.609375 -3.265625 2.609375 -2.78125 C 2.609375 -2.359375 2.328125 -1.921875 1.90625 -1.546875 L 0.5 -0.25 C 0.4375 -0.1875 0.4375 -0.1875 0.4375 0 L 3.03125 0 Z M 3.21875 -1.109375 "/>
</g>
<g id="glyph-6-1">
<path d="M 1.75 -1.984375 C 2.265625 -1.984375 2.609375 -1.640625 2.609375 -1.03125 C 2.609375 -0.375 2.203125 -0.09375 1.765625 -0.09375 C 1.609375 -0.09375 1 -0.125 0.734375 -0.46875 C 0.96875 -0.5 1.0625 -0.65625 1.0625 -0.8125 C 1.0625 -1.015625 0.90625 -1.15625 0.71875 -1.15625 C 0.5625 -1.15625 0.375 -1.046875 0.375 -0.796875 C 0.375 -0.203125 1.03125 0.125 1.796875 0.125 C 2.671875 0.125 3.265625 -0.4375 3.265625 -1.03125 C 3.265625 -1.46875 2.9375 -1.921875 2.21875 -2.109375 C 2.6875 -2.265625 3.078125 -2.640625 3.078125 -3.140625 C 3.078125 -3.609375 2.515625 -3.96875 1.796875 -3.96875 C 1.09375 -3.96875 0.5625 -3.640625 0.5625 -3.15625 C 0.5625 -2.90625 0.765625 -2.828125 0.890625 -2.828125 C 1.03125 -2.828125 1.203125 -2.9375 1.203125 -3.140625 C 1.203125 -3.328125 1.0625 -3.4375 0.90625 -3.46875 C 1.1875 -3.765625 1.734375 -3.765625 1.78125 -3.765625 C 2.09375 -3.765625 2.46875 -3.625 2.46875 -3.140625 C 2.46875 -2.8125 2.28125 -2.234375 1.6875 -2.203125 C 1.578125 -2.1875 1.421875 -2.171875 1.359375 -2.171875 C 1.3125 -2.171875 1.234375 -2.171875 1.234375 -2.078125 C 1.234375 -1.984375 1.3125 -1.984375 1.40625 -1.984375 Z M 1.75 -1.984375 "/>
</g>
<g id="glyph-7-0">
<path d="M 0.578125 -5.375 L 2.15625 -5.375 C 2.15625 -5.25 2.15625 -5.09375 2.140625 -5.015625 C 2.109375 -4.09375 1.234375 -3.1875 0.359375 -2.859375 L 0.703125 -2.390625 C 1.453125 -2.703125 2.265625 -3.46875 2.453125 -4.125 C 2.734375 -3.5 3.453125 -2.875 4.125 -2.59375 L 4.46875 -3.078125 C 3.671875 -3.34375 2.828125 -4.109375 2.78125 -5 C 2.765625 -5.09375 2.765625 -5.234375 2.765625 -5.375 L 4.390625 -5.375 L 4.390625 -5.875 L 0.578125 -5.875 Z M 1.34375 -1.90625 L 1.34375 -1.40625 L 5.375 -1.40625 L 5.375 0.5625 L 5.984375 0.5625 L 5.984375 -1.90625 Z M 5.984375 -2.265625 L 5.984375 -6.390625 L 5.375 -6.390625 L 5.375 -2.265625 Z M 5.984375 -2.265625 "/>
</g>
<g id="glyph-7-1">
<path d="M 5.984375 -1.34375 L 5.984375 -6.390625 L 5.375 -6.390625 L 5.375 -4.640625 L 3.890625 -4.640625 L 3.890625 -4.125 L 5.375 -4.125 L 5.375 -1.34375 Z M 6.125 0.34375 L 6.125 -0.15625 L 2.109375 -0.15625 L 2.109375 -1.78125 L 1.515625 -1.78125 L 1.515625 0.34375 Z M 4.359375 -2.859375 C 3.546875 -3.15625 2.609375 -4 2.609375 -5.15625 L 2.609375 -6 L 2 -6 L 2 -5.125 C 2 -4.015625 1.15625 -3.0625 0.234375 -2.65625 L 0.609375 -2.1875 C 1.375 -2.5625 2.109375 -3.328125 2.328125 -4.078125 C 2.609375 -3.34375 3.328125 -2.6875 4.03125 -2.375 Z M 4.359375 -2.859375 "/>
</g>
<g id="glyph-7-2">
<path d="M 5.875 -3.234375 L 5.875 -3.734375 L 1.6875 -3.734375 L 1.6875 -5.46875 L 5.796875 -5.46875 L 5.796875 -5.96875 L 1.09375 -5.96875 L 1.09375 -3.234375 Z M 3.734375 0.484375 L 3.734375 -1.828125 L 6.578125 -1.828125 L 6.578125 -2.328125 L 0.296875 -2.328125 L 0.296875 -1.828125 L 3.125 -1.828125 L 3.125 0.484375 Z M 3.734375 0.484375 "/>
</g>
<g id="glyph-7-3">
<path d="M 3.34375 -2.8125 L 3.34375 -4.09375 L 4.265625 -4.09375 L 4.265625 -2.34375 L 4.84375 -2.34375 L 4.84375 -6.25 L 4.265625 -6.25 L 4.265625 -4.59375 L 3.34375 -4.59375 L 3.34375 -5.96875 L 2.75 -5.96875 L 2.75 -4.921875 L 1.203125 -4.921875 L 1.203125 -5.96875 L 0.625 -5.96875 L 0.625 -2.8125 Z M 6.15625 0.5625 L 6.15625 -1.90625 L 1.46875 -1.90625 L 1.46875 -1.390625 L 5.546875 -1.390625 L 5.546875 0.5625 Z M 6.15625 -2.28125 L 6.15625 -6.390625 L 5.5625 -6.390625 L 5.5625 -2.28125 Z M 2.75 -3.3125 L 1.203125 -3.3125 L 1.203125 -4.421875 L 2.75 -4.421875 Z M 2.75 -3.3125 "/>
</g>
<g id="glyph-7-4">
<path d="M 1.140625 -1.578125 L 1.140625 -3.328125 L 3.5625 -3.328125 L 3.5625 -3.828125 L 1.140625 -3.828125 L 1.140625 -5.265625 L 3.828125 -5.265625 L 3.828125 -5.765625 L 0.546875 -5.765625 L 0.546875 -1.0625 L 1.25 -1.0625 C 2.484375 -1.0625 3.65625 -1.15625 4.40625 -1.296875 L 4.34375 -1.8125 C 3.65625 -1.65625 2.4375 -1.578125 1.296875 -1.578125 Z M 5.984375 0.5625 L 5.984375 -6.390625 L 5.390625 -6.390625 L 5.390625 -3.734375 L 4.015625 -3.734375 L 4.015625 -3.21875 L 5.390625 -3.21875 L 5.390625 0.5625 Z M 5.984375 0.5625 "/>
</g>
<g id="glyph-7-5">
<path d="M 5.640625 -6.390625 L 5.046875 -6.390625 L 5.046875 0.5625 L 5.640625 0.5625 L 5.640625 -2.984375 L 6.78125 -2.984375 L 6.78125 -3.5 L 5.640625 -3.5 Z M 3.84375 -5.640625 L 0.578125 -5.640625 L 0.578125 -5.140625 L 3.1875 -5.140625 C 3.0625 -3.578125 2.0625 -2.109375 0.328125 -1.296875 L 0.703125 -0.828125 C 2.5 -1.75 3.796875 -3.390625 3.84375 -5.640625 Z M 3.84375 -5.640625 "/>
</g>
<g id="glyph-7-6">
<path d="M 6 -0.734375 C 6 -1.53125 5.140625 -2.03125 3.625 -2.03125 C 2.109375 -2.03125 1.265625 -1.53125 1.265625 -0.734375 C 1.265625 0.0625 2.109375 0.5625 3.625 0.5625 C 5.140625 0.5625 6 0.0625 6 -0.734375 Z M 4.28125 -3.171875 C 4.015625 -3.125 3.5625 -3.0625 3.296875 -3.0625 L 3.515625 -4.953125 L 2.921875 -5.015625 L 2.765625 -3.046875 C 2.4375 -3.015625 2.078125 -3 1.78125 -3 L 1.625 -5.015625 L 1.03125 -4.9375 L 1.234375 -3 C 0.921875 -2.984375 0.5625 -2.984375 0.265625 -2.984375 L 0.34375 -2.453125 C 1.015625 -2.453125 1.96875 -2.484375 2.546875 -2.53125 C 3.25 -2.578125 3.859375 -2.625 4.328125 -2.6875 Z M 5.984375 -2.046875 L 5.984375 -6.390625 L 5.375 -6.390625 L 5.375 -5.15625 L 4.203125 -5.15625 L 4.203125 -4.671875 L 5.375 -4.671875 L 5.375 -3.890625 L 4.203125 -3.890625 L 4.203125 -3.40625 L 5.375 -3.40625 L 5.375 -2.046875 Z M 5.375 -0.734375 C 5.375 -0.234375 4.734375 0.046875 3.625 0.046875 C 2.546875 0.046875 1.890625 -0.234375 1.890625 -0.734375 C 1.890625 -1.21875 2.546875 -1.515625 3.625 -1.515625 C 4.734375 -1.515625 5.375 -1.21875 5.375 -0.734375 Z M 4.140625 -5.34375 L 4.140625 -5.84375 L 0.453125 -5.84375 L 0.453125 -5.34375 Z M 4.140625 -5.34375 "/>
</g>
<g id="glyph-7-7">
<path d="M 6.140625 -0.640625 C 6.140625 -1.375 5.28125 -1.828125 3.8125 -1.828125 C 2.34375 -1.828125 1.484375 -1.375 1.484375 -0.640625 C 1.484375 0.09375 2.34375 0.546875 3.8125 0.546875 C 5.28125 0.546875 6.140625 0.09375 6.140625 -0.640625 Z M 6.15625 -1.84375 L 6.15625 -6.390625 L 5.5625 -6.390625 L 5.5625 -4.390625 L 4.71875 -4.390625 L 4.71875 -6.265625 L 4.125 -6.265625 L 4.125 -2.09375 L 4.71875 -2.09375 L 4.71875 -3.890625 L 5.5625 -3.890625 L 5.5625 -1.84375 Z M 3.59375 -3.203125 C 3.59375 -3.890625 2.9375 -4.28125 2.09375 -4.28125 C 1.234375 -4.28125 0.59375 -3.890625 0.59375 -3.203125 C 0.59375 -2.515625 1.234375 -2.125 2.09375 -2.125 C 2.9375 -2.125 3.59375 -2.515625 3.59375 -3.203125 Z M 3.8125 -1.3125 C 4.875 -1.3125 5.53125 -1.046875 5.53125 -0.640625 C 5.53125 -0.21875 4.875 0.046875 3.8125 0.046875 C 2.75 0.046875 2.09375 -0.21875 2.09375 -0.640625 C 2.09375 -1.046875 2.75 -1.3125 3.8125 -1.3125 Z M 3.78125 -4.59375 L 3.78125 -5.09375 L 0.234375 -5.09375 L 0.234375 -4.59375 Z M 3 -3.203125 C 3 -2.84375 2.59375 -2.59375 2.09375 -2.59375 C 1.59375 -2.59375 1.1875 -2.84375 1.1875 -3.203125 C 1.1875 -3.5625 1.59375 -3.796875 2.09375 -3.796875 C 2.59375 -3.796875 3 -3.5625 3 -3.203125 Z M 2.953125 -5.578125 L 2.953125 -6.109375 L 1.140625 -6.109375 L 1.140625 -5.578125 Z M 2.953125 -5.578125 "/>
</g>
<g id="glyph-7-8">
<path d="M 6.78125 -2.953125 L 6.78125 -3.453125 L 5.640625 -3.453125 L 5.640625 -6.390625 L 5.046875 -6.390625 L 5.046875 0.5625 L 5.640625 0.5625 L 5.640625 -2.953125 Z M 3.34375 -5.40625 L 3.34375 -5.921875 L 1.296875 -5.921875 L 1.296875 -5.40625 Z M 4.375 -4.21875 L 4.375 -4.71875 L 0.265625 -4.71875 L 0.265625 -4.21875 Z M 3.953125 -2.34375 C 3.953125 -3.15625 3.3125 -3.78125 2.34375 -3.78125 C 1.375 -3.78125 0.71875 -3.15625 0.71875 -2.34375 C 0.71875 -1.53125 1.375 -0.90625 2.34375 -0.90625 C 3.3125 -0.90625 3.953125 -1.53125 3.953125 -2.34375 Z M 3.359375 -2.34375 C 3.359375 -1.796875 2.9375 -1.40625 2.34375 -1.40625 C 1.75 -1.40625 1.3125 -1.796875 1.3125 -2.34375 C 1.3125 -2.890625 1.75 -3.265625 2.34375 -3.265625 C 2.921875 -3.265625 3.359375 -2.890625 3.359375 -2.34375 Z M 3.359375 -2.34375 "/>
</g>
<g id="glyph-7-9">
<path d="M 4.59375 -1.546875 C 3.640625 -2.0625 2.765625 -3.1875 2.765625 -4.484375 L 2.765625 -5.1875 L 4.375 -5.1875 L 4.375 -5.6875 L 0.515625 -5.6875 L 0.515625 -5.1875 L 2.125 -5.1875 L 2.125 -4.484375 C 2.125 -3.171875 1.296875 -1.984375 0.28125 -1.390625 L 0.65625 -0.9375 C 1.453125 -1.453125 2.21875 -2.34375 2.453125 -3.21875 C 2.6875 -2.390625 3.578125 -1.515625 4.21875 -1.09375 Z M 5.40625 -6.390625 L 5.40625 0.5625 L 6 0.5625 L 6 -6.390625 Z M 5.40625 -6.390625 "/>
</g>
<g id="glyph-7-10">
<path d="M 6.703125 -4.296875 L 6.703125 -4.796875 L 5.640625 -4.796875 L 5.640625 -6.390625 L 5.046875 -6.390625 L 5.046875 -3.0625 L 5.640625 -3.0625 L 5.640625 -4.296875 Z M 5.40625 -2.265625 L 5.40625 -2.75 L 3.796875 -2.75 L 3.796875 -2.265625 Z M 6.3125 -1.4375 L 6.3125 -1.921875 L 2.84375 -1.921875 L 2.84375 -1.4375 Z M 5.890625 -0.296875 C 5.890625 -0.875 5.296875 -1.21875 4.5625 -1.21875 C 3.84375 -1.21875 3.265625 -0.875 3.265625 -0.296875 C 3.265625 0.265625 3.84375 0.640625 4.5625 0.640625 C 5.296875 0.640625 5.890625 0.265625 5.890625 -0.296875 Z M 5.296875 -0.296875 C 5.296875 -0.015625 4.96875 0.171875 4.5625 0.171875 C 4.171875 0.171875 3.84375 -0.015625 3.84375 -0.296875 C 3.84375 -0.5625 4.171875 -0.75 4.5625 -0.75 C 4.96875 -0.75 5.296875 -0.578125 5.296875 -0.296875 Z M 3.03125 0.109375 L 2.9375 -0.390625 C 2.546875 -0.265625 1.921875 -0.15625 1.53125 -0.15625 L 1.53125 -2.140625 L 0.9375 -2.140625 L 0.9375 0.359375 C 1.828125 0.375 2.546875 0.25 3.03125 0.109375 Z M 2.171875 -6.046875 C 1.1875 -6.046875 0.375 -5.390625 0.375 -4.40625 C 0.375 -3.40625 1.1875 -2.78125 2.171875 -2.78125 C 3.171875 -2.78125 3.984375 -3.40625 3.984375 -4.40625 C 3.984375 -5.390625 3.171875 -6.046875 2.171875 -6.046875 Z M 2.171875 -5.53125 C 2.90625 -5.53125 3.390625 -5.0625 3.390625 -4.40625 C 3.390625 -3.75 2.90625 -3.296875 2.171875 -3.296875 C 1.484375 -3.296875 0.96875 -3.75 0.96875 -4.40625 C 0.96875 -5.0625 1.484375 -5.53125 2.171875 -5.53125 Z M 2.171875 -5.53125 "/>
</g>
<g id="glyph-7-11">
<path d="M 6.578125 -0.390625 L 6.578125 -0.90625 L 0.296875 -0.90625 L 0.296875 -0.390625 Z M 5.96875 -4.03125 C 5.96875 -5.09375 4.96875 -5.796875 3.421875 -5.796875 C 1.921875 -5.796875 0.90625 -5.09375 0.90625 -4.03125 C 0.90625 -2.96875 1.921875 -2.28125 3.421875 -2.28125 C 4.953125 -2.28125 5.96875 -2.96875 5.96875 -4.03125 Z M 5.359375 -4.03125 C 5.359375 -3.28125 4.59375 -2.796875 3.421875 -2.796875 C 2.28125 -2.796875 1.515625 -3.28125 1.515625 -4.03125 C 1.515625 -4.78125 2.28125 -5.28125 3.421875 -5.28125 C 4.59375 -5.28125 5.359375 -4.78125 5.359375 -4.03125 Z M 5.359375 -4.03125 "/>
</g>
<g id="glyph-7-12">
<path d="M 5.375 -4.6875 L 5.375 -3.65625 L 4.078125 -3.65625 L 4.078125 -3.15625 L 5.375 -3.15625 L 5.375 -1.34375 L 5.984375 -1.34375 L 5.984375 -6.390625 L 5.375 -6.390625 L 5.375 -5.1875 L 4.078125 -5.1875 L 4.078125 -4.6875 Z M 6.125 0.328125 L 6.125 -0.1875 L 2.109375 -0.1875 L 2.109375 -1.8125 L 1.5 -1.8125 L 1.5 0.328125 Z M 3.78125 -2.53125 L 3.78125 -5.78125 L 0.609375 -5.78125 L 0.609375 -2.53125 Z M 3.171875 -3.015625 L 1.21875 -3.015625 L 1.21875 -5.265625 L 3.171875 -5.265625 Z M 3.171875 -3.015625 "/>
</g>
<g id="glyph-7-13">
<path d="M 6.578125 -2.875 L 6.578125 -3.390625 L 0.296875 -3.390625 L 0.296875 -2.875 Z M 5.875 -5.09375 C 5.875 -5.859375 4.953125 -6.296875 3.4375 -6.296875 C 1.953125 -6.296875 1.03125 -5.859375 1.03125 -5.09375 C 1.03125 -4.328125 1.953125 -3.890625 3.4375 -3.890625 C 4.953125 -3.890625 5.875 -4.328125 5.875 -5.09375 Z M 3.4375 -5.8125 C 4.546875 -5.8125 5.265625 -5.53125 5.265625 -5.09375 C 5.265625 -4.65625 4.546875 -4.390625 3.4375 -4.390625 C 2.359375 -4.390625 1.640625 -4.65625 1.640625 -5.09375 C 1.640625 -5.53125 2.359375 -5.8125 3.4375 -5.8125 Z M 6.015625 0.5 L 6.015625 0 L 1.640625 0 L 1.640625 -0.703125 L 5.796875 -0.703125 L 5.796875 -2.265625 L 1.015625 -2.265625 L 1.015625 -1.78125 L 5.1875 -1.78125 L 5.1875 -1.15625 L 1.03125 -1.15625 L 1.03125 0.5 Z M 6.015625 0.5 "/>
</g>
<g id="glyph-7-14">
<path d="M 6.25 0.53125 L 6.25 0.03125 L 2.140625 0.03125 L 2.140625 -0.71875 L 5.984375 -0.71875 L 5.984375 -2.3125 L 1.5 -2.3125 L 1.5 -1.828125 L 5.375 -1.828125 L 5.375 -1.171875 L 1.53125 -1.171875 L 1.53125 0.53125 Z M 4.296875 -3.015625 L 4.234375 -3.46875 C 3.984375 -3.4375 3.71875 -3.390625 3.265625 -3.375 L 3.46875 -5.109375 L 2.875 -5.1875 L 2.71875 -3.34375 C 2.609375 -3.34375 2.515625 -3.34375 2.421875 -3.328125 C 2.203125 -3.328125 1.96875 -3.3125 1.734375 -3.3125 C 1.6875 -3.921875 1.640625 -4.5625 1.59375 -5.171875 L 1 -5.09375 L 1.1875 -3.3125 C 0.890625 -3.296875 0.578125 -3.296875 0.265625 -3.296875 C 0.3125 -3.125 0.328125 -2.953125 0.375 -2.78125 C 1 -2.78125 1.734375 -2.8125 2.46875 -2.84375 C 3.203125 -2.875 3.78125 -2.9375 4.296875 -3.015625 Z M 5.984375 -2.625 L 5.984375 -6.390625 L 5.375 -6.390625 L 5.375 -5.34375 L 4.21875 -5.34375 L 4.21875 -4.875 L 5.375 -4.875 L 5.375 -4.21875 L 4.21875 -4.21875 L 4.21875 -3.75 L 5.375 -3.75 L 5.375 -2.625 Z M 4.078125 -5.5 L 4.078125 -5.984375 L 0.453125 -5.984375 L 0.453125 -5.5 Z M 4.078125 -5.5 "/>
</g>
<g id="glyph-7-15">
<path d="M 4.71875 -1.296875 C 3.828125 -1.609375 2.796875 -2.640625 2.796875 -3.9375 L 2.796875 -4.140625 L 4.421875 -4.140625 L 4.421875 -4.640625 L 0.546875 -4.640625 L 0.546875 -4.140625 L 2.171875 -4.140625 L 2.171875 -3.921875 C 2.171875 -2.625 1.25 -1.5625 0.328125 -1.125 L 0.6875 -0.671875 C 1.453125 -1.078125 2.3125 -2.015625 2.5 -2.765625 C 2.75 -2.03125 3.65625 -1.171875 4.40625 -0.8125 Z M 6.03125 0.5625 L 6.03125 -6.390625 L 5.421875 -6.390625 L 5.421875 0.5625 Z M 3.546875 -5.4375 L 3.546875 -5.984375 L 1.4375 -5.984375 L 1.4375 -5.4375 Z M 3.546875 -5.4375 "/>
</g>
<g id="glyph-7-16">
<path d="M 6.578125 -0.453125 L 6.578125 -0.953125 L 3.296875 -0.953125 L 3.296875 -3.46875 L 2.703125 -3.46875 L 2.703125 -0.953125 L 0.296875 -0.953125 L 0.296875 -0.453125 Z M 5.734375 -5.671875 L 0.953125 -5.671875 L 0.953125 -5.15625 L 5.109375 -5.15625 L 5.109375 -4.484375 C 5.109375 -3.578125 5.015625 -2.515625 4.859375 -1.875 L 5.453125 -1.78125 C 5.65625 -2.65625 5.71875 -3.734375 5.734375 -4.796875 Z M 5.734375 -5.671875 "/>
</g>
<g id="glyph-7-17">
<path d="M 0.15625 0.703125 L 0.578125 0.703125 L 1.171875 -0.84375 L 0.453125 -0.84375 Z M 0.15625 0.703125 "/>
</g>
<g id="glyph-7-18">
<path d="M 6.703125 -3.53125 L 6.703125 -4.046875 L 5.640625 -4.046875 L 5.640625 -6.390625 L 5.046875 -6.390625 L 5.046875 -1.265625 L 5.640625 -1.265625 L 5.640625 -3.53125 Z M 5.921875 0.328125 L 5.921875 -0.171875 L 1.890625 -0.171875 L 1.890625 -1.453125 L 1.28125 -1.453125 L 1.28125 0.328125 Z M 3.265625 -5.609375 L 3.265625 -6.140625 L 1.265625 -6.140625 L 1.265625 -5.609375 Z M 4.34375 -4.59375 L 4.34375 -5.09375 L 0.265625 -5.09375 L 0.265625 -4.59375 Z M 3.9375 -3 C 3.9375 -3.75 3.25 -4.21875 2.3125 -4.21875 C 1.375 -4.21875 0.671875 -3.75 0.671875 -3 C 0.671875 -2.265625 1.390625 -1.78125 2.3125 -1.78125 C 3.25 -1.78125 3.9375 -2.265625 3.9375 -3 Z M 3.375 -3 C 3.375 -2.546875 2.875 -2.265625 2.3125 -2.265625 C 1.75 -2.265625 1.25 -2.546875 1.25 -3 C 1.25 -3.453125 1.75 -3.734375 2.3125 -3.734375 C 2.875 -3.734375 3.375 -3.453125 3.375 -3 Z M 3.375 -3 "/>
</g>
<g id="glyph-7-19">
<path d="M 1.9375 -5.796875 C 0.9375 -5.796875 0.40625 -4.796875 0.40625 -3.40625 C 0.40625 -2.015625 0.9375 -1.03125 1.9375 -1.03125 C 2.890625 -1.03125 3.40625 -1.890625 3.46875 -3.140625 L 4.21875 -3.140625 L 4.21875 0.21875 L 4.796875 0.21875 L 4.796875 -6.265625 L 4.21875 -6.265625 L 4.21875 -3.640625 L 3.46875 -3.640625 C 3.421875 -4.90625 2.90625 -5.796875 1.9375 -5.796875 Z M 2.875 -3.40625 C 2.875 -2.28125 2.5 -1.5625 1.9375 -1.5625 C 1.390625 -1.5625 1.03125 -2.28125 1.03125 -3.40625 C 1.03125 -4.53125 1.390625 -5.25 1.9375 -5.25 C 2.5 -5.25 2.875 -4.53125 2.875 -3.40625 Z M 6.15625 0.5625 L 6.15625 -6.390625 L 5.5625 -6.390625 L 5.5625 0.5625 Z M 6.15625 0.5625 "/>
</g>
<g id="glyph-7-20">
<path d="M 6.703125 -4.171875 L 6.703125 -4.671875 L 5.640625 -4.671875 L 5.640625 -6.390625 L 5.046875 -6.390625 L 5.046875 -2.4375 L 5.640625 -2.4375 L 5.640625 -4.171875 Z M 5.734375 0.46875 L 5.734375 -0.046875 L 1.890625 -0.046875 L 1.890625 -1.5625 L 5.65625 -1.5625 L 5.65625 -2.0625 L 1.28125 -2.0625 L 1.28125 0.46875 Z M 0.59375 -5.90625 L 0.59375 -5.40625 L 3.046875 -5.40625 C 2.875 -4.203125 1.625 -3.234375 0.25 -2.953125 L 0.5625 -2.453125 C 2.328125 -2.953125 3.625 -4.0625 3.71875 -5.90625 Z M 0.59375 -5.90625 "/>
</g>
<g id="glyph-7-21">
<path d="M 5.984375 -1.125 L 5.984375 -6.375 L 5.375 -6.375 L 5.375 -1.125 Z M 6.140625 0.359375 L 6.140625 -0.140625 L 2.09375 -0.140625 L 2.09375 -1.453125 L 1.5 -1.453125 L 1.5 0.359375 Z M 3.453125 -5.609375 L 3.453125 -6.140625 L 1.453125 -6.140625 L 1.453125 -5.609375 Z M 4.546875 -4.59375 L 4.546875 -5.09375 L 0.421875 -5.09375 L 0.421875 -4.59375 Z M 4.140625 -3 C 4.140625 -3.75 3.4375 -4.21875 2.5 -4.21875 C 1.5625 -4.21875 0.859375 -3.75 0.859375 -3 C 0.859375 -2.265625 1.578125 -1.78125 2.5 -1.78125 C 3.4375 -1.78125 4.140625 -2.265625 4.140625 -3 Z M 3.5625 -3 C 3.5625 -2.546875 3.0625 -2.265625 2.5 -2.265625 C 1.9375 -2.265625 1.4375 -2.546875 1.4375 -3 C 1.4375 -3.453125 1.9375 -3.734375 2.5 -3.734375 C 3.0625 -3.734375 3.5625 -3.453125 3.5625 -3 Z M 3.5625 -3 "/>
</g>
<g id="glyph-7-22">
<path d="M 5.65625 -6.390625 L 5.0625 -6.390625 L 5.0625 0.5625 L 5.65625 0.5625 L 5.65625 -3.125 L 6.796875 -3.125 L 6.796875 -3.640625 L 5.65625 -3.640625 Z M 1.1875 -1.65625 L 1.1875 -5.15625 L 3.875 -5.15625 L 3.875 -5.671875 L 0.578125 -5.671875 L 0.578125 -1.140625 L 1.25 -1.140625 C 2.46875 -1.140625 3.84375 -1.234375 4.59375 -1.390625 L 4.53125 -1.890625 C 3.859375 -1.734375 2.484375 -1.65625 1.578125 -1.65625 Z M 1.1875 -1.65625 "/>
</g>
<g id="glyph-7-23">
<path d="M 0.328125 -0.140625 L 1.03125 -0.140625 L 1.03125 -0.84375 L 0.328125 -0.84375 Z M 0.328125 -0.140625 "/>
</g>
</g>
</defs>
<path fill="none" stroke-width="0.3985" stroke-linecap="round" stroke-linejoin="round" stroke="rgb(75%, 75%, 75%)" stroke-opacity="1" stroke-miterlimit="10" d="M -56.695328 0.00105436 L 64.969383 0.00105436 " transform="matrix(0.998325, 0, 0, -0.998325, 68.323027, 79.43074)"/>
<path fill-rule="nonzero" fill="rgb(75%, 75%, 75%)" fill-opacity="1" stroke-width="0.3985" stroke-linecap="round" stroke-linejoin="miter" stroke="rgb(75%, 75%, 75%)" stroke-opacity="1" stroke-miterlimit="10" d="M 4.215691 0.00105436 L 0.643302 1.347059 L 1.817143 0.00105436 L 0.643302 -1.34495 Z M 4.215691 0.00105436 " transform="matrix(0.998325, 0, 0, -0.998325, 131.467151, 79.43074)"/>
<path fill="none" stroke-width="0.3985" stroke-linecap="round" stroke-linejoin="round" stroke="rgb(75%, 75%, 75%)" stroke-opacity="1" stroke-miterlimit="10" d="M 0.00119385 -56.695468 L 0.00119385 64.969243 " transform="matrix(0.998325, 0, 0, -0.998325, 68.323027, 79.43074)"/>
<path fill-rule="nonzero" fill="rgb(75%, 75%, 75%)" fill-opacity="1" stroke-width="0.3985" stroke-linecap="round" stroke-linejoin="miter" stroke="rgb(75%, 75%, 75%)" stroke-opacity="1" stroke-miterlimit="10" d="M 4.215552 -0.00119385 L 0.643162 1.344811 L 1.817003 -0.00119385 L 0.643162 -1.347198 Z M 4.215552 -0.00119385 " transform="matrix(0, -0.998325, -0.998325, 0, 68.323027, 16.286616)"/>
<path fill-rule="nonzero" fill="rgb(94.699097%, 95.799255%, 97.299194%)" fill-opacity="1" d="M 14.554688 133.199219 L 14.554688 14.34375 L 133.410156 14.34375 L 133.410156 133.199219 Z M 14.554688 133.199219 "/>
<path fill="none" stroke-width="0.79701" stroke-linecap="round" stroke-linejoin="round" stroke="rgb(11.799622%, 29.399109%, 54.899597%)" stroke-opacity="1" stroke-miterlimit="10" d="M 0.00119385 0.00105436 L 41.43387 12.948521 " transform="matrix(0.998325, 0, 0, -0.998325, 68.323027, 79.43074)"/>
<path fill-rule="nonzero" fill="rgb(11.799622%, 29.399109%, 54.899597%)" fill-opacity="1" stroke-width="0.79701" stroke-linecap="round" stroke-linejoin="miter" stroke="rgb(11.799622%, 29.399109%, 54.899597%)" stroke-opacity="1" stroke-miterlimit="10" d="M 5.439891 0.00207442 L 1.285234 1.570955 L 2.663901 0.000423826 L 1.287587 -1.570124 Z M 5.439891 0.00207442 " transform="matrix(0.952821, -0.29775, -0.29775, -0.952821, 107.336904, 67.238894)"/>
<path fill="none" stroke-width="0.79701" stroke-linecap="round" stroke-linejoin="round" stroke="rgb(62.69989%, 17.599487%, 19.599915%)" stroke-opacity="1" stroke-miterlimit="10" d="M 0.00119385 0.00105436 L 10.342733 41.367213 " transform="matrix(0.998325, 0, 0, -0.998325, 68.323027, 79.43074)"/>
<path fill-rule="nonzero" fill="rgb(62.69989%, 17.599487%, 19.599915%)" fill-opacity="1" stroke-width="0.79701" stroke-linecap="round" stroke-linejoin="miter" stroke="rgb(62.69989%, 17.599487%, 19.599915%)" stroke-opacity="1" stroke-miterlimit="10" d="M 5.441153 0.000829587 L 1.28551 1.571529 L 2.662474 -0.0000520223 L 1.28828 -1.569669 Z M 5.441153 0.000829587 " transform="matrix(0.242104, -0.968515, -0.968515, -0.242104, 78.050667, 40.52004)"/>
<path fill-rule="nonzero" fill="rgb(11.799622%, 29.399109%, 54.899597%)" fill-opacity="1" d="M 115.710938 65.28125 C 115.710938 64.117188 114.765625 63.171875 113.601562 63.171875 C 112.4375 63.171875 111.492188 64.117188 111.492188 65.28125 C 111.492188 66.445312 112.4375 67.390625 113.601562 67.390625 C 114.765625 67.390625 115.710938 66.445312 115.710938 65.28125 Z M 115.710938 65.28125 "/>
<path fill-rule="nonzero" fill="rgb(62.69989%, 17.599487%, 19.599915%)" fill-opacity="1" d="M 81.753906 34.152344 C 81.753906 32.988281 80.808594 32.042969 79.644531 32.042969 C 78.476562 32.042969 77.53125 32.988281 77.53125 34.152344 C 77.53125 35.316406 78.476562 36.261719 79.644531 36.261719 C 80.808594 36.261719 81.753906 35.316406 81.753906 34.152344 Z M 81.753906 34.152344 "/>
<g fill="rgb(11.799622%, 29.399109%, 54.899597%)" fill-opacity="1">
<use xlink:href="#glyph-0-0" x="117.403685" y="68.409231"/>
</g>
<g fill="rgb(62.69989%, 17.599487%, 19.599915%)" fill-opacity="1">
<use xlink:href="#glyph-0-1" x="83.444658" y="28.802678"/>
</g>
<g fill="rgb(11.799622%, 11.799622%, 11.799622%)" fill-opacity="1">
<use xlink:href="#glyph-1-0" x="58.496513" y="153.45555"/>
<use xlink:href="#glyph-1-1" x="66.239458" y="153.45555"/>
<use xlink:href="#glyph-1-2" x="73.982404" y="153.45555"/>
<use xlink:href="#glyph-1-3" x="81.72535" y="153.45555"/>
</g>
<g fill="rgb(47.099304%, 47.099304%, 47.099304%)" fill-opacity="1">
<use xlink:href="#glyph-2-0" x="43.529622" y="165.245769"/>
<use xlink:href="#glyph-2-1" x="46.863501" y="165.245769"/>
<use xlink:href="#glyph-2-2" x="51.557984" y="165.245769"/>
<use xlink:href="#glyph-2-3" x="55.783019" y="165.245769"/>
</g>
<g fill="rgb(47.099304%, 47.099304%, 47.099304%)" fill-opacity="1">
<use xlink:href="#glyph-3-0" x="60.47719" y="165.245769"/>
</g>
<g fill="rgb(47.099304%, 47.099304%, 47.099304%)" fill-opacity="1">
<use xlink:href="#glyph-0-0" x="64.704098" y="165.245769"/>
<use xlink:href="#glyph-0-2" x="70.130603" y="165.245769"/>
</g>
<g fill="rgb(47.099304%, 47.099304%, 47.099304%)" fill-opacity="1">
<use xlink:href="#glyph-0-1" x="73.886189" y="165.245769"/>
</g>
<g fill="rgb(47.099304%, 47.099304%, 47.099304%)" fill-opacity="1">
<use xlink:href="#glyph-3-1" x="79.04404" y="165.245769"/>
</g>
<g fill="rgb(47.099304%, 47.099304%, 47.099304%)" fill-opacity="1">
<use xlink:href="#glyph-4-0" x="85.620008" y="165.245769"/>
</g>
<g fill="rgb(47.099304%, 47.099304%, 47.099304%)" fill-opacity="1">
<use xlink:href="#glyph-5-0" x="94.543038" y="165.245769"/>
</g>
<g fill="rgb(47.099304%, 47.099304%, 47.099304%)" fill-opacity="1">
<use xlink:href="#glyph-6-0" x="100.290396" y="162.437481"/>
</g>
<path fill="none" stroke-width="0.3985" stroke-linecap="round" stroke-linejoin="round" stroke="rgb(75%, 75%, 75%)" stroke-opacity="1" stroke-miterlimit="10" d="M 113.386413 0.00105436 L 235.047211 0.00105436 " transform="matrix(0.998325, 0, 0, -0.998325, 68.323027, 79.43074)"/>
<path fill-rule="nonzero" fill="rgb(75%, 75%, 75%)" fill-opacity="1" stroke-width="0.3985" stroke-linecap="round" stroke-linejoin="miter" stroke="rgb(75%, 75%, 75%)" stroke-opacity="1" stroke-miterlimit="10" d="M 4.216572 0.00105436 L 0.644183 1.347059 L 1.818024 0.00105436 L 0.644183 -1.34495 Z M 4.216572 0.00105436 " transform="matrix(0.998325, 0, 0, -0.998325, 301.263146, 79.43074)"/>
<path fill="none" stroke-width="0.3985" stroke-linecap="round" stroke-linejoin="round" stroke="rgb(75%, 75%, 75%)" stroke-opacity="1" stroke-miterlimit="10" d="M 170.079022 -56.695468 L 170.079022 64.969243 " transform="matrix(0.998325, 0, 0, -0.998325, 68.323027, 79.43074)"/>
<path fill-rule="nonzero" fill="rgb(75%, 75%, 75%)" fill-opacity="1" stroke-width="0.3985" stroke-linecap="round" stroke-linejoin="miter" stroke="rgb(75%, 75%, 75%)" stroke-opacity="1" stroke-miterlimit="10" d="M 4.215552 0.00183798 L 0.643162 1.34393 L 1.817003 0.00183798 L 0.643162 -1.344166 Z M 4.215552 0.00183798 " transform="matrix(0, -0.998325, -0.998325, 0, 238.119022, 16.286616)"/>
<path fill="none" stroke-width="9.96277" stroke-linecap="round" stroke-linejoin="round" stroke="rgb(95.498657%, 90.098572%, 90.39917%)" stroke-opacity="1" stroke-miterlimit="10" d="M 116.223195 -40.253868 L 223.938762 40.252064 " transform="matrix(0.998325, 0, 0, -0.998325, 68.323027, 79.43074)"/>
<path fill="none" stroke-width="0.79701" stroke-linecap="round" stroke-linejoin="round" stroke="rgb(11.799622%, 29.399109%, 54.899597%)" stroke-opacity="1" stroke-miterlimit="10" d="M 170.079022 0.00105436 L 209.312702 29.425336 " transform="matrix(0.998325, 0, 0, -0.998325, 68.323027, 79.43074)"/>
<path fill-rule="nonzero" fill="rgb(11.799622%, 29.399109%, 54.899597%)" fill-opacity="1" stroke-width="0.79701" stroke-linecap="round" stroke-linejoin="miter" stroke="rgb(11.799622%, 29.399109%, 54.899597%)" stroke-opacity="1" stroke-miterlimit="10" d="M 5.439568 0.00117336 L 1.285626 1.571079 L 2.664524 -0.00114664 L 1.28716 -1.570214 Z M 5.439568 0.00117336 " transform="matrix(0.79863, -0.598985, -0.598985, -0.79863, 275.316656, 51.532594)"/>
<path fill="none" stroke-width="0.79701" stroke-linecap="round" stroke-linejoin="round" stroke="rgb(62.69989%, 17.599487%, 19.599915%)" stroke-opacity="1" stroke-miterlimit="10" d="M 170.079022 0.00105436 L 145.021429 -18.792141 " transform="matrix(0.998325, 0, 0, -0.998325, 68.323027, 79.43074)"/>
<path fill-rule="nonzero" fill="rgb(62.69989%, 17.599487%, 19.599915%)" fill-opacity="1" stroke-width="0.79701" stroke-linecap="round" stroke-linejoin="miter" stroke="rgb(62.69989%, 17.599487%, 19.599915%)" stroke-opacity="1" stroke-miterlimit="10" d="M 5.440797 0.00119759 L 1.286856 1.571103 L 2.665754 -0.00112241 L 1.28839 -1.57019 Z M 5.440797 0.00119759 " transform="matrix(-0.79863, 0.598985, 0.598985, 0.79863, 215.07103, 96.71665)"/>
<path fill-rule="nonzero" fill="rgb(11.799622%, 29.399109%, 54.899597%)" fill-opacity="1" d="M 282.679688 47.59375 C 282.679688 46.429688 281.734375 45.484375 280.566406 45.484375 C 279.402344 45.484375 278.457031 46.429688 278.457031 47.59375 C 278.457031 48.757812 279.402344 49.703125 280.566406 49.703125 C 281.734375 49.703125 282.679688 48.757812 282.679688 47.59375 Z M 282.679688 47.59375 "/>
<path fill-rule="nonzero" fill="rgb(62.69989%, 17.599487%, 19.599915%)" fill-opacity="1" d="M 211.929688 100.65625 C 211.929688 99.488281 210.984375 98.546875 209.820312 98.546875 C 208.65625 98.546875 207.710938 99.488281 207.710938 100.65625 C 207.710938 101.820312 208.65625 102.765625 209.820312 102.765625 C 210.984375 102.765625 211.929688 101.820312 211.929688 100.65625 Z M 211.929688 100.65625 "/>
<g fill="rgb(11.799622%, 29.399109%, 54.899597%)" fill-opacity="1">
<use xlink:href="#glyph-0-0" x="277.8535" y="43.650768"/>
</g>
<g fill="rgb(62.69989%, 17.599487%, 19.599915%)" fill-opacity="1">
<use xlink:href="#glyph-0-1" x="207.242963" y="109.982484"/>
</g>
<g fill="rgb(31.399536%, 8.799744%, 9.799194%)" fill-opacity="1">
<use xlink:href="#glyph-0-1" x="253.150944" y="125.283813"/>
</g>
<g fill="rgb(31.399536%, 8.799744%, 9.799194%)" fill-opacity="1">
<use xlink:href="#glyph-4-0" x="260.65136" y="125.283813"/>
</g>
<g fill="rgb(31.399536%, 8.799744%, 9.799194%)" fill-opacity="1">
<use xlink:href="#glyph-3-2" x="269.575388" y="125.283813"/>
</g>
<g fill="rgb(31.399536%, 8.799744%, 9.799194%)" fill-opacity="1">
<use xlink:href="#glyph-6-0" x="277.344355" y="122.03127"/>
</g>
<path fill="none" stroke-width="0.3587" stroke-linecap="butt" stroke-linejoin="round" stroke="rgb(31.399536%, 8.799744%, 9.799194%)" stroke-opacity="1" stroke-miterlimit="10" d="M 20.464394 -5.578729 L 24.118953 -5.578729 " transform="matrix(0.998325, 0, 0, -0.998325, 256.913631, 117.72749)"/>
<g fill="rgb(31.399536%, 8.799744%, 9.799194%)" fill-opacity="1">
<use xlink:href="#glyph-6-1" x="277.344355" y="128.404577"/>
</g>
<g fill="rgb(31.399536%, 8.799744%, 9.799194%)" fill-opacity="1">
<use xlink:href="#glyph-0-0" x="283.59387" y="125.283813"/>
</g>
<g fill="rgb(11.799622%, 11.799622%, 11.799622%)" fill-opacity="1">
<use xlink:href="#glyph-1-0" x="228.292648" y="153.450558"/>
<use xlink:href="#glyph-1-1" x="236.035594" y="153.450558"/>
<use xlink:href="#glyph-1-4" x="243.77854" y="153.450558"/>
<use xlink:href="#glyph-1-5" x="251.521485" y="153.450558"/>
</g>
<g fill="rgb(47.099304%, 47.099304%, 47.099304%)" fill-opacity="1">
<use xlink:href="#glyph-2-0" x="211.154401" y="165.117984"/>
<use xlink:href="#glyph-2-1" x="214.488279" y="165.117984"/>
<use xlink:href="#glyph-2-2" x="219.182762" y="165.117984"/>
<use xlink:href="#glyph-2-3" x="223.407797" y="165.117984"/>
</g>
<g fill="rgb(47.099304%, 47.099304%, 47.099304%)" fill-opacity="1">
<use xlink:href="#glyph-3-0" x="228.101968" y="165.117984"/>
</g>
<g fill="rgb(47.099304%, 47.099304%, 47.099304%)" fill-opacity="1">
<use xlink:href="#glyph-0-0" x="232.328876" y="165.117984"/>
<use xlink:href="#glyph-0-2" x="237.755381" y="165.117984"/>
</g>
<g fill="rgb(47.099304%, 47.099304%, 47.099304%)" fill-opacity="1">
<use xlink:href="#glyph-0-1" x="241.510967" y="165.117984"/>
</g>
<g fill="rgb(47.099304%, 47.099304%, 47.099304%)" fill-opacity="1">
<use xlink:href="#glyph-3-1" x="246.668819" y="165.117984"/>
</g>
<g fill="rgb(47.099304%, 47.099304%, 47.099304%)" fill-opacity="1">
<use xlink:href="#glyph-4-0" x="253.244786" y="165.117984"/>
</g>
<g fill="rgb(47.099304%, 47.099304%, 47.099304%)" fill-opacity="1">
<use xlink:href="#glyph-7-0" x="262.637029" y="165.117984"/>
<use xlink:href="#glyph-7-1" x="269.519619" y="165.117984"/>
</g>
<g fill="rgb(14.99939%, 14.99939%, 14.99939%)" fill-opacity="1">
<use xlink:href="#glyph-7-2" x="45.648068" y="186.986296"/>
</g>
<g fill="rgb(14.99939%, 14.99939%, 14.99939%)" fill-opacity="1">
<use xlink:href="#glyph-7-3" x="54.615327" y="186.986296"/>
<use xlink:href="#glyph-7-4" x="61.497916" y="186.986296"/>
<use xlink:href="#glyph-7-5" x="68.380506" y="186.986296"/>
</g>
<g fill="rgb(14.99939%, 14.99939%, 14.99939%)" fill-opacity="1">
<use xlink:href="#glyph-7-6" x="77.355721" y="186.986296"/>
<use xlink:href="#glyph-7-7" x="84.238311" y="186.986296"/>
<use xlink:href="#glyph-7-8" x="91.120901" y="186.986296"/>
<use xlink:href="#glyph-7-9" x="98.00349" y="186.986296"/>
</g>
<g fill="rgb(14.99939%, 14.99939%, 14.99939%)" fill-opacity="1">
<use xlink:href="#glyph-7-10" x="106.978706" y="186.986296"/>
<use xlink:href="#glyph-7-11" x="113.861295" y="186.986296"/>
<use xlink:href="#glyph-7-12" x="120.743885" y="186.986296"/>
</g>
<g fill="rgb(14.99939%, 14.99939%, 14.99939%)" fill-opacity="1">
<use xlink:href="#glyph-7-6" x="129.7191" y="186.986296"/>
<use xlink:href="#glyph-7-12" x="136.60169" y="186.986296"/>
<use xlink:href="#glyph-7-13" x="143.484279" y="186.986296"/>
</g>
<g fill="rgb(14.99939%, 14.99939%, 14.99939%)" fill-opacity="1">
<use xlink:href="#glyph-7-14" x="152.459495" y="186.986296"/>
<use xlink:href="#glyph-7-15" x="159.342084" y="186.986296"/>
<use xlink:href="#glyph-7-16" x="166.224674" y="186.986296"/>
<use xlink:href="#glyph-7-17" x="173.107264" y="186.986296"/>
</g>
<g fill="rgb(14.99939%, 14.99939%, 14.99939%)" fill-opacity="1">
<use xlink:href="#glyph-7-6" x="176.998115" y="186.986296"/>
<use xlink:href="#glyph-7-7" x="183.880705" y="186.986296"/>
<use xlink:href="#glyph-7-8" x="190.763294" y="186.986296"/>
<use xlink:href="#glyph-7-12" x="197.645884" y="186.986296"/>
</g>
<g fill="rgb(14.99939%, 14.99939%, 14.99939%)" fill-opacity="1">
<use xlink:href="#glyph-7-18" x="206.621099" y="186.986296"/>
</g>
<g fill="rgb(14.99939%, 14.99939%, 14.99939%)" fill-opacity="1">
<use xlink:href="#glyph-7-0" x="215.596314" y="186.986296"/>
<use xlink:href="#glyph-7-1" x="222.478904" y="186.986296"/>
<use xlink:href="#glyph-7-19" x="229.361494" y="186.986296"/>
</g>
<g fill="rgb(14.99939%, 14.99939%, 14.99939%)" fill-opacity="1">
<use xlink:href="#glyph-7-20" x="238.336709" y="186.986296"/>
<use xlink:href="#glyph-7-21" x="245.219299" y="186.986296"/>
<use xlink:href="#glyph-7-22" x="252.101888" y="186.986296"/>
<use xlink:href="#glyph-7-23" x="258.984478" y="186.986296"/>
</g>
</svg>
