<?xml version="1.0" encoding="UTF-8"?>
<svg xmlns="http://www.w3.org/2000/svg" xmlns:xlink="http://www.w3.org/1999/xlink" width="286.1pt" height="326.33pt" viewBox="0 0 286.1 326.33">
<defs>
<g>
<g id="glyph-0-0">
<path d="M 3.484375 -0.375 C 4.546875 -0.375 5.28125 -0.671875 5.703125 -0.953125 L 5.703125 -1.984375 C 5.1875 -1.75 4.609375 -1.578125 3.84375 -1.578125 C 2.71875 -1.578125 2.078125 -1.96875 1.96875 -3.15625 L 5.921875 -3.15625 L 5.921875 -3.734375 C 5.921875 -5.703125 5.140625 -6.765625 3.265625 -6.765625 C 1.59375 -6.765625 0.375 -5.703125 0.375 -3.65625 L 0.375 -3.5 C 0.375 -1.53125 1.40625 -0.375 3.484375 -0.375 Z M 3.234375 -5.65625 C 4 -5.65625 4.390625 -5.25 4.390625 -4.171875 L 1.96875 -4.171875 C 2.046875 -5.34375 2.671875 -5.65625 3.234375 -5.65625 Z M 3.234375 -5.65625 "/>
</g>
<g id="glyph-0-1">
<path d="M 0.828125 -0.484375 L 4.078125 -0.484375 C 6.0625 -0.484375 6.96875 -1.484375 6.96875 -2.828125 C 6.96875 -4.015625 6.3125 -4.59375 5.265625 -4.765625 L 5.265625 -4.796875 C 6.234375 -5.109375 6.625 -5.71875 6.625 -6.609375 C 6.625 -7.921875 5.765625 -8.671875 3.90625 -8.671875 L 0.828125 -8.671875 Z M 2.515625 -1.6875 L 2.515625 -4.15625 L 3.71875 -4.15625 C 4.6875 -4.15625 5.21875 -3.796875 5.21875 -2.953125 C 5.21875 -2.09375 4.703125 -1.6875 3.78125 -1.6875 Z M 2.515625 -5.203125 L 2.515625 -7.46875 L 3.609375 -7.46875 C 4.5 -7.46875 4.953125 -7.1875 4.953125 -6.359375 C 4.953125 -5.5 4.359375 -5.203125 3.5625 -5.203125 Z M 2.515625 -5.203125 "/>
</g>
<g id="glyph-0-2">
<path d="M 0.828125 -0.484375 L 2.53125 -0.484375 L 2.53125 -3.453125 L 3.9375 -3.453125 C 5.734375 -3.453125 6.828125 -4.4375 6.828125 -6.171875 C 6.828125 -7.828125 5.859375 -8.671875 3.859375 -8.671875 L 0.828125 -8.671875 Z M 2.53125 -4.703125 L 2.53125 -7.390625 L 3.65625 -7.390625 C 4.65625 -7.390625 5.0625 -7.125 5.0625 -6.109375 C 5.0625 -5.15625 4.671875 -4.703125 3.640625 -4.703125 Z M 2.53125 -4.703125 "/>
</g>
<g id="glyph-0-3">
<path d="M 0.828125 -0.484375 L 2.53125 -0.484375 L 2.53125 -3.828125 L 5.25 -3.828125 L 5.25 -5.109375 L 2.53125 -5.109375 L 2.53125 -7.390625 L 6.03125 -7.390625 L 6.03125 -8.671875 L 0.828125 -8.671875 Z M 0.828125 -0.484375 "/>
</g>
<g id="glyph-0-4">
<path d="M 0.828125 -0.484375 L 6.15625 -0.484375 L 6.15625 -1.78125 L 2.53125 -1.78125 L 2.53125 -4.046875 L 5.3125 -4.046875 L 5.3125 -5.3125 L 2.53125 -5.3125 L 2.53125 -7.390625 L 6.078125 -7.390625 L 6.078125 -8.671875 L 0.828125 -8.671875 Z M 0.828125 -0.484375 "/>
</g>
<g id="glyph-0-5">
<path d="M 0.125 -0.484375 L 1.734375 -0.484375 L 3.0625 -2.65625 L 4.328125 -0.484375 L 6.109375 -0.484375 L 4.15625 -3.6875 L 5.96875 -6.671875 L 4.390625 -6.671875 L 3.28125 -4.625 L 2.046875 -6.671875 L 0.25 -6.671875 L 2.140625 -3.65625 Z M 0.125 -0.484375 "/>
</g>
<g id="glyph-0-6">
<path d="M 3.34375 -0.375 C 4.234375 -0.375 4.796875 -0.609375 5.203125 -0.84375 L 5.203125 -1.984375 C 4.890625 -1.828125 4.375 -1.609375 3.640625 -1.609375 C 2.515625 -1.609375 1.984375 -2.171875 1.984375 -3.53125 L 1.984375 -3.765625 C 1.984375 -4.96875 2.59375 -5.546875 3.59375 -5.546875 C 4.3125 -5.546875 4.65625 -5.421875 5.140625 -5.234375 L 5.140625 -6.40625 C 4.75 -6.640625 4.25 -6.78125 3.453125 -6.78125 C 1.640625 -6.78125 0.375 -5.75 0.375 -3.625 L 0.375 -3.453125 C 0.375 -1.421875 1.46875 -0.375 3.34375 -0.375 Z M 3.34375 -0.375 "/>
</g>
<g id="glyph-0-7">
<path d="M 2.53125 -0.375 C 3.296875 -0.375 3.90625 -0.640625 4.40625 -1.03125 L 4.46875 -1.03125 L 4.609375 -0.484375 L 5.96875 -0.484375 L 5.96875 -6.671875 L 4.40625 -6.671875 L 4.40625 -1.96875 C 4.046875 -1.78125 3.640625 -1.609375 3.15625 -1.609375 C 2.4375 -1.609375 2.21875 -1.859375 2.21875 -2.484375 L 2.21875 -6.671875 L 0.65625 -6.671875 L 0.65625 -2.171875 C 0.65625 -0.953125 1.34375 -0.375 2.53125 -0.375 Z M 2.53125 -0.375 "/>
</g>
<g id="glyph-0-8">
<path d="M 2.875 -0.421875 C 3.484375 -0.421875 3.84375 -0.546875 4.078125 -0.671875 L 4.078125 -1.703125 C 3.90625 -1.640625 3.640625 -1.609375 3.40625 -1.609375 C 2.828125 -1.609375 2.59375 -1.78125 2.59375 -2.3125 L 2.59375 -5.515625 L 4.015625 -5.515625 L 4.015625 -6.671875 L 2.59375 -6.671875 L 2.59375 -8.125 L 1.0625 -8.125 L 1.0625 -6.671875 L 0.234375 -6.671875 L 0.234375 -5.515625 L 1.0625 -5.515625 L 1.0625 -2.0625 C 1.0625 -0.828125 1.75 -0.421875 2.875 -0.421875 Z M 2.875 -0.421875 "/>
</g>
<g id="glyph-0-9">
<path d="M 0.734375 -0.484375 L 2.296875 -0.484375 L 2.296875 -6.671875 L 0.734375 -6.671875 Z M 0.71875 -7.59375 L 2.3125 -7.59375 L 2.3125 -8.921875 L 0.71875 -8.921875 Z M 0.71875 -7.59375 "/>
</g>
<g id="glyph-0-10">
<path d="M 3.34375 -0.375 C 5.109375 -0.375 6.34375 -1.484375 6.34375 -3.515625 L 6.34375 -3.6875 C 6.34375 -5.671875 5.265625 -6.78125 3.359375 -6.78125 C 1.609375 -6.78125 0.375 -5.65625 0.375 -3.640625 L 0.375 -3.46875 C 0.375 -1.515625 1.421875 -0.375 3.34375 -0.375 Z M 3.375 -1.53125 C 2.59375 -1.53125 1.984375 -1.9375 1.984375 -3.46875 L 1.984375 -3.734375 C 1.984375 -5.0625 2.484375 -5.625 3.34375 -5.625 C 4.125 -5.625 4.734375 -5.25 4.734375 -3.6875 L 4.734375 -3.390625 C 4.734375 -2.09375 4.234375 -1.53125 3.375 -1.53125 Z M 3.375 -1.53125 "/>
</g>
<g id="glyph-0-11">
<path d="M 0.6875 -0.484375 L 2.25 -0.484375 L 2.25 -5.203125 C 2.59375 -5.359375 3.09375 -5.515625 3.515625 -5.515625 C 4.28125 -5.515625 4.5 -5.28125 4.5 -4.703125 L 4.5 -0.484375 L 6.0625 -0.484375 L 6.0625 -5.0625 C 6.0625 -6.296875 5.453125 -6.78125 4.265625 -6.78125 C 3.5 -6.78125 2.78125 -6.515625 2.25 -6.109375 L 2.1875 -6.109375 L 2.1875 -6.671875 L 0.6875 -6.671875 Z M 0.6875 -0.484375 "/>
</g>
<g id="glyph-0-12">
<path d="M 0.6875 1.265625 L 2.25 1.265625 L 2.25 -0.703125 C 2.515625 -0.546875 2.984375 -0.375 3.640625 -0.375 C 5.3125 -0.375 6.4375 -1.28125 6.4375 -3.640625 L 6.4375 -3.765625 C 6.4375 -6.046875 5.296875 -6.78125 4.03125 -6.78125 C 3.25 -6.78125 2.640625 -6.515625 2.25 -6.125 L 2.1875 -6.125 L 2.1875 -6.671875 L 0.6875 -6.671875 Z M 3.390625 -1.53125 C 2.890625 -1.53125 2.46875 -1.6875 2.25 -1.84375 L 2.25 -5.203125 C 2.484375 -5.359375 2.890625 -5.515625 3.453125 -5.515625 C 4.328125 -5.515625 4.828125 -5.140625 4.828125 -3.65625 L 4.828125 -3.4375 C 4.828125 -1.984375 4.296875 -1.53125 3.390625 -1.53125 Z M 3.390625 -1.53125 "/>
</g>
<g id="glyph-0-13">
<path d="M 0.734375 -0.484375 L 2.296875 -0.484375 L 2.296875 -9.203125 L 0.734375 -9.203125 Z M 0.734375 -0.484375 "/>
</g>
<g id="glyph-1-0">
<path d="M 7.609375 -3.453125 L 7.609375 -4.03125 L 6.34375 -4.03125 L 6.34375 -7.1875 L 5.671875 -7.1875 L 5.671875 0.625 L 6.34375 0.625 L 6.34375 -3.453125 Z M 4.921875 -1.796875 C 3.84375 -2.4375 2.859375 -3.703125 2.859375 -5.125 L 2.859375 -6.5 L 2.15625 -6.5 L 2.15625 -5.109375 C 2.15625 -3.734375 1.25 -2.328125 0.109375 -1.625 L 0.546875 -1.09375 C 1.46875 -1.75 2.21875 -2.734375 2.5 -3.703125 C 2.8125 -2.765625 3.6875 -1.828125 4.5 -1.28125 Z M 4.921875 -1.796875 "/>
</g>
<g id="glyph-1-1">
<path d="M 6.59375 -5.546875 C 6.59375 -6.4375 5.578125 -7.015625 3.859375 -7.015625 C 2.15625 -7.015625 1.140625 -6.4375 1.140625 -5.546875 C 1.140625 -5.015625 1.5 -4.609375 2.140625 -4.359375 L 2.140625 -3.234375 L 0.34375 -3.234375 L 0.34375 -2.671875 L 7.390625 -2.671875 L 7.390625 -3.234375 L 5.5625 -3.234375 L 5.5625 -4.34375 C 6.234375 -4.59375 6.59375 -5.015625 6.59375 -5.546875 Z M 6.65625 -0.796875 C 6.65625 -1.6875 5.59375 -2.1875 3.875 -2.1875 C 2.15625 -2.1875 1.125 -1.6875 1.125 -0.796875 C 1.125 0.09375 2.15625 0.578125 3.875 0.578125 C 5.59375 0.578125 6.65625 0.09375 6.65625 -0.796875 Z M 5.9375 -5.546875 C 5.9375 -4.984375 5.109375 -4.625 3.859375 -4.625 C 2.609375 -4.625 1.8125 -4.984375 1.8125 -5.546875 C 1.8125 -6.125 2.609375 -6.46875 3.859375 -6.46875 C 5.109375 -6.46875 5.9375 -6.125 5.9375 -5.546875 Z M 3.875 -1.59375 C 5.125 -1.59375 5.96875 -1.3125 5.96875 -0.796875 C 5.96875 -0.28125 5.140625 -0.015625 3.875 -0.015625 C 2.625 -0.015625 1.796875 -0.28125 1.796875 -0.796875 C 1.796875 -1.3125 2.625 -1.59375 3.875 -1.59375 Z M 3.859375 -4.078125 C 4.25 -4.078125 4.578125 -4.109375 4.890625 -4.15625 L 4.890625 -3.234375 L 2.8125 -3.234375 L 2.8125 -4.171875 C 3.125 -4.109375 3.484375 -4.078125 3.859375 -4.078125 Z M 3.859375 -4.078125 "/>
</g>
<g id="glyph-1-2">
<path d="M 4.96875 -1.71875 C 3.890625 -2.328125 2.9375 -3.546875 2.9375 -5 L 2.9375 -5.796875 L 4.75 -5.796875 L 4.75 -6.359375 L 0.421875 -6.359375 L 0.421875 -5.796875 L 2.234375 -5.796875 L 2.234375 -4.984375 C 2.234375 -3.578125 1.328125 -2.203125 0.171875 -1.53125 L 0.625 -1.015625 C 1.5625 -1.671875 2.328125 -2.640625 2.59375 -3.578125 C 2.875 -2.65625 3.828125 -1.671875 4.5625 -1.203125 Z M 7.609375 -3.4375 L 7.609375 -4.015625 L 6.34375 -4.015625 L 6.34375 -7.1875 L 5.671875 -7.1875 L 5.671875 0.625 L 6.34375 0.625 L 6.34375 -3.4375 Z M 7.609375 -3.4375 "/>
</g>
<g id="glyph-1-3">
<path d="M 1.15625 -6.359375 L 1.15625 -5.796875 L 5.8125 -5.796875 L 5.8125 -5.1875 C 5.8125 -4.953125 5.796875 -4.703125 5.796875 -4.421875 L 0.953125 -4.25 L 1.046875 -3.640625 L 5.75 -3.890625 C 5.703125 -3.140625 5.625 -2.421875 5.53125 -2.046875 L 6.1875 -1.96875 C 6.421875 -2.96875 6.5 -4.484375 6.5 -5.53125 L 6.5 -6.359375 Z M 7.390625 -0.4375 L 7.390625 -1.015625 L 3.78125 -1.015625 L 3.78125 -3.078125 L 3.09375 -3.078125 L 3.09375 -1.015625 L 0.34375 -1.015625 L 0.34375 -0.4375 Z M 7.390625 -0.4375 "/>
</g>
<g id="glyph-1-4">
<path d="M 6.546875 -2.734375 L 6.546875 -3.296875 L 1.90625 -3.296875 L 1.90625 -5.84375 L 6.46875 -5.84375 L 6.46875 -6.40625 L 1.21875 -6.40625 L 1.21875 -2.734375 Z M 7.390625 -0.453125 L 7.390625 -1.015625 L 0.34375 -1.015625 L 0.34375 -0.453125 Z M 7.390625 -0.453125 "/>
</g>
<g id="glyph-1-5">
<path d="M 2.0625 0.53125 L 2.671875 0.53125 C 1.875 -0.359375 1.234375 -1.71875 1.234375 -3.09375 L 1.234375 -3.3125 C 1.234375 -4.734375 1.875 -6.015625 2.671875 -6.90625 L 2.0625 -6.90625 C 1.234375 -6.0625 0.515625 -4.84375 0.515625 -3.25 L 0.515625 -3.109375 C 0.515625 -1.53125 1.234375 -0.296875 2.0625 0.53125 Z M 2.0625 0.53125 "/>
</g>
<g id="glyph-1-6">
<path d="M 2.265625 -0.28125 C 3.703125 -0.28125 4.484375 -1.125 4.484375 -2.59375 L 4.484375 -2.71875 C 4.484375 -4.375 3.609375 -4.890625 2.75 -4.890625 C 2.140625 -4.890625 1.71875 -4.71875 1.390625 -4.515625 L 1.34375 -4.515625 L 1.34375 -6.78125 L 0.65625 -6.78125 L 0.65625 -0.515625 C 1.046875 -0.359375 1.75 -0.28125 2.265625 -0.28125 Z M 2.3125 -0.84375 C 1.859375 -0.84375 1.546875 -0.921875 1.34375 -1.015625 L 1.34375 -4.015625 C 1.578125 -4.125 1.984375 -4.3125 2.4375 -4.3125 C 3.328125 -4.3125 3.765625 -3.90625 3.765625 -2.671875 L 3.765625 -2.5 C 3.765625 -1.21875 3.09375 -0.84375 2.3125 -0.84375 Z M 2.3125 -0.84375 "/>
</g>
<g id="glyph-1-7">
<path d="M 0.65625 0.953125 L 1.34375 0.953125 L 1.34375 -0.59375 C 1.59375 -0.453125 1.96875 -0.296875 2.46875 -0.296875 C 3.703125 -0.296875 4.484375 -0.96875 4.484375 -2.59375 L 4.484375 -2.703125 C 4.484375 -4.359375 3.640625 -4.890625 2.65625 -4.890625 C 2.09375 -4.890625 1.625 -4.6875 1.34375 -4.4375 L 1.3125 -4.4375 L 1.3125 -4.796875 L 0.65625 -4.796875 Z M 2.40625 -0.859375 C 1.953125 -0.859375 1.546875 -1 1.34375 -1.171875 L 1.34375 -3.984375 C 1.546875 -4.125 1.96875 -4.3125 2.484375 -4.3125 C 3.296875 -4.3125 3.765625 -3.921875 3.765625 -2.671875 L 3.765625 -2.5 C 3.765625 -1.3125 3.25 -0.859375 2.40625 -0.859375 Z M 2.40625 -0.859375 "/>
</g>
<g id="glyph-1-8">
<path d="M 0.90625 -0.375 L 1.59375 -0.375 L 1.59375 -4.234375 L 2.625 -4.234375 L 2.625 -4.796875 L 1.59375 -4.796875 L 1.59375 -5.390625 C 1.59375 -6.015625 1.890625 -6.265625 2.421875 -6.265625 C 2.71875 -6.265625 2.90625 -6.234375 3.046875 -6.203125 L 3.046875 -6.6875 C 2.890625 -6.765625 2.640625 -6.84375 2.296875 -6.84375 C 1.5 -6.84375 0.90625 -6.421875 0.90625 -5.4375 L 0.90625 -4.796875 L 0.265625 -4.796875 L 0.265625 -4.234375 L 0.90625 -4.234375 Z M 0.90625 -0.375 "/>
</g>
<g id="glyph-1-9">
<path d="M 2.0625 -0.328125 C 2.4375 -0.328125 2.625 -0.421875 2.8125 -0.5 L 2.8125 -0.96875 C 2.625 -0.90625 2.421875 -0.890625 2.234375 -0.890625 C 1.71875 -0.890625 1.578125 -1.046875 1.578125 -1.484375 L 1.578125 -4.234375 L 2.71875 -4.234375 L 2.71875 -4.796875 L 1.578125 -4.796875 L 1.578125 -5.859375 L 0.90625 -5.859375 L 0.90625 -4.796875 L 0.265625 -4.796875 L 0.265625 -4.234375 L 0.90625 -4.234375 L 0.90625 -1.375 C 0.90625 -0.625 1.359375 -0.328125 2.0625 -0.328125 Z M 2.0625 -0.328125 "/>
</g>
<g id="glyph-1-10">
<path d="M 0.65625 -0.375 L 1.34375 -0.375 L 1.34375 -3.859375 C 1.65625 -4.078125 2.078125 -4.25 2.53125 -4.25 C 2.59375 -4.25 2.734375 -4.234375 2.84375 -4.21875 L 2.84375 -4.828125 C 2.8125 -4.84375 2.6875 -4.859375 2.578125 -4.859375 C 2.078125 -4.859375 1.59375 -4.59375 1.34375 -4.3125 L 1.3125 -4.3125 L 1.3125 -4.8125 L 0.65625 -4.8125 Z M 0.65625 -0.375 "/>
</g>
<g id="glyph-1-11">
<path d="M 1.734375 -0.296875 C 2.328125 -0.296875 2.703125 -0.515625 2.90625 -0.765625 L 2.953125 -0.765625 L 3.03125 -0.375 L 3.578125 -0.375 L 3.578125 -3.578125 C 3.578125 -4.484375 3.03125 -4.890625 2.0625 -4.890625 C 1.5625 -4.890625 1.125 -4.8125 0.734375 -4.640625 L 0.734375 -4.15625 C 1.015625 -4.234375 1.375 -4.296875 1.796875 -4.296875 C 2.59375 -4.296875 2.890625 -4.125 2.890625 -3.4375 L 2.890625 -2.96875 L 1.703125 -2.828125 C 0.84375 -2.71875 0.34375 -2.3125 0.34375 -1.53125 C 0.34375 -0.703125 0.921875 -0.296875 1.734375 -0.296875 Z M 1.90625 -0.828125 C 1.390625 -0.828125 1.0625 -1.078125 1.0625 -1.5625 C 1.0625 -2.0625 1.328125 -2.28125 1.875 -2.34375 L 2.890625 -2.453125 L 2.890625 -1.15625 C 2.703125 -0.96875 2.3125 -0.828125 1.90625 -0.828125 Z M 1.90625 -0.828125 "/>
</g>
<g id="glyph-1-12">
<path d="M 2.421875 -0.296875 C 3.03125 -0.296875 3.4375 -0.46875 3.71875 -0.640625 L 3.71875 -1.203125 C 3.5 -1.078125 3.09375 -0.890625 2.5 -0.890625 C 1.5625 -0.890625 1.078125 -1.390625 1.078125 -2.53125 L 1.078125 -2.75 C 1.078125 -3.765625 1.609375 -4.3125 2.40625 -4.3125 C 3 -4.3125 3.28125 -4.203125 3.671875 -4.015625 L 3.671875 -4.59375 C 3.375 -4.78125 3.03125 -4.890625 2.453125 -4.890625 C 1.3125 -4.890625 0.375 -4.203125 0.375 -2.640625 L 0.375 -2.5 C 0.375 -1.046875 1.15625 -0.296875 2.421875 -0.296875 Z M 2.421875 -0.296875 "/>
</g>
<g id="glyph-1-13">
<path d="M 2.46875 -0.296875 C 3.1875 -0.296875 3.703125 -0.515625 3.96875 -0.703125 L 3.96875 -1.21875 C 3.5625 -1.03125 3.171875 -0.890625 2.578125 -0.890625 C 1.640625 -0.890625 1.109375 -1.3125 1.078125 -2.421875 L 4.09375 -2.421875 L 4.09375 -2.8125 C 4.09375 -4.1875 3.515625 -4.890625 2.3125 -4.890625 C 1.28125 -4.890625 0.375 -4.203125 0.375 -2.65625 L 0.375 -2.53125 C 0.375 -1.140625 1.078125 -0.296875 2.46875 -0.296875 Z M 2.28125 -4.328125 C 3.015625 -4.328125 3.375 -3.9375 3.375 -2.96875 L 1.078125 -2.96875 C 1.140625 -4.015625 1.734375 -4.328125 2.28125 -4.328125 Z M 2.28125 -4.328125 "/>
</g>
<g id="glyph-1-14">
<path d="M 7.53125 -3.96875 L 7.53125 -4.546875 L 6.34375 -4.546875 L 6.34375 -7.1875 L 5.671875 -7.1875 L 5.671875 -1.421875 L 6.34375 -1.421875 L 6.34375 -3.96875 Z M 6.65625 0.375 L 6.65625 -0.203125 L 2.125 -0.203125 L 2.125 -1.625 L 1.453125 -1.625 L 1.453125 0.375 Z M 3.671875 -6.3125 L 3.671875 -6.90625 L 1.421875 -6.90625 L 1.421875 -6.3125 Z M 4.875 -5.15625 L 4.875 -5.71875 L 0.296875 -5.71875 L 0.296875 -5.15625 Z M 4.4375 -3.375 C 4.4375 -4.203125 3.640625 -4.734375 2.59375 -4.734375 C 1.546875 -4.734375 0.765625 -4.203125 0.765625 -3.375 C 0.765625 -2.546875 1.5625 -2 2.59375 -2 C 3.640625 -2 4.4375 -2.546875 4.4375 -3.375 Z M 3.796875 -3.375 C 3.796875 -2.859375 3.21875 -2.546875 2.59375 -2.546875 C 1.96875 -2.546875 1.40625 -2.859375 1.40625 -3.375 C 1.40625 -3.890625 1.96875 -4.203125 2.59375 -4.203125 C 3.21875 -4.203125 3.796875 -3.890625 3.796875 -3.375 Z M 3.796875 -3.375 "/>
</g>
<g id="glyph-1-15">
<path d="M 6.796875 0.515625 L 6.796875 -0.046875 L 1.859375 -0.046875 L 1.859375 -0.75 L 6.53125 -0.75 L 6.53125 -2.484375 L 4.1875 -2.484375 L 4.1875 -3.265625 L 7.390625 -3.265625 L 7.390625 -3.8125 L 0.34375 -3.8125 L 0.34375 -3.265625 L 3.515625 -3.265625 L 3.515625 -2.484375 L 1.1875 -2.484375 L 1.1875 -1.9375 L 5.84375 -1.9375 L 5.84375 -1.265625 L 1.1875 -1.265625 L 1.1875 0.515625 Z M 7.03125 -4.78125 C 5.9375 -4.875 4.53125 -5.390625 4.265625 -6.28125 L 6.734375 -6.28125 L 6.734375 -6.84375 L 1 -6.84375 L 1 -6.28125 L 3.484375 -6.28125 C 3.25 -5.375 1.9375 -4.875 0.734375 -4.765625 L 1.03125 -4.21875 C 2.328125 -4.390625 3.5625 -4.984375 3.859375 -5.6875 C 4.25 -5 5.453125 -4.421875 6.71875 -4.203125 Z M 7.03125 -4.78125 "/>
</g>
<g id="glyph-1-16">
<path d="M 7.390625 -0.359375 L 7.390625 -0.9375 L 4.1875 -0.9375 L 4.1875 -2.46875 L 3.515625 -2.46875 L 3.515625 -0.9375 L 0.34375 -0.9375 L 0.34375 -0.359375 Z M 6.796875 -2.90625 L 6.796875 -3.46875 L 4.625 -3.46875 L 4.625 -5.875 L 6.796875 -5.875 L 6.796875 -6.46875 L 3.9375 -6.46875 L 3.9375 -2.90625 Z M 3.625 -3.0625 L 3.546875 -3.640625 C 3.046875 -3.515625 2.125 -3.4375 1.578125 -3.4375 L 1.578125 -5.859375 L 3.46875 -5.859375 L 3.46875 -6.4375 L 0.90625 -6.4375 L 0.90625 -2.84375 C 1.8125 -2.84375 2.921875 -2.90625 3.625 -3.0625 Z M 3.625 -3.0625 "/>
</g>
<g id="glyph-1-17">
<path d="M 7.390625 -2.578125 L 7.390625 -3.15625 L 0.34375 -3.15625 L 0.34375 -2.578125 Z M 6.640625 0.453125 L 6.640625 -0.109375 L 1.9375 -0.109375 L 1.9375 -1.84375 L 1.265625 -1.84375 L 1.265625 0.453125 Z M 6.609375 -4.125 L 6.609375 -4.6875 L 1.96875 -4.6875 L 1.96875 -6.859375 L 1.28125 -6.859375 L 1.28125 -4.125 Z M 6.609375 -4.125 "/>
</g>
<g id="glyph-1-18">
<path d="M 3.046875 -0.28125 C 3.75 -0.28125 4.296875 -0.4375 4.703125 -0.671875 L 4.703125 -1.265625 C 4.328125 -1.078125 3.875 -0.875 3.140625 -0.875 C 1.765625 -0.875 1.1875 -1.765625 1.1875 -3.3125 L 1.1875 -3.609375 C 1.1875 -5.1875 2 -5.875 3.125 -5.875 C 3.71875 -5.875 4.171875 -5.734375 4.640625 -5.546875 L 4.640625 -6.140625 C 4.265625 -6.34375 3.8125 -6.46875 3.15625 -6.46875 C 1.640625 -6.46875 0.4375 -5.625 0.4375 -3.484375 L 0.4375 -3.3125 C 0.4375 -1.28125 1.4375 -0.28125 3.046875 -0.28125 Z M 3.046875 -0.28125 "/>
</g>
<g id="glyph-1-19">
<path d="M 0.15625 0.53125 L 0.765625 0.53125 C 1.59375 -0.296875 2.3125 -1.515625 2.3125 -3.109375 L 2.3125 -3.25 C 2.3125 -4.828125 1.59375 -6.0625 0.765625 -6.90625 L 0.15625 -6.90625 C 0.953125 -6 1.59375 -4.640625 1.59375 -3.265625 L 1.59375 -3.03125 C 1.59375 -1.625 0.953125 -0.34375 0.15625 0.53125 Z M 0.15625 0.53125 "/>
</g>
<g id="glyph-1-20">
<path d="M 6.734375 0.515625 L 6.734375 -2.328125 L 1.71875 -2.328125 L 1.71875 0.515625 Z M 4.359375 -6.6875 L 0.84375 -6.6875 L 0.84375 -6.109375 L 3.609375 -6.109375 C 3.5625 -5.8125 3.5 -5.515625 3.375 -5.25 L 0.46875 -5.109375 L 0.59375 -4.515625 L 3.09375 -4.703125 C 2.578125 -3.9375 1.703125 -3.3125 0.484375 -2.96875 L 0.828125 -2.421875 C 2.84375 -3.0625 4.265625 -4.515625 4.359375 -6.6875 Z M 6.046875 -0.046875 L 2.40625 -0.046875 L 2.40625 -1.765625 L 6.046875 -1.765625 Z M 6.046875 -4.546875 L 6.046875 -2.734375 L 6.71875 -2.734375 L 6.71875 -7.1875 L 6.046875 -7.1875 L 6.046875 -5.125 L 4.3125 -5.125 L 4.3125 -4.546875 Z M 6.046875 -4.546875 "/>
</g>
<g id="glyph-1-21">
<path d="M 5.21875 -1.578125 L 5.171875 -2.125 C 4.828125 -2.078125 4.359375 -2.03125 3.8125 -2 L 4.109375 -5.1875 L 3.421875 -5.25 L 3.1875 -1.953125 C 3.09375 -1.953125 3 -1.953125 2.890625 -1.953125 C 2.609375 -1.9375 2.3125 -1.90625 2.015625 -1.90625 L 1.8125 -5.234375 L 1.125 -5.171875 L 1.390625 -1.890625 C 1 -1.890625 0.609375 -1.890625 0.234375 -1.890625 L 0.34375 -1.28125 C 1.046875 -1.296875 1.953125 -1.328125 2.84375 -1.375 C 3.765625 -1.421875 4.640625 -1.5 5.21875 -1.578125 Z M 6.34375 -7.1875 L 5.65625 -7.1875 L 5.65625 0.625 L 6.34375 0.625 L 6.34375 -3.5 L 7.609375 -3.5 L 7.609375 -4.0625 L 6.34375 -4.0625 Z M 4.703125 -5.796875 L 4.703125 -6.359375 L 0.453125 -6.359375 L 0.453125 -5.796875 Z M 4.703125 -5.796875 "/>
</g>
<g id="glyph-1-22">
<path d="M 6.71875 -3.234375 L 6.71875 -7.1875 L 6.046875 -7.1875 L 6.046875 -3.234375 Z M 7 0.515625 L 7 -0.03125 L 2.34375 -0.03125 L 2.34375 -0.921875 L 6.71875 -0.921875 L 6.71875 -2.828125 L 1.640625 -2.828125 L 1.640625 -2.265625 L 6.046875 -2.265625 L 6.046875 -1.453125 L 1.65625 -1.453125 L 1.65625 0.515625 Z M 2.578125 -6.9375 C 1.453125 -6.9375 0.546875 -6.234375 0.546875 -5.171875 C 0.546875 -4.109375 1.46875 -3.4375 2.578125 -3.4375 C 3.703125 -3.4375 4.609375 -4.125 4.609375 -5.171875 C 4.609375 -6.234375 3.703125 -6.9375 2.578125 -6.9375 Z M 2.578125 -6.359375 C 3.390625 -6.359375 3.9375 -5.875 3.9375 -5.171875 C 3.9375 -4.484375 3.390625 -4.015625 2.578125 -4.015625 C 1.8125 -4.015625 1.203125 -4.484375 1.203125 -5.1875 C 1.203125 -5.875 1.8125 -6.359375 2.578125 -6.359375 Z M 2.578125 -6.359375 "/>
</g>
<g id="glyph-1-23">
<path d="M 6.71875 0.625 L 6.71875 -7.1875 L 6.03125 -7.1875 L 6.03125 -4.140625 L 4.625 -4.140625 L 4.625 -3.5625 L 6.03125 -3.5625 L 6.03125 0.625 Z M 4.765625 -2.046875 C 3.796875 -1.875 2.3125 -1.8125 1.28125 -1.8125 L 1.28125 -3.703125 L 4.171875 -3.703125 L 4.171875 -6.4375 L 0.609375 -6.4375 L 0.609375 -5.875 L 3.484375 -5.875 L 3.484375 -4.265625 L 0.609375 -4.265625 L 0.609375 -1.21875 L 1.171875 -1.21875 C 2.328125 -1.21875 4.046875 -1.34375 4.84375 -1.484375 Z M 4.765625 -2.046875 "/>
</g>
<g id="glyph-1-24">
<path d="M 0 -3.359375 L 4.640625 -3.359375 L 4.015625 -2.296875 L 4.140625 -2.15625 L 5.890625 -3.609375 L 4.140625 -5.0625 L 4.015625 -4.921875 L 4.640625 -3.859375 L 0 -3.859375 Z M 0 -3.359375 "/>
</g>
<g id="glyph-1-25">
<path d="M 0.765625 -0.375 L 2.78125 -0.375 C 4.125 -0.375 4.8125 -1.078125 4.8125 -2.0625 C 4.8125 -2.96875 4.265625 -3.390625 3.546875 -3.515625 L 3.546875 -3.5625 C 4.25 -3.765625 4.546875 -4.234375 4.546875 -4.859375 C 4.546875 -5.8125 3.984375 -6.375 2.59375 -6.375 L 0.765625 -6.375 Z M 1.46875 -0.96875 L 1.46875 -3.1875 L 2.65625 -3.1875 C 3.5625 -3.1875 4.0625 -2.890625 4.0625 -2.109375 C 4.0625 -1.34375 3.609375 -0.96875 2.734375 -0.96875 Z M 1.46875 -3.75 L 1.46875 -5.78125 L 2.546875 -5.78125 C 3.390625 -5.78125 3.8125 -5.53125 3.8125 -4.78125 C 3.8125 -4 3.25 -3.75 2.5 -3.75 Z M 1.46875 -3.75 "/>
</g>
<g id="glyph-1-26">
<path d="M 0.765625 -0.375 L 1.484375 -0.375 L 1.484375 -2.78125 L 2.703125 -2.78125 C 3.859375 -2.78125 4.625 -3.421875 4.625 -4.609375 C 4.625 -5.734375 3.96875 -6.375 2.625 -6.375 L 0.765625 -6.375 Z M 1.484375 -3.375 L 1.484375 -5.78125 L 2.546875 -5.78125 C 3.515625 -5.78125 3.859375 -5.40625 3.859375 -4.5625 C 3.859375 -3.75 3.5 -3.375 2.5625 -3.375 Z M 1.484375 -3.375 "/>
</g>
<g id="glyph-1-27">
<path d="M 0.765625 -0.375 L 1.46875 -0.375 L 1.46875 -3.0625 L 3.609375 -3.0625 L 3.609375 -3.671875 L 1.46875 -3.671875 L 1.46875 -5.78125 L 4.25 -5.78125 L 4.25 -6.375 L 0.765625 -6.375 Z M 0.765625 -0.375 "/>
</g>
<g id="glyph-1-28">
<path d="M 7.609375 -3.5 L 7.609375 -4.078125 L 6.34375 -4.078125 L 6.34375 -7.1875 L 5.671875 -7.1875 L 5.671875 0.625 L 6.34375 0.625 L 6.34375 -3.5 Z M 4.265625 -1.3125 L 4.265625 -6.53125 L 3.578125 -6.53125 L 3.578125 -4.546875 L 1.28125 -4.546875 L 1.28125 -6.53125 L 0.59375 -6.53125 L 0.59375 -1.3125 Z M 3.578125 -1.890625 L 1.28125 -1.890625 L 1.28125 -3.984375 L 3.578125 -3.984375 Z M 3.578125 -1.890625 "/>
</g>
<g id="glyph-1-29">
<path d="M 6.765625 0.625 L 6.765625 -7.1875 L 6.09375 -7.1875 L 6.09375 0.625 Z M 0.59375 -3.84375 C 0.59375 -2.1875 1.328125 -1.078125 2.609375 -1.078125 C 3.90625 -1.078125 4.625 -2.1875 4.625 -3.828125 C 4.625 -5.484375 3.90625 -6.59375 2.609375 -6.59375 C 1.328125 -6.59375 0.59375 -5.484375 0.59375 -3.84375 Z M 3.984375 -3.828125 C 3.984375 -2.5625 3.4375 -1.65625 2.609375 -1.65625 C 1.78125 -1.65625 1.25 -2.5625 1.25 -3.828125 C 1.25 -5.125 1.78125 -6 2.609375 -6 C 3.4375 -6 3.984375 -5.125 3.984375 -3.828125 Z M 3.984375 -3.828125 "/>
</g>
<g id="glyph-1-30">
<path d="M 6.3125 -4.15625 L 6.3125 -4.734375 L 1.890625 -4.734375 L 1.890625 -5.859375 L 6.46875 -5.859375 L 6.46875 -6.4375 L 1.203125 -6.4375 L 1.203125 -2.375 L 6.546875 -2.375 L 6.546875 -2.9375 L 1.890625 -2.9375 L 1.890625 -4.15625 Z M 7.390625 -0.359375 L 7.390625 -0.9375 L 0.34375 -0.9375 L 0.34375 -0.359375 Z M 7.390625 -0.359375 "/>
</g>
<g id="glyph-1-31">
<path d="M 6.5 -3.59375 L 6.5 -6.75 L 1.203125 -6.75 L 1.203125 -3.59375 Z M 5.828125 -4.15625 L 1.890625 -4.15625 L 1.890625 -6.1875 L 5.828125 -6.1875 Z M 4.1875 0.640625 L 4.1875 -2.03125 L 7.390625 -2.03125 L 7.390625 -2.59375 L 0.34375 -2.59375 L 0.34375 -2.03125 L 3.515625 -2.03125 L 3.515625 0.640625 Z M 4.1875 0.640625 "/>
</g>
<g id="glyph-1-32">
<path d="M 6.734375 -3.3125 L 6.734375 -3.890625 L 1.890625 -3.890625 L 1.890625 -4.859375 L 6.515625 -4.859375 L 6.515625 -6.859375 L 1.1875 -6.859375 L 1.1875 -6.296875 L 5.84375 -6.296875 L 5.84375 -5.421875 L 1.203125 -5.421875 L 1.203125 -3.3125 Z M 4.1875 0.5625 L 4.1875 -1.921875 L 7.390625 -1.921875 L 7.390625 -2.5 L 0.34375 -2.5 L 0.34375 -1.921875 L 3.515625 -1.921875 L 3.515625 0.5625 Z M 4.1875 0.5625 "/>
</g>
<g id="glyph-1-33">
<path d="M 6.71875 -2.515625 L 6.71875 -3.09375 L 5.4375 -3.09375 L 5.75 -5.25 L 5.078125 -5.359375 L 4.8125 -3.09375 L 2.890625 -3.09375 L 2.71875 -5.375 L 2.03125 -5.265625 L 2.25 -3.09375 L 0.96875 -3.09375 L 0.96875 -2.515625 Z M 7.390625 -0.40625 L 7.390625 -0.984375 L 0.34375 -0.984375 L 0.34375 -0.40625 Z M 6.734375 -5.796875 L 6.734375 -6.359375 L 0.953125 -6.359375 L 0.953125 -5.796875 Z M 6.734375 -5.796875 "/>
</g>
<g id="glyph-1-34">
<path d="M 6.71875 -2.984375 L 6.71875 -7.1875 L 6.046875 -7.1875 L 6.046875 -5.328125 L 4.734375 -5.328125 L 4.734375 -4.765625 L 6.046875 -4.765625 L 6.046875 -2.984375 Z M 7.484375 0.109375 C 6.65625 -0.28125 6.109375 -1.09375 6.109375 -1.9375 L 6.109375 -2.59375 L 5.453125 -2.59375 L 5.453125 -1.9375 C 5.453125 -1.109375 5 -0.25 4.109375 0.15625 L 4.484375 0.65625 C 5.109375 0.328125 5.625 -0.328125 5.78125 -0.84375 C 5.9375 -0.3125 6.515625 0.28125 7.09375 0.609375 Z M 3.921875 0.515625 L 3.921875 -2.515625 L 3.28125 -2.515625 L 3.28125 -1.53125 L 1.90625 -1.53125 L 1.90625 -2.515625 L 1.265625 -2.515625 L 1.265625 0.515625 Z M 3.28125 -0.015625 L 1.90625 -0.015625 L 1.90625 -1.015625 L 3.28125 -1.015625 Z M 2.40625 -6.796875 C 1.3125 -6.796875 0.40625 -6.0625 0.40625 -4.96875 C 0.40625 -3.859375 1.328125 -3.15625 2.40625 -3.15625 C 3.515625 -3.15625 4.421875 -3.859375 4.421875 -4.984375 C 4.421875 -6.09375 3.515625 -6.796875 2.40625 -6.796875 Z M 2.40625 -6.21875 C 3.21875 -6.21875 3.734375 -5.703125 3.734375 -4.96875 C 3.734375 -4.234375 3.203125 -3.734375 2.40625 -3.734375 C 1.640625 -3.734375 1.078125 -4.234375 1.078125 -4.984375 C 1.078125 -5.71875 1.640625 -6.21875 2.40625 -6.21875 Z M 2.40625 -6.21875 "/>
</g>
<g id="glyph-1-35">
<path d="M 7.390625 -2.84375 L 7.390625 -3.421875 L 0.34375 -3.421875 L 0.34375 -2.84375 Z M 6.53125 0.515625 L 6.53125 -2.03125 L 1.203125 -2.03125 L 1.203125 0.515625 Z M 5.859375 -0.046875 L 1.890625 -0.046875 L 1.890625 -1.46875 L 5.859375 -1.46875 Z M 6.59375 -5.515625 C 6.59375 -6.40625 5.578125 -6.984375 3.859375 -6.984375 C 2.15625 -6.984375 1.140625 -6.40625 1.140625 -5.515625 C 1.140625 -4.625 2.15625 -4.046875 3.859375 -4.046875 C 5.578125 -4.046875 6.59375 -4.625 6.59375 -5.515625 Z M 5.9375 -5.515625 C 5.9375 -4.9375 5.109375 -4.59375 3.859375 -4.59375 C 2.609375 -4.59375 1.8125 -4.9375 1.8125 -5.515625 C 1.8125 -6.09375 2.609375 -6.4375 3.859375 -6.4375 C 5.109375 -6.4375 5.9375 -6.09375 5.9375 -5.515625 Z M 5.9375 -5.515625 "/>
</g>
<g id="glyph-1-36">
<path d="M 0.171875 0.78125 L 0.65625 0.78125 L 1.3125 -0.953125 L 0.5 -0.953125 Z M 0.171875 0.78125 "/>
</g>
<g id="glyph-1-37">
<path d="M 3.671875 -1.4375 L 3.671875 -3.703125 L 4.765625 -3.703125 L 4.765625 0.234375 L 5.4375 0.234375 L 5.4375 -7 L 4.765625 -7 L 4.765625 -4.265625 L 3.671875 -4.265625 L 3.671875 -6.328125 L 0.578125 -6.328125 L 0.578125 -1.4375 Z M 3.015625 -2 L 1.234375 -2 L 1.234375 -5.765625 L 3.015625 -5.765625 Z M 6.921875 0.625 L 6.921875 -7.1875 L 6.25 -7.1875 L 6.25 0.625 Z M 6.921875 0.625 "/>
</g>
<g id="glyph-1-38">
<path d="M 7.390625 -0.359375 L 7.390625 -0.9375 L 4.1875 -0.9375 L 4.1875 -2.8125 L 6.53125 -2.8125 L 6.53125 -6.484375 L 1.1875 -6.484375 L 1.1875 -2.8125 L 3.515625 -2.8125 L 3.515625 -0.9375 L 0.34375 -0.9375 L 0.34375 -0.359375 Z M 5.84375 -3.375 L 1.875 -3.375 L 1.875 -5.921875 L 5.84375 -5.921875 Z M 5.84375 -3.375 "/>
</g>
<g id="glyph-1-39">
<path d="M 6.078125 -7.1875 L 6.078125 0.625 L 6.75 0.625 L 6.75 -7.1875 Z M 5.359375 -2.0625 C 4.421875 -1.890625 2.875 -1.828125 1.625 -1.828125 L 1.4375 -1.828125 L 1.4375 -3.6875 L 4.40625 -3.6875 L 4.40625 -6.46875 L 0.71875 -6.46875 L 0.71875 -5.90625 L 3.71875 -5.90625 L 3.71875 -4.25 L 0.765625 -4.25 L 0.765625 -1.25 L 1.5625 -1.25 C 3.265625 -1.25 4.609375 -1.375 5.421875 -1.5 Z M 5.359375 -2.0625 "/>
</g>
<g id="glyph-1-40">
<path d="M 6.734375 0.53125 L 6.734375 -2.59375 L 6.046875 -2.59375 L 6.046875 -1.578125 L 2.390625 -1.578125 L 2.390625 -2.578125 L 1.703125 -2.578125 L 1.703125 0.53125 Z M 0.578125 -6.109375 L 2.328125 -6.109375 C 2.328125 -5.984375 2.328125 -5.828125 2.3125 -5.71875 C 2.28125 -4.6875 1.28125 -3.671875 0.296875 -3.296875 L 0.671875 -2.765625 C 1.515625 -3.125 2.453125 -4 2.65625 -4.71875 C 2.984375 -4.015625 3.828125 -3.28125 4.5625 -2.984375 L 4.9375 -3.53125 C 4.046875 -3.828125 3.078125 -4.703125 3.015625 -5.703125 C 3.015625 -5.8125 3.015625 -5.96875 3.015625 -6.109375 L 4.796875 -6.109375 L 4.796875 -6.671875 L 0.578125 -6.671875 Z M 6.71875 -3.015625 L 6.71875 -7.1875 L 6.046875 -7.1875 L 6.046875 -5.296875 L 4.546875 -5.296875 L 4.546875 -4.734375 L 6.046875 -4.734375 L 6.046875 -3.015625 Z M 6.046875 -0.03125 L 2.390625 -0.03125 L 2.390625 -1.03125 L 6.046875 -1.03125 Z M 6.046875 -0.03125 "/>
</g>
<g id="glyph-1-41">
<path d="M 7.390625 -3 L 7.390625 -3.5625 L 6.234375 -3.5625 C 6.40625 -4.375 6.484375 -5.4375 6.484375 -6.625 L 1.21875 -6.625 L 1.21875 -6.0625 L 5.796875 -6.0625 C 5.796875 -5.125 5.734375 -4.234375 5.578125 -3.5625 L 0.34375 -3.5625 L 0.34375 -3 Z M 6.703125 0.34375 L 6.703125 -0.21875 L 1.90625 -0.21875 L 1.90625 -2.125 L 1.234375 -2.125 L 1.234375 0.34375 Z M 6.703125 0.34375 "/>
</g>
<g id="glyph-1-42">
<path d="M 7.53125 -4.328125 L 7.53125 -4.890625 L 6.34375 -4.890625 L 6.34375 -7.1875 L 5.671875 -7.1875 L 5.671875 -1.515625 L 6.34375 -1.515625 L 6.34375 -4.328125 Z M 6.625 0.359375 L 6.625 -0.203125 L 2.125 -0.203125 L 2.125 -2.0625 L 1.453125 -2.0625 L 1.453125 0.359375 Z M 2.515625 -6.609375 C 1.34375 -6.609375 0.453125 -5.8125 0.453125 -4.640625 C 0.453125 -3.453125 1.34375 -2.6875 2.515625 -2.6875 C 3.6875 -2.6875 4.578125 -3.46875 4.578125 -4.640625 C 4.578125 -5.8125 3.6875 -6.609375 2.515625 -6.609375 Z M 2.515625 -6.03125 C 3.34375 -6.03125 3.90625 -5.453125 3.90625 -4.640625 C 3.90625 -3.84375 3.34375 -3.265625 2.515625 -3.265625 C 1.734375 -3.265625 1.125 -3.84375 1.125 -4.640625 C 1.125 -5.453125 1.71875 -6.03125 2.515625 -6.03125 Z M 2.515625 -6.03125 "/>
</g>
<g id="glyph-1-43">
<path d="M 0.5625 -5.921875 L 2.328125 -5.921875 C 2.328125 -5.578125 2.328125 -5.40625 2.3125 -5.296875 C 2.28125 -4.265625 1.296875 -3.28125 0.3125 -2.890625 L 0.703125 -2.375 C 1.546875 -2.734375 2.453125 -3.578125 2.65625 -4.3125 C 2.984375 -3.609375 3.8125 -2.859375 4.5625 -2.5625 L 4.9375 -3.09375 C 4.046875 -3.390625 3.078125 -4.296875 3.015625 -5.296875 C 3.015625 -5.40625 3.015625 -5.5625 3.015625 -5.921875 L 4.765625 -5.921875 L 4.765625 -6.5 L 0.5625 -6.5 Z M 6.71875 -1.46875 L 6.71875 -7.1875 L 6.046875 -7.1875 L 6.046875 -5.015625 L 4.484375 -5.015625 L 4.484375 -4.4375 L 6.046875 -4.4375 L 6.046875 -1.46875 Z M 6.890625 0.359375 L 6.890625 -0.203125 L 2.3125 -0.203125 L 2.3125 -2.03125 L 1.625 -2.03125 L 1.625 0.359375 Z M 6.890625 0.359375 "/>
</g>
<g id="glyph-1-44">
<path d="M 0.375 -0.15625 L 1.15625 -0.15625 L 1.15625 -0.953125 L 0.375 -0.953125 Z M 0.375 -0.15625 "/>
</g>
<g id="glyph-1-45">
<path d="M 1.421875 -0.3125 C 2.5625 -0.3125 3.03125 -1.015625 3.03125 -1.90625 L 3.03125 -6.375 L 2.3125 -6.375 L 2.3125 -1.90625 C 2.3125 -1.28125 2.03125 -0.921875 1.359375 -0.921875 C 0.921875 -0.921875 0.578125 -1.015625 0.3125 -1.09375 L 0.3125 -0.53125 C 0.625 -0.390625 0.9375 -0.3125 1.421875 -0.3125 Z M 1.421875 -0.3125 "/>
</g>
<g id="glyph-1-46">
<path d="M 0.796875 -0.375 L 1.515625 -0.375 L 1.515625 -6.375 L 0.796875 -6.375 Z M 0.796875 -0.375 "/>
</g>
<g id="glyph-1-47">
<path d="M 2.078125 -0.375 L 2.78125 -0.375 L 2.78125 -5.78125 L 4.609375 -5.78125 L 4.609375 -6.375 L 0.25 -6.375 L 0.25 -5.78125 L 2.078125 -5.78125 Z M 2.078125 -0.375 "/>
</g>
<g id="glyph-1-48">
<path d="M 2.375 -0.296875 C 3.578125 -0.296875 4.390625 -1.140625 4.390625 -2.546875 L 4.390625 -2.671875 C 4.390625 -4.078125 3.640625 -4.890625 2.390625 -4.890625 C 1.1875 -4.890625 0.375 -4.046875 0.375 -2.640625 L 0.375 -2.515625 C 0.375 -1.09375 1.125 -0.296875 2.375 -0.296875 Z M 2.390625 -0.859375 C 1.65625 -0.859375 1.078125 -1.265625 1.078125 -2.5 L 1.078125 -2.71875 C 1.078125 -3.75 1.578125 -4.328125 2.375 -4.328125 C 3.09375 -4.328125 3.703125 -3.921875 3.703125 -2.6875 L 3.703125 -2.46875 C 3.703125 -1.421875 3.203125 -0.859375 2.390625 -0.859375 Z M 2.390625 -0.859375 "/>
</g>
<g id="glyph-1-49">
<path d="M 0.65625 -0.375 L 1.328125 -0.375 L 1.328125 -3.984375 C 1.6875 -4.140625 2.078125 -4.296875 2.453125 -4.296875 C 3.046875 -4.296875 3.265625 -4.078125 3.265625 -3.546875 L 3.265625 -0.375 L 3.9375 -0.375 L 3.9375 -3.6875 C 3.9375 -3.796875 3.9375 -3.875 3.921875 -3.984375 C 4.328125 -4.171875 4.703125 -4.296875 5.0625 -4.296875 C 5.65625 -4.296875 5.875 -4.078125 5.875 -3.546875 L 5.875 -0.375 L 6.546875 -0.375 L 6.546875 -3.6875 C 6.546875 -4.546875 6.09375 -4.890625 5.328125 -4.890625 C 4.828125 -4.890625 4.3125 -4.703125 3.828125 -4.390625 L 3.796875 -4.390625 C 3.578125 -4.734375 3.21875 -4.890625 2.71875 -4.890625 C 2.21875 -4.890625 1.75 -4.6875 1.34375 -4.421875 L 1.3125 -4.421875 L 1.3125 -4.8125 L 0.65625 -4.8125 Z M 0.65625 -0.375 "/>
</g>
<g id="glyph-1-50">
<path d="M 0.671875 -0.375 L 1.359375 -0.375 L 1.359375 -4.796875 L 0.671875 -4.796875 Z M 0.671875 -5.6875 L 1.375 -5.6875 L 1.375 -6.40625 L 0.671875 -6.40625 Z M 0.671875 -5.6875 "/>
</g>
<g id="glyph-1-51">
<path d="M 0.671875 -0.375 L 1.359375 -0.375 L 1.359375 -6.78125 L 0.671875 -6.78125 Z M 0.671875 -0.375 "/>
</g>
<g id="glyph-1-52">
<path d="M 6.921875 0.625 L 6.921875 -7.1875 L 6.25 -7.1875 L 6.25 0.625 Z M 4.6875 -4 L 4.6875 0.21875 L 5.359375 0.21875 L 5.359375 -7 L 4.6875 -7 L 4.6875 -4.5625 L 2.859375 -4.5625 L 2.859375 -4 Z M 4.015625 -2.234375 C 3.546875 -2.125 2.28125 -1.96875 1.4375 -1.96875 L 1.4375 -6.375 L 0.765625 -6.375 L 0.765625 -1.375 L 1.1875 -1.375 C 2.171875 -1.375 3.453125 -1.515625 4.09375 -1.640625 Z M 4.015625 -2.234375 "/>
</g>
<g id="glyph-1-53">
<path d="M 5.1875 -2.09375 C 4.421875 -1.9375 2.6875 -1.8125 1.46875 -1.84375 L 1.46875 -3.6875 L 4.265625 -3.6875 L 4.265625 -4.25 L 1.46875 -4.25 L 1.46875 -5.875 L 4.421875 -5.875 L 4.421875 -6.4375 L 0.78125 -6.4375 L 0.78125 -1.265625 L 1.453125 -1.265625 C 2.703125 -1.265625 4.421875 -1.375 5.265625 -1.53125 Z M 6.75 0.625 L 6.75 -7.1875 L 6.0625 -7.1875 L 6.0625 0.625 Z M 6.75 0.625 "/>
</g>
<g id="glyph-1-54">
<path d="M 7.390625 -0.4375 L 7.390625 -1.015625 L 0.34375 -1.015625 L 0.34375 -0.4375 Z M 6.515625 -2.5625 L 6.515625 -6.5 L 5.84375 -6.5 L 5.84375 -5.078125 L 1.890625 -5.078125 L 1.890625 -6.484375 L 1.203125 -6.484375 L 1.203125 -2.5625 Z M 5.84375 -3.125 L 1.890625 -3.125 L 1.890625 -4.515625 L 5.84375 -4.515625 Z M 5.84375 -3.125 "/>
</g>
<g id="glyph-1-55">
<path d="M 0.203125 -0.375 L 0.953125 -0.375 L 2.109375 -2.140625 L 3.234375 -0.375 L 4.046875 -0.375 L 2.5625 -2.625 L 3.9375 -4.8125 L 3.203125 -4.8125 L 2.1875 -3.125 L 1.078125 -4.8125 L 0.28125 -4.8125 L 1.71875 -2.625 Z M 0.203125 -0.375 "/>
</g>
<g id="glyph-1-56">
<path d="M 2.5625 -0.265625 C 3.859375 -0.265625 4.671875 -1.015625 4.671875 -1.96875 C 4.671875 -2.875 3.953125 -3.296875 3.203125 -3.546875 C 3.828125 -3.859375 4.421875 -4.28125 4.421875 -5 C 4.421875 -5.9375 3.671875 -6.484375 2.53125 -6.484375 C 1.390625 -6.484375 0.640625 -5.84375 0.640625 -4.96875 C 0.640625 -4.203125 1.171875 -3.75 1.8125 -3.5 C 1.15625 -3.234375 0.46875 -2.6875 0.46875 -1.90625 C 0.46875 -0.921875 1.28125 -0.265625 2.5625 -0.265625 Z M 2.5625 -0.84375 C 1.765625 -0.84375 1.1875 -1.265625 1.1875 -1.9375 C 1.1875 -2.59375 1.78125 -3.015625 2.375 -3.21875 C 3.421875 -2.890625 3.90625 -2.625 3.90625 -1.890625 C 3.90625 -1.28125 3.328125 -0.84375 2.5625 -0.84375 Z M 2.6875 -3.796875 C 1.890625 -4 1.40625 -4.375 1.40625 -4.984375 C 1.40625 -5.5625 1.859375 -5.890625 2.546875 -5.890625 C 3.28125 -5.890625 3.6875 -5.5 3.6875 -4.984375 C 3.6875 -4.40625 3.25 -4.046875 2.6875 -3.796875 Z M 2.6875 -3.796875 "/>
</g>
<g id="glyph-1-57">
<path d="M 2.5625 -0.265625 C 3.78125 -0.265625 4.515625 -1.15625 4.515625 -2.296875 C 4.515625 -3.4375 3.703125 -4.125 2.703125 -4.125 C 2.03125 -4.125 1.546875 -3.8125 1.21875 -3.484375 C 1.3125 -5.359375 1.890625 -5.875 2.90625 -5.875 C 3.28125 -5.875 3.8125 -5.71875 4.03125 -5.59375 L 4.234375 -6.109375 C 3.984375 -6.265625 3.4375 -6.46875 2.828125 -6.46875 C 1.453125 -6.46875 0.515625 -5.546875 0.515625 -3.421875 L 0.515625 -2.953125 C 0.515625 -1.25 1.21875 -0.265625 2.5625 -0.265625 Z M 2.5625 -0.859375 C 1.59375 -0.859375 1.21875 -1.59375 1.21875 -2.703125 L 1.21875 -2.765625 C 1.46875 -3.125 2 -3.53125 2.5625 -3.53125 C 3.28125 -3.53125 3.796875 -3.15625 3.796875 -2.21875 C 3.796875 -1.375 3.328125 -0.859375 2.5625 -0.859375 Z M 2.5625 -0.859375 "/>
</g>
<g id="glyph-1-58">
<path d="M 0.078125 0.53125 L 0.703125 0.53125 L 2.796875 -6.90625 L 2.1875 -6.90625 Z M 0.078125 0.53125 "/>
</g>
<g id="glyph-1-59">
<path d="M 0.171875 -0.375 L 0.84375 -0.375 L 1.46875 -2.125 L 3.875 -2.125 L 4.5 -0.375 L 5.25 -0.375 L 3.0625 -6.375 L 2.375 -6.375 Z M 2.65625 -5.421875 L 2.671875 -5.421875 L 3.640625 -2.71875 L 1.671875 -2.71875 Z M 2.65625 -5.421875 "/>
</g>
<g id="glyph-1-60">
<path d="M 0.765625 -0.375 L 1.46875 -0.375 L 1.46875 -2.953125 L 2.625 -2.953125 L 4.109375 -0.375 L 4.921875 -0.375 L 3.328125 -3.078125 L 3.328125 -3.125 C 4.0625 -3.359375 4.5 -3.828125 4.5 -4.6875 C 4.5 -5.78125 3.828125 -6.375 2.515625 -6.375 L 0.765625 -6.375 Z M 1.46875 -3.5 L 1.46875 -5.78125 L 2.453125 -5.78125 C 3.375 -5.78125 3.75 -5.421875 3.75 -4.6875 C 3.75 -3.90625 3.40625 -3.5 2.46875 -3.5 Z M 1.46875 -3.5 "/>
</g>
<g id="glyph-1-61">
<path d="M 0.765625 -0.375 L 1.4375 -0.375 L 1.4375 -5.4375 L 1.453125 -5.4375 L 3.1875 -0.375 L 3.859375 -0.375 L 5.609375 -5.4375 L 5.625 -5.4375 L 5.625 -0.375 L 6.34375 -0.375 L 6.34375 -6.375 L 5.296875 -6.375 L 3.578125 -1.3125 L 3.5625 -1.3125 L 1.828125 -6.375 L 0.765625 -6.375 Z M 0.765625 -0.375 "/>
</g>
<g id="glyph-1-62">
<path d="M 7.015625 0.578125 L 7.015625 0.046875 L 2.34375 0.046875 L 2.34375 -0.890625 L 6.71875 -0.890625 L 6.71875 -2.78125 L 1.640625 -2.78125 L 1.640625 -2.25 L 6.046875 -2.25 L 6.046875 -1.390625 L 1.671875 -1.390625 L 1.671875 0.578125 Z M 4.328125 -6.75 L 0.765625 -6.75 L 0.765625 -6.1875 L 3.5625 -6.1875 C 3.296875 -4.90625 2.15625 -3.875 0.4375 -3.4375 L 0.78125 -2.890625 C 2.71875 -3.453125 4.171875 -4.703125 4.328125 -6.75 Z M 4.421875 -5.5 L 6.046875 -5.5 L 6.046875 -4.59375 L 4.3125 -4.59375 L 4.3125 -4.046875 L 6.046875 -4.046875 L 6.046875 -3.203125 L 6.71875 -3.203125 L 6.71875 -7.1875 L 6.046875 -7.1875 L 6.046875 -6.03125 L 4.421875 -6.03125 Z M 4.421875 -5.5 "/>
</g>
<g id="glyph-1-63">
<path d="M 7.65625 -3.34375 L 7.65625 -3.921875 L 6.390625 -3.921875 L 6.390625 -7.1875 L 5.71875 -7.1875 L 5.71875 0.625 L 6.390625 0.625 L 6.390625 -3.34375 Z M 5.265625 -1.34375 L 5.203125 -1.90625 C 4.515625 -1.8125 3.53125 -1.734375 2.59375 -1.6875 L 2.59375 -4.140625 L 1.90625 -4.140625 L 1.90625 -1.671875 C 1.328125 -1.65625 0.625 -1.65625 0.203125 -1.65625 L 0.296875 -1.0625 C 0.953125 -1.0625 1.8125 -1.09375 2.59375 -1.125 C 3.359375 -1.171875 4.515625 -1.25 5.265625 -1.34375 Z M 4.671875 -6.359375 L 0.59375 -6.359375 L 0.59375 -5.796875 L 3.984375 -5.796875 C 4.015625 -4.921875 3.921875 -3.625 3.75 -2.875 L 4.390625 -2.78125 C 4.5625 -3.546875 4.6875 -5.171875 4.671875 -6.359375 Z M 4.671875 -6.359375 "/>
</g>
<g id="glyph-1-64">
<path d="M 6.921875 0.625 L 6.921875 -7.1875 L 6.25 -7.1875 L 6.25 -4.015625 L 5.328125 -4.015625 L 5.328125 -7 L 4.671875 -7 L 4.671875 0.234375 L 5.328125 0.234375 L 5.328125 -3.453125 L 6.25 -3.453125 L 6.25 0.625 Z M 4.140625 -4.609375 L 4.140625 -5.171875 L 0.421875 -5.171875 L 0.421875 -4.609375 L 1.953125 -4.609375 L 1.953125 -4.390625 C 1.953125 -2.9375 1.171875 -1.90625 0.28125 -1.34375 L 0.671875 -0.890625 C 1.421875 -1.34375 2.109375 -2.25 2.28125 -3.0625 C 2.484375 -2.3125 3.234375 -1.484375 3.875 -1.09375 L 4.265625 -1.59375 C 3.484375 -2.015625 2.640625 -2.96875 2.640625 -4.40625 L 2.640625 -4.609375 Z M 1.25 -5.921875 L 3.296875 -5.921875 L 3.296875 -6.515625 L 1.25 -6.515625 Z M 1.25 -5.921875 "/>
</g>
<g id="glyph-1-65">
<path d="M 6.71875 -3.140625 L 6.71875 -7.1875 L 6.046875 -7.1875 L 6.046875 -5.828125 L 3.65625 -5.828125 L 3.65625 -5.265625 L 6.046875 -5.265625 L 6.046875 -3.140625 Z M 7.015625 0.5625 L 7.015625 0 L 2.328125 0 L 2.328125 -0.84375 L 6.734375 -0.84375 L 6.734375 -2.71875 L 1.640625 -2.71875 L 1.640625 -2.15625 L 6.046875 -2.15625 L 6.046875 -1.375 L 1.65625 -1.375 L 1.65625 0.5625 Z M 4.875 -4.328125 C 3.984375 -4.140625 2.5 -3.984375 1.453125 -4 L 1.453125 -6.75 L 0.765625 -6.75 L 0.765625 -3.421875 L 1.34375 -3.421875 C 2.375 -3.421875 4.125 -3.578125 4.953125 -3.765625 Z M 4.875 -4.328125 "/>
</g>
<g id="glyph-1-66">
<path d="M 1.984375 -0.296875 C 2.515625 -0.296875 3 -0.5 3.390625 -0.78125 L 3.4375 -0.78125 L 3.5 -0.375 L 4.078125 -0.375 L 4.078125 -4.8125 L 3.40625 -4.8125 L 3.40625 -1.234375 C 3.03125 -1.046875 2.640625 -0.890625 2.171875 -0.890625 C 1.515625 -0.890625 1.3125 -1.125 1.3125 -1.6875 L 1.3125 -4.8125 L 0.625 -4.8125 L 0.625 -1.59375 C 0.625 -0.734375 1.125 -0.296875 1.984375 -0.296875 Z M 1.984375 -0.296875 "/>
</g>
<g id="glyph-1-67">
<path d="M 0.65625 -0.375 L 1.328125 -0.375 L 1.328125 -3.984375 C 1.703125 -4.140625 2.15625 -4.296875 2.578125 -4.296875 C 3.28125 -4.296875 3.484375 -4.078125 3.484375 -3.546875 L 3.484375 -0.375 L 4.15625 -0.375 L 4.15625 -3.6875 C 4.15625 -4.546875 3.734375 -4.890625 2.875 -4.890625 C 2.328125 -4.890625 1.75 -4.6875 1.34375 -4.421875 L 1.3125 -4.421875 L 1.3125 -4.8125 L 0.65625 -4.8125 Z M 0.65625 -0.375 "/>
</g>
<g id="glyph-1-68">
<path d="M 2.203125 0.9375 C 3.703125 0.9375 4.3125 0.34375 4.3125 -0.421875 C 4.3125 -1.25 3.71875 -1.484375 2.90625 -1.484375 L 1.6875 -1.484375 C 1.390625 -1.484375 1.25 -1.578125 1.25 -1.8125 C 1.25 -1.953125 1.34375 -2.0625 1.453125 -2.171875 C 1.6875 -2.09375 1.9375 -2.046875 2.21875 -2.046875 C 3.140625 -2.046875 3.875 -2.515625 3.875 -3.46875 L 3.875 -3.484375 C 3.875 -3.828125 3.765625 -4.09375 3.5625 -4.296875 L 4.359375 -4.296875 L 4.359375 -4.8125 L 2.84375 -4.8125 C 2.65625 -4.859375 2.453125 -4.890625 2.21875 -4.890625 C 1.25 -4.890625 0.546875 -4.375 0.546875 -3.453125 L 0.546875 -3.4375 C 0.546875 -2.90625 0.765625 -2.5625 1.109375 -2.328125 C 0.765625 -2.078125 0.609375 -1.875 0.609375 -1.59375 C 0.609375 -1.3125 0.796875 -1.125 1.046875 -1.046875 L 1.046875 -1 C 0.59375 -0.84375 0.21875 -0.578125 0.21875 -0.09375 C 0.21875 0.546875 0.84375 0.9375 2.203125 0.9375 Z M 2.1875 0.40625 C 1.3125 0.40625 0.921875 0.203125 0.921875 -0.1875 C 0.921875 -0.5625 1.1875 -0.765625 1.53125 -0.875 L 2.8125 -0.875 C 3.390625 -0.875 3.609375 -0.734375 3.609375 -0.328125 C 3.609375 0.140625 3.21875 0.40625 2.1875 0.40625 Z M 2.21875 -2.578125 C 1.625 -2.578125 1.234375 -2.875 1.234375 -3.453125 L 1.234375 -3.5 C 1.234375 -4.046875 1.609375 -4.375 2.21875 -4.375 C 2.8125 -4.375 3.1875 -4.09375 3.1875 -3.484375 L 3.1875 -3.4375 C 3.1875 -2.875 2.828125 -2.578125 2.21875 -2.578125 Z M 2.21875 -2.578125 "/>
</g>
<g id="glyph-2-0">
<path d="M 4.328125 -6.46875 L 0.65625 -6.46875 L 0.65625 -5.5 L 3.078125 -5.5 C 3.0625 -5.171875 3.03125 -4.875 2.96875 -4.578125 C 2.078125 -4.53125 1.171875 -4.484375 0.265625 -4.421875 C 0.328125 -4.09375 0.359375 -3.75 0.421875 -3.421875 L 2.6875 -3.65625 C 2.25 -2.65625 1.421875 -1.890625 0.203125 -1.34375 C 0.421875 -1.046875 0.640625 -0.71875 0.859375 -0.421875 C 3.5625 -1.828125 4.328125 -3.734375 4.328125 -6.46875 Z M 6.875 0.703125 L 6.875 -7.25 L 5.6875 -7.25 L 5.6875 -4.234375 L 4.296875 -4.234375 L 4.296875 -3.21875 L 5.6875 -3.21875 L 5.6875 0.703125 Z M 6.875 0.703125 "/>
</g>
<g id="glyph-2-1">
<path d="M 7.03125 0.609375 L 7.03125 -0.3125 L 2.8125 -0.3125 L 2.8125 -0.703125 L 6.875 -0.703125 L 6.875 -2.890625 L 1.609375 -2.890625 L 1.609375 -1.953125 L 5.6875 -1.953125 L 5.6875 -1.53125 L 1.609375 -1.53125 L 1.609375 0.609375 Z M 4.921875 -3.671875 C 4.875 -3.984375 4.828125 -4.296875 4.78125 -4.609375 C 3.859375 -4.421875 2.703125 -4.3125 1.953125 -4.3125 L 1.796875 -4.3125 L 1.796875 -6.921875 L 0.625 -6.921875 L 0.625 -3.3125 L 1.28125 -3.3125 C 2.21875 -3.3125 3.859375 -3.421875 4.921875 -3.671875 Z M 6.875 -3.28125 L 6.875 -7.25 L 5.671875 -7.25 L 5.671875 -6.15625 L 3.765625 -6.15625 L 3.765625 -5.171875 L 5.671875 -5.171875 L 5.671875 -3.28125 Z M 6.875 -3.28125 "/>
</g>
<g id="glyph-2-2">
<path d="M 1.78125 -0.359375 L 3 -0.359375 L 4.671875 -5 L 3.546875 -5 L 2.453125 -1.765625 L 2.421875 -1.765625 L 1.359375 -5 L 0.125 -5 Z M 1.78125 -0.359375 "/>
</g>
<g id="glyph-2-3">
<path d="M 2.609375 -0.28125 C 3.421875 -0.28125 3.953125 -0.5 4.28125 -0.71875 L 4.28125 -1.484375 C 3.890625 -1.3125 3.453125 -1.1875 2.875 -1.1875 C 2.03125 -1.1875 1.5625 -1.46875 1.46875 -2.375 L 4.4375 -2.375 L 4.4375 -2.796875 C 4.4375 -4.28125 3.859375 -5.078125 2.453125 -5.078125 C 1.203125 -5.078125 0.28125 -4.265625 0.28125 -2.75 L 0.28125 -2.625 C 0.28125 -1.140625 1.046875 -0.28125 2.609375 -0.28125 Z M 2.421875 -4.25 C 3 -4.25 3.28125 -3.9375 3.28125 -3.125 L 1.46875 -3.125 C 1.53125 -4 2 -4.25 2.421875 -4.25 Z M 2.421875 -4.25 "/>
</g>
<g id="glyph-2-4">
<path d="M 0.515625 -0.359375 L 1.6875 -0.359375 L 1.6875 -3.71875 C 1.96875 -3.890625 2.375 -4 2.78125 -4 C 2.90625 -4 3.0625 -3.984375 3.15625 -3.96875 L 3.15625 -5 C 3.125 -5.03125 3.015625 -5.046875 2.890625 -5.046875 C 2.390625 -5.046875 1.9375 -4.796875 1.6875 -4.453125 L 1.640625 -4.453125 L 1.640625 -5 L 0.515625 -5 Z M 0.515625 -0.359375 "/>
</g>
<g id="glyph-2-5">
<path d="M 0.546875 -0.359375 L 1.71875 -0.359375 L 1.71875 -5 L 0.546875 -5 Z M 0.53125 -5.6875 L 1.734375 -5.6875 L 1.734375 -6.6875 L 0.53125 -6.6875 Z M 0.53125 -5.6875 "/>
</g>
<g id="glyph-2-6">
<path d="M 0.796875 -0.359375 L 1.96875 -0.359375 L 1.96875 -4.125 L 2.96875 -4.125 L 2.96875 -5 L 1.96875 -5 L 1.96875 -5.421875 C 1.96875 -5.90625 2.21875 -6.125 2.6875 -6.125 C 2.9375 -6.125 3.140625 -6.09375 3.265625 -6.0625 L 3.265625 -6.828125 C 3.09375 -6.90625 2.78125 -6.96875 2.34375 -6.96875 C 1.453125 -6.96875 0.796875 -6.53125 0.796875 -5.546875 L 0.796875 -5 L 0.171875 -5 L 0.171875 -4.125 L 0.796875 -4.125 Z M 0.796875 -0.359375 "/>
</g>
<g id="glyph-2-7">
<path d="M 0.625 -0.359375 L 1.890625 -0.359375 L 1.890625 -3.03125 L 4.3125 -3.03125 L 4.3125 -0.359375 L 5.59375 -0.359375 L 5.59375 -6.5 L 4.3125 -6.5 L 4.3125 -4 L 1.890625 -4 L 1.890625 -6.5 L 0.625 -6.5 Z M 0.625 -0.359375 "/>
</g>
<g id="glyph-2-8">
<path d="M 2.515625 -0.28125 C 3.828125 -0.28125 4.75 -1.125 4.75 -2.640625 L 4.75 -2.765625 C 4.75 -4.25 3.953125 -5.078125 2.515625 -5.078125 C 1.203125 -5.078125 0.28125 -4.234375 0.28125 -2.71875 L 0.28125 -2.59375 C 0.28125 -1.140625 1.0625 -0.28125 2.515625 -0.28125 Z M 2.53125 -1.140625 C 1.9375 -1.140625 1.484375 -1.453125 1.484375 -2.59375 L 1.484375 -2.796875 C 1.484375 -3.796875 1.859375 -4.21875 2.5 -4.21875 C 3.09375 -4.21875 3.546875 -3.9375 3.546875 -2.765625 L 3.546875 -2.546875 C 3.546875 -1.578125 3.171875 -1.140625 2.53125 -1.140625 Z M 2.53125 -1.140625 "/>
</g>
<g id="glyph-2-9">
<path d="M 0.515625 -0.359375 L 1.6875 -0.359375 L 1.6875 -6.90625 L 0.515625 -6.90625 Z M 3.296875 -0.359375 L 4.5625 -0.359375 C 3.90625 -1.359375 3.578125 -1.84375 2.921875 -2.84375 L 4.453125 -4.984375 L 3.265625 -4.984375 C 2.640625 -4.109375 2.3125 -3.671875 1.703125 -2.765625 C 2.328125 -1.796875 2.640625 -1.328125 3.296875 -0.359375 Z M 3.296875 -0.359375 "/>
</g>
<g id="glyph-2-10">
<path d="M 6.875 -3.15625 L 6.875 -7.25 L 5.6875 -7.25 L 5.6875 -3.15625 Z M 7.078125 0.640625 L 7.078125 -0.28125 L 2.703125 -0.28125 L 2.703125 -0.671875 L 6.875 -0.671875 L 6.875 -2.859375 L 1.5 -2.859375 L 1.5 -1.90625 L 5.703125 -1.90625 L 5.703125 -1.53125 L 1.515625 -1.53125 L 1.515625 0.640625 Z M 5.125 -4.265625 C 4.125 -4.609375 3.359375 -5.3125 3.359375 -6.59375 L 3.359375 -6.9375 L 2.140625 -6.9375 L 2.140625 -6.53125 C 2.140625 -5.359375 1.453125 -4.4375 0.265625 -4.015625 L 0.859375 -3.09375 C 1.625 -3.328125 2.53125 -4.109375 2.765625 -4.84375 C 3.0625 -4.171875 3.875 -3.53125 4.5 -3.3125 Z M 5.125 -4.265625 "/>
</g>
<g id="glyph-2-11">
<path d="M 7.09375 -0.640625 C 7.09375 -1.453125 6.015625 -2.015625 4.234375 -2.015625 C 2.484375 -2.015625 1.40625 -1.453125 1.40625 -0.640625 C 1.40625 0.203125 2.484375 0.734375 4.234375 0.734375 C 6.015625 0.734375 7.09375 0.203125 7.09375 -0.640625 Z M 7.0625 -1.96875 L 7.0625 -7.25 L 5.953125 -7.25 L 5.953125 -5.046875 L 5.421875 -5.046875 L 5.421875 -7.109375 L 4.34375 -7.109375 L 4.34375 -2.21875 L 5.421875 -2.21875 L 5.421875 -4.078125 L 5.953125 -4.078125 L 5.953125 -1.96875 Z M 3.984375 -3.421875 C 3.984375 -4.109375 3.3125 -4.65625 2.21875 -4.65625 C 1.15625 -4.65625 0.484375 -4.109375 0.484375 -3.421875 C 0.484375 -2.71875 1.15625 -2.140625 2.21875 -2.140625 C 3.3125 -2.140625 3.984375 -2.71875 3.984375 -3.421875 Z M 0.234375 -4.84375 L 4.015625 -4.84375 L 4.015625 -5.734375 L 0.234375 -5.734375 Z M 5.84375 -0.640625 C 5.84375 -0.34375 5.234375 -0.15625 4.234375 -0.15625 C 3.28125 -0.15625 2.65625 -0.34375 2.65625 -0.640625 C 2.65625 -0.90625 3.28125 -1.125 4.234375 -1.125 C 5.234375 -1.125 5.84375 -0.90625 5.84375 -0.640625 Z M 1.15625 -6.0625 L 3.296875 -6.0625 L 3.296875 -6.9375 L 1.15625 -6.9375 Z M 2.90625 -3.421875 C 2.90625 -3.203125 2.6875 -2.953125 2.21875 -2.953125 C 1.78125 -2.953125 1.5625 -3.203125 1.5625 -3.421875 C 1.5625 -3.59375 1.78125 -3.859375 2.21875 -3.859375 C 2.6875 -3.859375 2.90625 -3.59375 2.90625 -3.421875 Z M 2.90625 -3.421875 "/>
</g>
<g id="glyph-2-12">
<path d="M 0.515625 0.953125 L 1.6875 0.953125 L 1.6875 -0.53125 C 1.890625 -0.40625 2.234375 -0.28125 2.71875 -0.28125 C 3.984375 -0.28125 4.828125 -0.953125 4.828125 -2.71875 L 4.828125 -2.828125 C 4.828125 -4.53125 3.96875 -5.078125 3.015625 -5.078125 C 2.4375 -5.078125 1.96875 -4.890625 1.6875 -4.59375 L 1.640625 -4.59375 L 1.640625 -5 L 0.515625 -5 Z M 2.546875 -1.140625 C 2.171875 -1.140625 1.84375 -1.265625 1.6875 -1.375 L 1.6875 -3.890625 C 1.859375 -4.015625 2.171875 -4.140625 2.59375 -4.140625 C 3.25 -4.140625 3.625 -3.859375 3.625 -2.75 L 3.625 -2.578125 C 3.625 -1.484375 3.21875 -1.140625 2.546875 -1.140625 Z M 2.546875 -1.140625 "/>
</g>
<g id="glyph-2-13">
<path d="M 2.390625 -0.265625 C 3.984375 -0.265625 4.828125 -1.0625 4.828125 -2.75 L 4.828125 -2.859375 C 4.828125 -4.5625 3.953125 -5.078125 3.078125 -5.078125 C 2.46875 -5.078125 2.0625 -4.921875 1.75 -4.6875 L 1.6875 -4.6875 L 1.6875 -6.90625 L 0.515625 -6.90625 L 0.515625 -0.546875 C 0.96875 -0.390625 1.71875 -0.265625 2.390625 -0.265625 Z M 2.453125 -1.140625 C 2.09375 -1.140625 1.84375 -1.203125 1.6875 -1.265625 L 1.6875 -3.9375 C 1.875 -4.015625 2.1875 -4.140625 2.53125 -4.140625 C 3.28125 -4.140625 3.625 -3.828125 3.625 -2.75 L 3.625 -2.578125 C 3.625 -1.453125 3.078125 -1.140625 2.453125 -1.140625 Z M 2.453125 -1.140625 "/>
</g>
<g id="glyph-2-14">
<path d="M -0.03125 0.5625 L 1 0.5625 L 3.15625 -7.03125 L 2.125 -7.03125 Z M -0.03125 0.5625 "/>
</g>
<g id="glyph-2-15">
<path d="M 2.15625 -0.3125 C 2.609375 -0.3125 2.890625 -0.40625 3.0625 -0.5 L 3.0625 -1.28125 C 2.921875 -1.234375 2.71875 -1.203125 2.5625 -1.203125 C 2.125 -1.203125 1.953125 -1.34375 1.953125 -1.734375 L 1.953125 -4.125 L 3.015625 -4.125 L 3.015625 -5 L 1.953125 -5 L 1.953125 -6.09375 L 0.796875 -6.09375 L 0.796875 -5 L 0.171875 -5 L 0.171875 -4.125 L 0.796875 -4.125 L 0.796875 -1.546875 C 0.796875 -0.625 1.3125 -0.3125 2.15625 -0.3125 Z M 2.15625 -0.3125 "/>
</g>
<g id="glyph-2-16">
<path d="M 1.703125 -0.28125 C 2.28125 -0.28125 2.6875 -0.46875 2.890625 -0.734375 L 2.9375 -0.734375 L 3.03125 -0.359375 L 3.984375 -0.359375 L 3.984375 -3.6875 C 3.984375 -4.6875 3.359375 -5.078125 2.265625 -5.078125 C 1.625 -5.078125 1.09375 -4.984375 0.640625 -4.828125 L 0.640625 -4 C 0.953125 -4.09375 1.359375 -4.140625 1.8125 -4.140625 C 2.578125 -4.140625 2.828125 -4.015625 2.828125 -3.4375 L 2.828125 -3.125 L 1.8125 -3 C 0.859375 -2.875 0.265625 -2.46875 0.265625 -1.59375 C 0.265625 -0.703125 0.859375 -0.28125 1.703125 -0.28125 Z M 2.078125 -1.078125 C 1.6875 -1.078125 1.40625 -1.265625 1.40625 -1.6875 C 1.40625 -2.125 1.625 -2.28125 2.0625 -2.328125 L 2.828125 -2.40625 L 2.828125 -1.328125 C 2.6875 -1.1875 2.375 -1.078125 2.078125 -1.078125 Z M 2.078125 -1.078125 "/>
</g>
<g id="glyph-2-17">
<path d="M 2.515625 -0.28125 C 3.171875 -0.28125 3.609375 -0.453125 3.890625 -0.640625 L 3.890625 -1.484375 C 3.671875 -1.375 3.28125 -1.203125 2.734375 -1.203125 C 1.890625 -1.203125 1.5 -1.625 1.5 -2.640625 L 1.5 -2.828125 C 1.5 -3.734375 1.953125 -4.15625 2.703125 -4.15625 C 3.234375 -4.15625 3.5 -4.0625 3.859375 -3.921875 L 3.859375 -4.8125 C 3.5625 -4.984375 3.1875 -5.078125 2.59375 -5.078125 C 1.21875 -5.078125 0.28125 -4.3125 0.28125 -2.71875 L 0.28125 -2.578125 C 0.28125 -1.0625 1.09375 -0.28125 2.515625 -0.28125 Z M 2.515625 -0.28125 "/>
</g>
<g id="glyph-2-18">
<path d="M 0.515625 -0.359375 L 1.6875 -0.359375 L 1.6875 -3.90625 C 1.953125 -4.015625 2.3125 -4.140625 2.640625 -4.140625 C 3.203125 -4.140625 3.375 -3.953125 3.375 -3.515625 L 3.375 -0.359375 L 4.546875 -0.359375 L 4.546875 -3.796875 C 4.546875 -4.71875 4.078125 -5.078125 3.203125 -5.078125 C 2.625 -5.078125 2.078125 -4.875 1.6875 -4.578125 L 1.640625 -4.578125 L 1.640625 -5 L 0.515625 -5 Z M 0.515625 -0.359375 "/>
</g>
<g id="glyph-2-19">
<path d="M 0.171875 -0.359375 L 1.46875 -0.359375 L 2.8125 -2.671875 L 2.84375 -2.671875 L 4.203125 -0.359375 L 5.625 -0.359375 L 3.75 -3.53125 L 5.5 -6.5 L 4.234375 -6.5 L 3.015625 -4.328125 L 3 -4.328125 L 1.71875 -6.5 L 0.3125 -6.5 L 2.09375 -3.515625 Z M 0.171875 -0.359375 "/>
</g>
<g id="glyph-2-20">
<path d="M 0.625 -0.359375 L 2.734375 -0.359375 C 4.6875 -0.359375 5.703125 -1.40625 5.703125 -3.40625 L 5.703125 -3.578125 C 5.703125 -5.609375 4.625 -6.5 2.71875 -6.5 L 0.625 -6.5 Z M 1.890625 -1.34375 L 1.890625 -5.546875 L 2.65625 -5.546875 C 3.75 -5.546875 4.359375 -5.09375 4.359375 -3.609375 L 4.359375 -3.296875 C 4.359375 -1.875 3.859375 -1.34375 2.734375 -1.34375 Z M 1.890625 -1.34375 "/>
</g>
<g id="glyph-2-21">
<path d="M 0.625 -0.359375 L 1.890625 -0.359375 L 1.890625 -2.59375 L 2.953125 -2.59375 C 4.296875 -2.59375 5.125 -3.328125 5.125 -4.625 C 5.125 -5.859375 4.390625 -6.5 2.890625 -6.5 L 0.625 -6.5 Z M 1.890625 -3.515625 L 1.890625 -5.546875 L 2.75 -5.546875 C 3.484375 -5.546875 3.796875 -5.34375 3.796875 -4.578125 C 3.796875 -3.875 3.5 -3.515625 2.71875 -3.515625 Z M 1.890625 -3.515625 "/>
</g>
<g id="glyph-2-22">
<path d="M 0.53125 -0.15625 L 1.734375 -0.15625 L 1.734375 -1.3125 L 0.53125 -1.3125 Z M 0.53125 -0.15625 "/>
</g>
<g id="glyph-3-0">
<path d="M 5.359375 -4.0625 L 5.359375 -2.359375 L 5.96875 -2.359375 L 5.96875 -6.375 L 5.359375 -6.375 L 5.359375 -4.578125 L 3.84375 -4.578125 L 3.84375 -4.0625 Z M 5.96875 0.453125 L 5.96875 -2 L 1.5 -2 L 1.5 0.453125 Z M 5.359375 -0.046875 L 2.109375 -0.046875 L 2.109375 -1.5 L 5.359375 -1.5 Z M 0.703125 -5.90625 L 0.703125 -5.390625 L 3.15625 -5.390625 C 2.953125 -4.1875 1.75 -3.15625 0.359375 -2.828125 L 0.671875 -2.328125 C 2.453125 -2.890625 3.703125 -4.0625 3.8125 -5.90625 Z M 0.703125 -5.90625 "/>
</g>
<g id="glyph-3-1">
<path d="M 5.859375 -0.734375 C 5.859375 -1.515625 4.984375 -1.9375 3.421875 -1.9375 C 1.875 -1.9375 1.015625 -1.484375 1.015625 -0.734375 C 1.015625 0.046875 1.875 0.484375 3.421875 0.484375 C 4.984375 0.484375 5.859375 0.046875 5.859375 -0.734375 Z M 6.25 -4.015625 C 5.28125 -4.09375 3.96875 -4.65625 3.78125 -5.5 L 6 -5.5 L 6 -6 L 0.875 -6 L 0.875 -5.5 L 3.109375 -5.5 C 2.921875 -4.671875 1.71875 -4.109375 0.625 -4 L 0.90625 -3.5 C 2.125 -3.671875 3.15625 -4.296875 3.421875 -4.921875 C 3.78125 -4.296875 4.8125 -3.6875 5.984375 -3.5 Z M 3.421875 -1.4375 C 4.5625 -1.4375 5.25 -1.1875 5.25 -0.734375 C 5.25 -0.265625 4.5625 -0.015625 3.421875 -0.015625 C 2.3125 -0.015625 1.625 -0.265625 1.625 -0.734375 C 1.625 -1.1875 2.3125 -1.4375 3.421875 -1.4375 Z M 6.5625 -2.515625 L 6.5625 -3.015625 L 0.296875 -3.015625 L 0.296875 -2.515625 Z M 6.5625 -2.515625 "/>
</g>
<g id="glyph-3-2">
<path d="M 5.828125 -3.34375 L 5.828125 -3.828125 L 1.65625 -3.828125 L 1.65625 -4.515625 L 5.65625 -4.515625 L 5.65625 -4.96875 L 1.65625 -4.96875 L 1.65625 -5.609375 L 5.78125 -5.609375 L 5.78125 -6.09375 L 1.0625 -6.09375 L 1.0625 -3.34375 L 3.125 -3.34375 L 3.125 -2.6875 L 0.296875 -2.6875 L 0.296875 -2.1875 L 6.5625 -2.1875 L 6.5625 -2.6875 L 3.734375 -2.6875 L 3.734375 -3.34375 Z M 5.859375 -0.59375 C 5.859375 -1.359375 5.015625 -1.765625 3.421875 -1.765625 C 1.84375 -1.765625 1.015625 -1.3125 1.015625 -0.59375 C 1.015625 0.140625 1.84375 0.578125 3.421875 0.578125 C 5.015625 0.578125 5.859375 0.15625 5.859375 -0.59375 Z M 3.421875 -1.28125 C 4.5625 -1.28125 5.25 -1.03125 5.25 -0.59375 C 5.25 -0.171875 4.5625 0.078125 3.421875 0.078125 C 2.3125 0.078125 1.625 -0.171875 1.625 -0.59375 C 1.625 -1.03125 2.3125 -1.28125 3.421875 -1.28125 Z M 3.421875 -1.28125 "/>
</g>
<g id="glyph-3-3">
<path d="M 6.796875 -2.96875 L 6.796875 -3.484375 L 5.671875 -3.484375 L 5.671875 -6.375 L 5.078125 -6.375 L 5.078125 0.5625 L 5.671875 0.5625 L 5.671875 -2.96875 Z M 4.671875 -1.203125 L 4.625 -1.703125 C 4.015625 -1.609375 3.140625 -1.546875 2.296875 -1.5 L 2.296875 -3.671875 L 1.6875 -3.671875 L 1.6875 -1.484375 C 1.171875 -1.46875 0.5625 -1.46875 0.171875 -1.46875 L 0.265625 -0.9375 C 0.84375 -0.9375 1.609375 -0.96875 2.3125 -1 C 2.984375 -1.046875 4.015625 -1.109375 4.671875 -1.203125 Z M 4.15625 -5.65625 L 0.53125 -5.65625 L 0.53125 -5.140625 L 3.546875 -5.140625 C 3.578125 -4.359375 3.484375 -3.21875 3.328125 -2.546875 L 3.90625 -2.46875 C 4.0625 -3.140625 4.171875 -4.59375 4.15625 -5.65625 Z M 4.15625 -5.65625 "/>
</g>
<g id="glyph-3-4">
<path d="M 0.53125 -3.5 L 3.6875 -3.5 L 3.6875 -4 L 0.53125 -4 Z M 0.53125 -1.90625 L 3.6875 -1.90625 L 3.6875 -2.421875 L 0.53125 -2.421875 Z M 0.53125 -1.90625 "/>
</g>
<g id="glyph-3-5">
<path d="M 3.8125 -5.671875 L 0.625 -5.671875 L 0.625 -5.171875 L 3.1875 -5.171875 C 3.171875 -4.75 3.09375 -4.359375 2.984375 -4 L 0.3125 -3.84375 L 0.4375 -3.296875 L 2.796875 -3.5 C 2.296875 -2.46875 1.421875 -1.6875 0.28125 -1.203125 L 0.671875 -0.734375 C 2.578125 -1.65625 3.796875 -3.15625 3.8125 -5.671875 Z M 5.359375 -3.140625 L 5.359375 0.5625 L 5.96875 0.5625 L 5.96875 -6.375 L 5.359375 -6.375 L 5.359375 -3.65625 L 3.796875 -3.65625 L 3.796875 -3.140625 Z M 5.359375 -3.140625 "/>
</g>
<g id="glyph-3-6">
<path d="M 5.96875 -2.78125 L 5.96875 -6.375 L 5.359375 -6.375 L 5.359375 -5.171875 L 3.25 -5.171875 L 3.25 -4.671875 L 5.359375 -4.671875 L 5.359375 -2.78125 Z M 6.234375 0.5 L 6.234375 0 L 2.078125 0 L 2.078125 -0.75 L 5.984375 -0.75 L 5.984375 -2.421875 L 1.453125 -2.421875 L 1.453125 -1.921875 L 5.375 -1.921875 L 5.375 -1.21875 L 1.46875 -1.21875 L 1.46875 0.5 Z M 4.328125 -3.84375 C 3.546875 -3.6875 2.21875 -3.546875 1.28125 -3.5625 L 1.28125 -6 L 0.6875 -6 L 0.6875 -3.046875 L 1.203125 -3.046875 C 2.109375 -3.046875 3.671875 -3.1875 4.40625 -3.34375 Z M 4.328125 -3.84375 "/>
</g>
<g id="glyph-3-7">
<path d="M 2.15625 -0.265625 C 2.703125 -0.265625 3.046875 -0.421875 3.296875 -0.578125 L 3.296875 -1.0625 C 3.109375 -0.953125 2.75 -0.78125 2.21875 -0.78125 C 1.375 -0.78125 0.953125 -1.234375 0.953125 -2.25 L 0.953125 -2.4375 C 0.953125 -3.34375 1.421875 -3.828125 2.140625 -3.828125 C 2.65625 -3.828125 2.90625 -3.734375 3.265625 -3.578125 L 3.265625 -4.078125 C 3 -4.25 2.6875 -4.34375 2.171875 -4.34375 C 1.15625 -4.34375 0.328125 -3.734375 0.328125 -2.34375 L 0.328125 -2.21875 C 0.328125 -0.921875 1.03125 -0.265625 2.15625 -0.265625 Z M 2.15625 -0.265625 "/>
</g>
<g id="glyph-3-8">
<path d="M 0.578125 -0.328125 L 1.1875 -0.328125 L 1.1875 -3.421875 C 1.46875 -3.625 1.84375 -3.765625 2.25 -3.765625 C 2.3125 -3.765625 2.421875 -3.765625 2.53125 -3.75 L 2.53125 -4.296875 C 2.5 -4.296875 2.375 -4.3125 2.296875 -4.3125 C 1.84375 -4.3125 1.421875 -4.078125 1.203125 -3.828125 L 1.15625 -3.828125 L 1.15625 -4.265625 L 0.578125 -4.265625 Z M 0.578125 -0.328125 "/>
</g>
<g id="glyph-3-9">
<path d="M 1.546875 -0.265625 C 2.078125 -0.265625 2.40625 -0.453125 2.59375 -0.671875 L 2.625 -0.671875 L 2.6875 -0.328125 L 3.1875 -0.328125 L 3.1875 -3.1875 C 3.1875 -3.984375 2.703125 -4.34375 1.828125 -4.34375 C 1.375 -4.34375 1 -4.265625 0.65625 -4.125 L 0.65625 -3.6875 C 0.90625 -3.765625 1.21875 -3.8125 1.59375 -3.8125 C 2.296875 -3.8125 2.578125 -3.65625 2.578125 -3.046875 L 2.578125 -2.640625 L 1.515625 -2.515625 C 0.75 -2.421875 0.3125 -2.0625 0.3125 -1.359375 C 0.3125 -0.625 0.828125 -0.265625 1.546875 -0.265625 Z M 1.6875 -0.734375 C 1.234375 -0.734375 0.9375 -0.953125 0.9375 -1.375 C 0.9375 -1.828125 1.1875 -2.03125 1.671875 -2.078125 L 2.578125 -2.1875 L 2.578125 -1.03125 C 2.40625 -0.859375 2.0625 -0.734375 1.6875 -0.734375 Z M 1.6875 -0.734375 "/>
</g>
<g id="glyph-3-10">
<path d="M 1.578125 -0.265625 C 2.4375 -0.265625 2.96875 -0.6875 2.96875 -1.421875 C 2.96875 -2.109375 2.65625 -2.359375 1.90625 -2.5625 L 1.515625 -2.671875 C 1.09375 -2.796875 0.921875 -2.9375 0.921875 -3.28125 C 0.921875 -3.640625 1.1875 -3.828125 1.71875 -3.828125 C 2.15625 -3.828125 2.546875 -3.71875 2.75 -3.625 L 2.75 -4.109375 C 2.546875 -4.21875 2.203125 -4.34375 1.6875 -4.34375 C 0.78125 -4.34375 0.34375 -3.890625 0.34375 -3.21875 C 0.34375 -2.5625 0.734375 -2.296875 1.296875 -2.140625 L 1.6875 -2.03125 C 2.1875 -1.890625 2.375 -1.734375 2.375 -1.359375 C 2.375 -1.015625 2.125 -0.78125 1.5 -0.78125 C 0.9375 -0.78125 0.65625 -0.90625 0.3125 -1.03125 L 0.3125 -0.546875 C 0.640625 -0.359375 1.0625 -0.265625 1.578125 -0.265625 Z M 1.578125 -0.265625 "/>
</g>
<g id="glyph-3-11">
<path d="M 0.578125 -0.328125 L 1.1875 -0.328125 L 1.1875 -3.53125 C 1.515625 -3.6875 1.921875 -3.8125 2.296875 -3.8125 C 2.921875 -3.8125 3.09375 -3.625 3.09375 -3.140625 L 3.09375 -0.328125 L 3.6875 -0.328125 L 3.6875 -3.265625 C 3.6875 -4.03125 3.3125 -4.34375 2.546875 -4.34375 C 2.0625 -4.34375 1.5625 -4.171875 1.21875 -3.921875 L 1.1875 -3.921875 L 1.1875 -6.015625 L 0.578125 -6.015625 Z M 0.578125 -0.328125 "/>
</g>
<g id="glyph-3-12">
<path d="M 6.046875 0.4375 L 6.046875 -0.0625 L 1.65625 -0.0625 L 1.65625 -0.640625 L 5.78125 -0.640625 L 5.78125 -2.15625 L 3.71875 -2.15625 L 3.71875 -2.8125 L 6.5625 -2.8125 L 6.5625 -3.3125 L 0.296875 -3.3125 L 0.296875 -2.8125 L 3.125 -2.8125 L 3.125 -2.15625 L 1.03125 -2.15625 L 1.03125 -1.671875 L 5.1875 -1.671875 L 5.1875 -1.109375 L 1.0625 -1.109375 L 1.0625 0.4375 Z M 5.78125 -3.8125 L 5.78125 -6.203125 L 5.171875 -6.203125 L 5.171875 -5.484375 L 1.703125 -5.484375 L 1.703125 -6.203125 L 1.09375 -6.203125 L 1.09375 -3.8125 Z M 5.171875 -4.296875 L 1.703125 -4.296875 L 1.703125 -5 L 5.171875 -5 Z M 5.171875 -4.296875 "/>
</g>
<g id="glyph-3-13">
<path d="M 5.640625 -6.375 L 5.03125 -6.375 L 5.03125 0.5625 L 5.640625 0.5625 L 5.640625 -2.96875 L 6.765625 -2.96875 L 6.765625 -3.5 L 5.640625 -3.5 Z M 3.828125 -5.640625 L 0.578125 -5.640625 L 0.578125 -5.125 L 3.1875 -5.125 C 3.0625 -3.5625 2.0625 -2.109375 0.328125 -1.296875 L 0.703125 -0.828125 C 2.5 -1.75 3.796875 -3.375 3.828125 -5.640625 Z M 3.828125 -5.640625 "/>
</g>
</g>
</defs>
<g fill="rgb(0%, 0%, 0%)" fill-opacity="1">
<use xlink:href="#glyph-0-0" x="42.165358" y="22.617129"/>
<use xlink:href="#glyph-0-1" x="48.469827" y="22.617129"/>
<use xlink:href="#glyph-0-2" x="55.846889" y="22.617129"/>
<use xlink:href="#glyph-0-3" x="62.97368" y="22.617129"/>
</g>
<g fill="rgb(0%, 0%, 0%)" fill-opacity="1">
<use xlink:href="#glyph-0-4" x="72.519765" y="22.617129"/>
</g>
<g fill="rgb(0%, 0%, 0%)" fill-opacity="1">
<use xlink:href="#glyph-0-5" x="79.157929" y="22.617129"/>
<use xlink:href="#glyph-0-0" x="85.438563" y="22.617129"/>
<use xlink:href="#glyph-0-6" x="91.743031" y="22.617129"/>
<use xlink:href="#glyph-0-7" x="97.260931" y="22.617129"/>
<use xlink:href="#glyph-0-8" x="103.922931" y="22.617129"/>
<use xlink:href="#glyph-0-9" x="108.344401" y="22.617129"/>
<use xlink:href="#glyph-0-10" x="111.359581" y="22.617129"/>
<use xlink:href="#glyph-0-11" x="118.08117" y="22.617129"/>
</g>
<g fill="rgb(0%, 0%, 0%)" fill-opacity="1">
<use xlink:href="#glyph-0-2" x="127.91328" y="22.617129"/>
<use xlink:href="#glyph-0-9" x="135.040071" y="22.617129"/>
<use xlink:href="#glyph-0-12" x="138.055251" y="22.617129"/>
<use xlink:href="#glyph-0-0" x="144.884099" y="22.617129"/>
<use xlink:href="#glyph-0-13" x="151.188568" y="22.617129"/>
<use xlink:href="#glyph-0-9" x="154.203748" y="22.617129"/>
<use xlink:href="#glyph-0-11" x="157.218929" y="22.617129"/>
<use xlink:href="#glyph-0-0" x="163.928599" y="22.617129"/>
</g>
<path fill-rule="nonzero" fill="rgb(93.331909%, 93.331909%, 93.331909%)" fill-opacity="1" stroke-width="0.3985" stroke-linecap="butt" stroke-linejoin="miter" stroke="rgb(66.665649%, 66.665649%, 66.665649%)" stroke-opacity="1" stroke-miterlimit="10" d="M 94.38696 138.898699 L -94.384695 138.898699 C -95.485804 138.898699 -96.379231 138.005272 -96.379231 136.908082 L -96.379231 112.54653 C -96.379231 111.445421 -95.485804 110.551994 -94.384695 110.551994 L 94.38696 110.551994 C 95.488069 110.551994 96.377577 111.445421 96.377577 112.54653 L 96.377577 136.908082 C 96.377577 138.005272 95.488069 138.898699 94.38696 138.898699 Z M 94.38696 138.898699 " transform="matrix(0.996864, 0, 0, -0.996864, 106.205902, 176.892816)"/>
<g fill="rgb(0%, 0%, 0%)" fill-opacity="1">
<use xlink:href="#glyph-1-0" x="85.700408" y="49.231407"/>
<use xlink:href="#glyph-1-1" x="93.432022" y="49.231407"/>
<use xlink:href="#glyph-1-2" x="101.163636" y="49.231407"/>
</g>
<g fill="rgb(0%, 0%, 0%)" fill-opacity="1">
<use xlink:href="#glyph-1-3" x="111.246019" y="49.231407"/>
<use xlink:href="#glyph-1-4" x="118.977633" y="49.231407"/>
</g>
<g fill="rgb(0%, 0%, 0%)" fill-opacity="1">
<use xlink:href="#glyph-1-5" x="55.980898" y="62.122854"/>
<use xlink:href="#glyph-1-6" x="58.814333" y="62.122854"/>
<use xlink:href="#glyph-1-7" x="63.685697" y="62.122854"/>
<use xlink:href="#glyph-1-8" x="68.557061" y="62.122854"/>
</g>
<g fill="rgb(0%, 0%, 0%)" fill-opacity="1">
<use xlink:href="#glyph-1-9" x="71.515633" y="62.122854"/>
<use xlink:href="#glyph-1-10" x="74.644031" y="62.122854"/>
</g>
<g fill="rgb(0%, 0%, 0%)" fill-opacity="1">
<use xlink:href="#glyph-1-11" x="77.647294" y="62.122854"/>
<use xlink:href="#glyph-1-12" x="81.866164" y="62.122854"/>
<use xlink:href="#glyph-1-13" x="85.888391" y="62.122854"/>
</g>
<g fill="rgb(0%, 0%, 0%)" fill-opacity="1">
<use xlink:href="#glyph-1-14" x="92.699362" y="62.122854"/>
</g>
<g fill="rgb(0%, 0%, 0%)" fill-opacity="1">
<use xlink:href="#glyph-1-15" x="102.781744" y="62.122854"/>
</g>
<g fill="rgb(0%, 0%, 0%)" fill-opacity="1">
<use xlink:href="#glyph-1-16" x="112.864127" y="62.122854"/>
<use xlink:href="#glyph-1-17" x="120.595741" y="62.122854"/>
</g>
<g fill="rgb(0%, 0%, 0%)" fill-opacity="1">
<use xlink:href="#glyph-1-18" x="130.678124" y="62.122854"/>
</g>
<g fill="rgb(0%, 0%, 0%)" fill-opacity="1">
<use xlink:href="#glyph-1-3" x="138.132651" y="62.122854"/>
<use xlink:href="#glyph-1-4" x="145.864265" y="62.122854"/>
<use xlink:href="#glyph-1-19" x="153.59588" y="62.122854"/>
</g>
<path fill-rule="nonzero" fill="rgb(86.274719%, 90.979004%, 96.862793%)" fill-opacity="1" stroke-width="0.3985" stroke-linecap="butt" stroke-linejoin="miter" stroke="rgb(28.234863%, 46.273804%, 71.372986%)" stroke-opacity="1" stroke-miterlimit="10" d="M 94.38696 93.545539 L -94.384695 93.545539 C -95.485804 93.545539 -96.379231 92.652112 -96.379231 91.551003 L -96.379231 67.189452 C -96.379231 66.088343 -95.485804 65.198834 -94.384695 65.198834 L 94.38696 65.198834 C 95.488069 65.198834 96.377577 66.088343 96.377577 67.189452 L 96.377577 91.551003 C 96.377577 92.652112 95.488069 93.545539 94.38696 93.545539 Z M 94.38696 93.545539 " transform="matrix(0.996864, 0, 0, -0.996864, 106.205902, 176.892816)"/>
<g fill="rgb(0%, 0%, 0%)" fill-opacity="1">
<use xlink:href="#glyph-1-20" x="90.741549" y="95.588579"/>
<use xlink:href="#glyph-1-21" x="98.473164" y="95.588579"/>
<use xlink:href="#glyph-1-22" x="106.204778" y="95.588579"/>
<use xlink:href="#glyph-1-23" x="113.936392" y="95.588579"/>
</g>
<g fill="rgb(0%, 0%, 0%)" fill-opacity="1">
<use xlink:href="#glyph-1-24" x="73.978283" y="106.513213"/>
</g>
<g fill="rgb(0%, 0%, 0%)" fill-opacity="1">
<use xlink:href="#glyph-1-25" x="82.621602" y="106.513213"/>
<use xlink:href="#glyph-1-26" x="87.859435" y="106.513213"/>
<use xlink:href="#glyph-1-27" x="92.802305" y="106.513213"/>
</g>
<g fill="rgb(0%, 0%, 0%)" fill-opacity="1">
<use xlink:href="#glyph-1-28" x="99.765227" y="106.513213"/>
<use xlink:href="#glyph-1-29" x="107.496841" y="106.513213"/>
<use xlink:href="#glyph-1-30" x="115.228456" y="106.513213"/>
<use xlink:href="#glyph-1-3" x="122.96007" y="106.513213"/>
<use xlink:href="#glyph-1-4" x="130.691684" y="106.513213"/>
</g>
<path fill-rule="nonzero" fill="rgb(87.449646%, 93.331909%, 87.057495%)" fill-opacity="1" stroke-width="0.3985" stroke-linecap="butt" stroke-linejoin="miter" stroke="rgb(38.822937%, 60.392761%, 36.471558%)" stroke-opacity="1" stroke-miterlimit="10" d="M 94.38696 43.936847 L -94.384695 43.936847 C -95.485804 43.936847 -96.379231 43.047339 -96.379231 41.946229 L -96.379231 14.747656 C -96.379231 13.646547 -95.485804 12.757039 -94.384695 12.757039 L 94.38696 12.757039 C 95.488069 12.757039 96.377577 13.646547 96.377577 14.747656 L 96.377577 41.946229 C 96.377577 43.047339 95.488069 43.936847 94.38696 43.936847 Z M 94.38696 43.936847 " transform="matrix(0.996864, 0, 0, -0.996864, 106.205902, 176.892816)"/>
<g fill="rgb(0%, 0%, 0%)" fill-opacity="1">
<use xlink:href="#glyph-2-0" x="83.014856" y="145.424806"/>
<use xlink:href="#glyph-2-1" x="90.74647" y="145.424806"/>
</g>
<g fill="rgb(0%, 0%, 0%)" fill-opacity="1">
<use xlink:href="#glyph-2-2" x="100.819914" y="145.424806"/>
<use xlink:href="#glyph-2-3" x="105.592957" y="145.424806"/>
<use xlink:href="#glyph-2-4" x="110.321308" y="145.424806"/>
<use xlink:href="#glyph-2-5" x="113.655288" y="145.424806"/>
<use xlink:href="#glyph-2-6" x="115.916673" y="145.424806"/>
<use xlink:href="#glyph-2-5" x="119.062949" y="145.424806"/>
<use xlink:href="#glyph-2-3" x="121.324334" y="145.424806"/>
<use xlink:href="#glyph-2-4" x="126.052685" y="145.424806"/>
</g>
<g fill="rgb(0%, 0%, 0%)" fill-opacity="1">
<use xlink:href="#glyph-1-31" x="43.847068" y="158.316253"/>
<use xlink:href="#glyph-1-14" x="51.578682" y="158.316253"/>
</g>
<g fill="rgb(0%, 0%, 0%)" fill-opacity="1">
<use xlink:href="#glyph-1-32" x="61.652126" y="158.316253"/>
<use xlink:href="#glyph-1-33" x="69.383741" y="158.316253"/>
</g>
<g fill="rgb(0%, 0%, 0%)" fill-opacity="1">
<use xlink:href="#glyph-1-34" x="79.466123" y="158.316253"/>
<use xlink:href="#glyph-1-35" x="87.197737" y="158.316253"/>
<use xlink:href="#glyph-1-36" x="94.929352" y="158.316253"/>
</g>
<g fill="rgb(0%, 0%, 0%)" fill-opacity="1">
<use xlink:href="#glyph-1-37" x="99.300172" y="158.316253"/>
<use xlink:href="#glyph-1-38" x="107.031786" y="158.316253"/>
</g>
<g fill="rgb(0%, 0%, 0%)" fill-opacity="1">
<use xlink:href="#glyph-1-39" x="114.772339" y="158.316253"/>
</g>
<g fill="rgb(0%, 0%, 0%)" fill-opacity="1">
<use xlink:href="#glyph-1-40" x="124.854721" y="158.316253"/>
<use xlink:href="#glyph-1-41" x="132.586335" y="158.316253"/>
</g>
<g fill="rgb(0%, 0%, 0%)" fill-opacity="1">
<use xlink:href="#glyph-1-42" x="142.668718" y="158.316253"/>
<use xlink:href="#glyph-1-43" x="150.400332" y="158.316253"/>
<use xlink:href="#glyph-1-36" x="158.131946" y="158.316253"/>
</g>
<g fill="rgb(0%, 0%, 0%)" fill-opacity="1">
<use xlink:href="#glyph-1-44" x="162.502766" y="158.316253"/>
<use xlink:href="#glyph-1-44" x="164.522818" y="158.316253"/>
<use xlink:href="#glyph-1-44" x="166.54287" y="158.316253"/>
</g>
<path fill-rule="nonzero" fill="rgb(86.274719%, 90.979004%, 96.862793%)" fill-opacity="1" stroke-width="0.3985" stroke-linecap="butt" stroke-linejoin="miter" stroke="rgb(28.234863%, 46.273804%, 71.372986%)" stroke-opacity="1" stroke-miterlimit="10" d="M 94.38696 -8.504949 L -94.384695 -8.504949 C -95.485804 -8.504949 -96.379231 -9.394457 -96.379231 -10.495566 L -96.379231 -34.857117 C -96.379231 -35.958227 -95.485804 -36.851653 -94.384695 -36.851653 L 94.38696 -36.851653 C 95.488069 -36.851653 96.377577 -35.958227 96.377577 -34.857117 L 96.377577 -10.495566 C 96.377577 -9.394457 95.488069 -8.504949 94.38696 -8.504949 Z M 94.38696 -8.504949 " transform="matrix(0.996864, 0, 0, -0.996864, 106.205902, 176.892816)"/>
<g fill="rgb(0%, 0%, 0%)" fill-opacity="1">
<use xlink:href="#glyph-1-45" x="83.322887" y="197.11221"/>
<use xlink:href="#glyph-1-46" x="87.094842" y="197.11221"/>
<use xlink:href="#glyph-1-47" x="89.409857" y="197.11221"/>
</g>
<g fill="rgb(0%, 0%, 0%)" fill-opacity="1">
<use xlink:href="#glyph-1-12" x="96.623051" y="197.11221"/>
<use xlink:href="#glyph-1-48" x="100.645278" y="197.11221"/>
<use xlink:href="#glyph-1-49" x="105.418321" y="197.11221"/>
<use xlink:href="#glyph-1-7" x="112.595762" y="197.11221"/>
<use xlink:href="#glyph-1-50" x="117.467125" y="197.11221"/>
<use xlink:href="#glyph-1-51" x="119.496116" y="197.11221"/>
<use xlink:href="#glyph-1-13" x="121.525106" y="197.11221"/>
<use xlink:href="#glyph-1-10" x="125.994247" y="197.11221"/>
</g>
<g fill="rgb(0%, 0%, 0%)" fill-opacity="1">
<use xlink:href="#glyph-1-24" x="56.450421" y="208.036844"/>
</g>
<g fill="rgb(0%, 0%, 0%)" fill-opacity="1">
<use xlink:href="#glyph-1-52" x="65.09374" y="208.036844"/>
<use xlink:href="#glyph-1-29" x="72.825354" y="208.036844"/>
<use xlink:href="#glyph-1-53" x="80.556968" y="208.036844"/>
<use xlink:href="#glyph-1-54" x="88.288583" y="208.036844"/>
</g>
<g fill="rgb(0%, 0%, 0%)" fill-opacity="1">
<use xlink:href="#glyph-1-55" x="98.370965" y="208.036844"/>
<use xlink:href="#glyph-1-56" x="102.634526" y="208.036844"/>
<use xlink:href="#glyph-1-57" x="107.774038" y="208.036844"/>
</g>
<g fill="rgb(0%, 0%, 0%)" fill-opacity="1">
<use xlink:href="#glyph-1-58" x="115.076615" y="208.036844"/>
</g>
<g fill="rgb(0%, 0%, 0%)" fill-opacity="1">
<use xlink:href="#glyph-1-59" x="120.448523" y="208.036844"/>
</g>
<g fill="rgb(0%, 0%, 0%)" fill-opacity="1">
<use xlink:href="#glyph-1-60" x="125.865122" y="208.036844"/>
<use xlink:href="#glyph-1-61" x="131.031449" y="208.036844"/>
</g>
<g fill="rgb(0%, 0%, 0%)" fill-opacity="1">
<use xlink:href="#glyph-1-3" x="140.49709" y="208.036844"/>
<use xlink:href="#glyph-1-4" x="148.228704" y="208.036844"/>
</g>
<path fill-rule="nonzero" fill="rgb(99.215698%, 87.841797%, 78.431702%)" fill-opacity="1" stroke-width="0.3985" stroke-linecap="butt" stroke-linejoin="miter" stroke="rgb(82.351685%, 52.938843%, 26.667786%)" stroke-opacity="1" stroke-miterlimit="10" d="M 94.38696 -58.109722 L -94.384695 -58.109722 C -95.485804 -58.109722 -96.379231 -59.003149 -96.379231 -60.104258 L -96.379231 -87.298913 C -96.379231 -88.400022 -95.485804 -89.293449 -94.384695 -89.293449 L 94.38696 -89.293449 C 95.488069 -89.293449 96.377577 -88.400022 96.377577 -87.298913 L 96.377577 -60.104258 C 96.377577 -59.003149 95.488069 -58.109722 94.38696 -58.109722 Z M 94.38696 -58.109722 " transform="matrix(0.996864, 0, 0, -0.996864, 106.205902, 176.892816)"/>
<g fill="rgb(0%, 0%, 0%)" fill-opacity="1">
<use xlink:href="#glyph-2-7" x="86.798952" y="248.056951"/>
<use xlink:href="#glyph-2-8" x="93.019996" y="248.056951"/>
<use xlink:href="#glyph-2-8" x="98.061188" y="248.056951"/>
<use xlink:href="#glyph-2-9" x="103.102379" y="248.056951"/>
</g>
<g fill="rgb(0%, 0%, 0%)" fill-opacity="1">
<use xlink:href="#glyph-2-10" x="110.145745" y="248.056951"/>
<use xlink:href="#glyph-2-11" x="117.87736" y="248.056951"/>
</g>
<g fill="rgb(0%, 0%, 0%)" fill-opacity="1">
<use xlink:href="#glyph-2-9" x="23.279768" y="258.981585"/>
<use xlink:href="#glyph-2-12" x="27.972366" y="258.981585"/>
<use xlink:href="#glyph-2-4" x="33.094002" y="258.981585"/>
<use xlink:href="#glyph-2-8" x="36.427981" y="258.981585"/>
<use xlink:href="#glyph-2-13" x="41.469172" y="258.981585"/>
<use xlink:href="#glyph-2-3" x="46.590808" y="258.981585"/>
</g>
<g fill="rgb(0%, 0%, 0%)" fill-opacity="1">
<use xlink:href="#glyph-2-14" x="53.660989" y="258.981585"/>
</g>
<g fill="rgb(0%, 0%, 0%)" fill-opacity="1">
<use xlink:href="#glyph-2-15" x="59.301046" y="258.981585"/>
<use xlink:href="#glyph-2-4" x="62.617148" y="258.981585"/>
</g>
<g fill="rgb(0%, 0%, 0%)" fill-opacity="1">
<use xlink:href="#glyph-2-16" x="65.825992" y="258.981585"/>
<use xlink:href="#glyph-2-17" x="70.313009" y="258.981585"/>
<use xlink:href="#glyph-2-3" x="74.451434" y="258.981585"/>
<use xlink:href="#glyph-2-12" x="79.179786" y="258.981585"/>
<use xlink:href="#glyph-2-8" x="84.301421" y="258.981585"/>
<use xlink:href="#glyph-2-5" x="89.342613" y="258.981585"/>
<use xlink:href="#glyph-2-18" x="91.603998" y="258.981585"/>
<use xlink:href="#glyph-2-15" x="96.636251" y="258.981585"/>
</g>
<g fill="rgb(0%, 0%, 0%)" fill-opacity="1">
<use xlink:href="#glyph-2-14" x="102.303122" y="258.981585"/>
</g>
<g fill="rgb(0%, 0%, 0%)" fill-opacity="1">
<use xlink:href="#glyph-2-12" x="107.943178" y="258.981585"/>
<use xlink:href="#glyph-2-3" x="113.064814" y="258.981585"/>
<use xlink:href="#glyph-2-4" x="117.793165" y="258.981585"/>
</g>
<g fill="rgb(0%, 0%, 0%)" fill-opacity="1">
<use xlink:href="#glyph-2-6" x="121.216528" y="258.981585"/>
</g>
<g fill="rgb(0%, 0%, 0%)" fill-opacity="1">
<use xlink:href="#glyph-2-3" x="126.713571" y="258.981585"/>
</g>
<g fill="rgb(0%, 0%, 0%)" fill-opacity="1">
<use xlink:href="#glyph-2-2" x="131.361478" y="258.981585"/>
<use xlink:href="#glyph-2-3" x="136.134521" y="258.981585"/>
<use xlink:href="#glyph-2-18" x="140.862872" y="258.981585"/>
<use xlink:href="#glyph-2-15" x="145.895125" y="258.981585"/>
</g>
<g fill="rgb(0%, 0%, 0%)" fill-opacity="1">
<use xlink:href="#glyph-2-14" x="151.553058" y="258.981585"/>
</g>
<g fill="rgb(0%, 0%, 0%)" fill-opacity="1">
<use xlink:href="#glyph-2-19" x="157.193114" y="258.981585"/>
<use xlink:href="#glyph-2-20" x="163.002998" y="258.981585"/>
<use xlink:href="#glyph-2-21" x="169.036338" y="258.981585"/>
</g>
<g fill="rgb(0%, 0%, 0%)" fill-opacity="1">
<use xlink:href="#glyph-2-14" x="176.732199" y="258.981585"/>
</g>
<g fill="rgb(0%, 0%, 0%)" fill-opacity="1">
<use xlink:href="#glyph-2-22" x="182.372255" y="258.981585"/>
<use xlink:href="#glyph-2-22" x="184.624703" y="258.981585"/>
<use xlink:href="#glyph-2-22" x="186.87715" y="258.981585"/>
</g>
<path fill-rule="nonzero" fill="rgb(93.331909%, 93.331909%, 93.331909%)" fill-opacity="1" stroke-width="0.3985" stroke-linecap="butt" stroke-linejoin="miter" stroke="rgb(66.665649%, 66.665649%, 66.665649%)" stroke-opacity="1" stroke-miterlimit="10" d="M 94.38696 -110.551518 L -94.384695 -110.551518 C -95.485804 -110.551518 -96.379231 -111.444944 -96.379231 -112.546054 L -96.379231 -136.907605 C -96.379231 -138.008714 -95.485804 -138.898222 -94.384695 -138.898222 L 94.38696 -138.898222 C 95.488069 -138.898222 96.377577 -138.008714 96.377577 -136.907605 L 96.377577 -112.546054 C 96.377577 -111.444944 95.488069 -110.551518 94.38696 -110.551518 Z M 94.38696 -110.551518 " transform="matrix(0.996864, 0, 0, -0.996864, 106.205902, 176.892816)"/>
<g fill="rgb(0%, 0%, 0%)" fill-opacity="1">
<use xlink:href="#glyph-1-62" x="89.566247" y="297.901153"/>
<use xlink:href="#glyph-1-63" x="97.297861" y="297.901153"/>
</g>
<g fill="rgb(0%, 0%, 0%)" fill-opacity="1">
<use xlink:href="#glyph-1-64" x="107.380243" y="297.901153"/>
<use xlink:href="#glyph-1-65" x="115.111858" y="297.901153"/>
</g>
<g fill="rgb(0%, 0%, 0%)" fill-opacity="1">
<use xlink:href="#glyph-1-7" x="47.959132" y="310.7926"/>
<use xlink:href="#glyph-1-13" x="52.830496" y="310.7926"/>
<use xlink:href="#glyph-1-10" x="57.299637" y="310.7926"/>
</g>
<g fill="rgb(0%, 0%, 0%)" fill-opacity="1">
<use xlink:href="#glyph-1-8" x="60.472728" y="310.7926"/>
</g>
<g fill="rgb(0%, 0%, 0%)" fill-opacity="1">
<use xlink:href="#glyph-1-6" x="65.710561" y="310.7926"/>
<use xlink:href="#glyph-1-66" x="70.581925" y="310.7926"/>
<use xlink:href="#glyph-1-8" x="75.319215" y="310.7926"/>
<use xlink:href="#glyph-1-8" x="78.20628" y="310.7926"/>
<use xlink:href="#glyph-1-13" x="81.093345" y="310.7926"/>
<use xlink:href="#glyph-1-10" x="85.562486" y="310.7926"/>
</g>
<g fill="rgb(0%, 0%, 0%)" fill-opacity="1">
<use xlink:href="#glyph-1-58" x="91.0059" y="310.7926"/>
</g>
<g fill="rgb(0%, 0%, 0%)" fill-opacity="1">
<use xlink:href="#glyph-1-25" x="96.377808" y="310.7926"/>
<use xlink:href="#glyph-1-26" x="101.615641" y="310.7926"/>
<use xlink:href="#glyph-1-27" x="106.558512" y="310.7926"/>
</g>
<g fill="rgb(0%, 0%, 0%)" fill-opacity="1">
<use xlink:href="#glyph-1-49" x="113.521434" y="310.7926"/>
<use xlink:href="#glyph-1-11" x="120.698874" y="310.7926"/>
</g>
<g fill="rgb(0%, 0%, 0%)" fill-opacity="1">
<use xlink:href="#glyph-1-7" x="124.926682" y="310.7926"/>
</g>
<g fill="rgb(0%, 0%, 0%)" fill-opacity="1">
<use xlink:href="#glyph-1-58" x="132.148814" y="310.7926"/>
</g>
<g fill="rgb(0%, 0%, 0%)" fill-opacity="1">
<use xlink:href="#glyph-1-10" x="137.520722" y="310.7926"/>
<use xlink:href="#glyph-1-50" x="140.613367" y="310.7926"/>
<use xlink:href="#glyph-1-67" x="142.642358" y="310.7926"/>
<use xlink:href="#glyph-1-68" x="147.433277" y="310.7926"/>
<use xlink:href="#glyph-1-6" x="151.956048" y="310.7926"/>
<use xlink:href="#glyph-1-66" x="156.827412" y="310.7926"/>
<use xlink:href="#glyph-1-8" x="161.564701" y="310.7926"/>
</g>
<path fill="none" stroke-width="0.79701" stroke-linecap="butt" stroke-linejoin="miter" stroke="rgb(31.373596%, 31.373596%, 31.373596%)" stroke-opacity="1" stroke-miterlimit="10" d="M 0.00113236 110.352149 L 0.00113236 97.24072 " transform="matrix(0.996864, 0, 0, -0.996864, 106.205902, 176.892816)"/>
<path fill-rule="nonzero" fill="rgb(31.373596%, 31.373596%, 31.373596%)" fill-opacity="1" stroke-width="0.79701" stroke-linecap="butt" stroke-linejoin="miter" stroke="rgb(31.373596%, 31.373596%, 31.373596%)" stroke-opacity="1" stroke-miterlimit="10" d="M 4.535288 0.00113236 L 1.28682 1.231553 L 2.368336 0.00113236 L 1.28682 -1.229289 Z M 4.535288 0.00113236 " transform="matrix(0, 0.996864, 0.996864, 0, 106.205902, 77.791434)"/>
<path fill="none" stroke-width="0.79701" stroke-linecap="butt" stroke-linejoin="miter" stroke="rgb(31.373596%, 31.373596%, 31.373596%)" stroke-opacity="1" stroke-miterlimit="10" d="M 0.00113236 64.998989 L 0.00113236 47.635947 " transform="matrix(0.996864, 0, 0, -0.996864, 106.205902, 176.892816)"/>
<path fill-rule="nonzero" fill="rgb(31.373596%, 31.373596%, 31.373596%)" fill-opacity="1" stroke-width="0.79701" stroke-linecap="butt" stroke-linejoin="miter" stroke="rgb(31.373596%, 31.373596%, 31.373596%)" stroke-opacity="1" stroke-miterlimit="10" d="M 4.533072 0.00113236 L 1.288522 1.231553 L 2.370039 0.00113236 L 1.288522 -1.229289 Z M 4.533072 0.00113236 " transform="matrix(0, 0.996864, 0.996864, 0, 106.205902, 127.242862)"/>
<path fill="none" stroke-width="0.79701" stroke-linecap="butt" stroke-linejoin="miter" stroke="rgb(31.373596%, 31.373596%, 31.373596%)" stroke-opacity="1" stroke-miterlimit="10" d="M 0.00113236 12.557194 L 0.00113236 -4.805849 " transform="matrix(0.996864, 0, 0, -0.996864, 106.205902, 176.892816)"/>
<path fill-rule="nonzero" fill="rgb(31.373596%, 31.373596%, 31.373596%)" fill-opacity="1" stroke-width="0.79701" stroke-linecap="butt" stroke-linejoin="miter" stroke="rgb(31.373596%, 31.373596%, 31.373596%)" stroke-opacity="1" stroke-miterlimit="10" d="M 4.533217 0.00113236 L 1.288668 1.231553 L 2.370184 0.00113236 L 1.288668 -1.229289 Z M 4.533217 0.00113236 " transform="matrix(0, 0.996864, 0.996864, 0, 106.205902, 179.520061)"/>
<path fill="none" stroke-width="0.79701" stroke-linecap="butt" stroke-linejoin="miter" stroke="rgb(31.373596%, 31.373596%, 31.373596%)" stroke-opacity="1" stroke-miterlimit="10" d="M 0.00113236 -37.051499 L 0.00113236 -54.414541 " transform="matrix(0.996864, 0, 0, -0.996864, 106.205902, 176.892816)"/>
<path fill-rule="nonzero" fill="rgb(31.373596%, 31.373596%, 31.373596%)" fill-opacity="1" stroke-width="0.79701" stroke-linecap="butt" stroke-linejoin="miter" stroke="rgb(31.373596%, 31.373596%, 31.373596%)" stroke-opacity="1" stroke-miterlimit="10" d="M 4.534899 0.00113236 L 1.286431 1.231553 L 2.367948 0.00113236 L 1.286431 -1.229289 Z M 4.534899 0.00113236 " transform="matrix(0, 0.996864, 0.996864, 0, 106.205902, 228.971509)"/>
<path fill="none" stroke-width="0.79701" stroke-linecap="butt" stroke-linejoin="miter" stroke="rgb(31.373596%, 31.373596%, 31.373596%)" stroke-opacity="1" stroke-miterlimit="10" d="M 0.00113236 -89.493294 L 0.00113236 -106.852418 " transform="matrix(0.996864, 0, 0, -0.996864, 106.205902, 176.892816)"/>
<path fill-rule="nonzero" fill="rgb(31.373596%, 31.373596%, 31.373596%)" fill-opacity="1" stroke-width="0.79701" stroke-linecap="butt" stroke-linejoin="miter" stroke="rgb(31.373596%, 31.373596%, 31.373596%)" stroke-opacity="1" stroke-miterlimit="10" d="M 4.535435 0.00113236 L 1.286967 1.231553 L 2.368483 0.00113236 L 1.286967 -1.229289 Z M 4.535435 0.00113236 " transform="matrix(0, 0.996864, 0.996864, 0, 106.205902, 281.248319)"/>
<g fill="rgb(47.099304%, 47.099304%, 47.099304%)" fill-opacity="1">
<use xlink:href="#glyph-3-0" x="222.746295" y="146.833375"/>
<use xlink:href="#glyph-3-1" x="229.618812" y="146.833375"/>
</g>
<g fill="rgb(47.099304%, 47.099304%, 47.099304%)" fill-opacity="1">
<use xlink:href="#glyph-3-2" x="238.572948" y="146.833375"/>
<use xlink:href="#glyph-3-3" x="245.445465" y="146.833375"/>
</g>
<g fill="rgb(47.099304%, 47.099304%, 47.099304%)" fill-opacity="1">
<use xlink:href="#glyph-3-4" x="254.407545" y="146.833375"/>
</g>
<g fill="rgb(47.099304%, 47.099304%, 47.099304%)" fill-opacity="1">
<use xlink:href="#glyph-3-5" x="222.746295" y="156.268694"/>
<use xlink:href="#glyph-3-6" x="229.618812" y="156.268694"/>
</g>
<g fill="rgb(47.099304%, 47.099304%, 47.099304%)" fill-opacity="1">
<use xlink:href="#glyph-3-7" x="238.572948" y="156.268694"/>
<use xlink:href="#glyph-3-8" x="242.148246" y="156.268694"/>
</g>
<g fill="rgb(47.099304%, 47.099304%, 47.099304%)" fill-opacity="1">
<use xlink:href="#glyph-3-9" x="244.817801" y="156.268694"/>
<use xlink:href="#glyph-3-10" x="248.567892" y="156.268694"/>
<use xlink:href="#glyph-3-11" x="251.865111" y="156.268694"/>
</g>
<g fill="rgb(47.099304%, 47.099304%, 47.099304%)" fill-opacity="1">
<use xlink:href="#glyph-3-12" x="258.205306" y="156.268694"/>
<use xlink:href="#glyph-3-13" x="265.077823" y="156.268694"/>
</g>
</svg>
