<?xml version="1.0" encoding="UTF-8"?>
<svg xmlns="http://www.w3.org/2000/svg" xmlns:xlink="http://www.w3.org/1999/xlink" width="264.5pt" height="228.03pt" viewBox="0 0 264.5 228.03">
<defs>
<g>
<g id="glyph-0-0">
<path d="M 0.6875 -0.328125 L 2.46875 -0.328125 C 3.671875 -0.328125 4.265625 -0.953125 4.265625 -1.828125 C 4.265625 -2.640625 3.796875 -3.015625 3.140625 -3.125 L 3.140625 -3.15625 C 3.765625 -3.34375 4.03125 -3.765625 4.03125 -4.3125 C 4.03125 -5.171875 3.546875 -5.65625 2.3125 -5.65625 L 0.6875 -5.65625 Z M 1.3125 -0.859375 L 1.3125 -2.828125 L 2.359375 -2.828125 C 3.15625 -2.828125 3.609375 -2.5625 3.609375 -1.875 C 3.609375 -1.1875 3.203125 -0.859375 2.421875 -0.859375 Z M 1.3125 -3.328125 L 1.3125 -5.125 L 2.265625 -5.125 C 3.015625 -5.125 3.390625 -4.90625 3.390625 -4.25 C 3.390625 -3.5625 2.890625 -3.328125 2.21875 -3.328125 Z M 1.3125 -3.328125 "/>
</g>
<g id="glyph-0-1">
<path d="M 1.546875 -0.265625 C 2.078125 -0.265625 2.40625 -0.453125 2.59375 -0.671875 L 2.625 -0.671875 L 2.6875 -0.328125 L 3.1875 -0.328125 L 3.1875 -3.1875 C 3.1875 -3.984375 2.703125 -4.34375 1.828125 -4.34375 C 1.375 -4.34375 1 -4.265625 0.65625 -4.125 L 0.65625 -3.6875 C 0.90625 -3.765625 1.21875 -3.8125 1.59375 -3.8125 C 2.296875 -3.8125 2.578125 -3.65625 2.578125 -3.046875 L 2.578125 -2.640625 L 1.515625 -2.515625 C 0.75 -2.421875 0.3125 -2.0625 0.3125 -1.359375 C 0.3125 -0.625 0.828125 -0.265625 1.546875 -0.265625 Z M 1.6875 -0.734375 C 1.234375 -0.734375 0.9375 -0.953125 0.9375 -1.375 C 0.9375 -1.828125 1.1875 -2.03125 1.671875 -2.078125 L 2.578125 -2.1875 L 2.578125 -1.03125 C 2.40625 -0.859375 2.0625 -0.734375 1.6875 -0.734375 Z M 1.6875 -0.734375 "/>
</g>
<g id="glyph-0-2">
<path d="M 0.578125 -0.328125 L 1.1875 -0.328125 L 1.1875 -3.53125 C 1.515625 -3.6875 1.921875 -3.8125 2.296875 -3.8125 C 2.921875 -3.8125 3.09375 -3.625 3.09375 -3.140625 L 3.09375 -0.328125 L 3.6875 -0.328125 L 3.6875 -3.265625 C 3.6875 -4.03125 3.3125 -4.34375 2.546875 -4.34375 C 2.0625 -4.34375 1.5625 -4.171875 1.1875 -3.921875 L 1.15625 -3.921875 L 1.15625 -4.265625 L 0.578125 -4.265625 Z M 0.578125 -0.328125 "/>
</g>
<g id="glyph-0-3">
<path d="M 0.578125 -0.328125 L 1.1875 -0.328125 L 1.1875 -6.015625 L 0.578125 -6.015625 Z M 2.90625 -0.328125 L 3.609375 -0.328125 L 1.9375 -2.40625 L 3.484375 -4.265625 L 2.828125 -4.265625 L 1.25 -2.359375 Z M 2.90625 -0.328125 "/>
</g>
<g id="glyph-0-4">
<path d="M 2.515625 -0.234375 C 3.59375 -0.234375 4.40625 -0.96875 4.40625 -2.78125 L 4.40625 -3.265625 C 4.40625 -5.109375 3.5625 -5.75 2.515625 -5.75 C 1.46875 -5.75 0.5625 -5.109375 0.5625 -3.234375 L 0.5625 -2.78125 C 0.5625 -0.984375 1.40625 -0.234375 2.515625 -0.234375 Z M 2.515625 -0.765625 C 1.671875 -0.765625 1.234375 -1.390625 1.234375 -2.71875 L 1.234375 -3.3125 C 1.234375 -4.640625 1.6875 -5.21875 2.515625 -5.21875 C 3.328125 -5.21875 3.765625 -4.609375 3.765625 -3.265625 L 3.765625 -2.6875 C 3.765625 -1.3125 3.328125 -0.765625 2.515625 -0.765625 Z M 2.515625 -0.765625 "/>
</g>
<g id="glyph-0-5">
<path d="M 1.421875 -0.296875 L 2.03125 -0.296875 L 2.03125 -5.75 L 1.6875 -5.75 L 0.4375 -5.15625 L 0.4375 -4.796875 L 1.421875 -5.03125 Z M 1.421875 -0.296875 "/>
</g>
<g id="glyph-0-6">
<path d="M 0.484375 -0.328125 L 3.796875 -0.328125 L 3.796875 -0.875 L 1.375 -0.875 L 2.203125 -1.71875 C 3.125 -2.65625 3.6875 -3.28125 3.6875 -4.203125 C 3.6875 -5.15625 3.109375 -5.75 2.03125 -5.75 C 1.421875 -5.75 0.890625 -5.484375 0.5625 -5.265625 L 0.734375 -4.765625 C 1.046875 -4.984375 1.46875 -5.203125 1.921875 -5.203125 C 2.6875 -5.203125 3.03125 -4.859375 3.03125 -4.15625 C 3.03125 -3.390625 2.515625 -2.8125 1.765625 -2.03125 L 0.484375 -0.703125 Z M 0.484375 -0.328125 "/>
</g>
<g id="glyph-0-7">
<path d="M 2.75 -0.203125 L 3.328125 -0.203125 L 3.328125 -1.453125 L 4.21875 -1.453125 L 4.21875 -1.96875 L 3.328125 -1.96875 L 3.328125 -5.734375 L 2.828125 -5.734375 L 0.234375 -1.921875 L 0.234375 -1.453125 L 2.75 -1.453125 Z M 0.90625 -1.96875 L 2.75 -4.734375 L 2.75 -1.96875 Z M 0.90625 -1.96875 "/>
</g>
<g id="glyph-0-8">
<path d="M 1.734375 -0.234375 C 2.90625 -0.234375 3.609375 -1.046875 3.609375 -2 C 3.609375 -3.109375 2.9375 -3.625 1.875 -3.625 C 1.65625 -3.625 1.328125 -3.5625 1.109375 -3.515625 L 1.21875 -5.125 L 3.40625 -5.125 L 3.40625 -5.671875 L 0.71875 -5.671875 L 0.53125 -2.875 C 0.765625 -2.984375 1.265625 -3.140625 1.640625 -3.140625 C 2.46875 -3.140625 2.9375 -2.8125 2.9375 -2 C 2.9375 -1.25 2.453125 -0.765625 1.609375 -0.765625 C 1.171875 -0.765625 0.65625 -0.953125 0.359375 -1.15625 L 0.234375 -0.640625 C 0.5625 -0.40625 1.109375 -0.234375 1.734375 -0.234375 Z M 1.734375 -0.234375 "/>
</g>
<g id="glyph-0-9">
<path d="M 2.28125 -0.234375 C 3.359375 -0.234375 4.015625 -1.03125 4.015625 -2.046875 C 4.015625 -3.0625 3.296875 -3.671875 2.40625 -3.671875 C 1.8125 -3.671875 1.375 -3.390625 1.09375 -3.09375 C 1.171875 -4.75 1.671875 -5.21875 2.578125 -5.21875 C 2.921875 -5.21875 3.390625 -5.078125 3.578125 -4.96875 L 3.765625 -5.421875 C 3.546875 -5.5625 3.046875 -5.75 2.515625 -5.75 C 1.28125 -5.75 0.453125 -4.921875 0.453125 -3.046875 L 0.453125 -2.625 C 0.453125 -1.109375 1.09375 -0.234375 2.28125 -0.234375 Z M 2.265625 -0.765625 C 1.421875 -0.765625 1.09375 -1.40625 1.09375 -2.40625 L 1.09375 -2.453125 C 1.3125 -2.78125 1.765625 -3.140625 2.28125 -3.140625 C 2.921875 -3.140625 3.375 -2.8125 3.375 -1.96875 C 3.375 -1.21875 2.953125 -0.765625 2.265625 -0.765625 Z M 2.265625 -0.765625 "/>
</g>
<g id="glyph-0-10">
<path d="M 5.296875 -2.65625 L 6.078125 -2.65625 L 6.078125 -3.453125 L 5.296875 -3.453125 Z M 3.0625 -2.65625 L 3.84375 -2.65625 L 3.84375 -3.453125 L 3.0625 -3.453125 Z M 0.75 -2.65625 L 1.53125 -2.65625 L 1.53125 -3.453125 L 0.75 -3.453125 Z M 0.75 -2.65625 "/>
</g>
<g id="glyph-0-11">
<path d="M 1.828125 0.46875 L 2.375 0.46875 C 1.671875 -0.3125 1.09375 -1.53125 1.09375 -2.75 L 1.09375 -2.9375 C 1.09375 -4.203125 1.671875 -5.34375 2.375 -6.125 L 1.828125 -6.125 C 1.09375 -5.375 0.453125 -4.296875 0.453125 -2.890625 L 0.453125 -2.765625 C 0.453125 -1.359375 1.09375 -0.265625 1.828125 0.46875 Z M 1.828125 0.46875 "/>
</g>
<g id="glyph-0-12">
<path d="M 5.8125 -0.625 C 5.8125 -1.390625 4.984375 -1.8125 3.421875 -1.8125 C 1.875 -1.8125 1.0625 -1.359375 1.0625 -0.625 C 1.0625 0.140625 1.875 0.59375 3.421875 0.59375 C 4.984375 0.59375 5.8125 0.140625 5.8125 -0.625 Z M 6.234375 -3.75 C 5.25 -3.828125 4.015625 -4.25 3.78125 -4.921875 L 5.890625 -4.921875 L 5.890625 -5.421875 L 0.953125 -5.421875 L 0.953125 -4.921875 L 3.09375 -4.921875 C 2.875 -4.25 1.734375 -3.8125 0.65625 -3.734375 L 0.90625 -3.234375 C 1.984375 -3.359375 3.078125 -3.8125 3.421875 -4.484375 C 3.796875 -3.828125 4.953125 -3.375 5.96875 -3.234375 Z M 3.421875 -1.3125 C 4.53125 -1.3125 5.203125 -1.0625 5.203125 -0.625 C 5.203125 -0.171875 4.53125 0.078125 3.421875 0.078125 C 2.34375 0.078125 1.671875 -0.171875 1.671875 -0.625 C 1.671875 -1.0625 2.34375 -1.3125 3.421875 -1.3125 Z M 6.5625 -2.25 L 6.5625 -2.75 L 3.71875 -2.75 L 3.71875 -3.625 L 3.125 -3.625 L 3.125 -2.75 L 0.296875 -2.75 L 0.296875 -2.25 Z M 4.546875 -5.859375 L 4.546875 -6.359375 L 2.3125 -6.359375 L 2.3125 -5.859375 Z M 4.546875 -5.859375 "/>
</g>
<g id="glyph-0-13">
<path d="M 2.015625 -0.25 C 3.28125 -0.25 3.984375 -0.984375 3.984375 -2.3125 L 3.984375 -2.40625 C 3.984375 -3.890625 3.203125 -4.34375 2.4375 -4.34375 C 1.90625 -4.34375 1.53125 -4.1875 1.234375 -4.015625 L 1.1875 -4.015625 L 1.1875 -6.015625 L 0.578125 -6.015625 L 0.578125 -0.453125 C 0.921875 -0.328125 1.5625 -0.25 2.015625 -0.25 Z M 2.046875 -0.75 C 1.65625 -0.75 1.375 -0.8125 1.1875 -0.890625 L 1.1875 -3.578125 C 1.390625 -3.671875 1.765625 -3.828125 2.171875 -3.828125 C 2.953125 -3.828125 3.34375 -3.46875 3.34375 -2.375 L 3.34375 -2.21875 C 3.34375 -1.09375 2.75 -0.75 2.046875 -0.75 Z M 2.046875 -0.75 "/>
</g>
<g id="glyph-0-14">
<path d="M 0.140625 0.46875 L 0.6875 0.46875 C 1.421875 -0.265625 2.046875 -1.34375 2.046875 -2.765625 L 2.046875 -2.890625 C 2.046875 -4.296875 1.421875 -5.375 0.6875 -6.125 L 0.140625 -6.125 C 0.84375 -5.328125 1.421875 -4.125 1.421875 -2.890625 L 1.421875 -2.703125 C 1.421875 -1.4375 0.84375 -0.3125 0.140625 0.46875 Z M 0.140625 0.46875 "/>
</g>
<g id="glyph-0-15">
<path d="M 0.71875 -0.328125 L 1.34375 -0.328125 L 1.34375 -5.65625 L 0.71875 -5.65625 Z M 0.71875 -0.328125 "/>
</g>
<g id="glyph-0-16">
<path d="M 0.078125 0.46875 L 0.625 0.46875 L 2.484375 -6.125 L 1.9375 -6.125 Z M 0.078125 0.46875 "/>
</g>
<g id="glyph-0-17">
<path d="M 2.703125 -0.25 C 4.171875 -0.25 5.046875 -1.25 5.046875 -2.921875 L 5.046875 -3.0625 C 5.046875 -4.796875 4.171875 -5.75 2.734375 -5.75 C 1.265625 -5.75 0.375 -4.734375 0.375 -3.0625 L 0.375 -2.9375 C 0.375 -1.1875 1.265625 -0.25 2.703125 -0.25 Z M 2.71875 -0.765625 C 1.53125 -0.765625 1.0625 -1.65625 1.0625 -2.9375 L 1.0625 -3.1875 C 1.0625 -4.375 1.609375 -5.234375 2.703125 -5.234375 C 3.90625 -5.21875 4.375 -4.34375 4.375 -3.0625 L 4.375 -2.8125 C 4.375 -1.625 3.828125 -0.765625 2.71875 -0.765625 Z M 2.71875 -0.765625 "/>
</g>
<g id="glyph-0-18">
<path d="M 0.578125 -0.328125 L 1.1875 -0.328125 L 1.1875 -3.421875 C 1.46875 -3.625 1.84375 -3.765625 2.25 -3.765625 C 2.3125 -3.765625 2.421875 -3.765625 2.53125 -3.75 L 2.53125 -4.296875 C 2.5 -4.296875 2.375 -4.3125 2.296875 -4.3125 C 1.84375 -4.3125 1.421875 -4.078125 1.203125 -3.828125 L 1.15625 -3.828125 L 1.15625 -4.265625 L 0.578125 -4.265625 Z M 0.578125 -0.328125 "/>
</g>
<g id="glyph-0-19">
<path d="M 0.609375 -0.328125 L 1.203125 -0.328125 L 1.203125 -4.265625 L 0.609375 -4.265625 Z M 0.59375 -5.0625 L 1.21875 -5.0625 L 1.21875 -5.6875 L 0.59375 -5.6875 Z M 0.59375 -5.0625 "/>
</g>
<g id="glyph-0-20">
<path d="M 1.953125 0.828125 C 3.296875 0.828125 3.828125 0.296875 3.828125 -0.375 C 3.828125 -1.109375 3.296875 -1.3125 2.59375 -1.3125 L 1.5 -1.3125 C 1.234375 -1.3125 1.109375 -1.390625 1.109375 -1.609375 C 1.109375 -1.734375 1.1875 -1.828125 1.296875 -1.921875 C 1.5 -1.859375 1.71875 -1.8125 1.96875 -1.8125 C 2.796875 -1.8125 3.4375 -2.234375 3.4375 -3.078125 L 3.4375 -3.09375 C 3.4375 -3.390625 3.34375 -3.640625 3.15625 -3.8125 L 3.859375 -3.8125 L 3.859375 -4.28125 L 2.53125 -4.28125 C 2.359375 -4.3125 2.171875 -4.34375 1.96875 -4.34375 C 1.109375 -4.34375 0.484375 -3.890625 0.484375 -3.078125 L 0.484375 -3.0625 C 0.484375 -2.59375 0.6875 -2.265625 0.984375 -2.078125 C 0.6875 -1.84375 0.546875 -1.671875 0.546875 -1.421875 C 0.546875 -1.15625 0.71875 -0.984375 0.9375 -0.921875 L 0.9375 -0.890625 C 0.53125 -0.75 0.1875 -0.515625 0.1875 -0.09375 C 0.1875 0.484375 0.75 0.828125 1.953125 0.828125 Z M 1.9375 0.359375 C 1.15625 0.359375 0.828125 0.1875 0.828125 -0.171875 C 0.828125 -0.5 1.0625 -0.671875 1.359375 -0.78125 L 2.5 -0.78125 C 3.015625 -0.78125 3.203125 -0.65625 3.203125 -0.296875 C 3.203125 0.125 2.859375 0.359375 1.9375 0.359375 Z M 1.96875 -2.296875 C 1.4375 -2.296875 1.09375 -2.546875 1.09375 -3.0625 L 1.09375 -3.109375 C 1.09375 -3.59375 1.421875 -3.875 1.96875 -3.875 C 2.5 -3.875 2.828125 -3.640625 2.828125 -3.09375 L 2.828125 -3.0625 C 2.828125 -2.546875 2.515625 -2.296875 1.96875 -2.296875 Z M 1.96875 -2.296875 "/>
</g>
<g id="glyph-0-21">
<path d="M 2.15625 -0.265625 C 2.703125 -0.265625 3.046875 -0.421875 3.296875 -0.578125 L 3.296875 -1.0625 C 3.109375 -0.953125 2.75 -0.78125 2.21875 -0.78125 C 1.375 -0.78125 0.953125 -1.234375 0.953125 -2.25 L 0.953125 -2.4375 C 0.953125 -3.34375 1.421875 -3.828125 2.140625 -3.828125 C 2.65625 -3.828125 2.90625 -3.734375 3.265625 -3.578125 L 3.265625 -4.078125 C 3 -4.25 2.6875 -4.34375 2.171875 -4.34375 C 1.15625 -4.34375 0.328125 -3.734375 0.328125 -2.34375 L 0.328125 -2.21875 C 0.328125 -0.921875 1.03125 -0.265625 2.15625 -0.265625 Z M 2.15625 -0.265625 "/>
</g>
<g id="glyph-0-22">
<path d="M 0.59375 -0.328125 L 1.203125 -0.328125 L 1.203125 -6.015625 L 0.59375 -6.015625 Z M 0.59375 -0.328125 "/>
</g>
<g id="glyph-0-23">
<path d="M 2.109375 -0.265625 C 3.171875 -0.265625 3.90625 -1.015625 3.90625 -2.265625 L 3.90625 -2.375 C 3.90625 -3.625 3.234375 -4.34375 2.125 -4.34375 C 1.0625 -4.34375 0.328125 -3.59375 0.328125 -2.34375 L 0.328125 -2.234375 C 0.328125 -0.96875 1 -0.265625 2.109375 -0.265625 Z M 2.125 -0.765625 C 1.46875 -0.765625 0.953125 -1.125 0.953125 -2.21875 L 0.953125 -2.40625 C 0.953125 -3.328125 1.390625 -3.84375 2.109375 -3.84375 C 2.75 -3.84375 3.28125 -3.484375 3.28125 -2.390625 L 3.28125 -2.1875 C 3.28125 -1.265625 2.84375 -0.765625 2.125 -0.765625 Z M 2.125 -0.765625 "/>
</g>
<g id="glyph-0-24">
<path d="M 0.15625 0.703125 L 0.578125 0.703125 L 1.171875 -0.84375 L 0.4375 -0.84375 Z M 0.15625 0.703125 "/>
</g>
<g id="glyph-0-25">
<path d="M 0.578125 -0.328125 L 1.1875 -0.328125 L 1.1875 -3.53125 C 1.5 -3.6875 1.84375 -3.8125 2.1875 -3.8125 C 2.703125 -3.8125 2.890625 -3.625 2.890625 -3.140625 L 2.890625 -0.328125 L 3.5 -0.328125 L 3.5 -3.265625 C 3.5 -3.359375 3.5 -3.4375 3.484375 -3.53125 C 3.84375 -3.703125 4.1875 -3.8125 4.5 -3.8125 C 5.03125 -3.8125 5.21875 -3.625 5.21875 -3.140625 L 5.21875 -0.328125 L 5.8125 -0.328125 L 5.8125 -3.265625 C 5.8125 -4.03125 5.40625 -4.34375 4.734375 -4.34375 C 4.28125 -4.34375 3.828125 -4.1875 3.390625 -3.90625 L 3.359375 -3.90625 C 3.1875 -4.203125 2.859375 -4.34375 2.421875 -4.34375 C 1.96875 -4.34375 1.5625 -4.15625 1.1875 -3.921875 L 1.15625 -3.921875 L 1.15625 -4.265625 L 0.578125 -4.265625 Z M 0.578125 -0.328125 "/>
</g>
<g id="glyph-0-26">
<path d="M 1.984375 -0.265625 C 2.515625 -0.265625 2.890625 -0.421875 3.140625 -0.65625 L 3.171875 -0.65625 L 3.234375 -0.328125 L 3.75 -0.328125 L 3.75 -6.015625 L 3.140625 -6.015625 L 3.140625 -4.078125 C 2.921875 -4.203125 2.59375 -4.34375 2.109375 -4.34375 C 1.09375 -4.34375 0.34375 -3.71875 0.34375 -2.296875 L 0.34375 -2.1875 C 0.34375 -0.734375 1.203125 -0.265625 1.984375 -0.265625 Z M 2.171875 -0.765625 C 1.453125 -0.765625 0.984375 -1.109375 0.984375 -2.21875 L 0.984375 -2.375 C 0.984375 -3.4375 1.4375 -3.828125 2.1875 -3.828125 C 2.59375 -3.828125 2.953125 -3.71875 3.140625 -3.578125 L 3.140625 -1.09375 C 2.9375 -0.9375 2.625 -0.765625 2.171875 -0.765625 Z M 2.171875 -0.765625 "/>
</g>
<g id="glyph-0-27">
<path d="M 1.828125 -0.28125 C 2.171875 -0.28125 2.328125 -0.375 2.5 -0.4375 L 2.5 -0.859375 C 2.328125 -0.8125 2.15625 -0.78125 1.984375 -0.78125 C 1.53125 -0.78125 1.40625 -0.9375 1.40625 -1.3125 L 1.40625 -3.765625 L 2.40625 -3.765625 L 2.40625 -4.265625 L 1.40625 -4.265625 L 1.40625 -5.203125 L 0.796875 -5.203125 L 0.796875 -4.265625 L 0.234375 -4.265625 L 0.234375 -3.765625 L 0.796875 -3.765625 L 0.796875 -1.21875 C 0.796875 -0.5625 1.203125 -0.28125 1.828125 -0.28125 Z M 1.828125 -0.28125 "/>
</g>
<g id="glyph-0-28">
<path d="M 1.65625 -0.328125 L 2.25 -0.328125 L 3.71875 -4.265625 L 3.125 -4.265625 L 1.984375 -1.109375 L 1.953125 -1.109375 L 0.84375 -4.265625 L 0.1875 -4.265625 Z M 1.65625 -0.328125 "/>
</g>
<g id="glyph-0-29">
<path d="M 2.203125 -0.265625 C 2.828125 -0.265625 3.28125 -0.453125 3.53125 -0.625 L 3.53125 -1.078125 C 3.171875 -0.90625 2.8125 -0.78125 2.296875 -0.78125 C 1.453125 -0.78125 0.984375 -1.171875 0.953125 -2.15625 L 3.640625 -2.15625 L 3.640625 -2.5 C 3.640625 -3.71875 3.125 -4.34375 2.046875 -4.34375 C 1.140625 -4.34375 0.328125 -3.734375 0.328125 -2.359375 L 0.328125 -2.25 C 0.328125 -1.015625 0.953125 -0.265625 2.203125 -0.265625 Z M 2.03125 -3.84375 C 2.671875 -3.84375 3 -3.5 3 -2.640625 L 0.953125 -2.640625 C 1.015625 -3.5625 1.546875 -3.84375 2.03125 -3.84375 Z M 2.03125 -3.84375 "/>
</g>
<g id="glyph-0-30">
<path d="M 0.8125 -0.328125 L 1.421875 -0.328125 L 1.421875 -3.765625 L 2.328125 -3.765625 L 2.328125 -4.265625 L 1.421875 -4.265625 L 1.421875 -4.796875 C 1.421875 -5.34375 1.6875 -5.5625 2.15625 -5.5625 C 2.421875 -5.5625 2.59375 -5.53125 2.703125 -5.515625 L 2.703125 -5.9375 C 2.5625 -6.015625 2.34375 -6.078125 2.046875 -6.078125 C 1.328125 -6.078125 0.8125 -5.703125 0.8125 -4.828125 L 0.8125 -4.265625 L 0.234375 -4.265625 L 0.234375 -3.765625 L 0.8125 -3.765625 Z M 0.8125 -0.328125 "/>
</g>
<g id="glyph-0-31">
<path d="M 6.421875 -3.15625 L 0.015625 -3.15625 L 0.015625 -2.765625 L 6.421875 -2.765625 Z M 6.421875 -3.15625 "/>
</g>
<g id="glyph-0-32">
<path d="M 1.84375 -0.25 C 3.03125 -0.25 3.78125 -0.90625 3.78125 -1.828125 C 3.78125 -2.65625 3.265625 -3.046875 2.578125 -3.1875 C 3.171875 -3.375 3.59375 -3.765625 3.59375 -4.421875 C 3.59375 -5.265625 2.9375 -5.75 1.984375 -5.75 C 1.53125 -5.75 0.890625 -5.546875 0.578125 -5.328125 L 0.671875 -4.828125 C 1.015625 -5.015625 1.421875 -5.203125 1.859375 -5.203125 C 2.515625 -5.203125 2.921875 -4.984375 2.921875 -4.328125 C 2.921875 -3.734375 2.453125 -3.375 1.765625 -3.375 L 1.296875 -3.375 L 1.296875 -2.84375 L 1.8125 -2.84375 C 2.625 -2.84375 3.140625 -2.515625 3.140625 -1.828125 C 3.140625 -1.171875 2.65625 -0.78125 1.765625 -0.78125 C 1.375 -0.78125 0.84375 -0.9375 0.546875 -1.140625 L 0.40625 -0.640625 C 0.703125 -0.421875 1.234375 -0.25 1.84375 -0.25 Z M 1.84375 -0.25 "/>
</g>
<g id="glyph-0-33">
<path d="M 0.40625 -2.65625 L 3.03125 -2.65625 L 3.03125 -3.171875 L 0.40625 -3.171875 Z M 0.40625 -2.65625 "/>
</g>
<g id="glyph-0-34">
<path d="M 2.84375 -0.25 C 3.53125 -0.25 4.078125 -0.390625 4.484375 -0.546875 L 4.484375 -2.90625 L 2.71875 -2.90625 L 2.71875 -2.390625 L 3.859375 -2.390625 L 3.859375 -0.9375 C 3.609375 -0.84375 3.234375 -0.78125 2.859375 -0.78125 C 1.4375 -0.78125 1.0625 -1.671875 1.0625 -2.90625 L 1.0625 -3.125 C 1.0625 -4.25 1.53125 -5.21875 2.84375 -5.21875 C 3.5625 -5.21875 3.953125 -5.046875 4.28125 -4.890625 L 4.28125 -5.4375 C 3.96875 -5.59375 3.5625 -5.75 2.890625 -5.75 C 1.5625 -5.75 0.375 -5.03125 0.375 -3.03125 L 0.375 -2.890625 C 0.375 -1.0625 1.34375 -0.25 2.84375 -0.25 Z M 2.84375 -0.25 "/>
</g>
<g id="glyph-0-35">
<path d="M 0.15625 -0.328125 L 0.75 -0.328125 L 1.296875 -1.890625 L 3.4375 -1.890625 L 4 -0.328125 L 4.65625 -0.328125 L 2.71875 -5.65625 L 2.109375 -5.65625 Z M 2.359375 -4.8125 L 2.375 -4.8125 L 3.234375 -2.421875 L 1.484375 -2.421875 Z M 2.359375 -4.8125 "/>
</g>
<g id="glyph-0-36">
<path d="M 0.578125 0.84375 L 1.1875 0.84375 L 1.1875 -0.53125 C 1.40625 -0.390625 1.75 -0.265625 2.203125 -0.265625 C 3.28125 -0.265625 3.984375 -0.859375 3.984375 -2.296875 L 3.984375 -2.40625 C 3.984375 -3.859375 3.234375 -4.34375 2.359375 -4.34375 C 1.859375 -4.34375 1.4375 -4.171875 1.203125 -3.9375 L 1.171875 -3.9375 L 1.171875 -4.265625 L 0.578125 -4.265625 Z M 2.140625 -0.765625 C 1.734375 -0.765625 1.375 -0.890625 1.1875 -1.046875 L 1.1875 -3.546875 C 1.375 -3.671875 1.75 -3.828125 2.203125 -3.828125 C 2.921875 -3.828125 3.34375 -3.484375 3.34375 -2.375 L 3.34375 -2.21875 C 3.34375 -1.15625 2.890625 -0.765625 2.140625 -0.765625 Z M 2.140625 -0.765625 "/>
</g>
<g id="glyph-0-37">
<path d="M 2.28125 -0.234375 C 3.421875 -0.234375 4.140625 -0.890625 4.140625 -1.75 C 4.140625 -2.546875 3.515625 -2.921875 2.84375 -3.140625 C 3.390625 -3.421875 3.921875 -3.796875 3.921875 -4.4375 C 3.921875 -5.265625 3.25 -5.75 2.25 -5.75 C 1.234375 -5.75 0.578125 -5.1875 0.578125 -4.40625 C 0.578125 -3.734375 1.046875 -3.328125 1.609375 -3.109375 C 1.03125 -2.875 0.421875 -2.390625 0.421875 -1.6875 C 0.421875 -0.8125 1.140625 -0.234375 2.28125 -0.234375 Z M 2.265625 -0.75 C 1.5625 -0.75 1.0625 -1.125 1.0625 -1.71875 C 1.0625 -2.296875 1.59375 -2.6875 2.109375 -2.859375 C 3.03125 -2.578125 3.46875 -2.328125 3.46875 -1.6875 C 3.46875 -1.140625 2.953125 -0.75 2.265625 -0.75 Z M 2.375 -3.375 C 1.671875 -3.5625 1.25 -3.875 1.25 -4.421875 C 1.25 -4.9375 1.65625 -5.234375 2.265625 -5.234375 C 2.921875 -5.234375 3.265625 -4.890625 3.265625 -4.421875 C 3.265625 -3.90625 2.875 -3.59375 2.375 -3.375 Z M 2.375 -3.375 "/>
</g>
<g id="glyph-0-38">
<path d="M 6.5625 -0.328125 L 6.5625 -0.828125 L 4.84375 -0.828125 L 4.84375 -2.3125 L 4.25 -2.3125 L 4.25 -0.828125 L 2.609375 -0.828125 L 2.609375 -2.3125 L 2 -2.3125 L 2 -0.828125 L 0.296875 -0.828125 L 0.296875 -0.328125 Z M 5.921875 -2.671875 L 5.921875 -3.171875 L 4.84375 -3.171875 L 5.078125 -4.8125 L 4.484375 -4.90625 L 4.28125 -3.171875 L 2.578125 -3.171875 L 2.4375 -4.921875 L 1.8125 -4.859375 L 2 -3.171875 L 0.90625 -3.171875 L 0.90625 -2.671875 Z M 5.921875 -5.265625 L 5.921875 -5.765625 L 0.90625 -5.765625 L 0.90625 -5.265625 Z M 5.921875 -5.265625 "/>
</g>
<g id="glyph-0-39">
<path d="M 6.265625 -3.828125 C 5.21875 -3.921875 3.8125 -4.5625 3.75 -5.484375 L 6 -5.484375 L 6 -6 L 0.859375 -6 L 0.859375 -5.484375 L 3.125 -5.484375 C 3.0625 -4.5625 1.78125 -3.921875 0.625 -3.828125 L 0.90625 -3.3125 C 2.125 -3.515625 3.15625 -4.109375 3.421875 -4.75 C 3.78125 -4.125 4.828125 -3.515625 5.984375 -3.3125 Z M 3.734375 -0.953125 L 3.734375 -2.328125 L 6.5625 -2.328125 L 6.5625 -2.828125 L 0.296875 -2.828125 L 0.296875 -2.328125 L 3.125 -2.328125 L 3.125 -0.953125 Z M 5.921875 0.34375 L 5.921875 -0.171875 L 1.671875 -0.171875 L 1.671875 -1.6875 L 1.078125 -1.6875 L 1.078125 0.34375 Z M 5.921875 0.34375 "/>
</g>
<g id="glyph-1-0">
<path d="M 3.328125 -0.265625 C 4.15625 -0.265625 4.921875 -0.46875 5.375 -0.640625 L 5.375 -3.53125 L 3.09375 -3.53125 L 3.09375 -2.640625 L 4.15625 -2.640625 L 4.15625 -1.359375 C 3.96875 -1.296875 3.625 -1.21875 3.296875 -1.21875 C 1.96875 -1.21875 1.65625 -2.0625 1.65625 -3.296875 L 1.65625 -3.578125 C 1.65625 -4.6875 2.078125 -5.578125 3.484375 -5.578125 C 4.265625 -5.578125 4.734375 -5.390625 5.109375 -5.25 L 5.109375 -6.234375 C 4.75 -6.421875 4.1875 -6.578125 3.375 -6.578125 C 1.765625 -6.578125 0.328125 -5.828125 0.328125 -3.5 L 0.328125 -3.296875 C 0.328125 -1.140625 1.484375 -0.265625 3.328125 -0.265625 Z M 3.328125 -0.265625 "/>
</g>
<g id="glyph-1-1">
<path d="M 0.625 -0.359375 L 2.734375 -0.359375 C 4.6875 -0.359375 5.6875 -1.40625 5.6875 -3.40625 L 5.6875 -3.578125 C 5.6875 -5.609375 4.609375 -6.484375 2.71875 -6.484375 L 0.625 -6.484375 Z M 1.890625 -1.34375 L 1.890625 -5.53125 L 2.65625 -5.53125 C 3.734375 -5.53125 4.359375 -5.078125 4.359375 -3.59375 L 4.359375 -3.296875 C 4.359375 -1.875 3.84375 -1.34375 2.734375 -1.34375 Z M 1.890625 -1.34375 "/>
</g>
<g id="glyph-1-2">
<path d="M 0.625 -0.359375 L 1.890625 -0.359375 L 1.890625 -2.78125 L 2.78125 -2.78125 L 4 -0.359375 L 5.453125 -0.359375 L 3.9375 -3.046875 L 3.9375 -3.09375 C 4.609375 -3.34375 5.015625 -3.8125 5.015625 -4.671875 C 5.015625 -5.890625 4.265625 -6.484375 2.8125 -6.484375 L 0.625 -6.484375 Z M 1.875 -3.609375 L 1.875 -5.546875 L 2.65625 -5.546875 C 3.40625 -5.546875 3.71875 -5.265625 3.71875 -4.609375 C 3.71875 -3.9375 3.421875 -3.609375 2.671875 -3.609375 Z M 1.875 -3.609375 "/>
</g>
<g id="glyph-1-3">
<path d="M 2.71875 -0.265625 C 4.140625 -0.265625 4.875 -1.203125 4.875 -2.390625 C 4.875 -3.5625 4.125 -4.21875 3.046875 -4.21875 C 2.4375 -4.21875 1.9375 -3.96875 1.640625 -3.71875 C 1.734375 -5.15625 2.34375 -5.578125 3.1875 -5.578125 C 3.609375 -5.578125 4.125 -5.4375 4.375 -5.3125 L 4.578125 -6.234375 C 4.3125 -6.390625 3.765625 -6.578125 3.15625 -6.578125 C 1.65625 -6.578125 0.390625 -5.765625 0.390625 -3.40625 L 0.390625 -2.984375 C 0.390625 -1.3125 1.1875 -0.265625 2.71875 -0.265625 Z M 2.6875 -1.171875 C 1.953125 -1.171875 1.65625 -1.765625 1.65625 -2.765625 L 1.65625 -2.8125 C 1.84375 -3.078125 2.265625 -3.34375 2.65625 -3.34375 C 3.234375 -3.34375 3.671875 -3.0625 3.671875 -2.296875 C 3.671875 -1.5625 3.296875 -1.171875 2.6875 -1.171875 Z M 2.6875 -1.171875 "/>
</g>
<g id="glyph-1-4">
<path d="M 2.5 -0.28125 C 3.171875 -0.28125 3.59375 -0.453125 3.890625 -0.640625 L 3.890625 -1.484375 C 3.65625 -1.359375 3.28125 -1.203125 2.734375 -1.203125 C 1.875 -1.203125 1.484375 -1.625 1.484375 -2.640625 L 1.484375 -2.8125 C 1.484375 -3.71875 1.9375 -4.15625 2.6875 -4.15625 C 3.234375 -4.15625 3.484375 -4.0625 3.84375 -3.921875 L 3.84375 -4.796875 C 3.546875 -4.96875 3.1875 -5.078125 2.59375 -5.078125 C 1.21875 -5.078125 0.28125 -4.296875 0.28125 -2.71875 L 0.28125 -2.578125 C 0.28125 -1.0625 1.09375 -0.28125 2.5 -0.28125 Z M 2.5 -0.28125 "/>
</g>
<g id="glyph-1-5">
<path d="M 0.515625 -0.359375 L 1.6875 -0.359375 L 1.6875 -3.90625 C 1.9375 -4 2.3125 -4.125 2.625 -4.125 C 3.203125 -4.125 3.359375 -3.953125 3.359375 -3.515625 L 3.359375 -0.359375 L 4.546875 -0.359375 L 4.546875 -3.796875 C 4.546875 -4.703125 4.078125 -5.078125 3.1875 -5.078125 C 2.625 -5.078125 2.09375 -4.875 1.734375 -4.609375 L 1.6875 -4.609375 L 1.6875 -6.890625 L 0.515625 -6.890625 Z M 0.515625 -0.359375 "/>
</g>
<g id="glyph-1-6">
<path d="M 0.546875 -0.359375 L 1.71875 -0.359375 L 1.71875 -4.984375 L 0.546875 -4.984375 Z M 0.53125 -5.6875 L 1.734375 -5.6875 L 1.734375 -6.6875 L 0.53125 -6.6875 Z M 0.53125 -5.6875 "/>
</g>
<g id="glyph-1-7">
<path d="M 0.515625 0.953125 L 1.6875 0.953125 L 1.6875 -0.53125 C 1.875 -0.40625 2.234375 -0.28125 2.71875 -0.28125 C 3.984375 -0.28125 4.8125 -0.953125 4.8125 -2.71875 L 4.8125 -2.8125 C 4.8125 -4.515625 3.96875 -5.078125 3.015625 -5.078125 C 2.421875 -5.078125 1.96875 -4.875 1.6875 -4.578125 L 1.640625 -4.578125 L 1.640625 -4.984375 L 0.515625 -4.984375 Z M 2.546875 -1.140625 C 2.171875 -1.140625 1.84375 -1.265625 1.6875 -1.375 L 1.6875 -3.890625 C 1.859375 -4 2.171875 -4.125 2.59375 -4.125 C 3.234375 -4.125 3.609375 -3.84375 3.609375 -2.734375 L 3.609375 -2.5625 C 3.609375 -1.484375 3.21875 -1.140625 2.546875 -1.140625 Z M 2.546875 -1.140625 "/>
</g>
<g id="glyph-1-8">
<path d="M 2.0625 0.5625 L 3.046875 0.5625 C 2.25 -0.34375 1.609375 -1.6875 1.609375 -3.125 L 1.609375 -3.390625 C 1.609375 -4.828125 2.25 -6.125 3.046875 -7.015625 L 2.0625 -7.015625 C 1.21875 -6.234375 0.390625 -4.984375 0.390625 -3.3125 L 0.390625 -3.15625 C 0.390625 -1.484375 1.21875 -0.21875 2.0625 0.5625 Z M 2.0625 0.5625 "/>
</g>
<g id="glyph-1-9">
<path d="M 1.265625 -0.328125 L 2.53125 -0.328125 L 2.53125 -6.515625 L 1.875 -6.515625 L 0.265625 -5.796875 L 0.265625 -5.0625 L 1.265625 -5.25 Z M 1.265625 -0.328125 "/>
</g>
<g id="glyph-1-10">
<path d="M 2.375 -0.265625 C 3.96875 -0.265625 4.8125 -1.0625 4.8125 -2.734375 L 4.8125 -2.859375 C 4.8125 -4.546875 3.9375 -5.078125 3.078125 -5.078125 C 2.46875 -5.078125 2.0625 -4.90625 1.734375 -4.6875 L 1.6875 -4.6875 L 1.6875 -6.890625 L 0.515625 -6.890625 L 0.515625 -0.546875 C 0.96875 -0.390625 1.71875 -0.265625 2.375 -0.265625 Z M 2.4375 -1.140625 C 2.09375 -1.140625 1.84375 -1.203125 1.6875 -1.265625 L 1.6875 -3.9375 C 1.859375 -4 2.1875 -4.140625 2.53125 -4.140625 C 3.28125 -4.140625 3.609375 -3.828125 3.609375 -2.734375 L 3.609375 -2.578125 C 3.609375 -1.453125 3.0625 -1.140625 2.4375 -1.140625 Z M 2.4375 -1.140625 "/>
</g>
<g id="glyph-1-11">
<path d="M 0.09375 -0.359375 L 1.25 -0.359375 L 1.75 -1.828125 L 3.921875 -1.828125 L 4.4375 -0.359375 L 5.734375 -0.359375 L 3.59375 -6.484375 L 2.265625 -6.484375 Z M 2.796875 -5.046875 L 2.84375 -5.046875 L 3.625 -2.734375 L 2.03125 -2.734375 Z M 2.796875 -5.046875 "/>
</g>
<g id="glyph-1-12">
<path d="M 0.625 -0.359375 L 1.71875 -0.359375 L 1.71875 -4.953125 L 1.75 -4.953125 L 3.1875 -0.359375 L 4.171875 -0.359375 L 5.625 -4.9375 L 5.65625 -4.9375 L 5.65625 -0.359375 L 6.90625 -0.359375 L 6.90625 -6.484375 L 5.171875 -6.484375 L 3.796875 -2.125 L 3.78125 -2.125 L 2.375 -6.484375 L 0.625 -6.484375 Z M 0.625 -0.359375 "/>
</g>
<g id="glyph-1-13">
<path d="M 0.078125 0.5625 L 1.0625 0.5625 C 1.90625 -0.21875 2.71875 -1.484375 2.71875 -3.140625 L 2.71875 -3.3125 C 2.71875 -4.96875 1.90625 -6.234375 1.0625 -7.015625 L 0.078125 -7.015625 C 0.875 -6.109375 1.546875 -4.75 1.546875 -3.328125 L 1.546875 -3.0625 C 1.546875 -1.625 0.875 -0.328125 0.078125 0.5625 Z M 0.078125 0.5625 "/>
</g>
<g id="glyph-2-0">
<path d="M 5.203125 -3.65625 C 5.296875 -3.75 5.3125 -3.78125 5.3125 -3.84375 C 5.3125 -3.9375 5.234375 -4.03125 5.125 -4.03125 C 5.0625 -4.03125 5.03125 -4 4.9375 -3.90625 L 3.28125 -2.25 L 1.609375 -3.90625 C 1.515625 -4.015625 1.46875 -4.03125 1.421875 -4.03125 C 1.328125 -4.03125 1.234375 -3.9375 1.234375 -3.84375 C 1.234375 -3.765625 1.265625 -3.734375 1.34375 -3.65625 L 3.015625 -1.984375 L 1.359375 -0.328125 C 1.25 -0.21875 1.234375 -0.1875 1.234375 -0.125 C 1.234375 -0.03125 1.328125 0.0625 1.421875 0.0625 C 1.5 0.0625 1.515625 0.03125 1.609375 -0.0625 L 3.265625 -1.71875 L 5 0.015625 C 5.046875 0.03125 5.09375 0.0625 5.125 0.0625 C 5.234375 0.0625 5.3125 -0.03125 5.3125 -0.125 C 5.3125 -0.1875 5.265625 -0.21875 5.265625 -0.234375 C 5.234375 -0.28125 3.96875 -1.546875 3.53125 -1.984375 Z M 5.203125 -3.65625 "/>
</g>
</g>
</defs>
<path fill-rule="nonzero" fill="rgb(86.274719%, 90.979004%, 96.862793%)" fill-opacity="1" stroke-width="0.3985" stroke-linecap="butt" stroke-linejoin="miter" stroke="rgb(28.234863%, 46.273804%, 71.372986%)" stroke-opacity="1" stroke-miterlimit="10" d="M -104.883822 96.378704 L -53.859098 96.378704 L -53.859098 130.393879 L -104.883822 130.393879 Z M -104.883822 96.378704 " transform="matrix(0.995764, 0, 0, -0.995764, 132.002055, 171.8689)"/>
<g fill="rgb(0%, 0%, 0%)" fill-opacity="1">
<use xlink:href="#glyph-0-0" x="41.201305" y="61.969393"/>
<use xlink:href="#glyph-0-1" x="45.852001" y="61.969393"/>
<use xlink:href="#glyph-0-2" x="49.597953" y="61.969393"/>
<use xlink:href="#glyph-0-3" x="53.851832" y="61.969393"/>
</g>
<g fill="rgb(0%, 0%, 0%)" fill-opacity="1">
<use xlink:href="#glyph-0-4" x="59.724723" y="61.969393"/>
</g>
<path fill-rule="nonzero" fill="rgb(86.274719%, 90.979004%, 96.862793%)" fill-opacity="1" stroke-width="0.3985" stroke-linecap="butt" stroke-linejoin="miter" stroke="rgb(28.234863%, 46.273804%, 71.372986%)" stroke-opacity="1" stroke-miterlimit="10" d="M -25.512464 96.378704 L 25.51226 96.378704 L 25.51226 130.393879 L -25.512464 130.393879 Z M -25.512464 96.378704 " transform="matrix(0.995764, 0, 0, -0.995764, 132.002055, 171.8689)"/>
<g fill="rgb(0%, 0%, 0%)" fill-opacity="1">
<use xlink:href="#glyph-0-0" x="121.319496" y="61.969393"/>
<use xlink:href="#glyph-0-1" x="125.970192" y="61.969393"/>
<use xlink:href="#glyph-0-2" x="129.716144" y="61.969393"/>
<use xlink:href="#glyph-0-3" x="133.970023" y="61.969393"/>
</g>
<g fill="rgb(0%, 0%, 0%)" fill-opacity="1">
<use xlink:href="#glyph-0-5" x="139.842914" y="61.969393"/>
</g>
<path fill-rule="nonzero" fill="rgb(86.274719%, 90.979004%, 96.862793%)" fill-opacity="1" stroke-width="0.3985" stroke-linecap="butt" stroke-linejoin="miter" stroke="rgb(28.234863%, 46.273804%, 71.372986%)" stroke-opacity="1" stroke-miterlimit="10" d="M 53.858894 96.378704 L 104.883618 96.378704 L 104.883618 130.393879 L 53.858894 130.393879 Z M 53.858894 96.378704 " transform="matrix(0.995764, 0, 0, -0.995764, 132.002055, 171.8689)"/>
<g fill="rgb(0%, 0%, 0%)" fill-opacity="1">
<use xlink:href="#glyph-0-0" x="199.656265" y="61.969393"/>
<use xlink:href="#glyph-0-1" x="204.306961" y="61.969393"/>
<use xlink:href="#glyph-0-2" x="208.052913" y="61.969393"/>
<use xlink:href="#glyph-0-3" x="212.306792" y="61.969393"/>
</g>
<g fill="rgb(0%, 0%, 0%)" fill-opacity="1">
<use xlink:href="#glyph-0-6" x="218.179683" y="61.969393"/>
</g>
<path fill-rule="nonzero" fill="rgb(86.274719%, 90.979004%, 96.862793%)" fill-opacity="1" stroke-width="0.3985" stroke-linecap="butt" stroke-linejoin="miter" stroke="rgb(28.234863%, 46.273804%, 71.372986%)" stroke-opacity="1" stroke-miterlimit="10" d="M -104.883822 53.858754 L -53.859098 53.858754 L -53.859098 87.873929 L -104.883822 87.873929 Z M -104.883822 53.858754 " transform="matrix(0.995764, 0, 0, -0.995764, 132.002055, 171.8689)"/>
<g fill="rgb(0%, 0%, 0%)" fill-opacity="1">
<use xlink:href="#glyph-0-0" x="41.499039" y="104.310282"/>
<use xlink:href="#glyph-0-1" x="46.149734" y="104.310282"/>
<use xlink:href="#glyph-0-2" x="49.895687" y="104.310282"/>
<use xlink:href="#glyph-0-3" x="54.149565" y="104.310282"/>
</g>
<g fill="rgb(0%, 0%, 0%)" fill-opacity="1">
<use xlink:href="#glyph-0-7" x="60.022457" y="104.310282"/>
</g>
<path fill-rule="nonzero" fill="rgb(86.274719%, 90.979004%, 96.862793%)" fill-opacity="1" stroke-width="0.3985" stroke-linecap="butt" stroke-linejoin="miter" stroke="rgb(28.234863%, 46.273804%, 71.372986%)" stroke-opacity="1" stroke-miterlimit="10" d="M -25.512464 53.858754 L 25.51226 53.858754 L 25.51226 87.873929 L -25.512464 87.873929 Z M -25.512464 53.858754 " transform="matrix(0.995764, 0, 0, -0.995764, 132.002055, 171.8689)"/>
<g fill="rgb(0%, 0%, 0%)" fill-opacity="1">
<use xlink:href="#glyph-0-0" x="120.755894" y="104.310282"/>
<use xlink:href="#glyph-0-1" x="125.406589" y="104.310282"/>
<use xlink:href="#glyph-0-2" x="129.152542" y="104.310282"/>
<use xlink:href="#glyph-0-3" x="133.40642" y="104.310282"/>
</g>
<g fill="rgb(0%, 0%, 0%)" fill-opacity="1">
<use xlink:href="#glyph-0-8" x="139.279312" y="104.310282"/>
</g>
<path fill-rule="nonzero" fill="rgb(86.274719%, 90.979004%, 96.862793%)" fill-opacity="1" stroke-width="0.3985" stroke-linecap="butt" stroke-linejoin="miter" stroke="rgb(28.234863%, 46.273804%, 71.372986%)" stroke-opacity="1" stroke-miterlimit="10" d="M 53.858894 53.858754 L 104.883618 53.858754 L 104.883618 87.873929 L 53.858894 87.873929 Z M 53.858894 53.858754 " transform="matrix(0.995764, 0, 0, -0.995764, 132.002055, 171.8689)"/>
<g fill="rgb(0%, 0%, 0%)" fill-opacity="1">
<use xlink:href="#glyph-0-0" x="199.572621" y="104.310282"/>
<use xlink:href="#glyph-0-1" x="204.223317" y="104.310282"/>
<use xlink:href="#glyph-0-2" x="207.969269" y="104.310282"/>
<use xlink:href="#glyph-0-3" x="212.223148" y="104.310282"/>
</g>
<g fill="rgb(0%, 0%, 0%)" fill-opacity="1">
<use xlink:href="#glyph-0-9" x="218.096039" y="104.310282"/>
</g>
<g fill="rgb(47.099304%, 47.099304%, 47.099304%)" fill-opacity="1">
<use xlink:href="#glyph-0-10" x="108.859499" y="135.24071"/>
<use xlink:href="#glyph-0-11" x="115.724433" y="135.24071"/>
<use xlink:href="#glyph-0-12" x="118.240253" y="135.24071"/>
</g>
<g fill="rgb(47.099304%, 47.099304%, 47.099304%)" fill-opacity="1">
<use xlink:href="#glyph-0-5" x="127.184509" y="135.24071"/>
<use xlink:href="#glyph-0-9" x="130.017782" y="135.24071"/>
</g>
<g fill="rgb(47.099304%, 47.099304%, 47.099304%)" fill-opacity="1">
<use xlink:href="#glyph-0-13" x="136.501772" y="135.24071"/>
<use xlink:href="#glyph-0-1" x="140.827077" y="135.24071"/>
<use xlink:href="#glyph-0-2" x="144.57303" y="135.24071"/>
<use xlink:href="#glyph-0-3" x="148.826908" y="135.24071"/>
</g>
<g fill="rgb(47.099304%, 47.099304%, 47.099304%)" fill-opacity="1">
<use xlink:href="#glyph-0-14" x="152.628415" y="135.24071"/>
</g>
<path fill-rule="nonzero" fill="rgb(97.645569%, 87.057495%, 87.057495%)" fill-opacity="1" stroke-width="0.49814" stroke-linecap="butt" stroke-linejoin="miter" stroke="rgb(77.253723%, 36.471558%, 36.471558%)" stroke-opacity="1" stroke-miterlimit="10" d="M 97.22226 25.51212 L -97.222464 25.51212 C -98.320867 25.51212 -99.21528 24.62163 -99.21528 23.519304 L -99.21528 -12.182704 C -99.21528 -13.281107 -98.320867 -14.171597 -97.222464 -14.171597 L 97.22226 -14.171597 C 98.320663 -14.171597 99.215076 -13.281107 99.215076 -12.182704 L 99.215076 23.519304 C 99.215076 24.62163 98.320663 25.51212 97.22226 25.51212 Z M 97.22226 25.51212 " transform="matrix(0.995764, 0, 0, -0.995764, 132.002055, 171.8689)"/>
<g fill="rgb(0%, 0%, 0%)" fill-opacity="1">
<use xlink:href="#glyph-0-15" x="119.465384" y="164.225414"/>
<use xlink:href="#glyph-0-16" x="121.520896" y="164.225414"/>
<use xlink:href="#glyph-0-17" x="124.203379" y="164.225414"/>
</g>
<g fill="rgb(0%, 0%, 0%)" fill-opacity="1">
<use xlink:href="#glyph-0-18" x="131.719093" y="164.225414"/>
<use xlink:href="#glyph-0-19" x="134.465066" y="164.225414"/>
<use xlink:href="#glyph-0-2" x="136.266616" y="164.225414"/>
<use xlink:href="#glyph-0-20" x="140.520494" y="164.225414"/>
</g>
<g fill="rgb(0%, 0%, 0%)" fill-opacity="1">
<use xlink:href="#glyph-0-11" x="69.077724" y="173.650322"/>
<use xlink:href="#glyph-0-21" x="71.593544" y="173.650322"/>
<use xlink:href="#glyph-0-22" x="75.164897" y="173.650322"/>
<use xlink:href="#glyph-0-23" x="76.966446" y="173.650322"/>
<use xlink:href="#glyph-0-21" x="81.204452" y="173.650322"/>
<use xlink:href="#glyph-0-3" x="84.775805" y="173.650322"/>
<use xlink:href="#glyph-0-24" x="88.569375" y="173.650322"/>
</g>
<g fill="rgb(0%, 0%, 0%)" fill-opacity="1">
<use xlink:href="#glyph-0-21" x="92.442309" y="173.650322"/>
<use xlink:href="#glyph-0-23" x="96.013662" y="173.650322"/>
<use xlink:href="#glyph-0-25" x="100.251668" y="173.650322"/>
</g>
<g fill="rgb(0%, 0%, 0%)" fill-opacity="1">
<use xlink:href="#glyph-0-25" x="106.632486" y="173.650322"/>
<use xlink:href="#glyph-0-1" x="113.005367" y="173.650322"/>
<use xlink:href="#glyph-0-2" x="116.751319" y="173.650322"/>
<use xlink:href="#glyph-0-26" x="121.005198" y="173.650322"/>
<use xlink:href="#glyph-0-24" x="125.330503" y="173.650322"/>
</g>
<g fill="rgb(0%, 0%, 0%)" fill-opacity="1">
<use xlink:href="#glyph-0-26" x="129.211373" y="173.650322"/>
<use xlink:href="#glyph-0-1" x="133.536679" y="173.650322"/>
<use xlink:href="#glyph-0-27" x="137.282631" y="173.650322"/>
<use xlink:href="#glyph-0-1" x="140.060351" y="173.650322"/>
<use xlink:href="#glyph-0-24" x="143.806303" y="173.650322"/>
</g>
<g fill="rgb(0%, 0%, 0%)" fill-opacity="1">
<use xlink:href="#glyph-0-28" x="147.687173" y="173.650322"/>
<use xlink:href="#glyph-0-18" x="151.591853" y="173.650322"/>
<use xlink:href="#glyph-0-29" x="154.337827" y="173.650322"/>
<use xlink:href="#glyph-0-30" x="158.305997" y="173.650322"/>
</g>
<g fill="rgb(0%, 0%, 0%)" fill-opacity="1">
<use xlink:href="#glyph-0-14" x="161.305933" y="173.650322"/>
</g>
<g fill="rgb(0%, 0%, 0%)" fill-opacity="1">
<use xlink:href="#glyph-0-31" x="165.909011" y="173.650322"/>
</g>
<g fill="rgb(0%, 0%, 0%)" fill-opacity="1">
<use xlink:href="#glyph-0-32" x="174.440576" y="173.650322"/>
</g>
<g fill="rgb(0%, 0%, 0%)" fill-opacity="1">
<use xlink:href="#glyph-0-6" x="178.535728" y="173.650322"/>
</g>
<g fill="rgb(0%, 0%, 0%)" fill-opacity="1">
<use xlink:href="#glyph-0-33" x="182.599134" y="173.650322"/>
<use xlink:href="#glyph-0-13" x="186.027633" y="173.650322"/>
<use xlink:href="#glyph-0-19" x="190.352938" y="173.650322"/>
<use xlink:href="#glyph-0-27" x="192.154488" y="173.650322"/>
</g>
<path fill-rule="nonzero" fill="rgb(97.332764%, 97.332764%, 97.332764%)" fill-opacity="1" stroke-width="0.3985" stroke-linecap="butt" stroke-linejoin="miter" stroke="rgb(47.059631%, 47.059631%, 47.059631%)" stroke-opacity="1" stroke-miterlimit="10" d="M 118.103679 147.603495 L -118.103883 147.603495 C -120.304611 147.603495 -122.089515 145.81859 -122.089515 143.617862 L -122.089515 -27.446578 C -122.089515 -29.647306 -120.304611 -31.43221 -118.103883 -31.43221 L 118.103679 -31.43221 C 120.30833 -31.43221 122.089311 -29.647306 122.089311 -27.446578 L 122.089311 143.617862 C 122.089311 145.81859 120.30833 147.603495 118.103679 147.603495 Z M 118.103679 147.603495 " transform="matrix(0.995764, 0, 0, -0.995764, 132.002055, 171.8689)"/>
<g fill="rgb(11.799622%, 11.799622%, 11.799622%)" fill-opacity="1">
<use xlink:href="#glyph-1-0" x="79.376913" y="20.241894"/>
<use xlink:href="#glyph-1-1" x="85.207171" y="20.241894"/>
<use xlink:href="#glyph-1-1" x="91.233855" y="20.241894"/>
<use xlink:href="#glyph-1-2" x="97.260538" y="20.241894"/>
<use xlink:href="#glyph-1-3" x="102.78723" y="20.241894"/>
</g>
<g fill="rgb(11.799622%, 11.799622%, 11.799622%)" fill-opacity="1">
<use xlink:href="#glyph-1-4" x="110.367459" y="20.241894"/>
<use xlink:href="#glyph-1-5" x="114.501317" y="20.241894"/>
<use xlink:href="#glyph-1-6" x="119.528018" y="20.241894"/>
<use xlink:href="#glyph-1-7" x="121.786908" y="20.241894"/>
</g>
<g fill="rgb(11.799622%, 11.799622%, 11.799622%)" fill-opacity="1">
<use xlink:href="#glyph-1-8" x="129.251067" y="20.241894"/>
</g>
<g fill="rgb(11.799622%, 11.799622%, 11.799622%)" fill-opacity="1">
<use xlink:href="#glyph-1-9" x="132.331372" y="20.241894"/>
<use xlink:href="#glyph-1-3" x="135.67953" y="20.241894"/>
</g>
<g fill="rgb(11.799622%, 11.799622%, 11.799622%)" fill-opacity="1">
<use xlink:href="#glyph-1-0" x="143.259758" y="20.241894"/>
</g>
<g fill="rgb(11.799622%, 11.799622%, 11.799622%)" fill-opacity="1">
<use xlink:href="#glyph-1-10" x="149.098945" y="20.241894"/>
</g>
<g fill="rgb(11.799622%, 11.799622%, 11.799622%)" fill-opacity="1">
<use xlink:href="#glyph-1-1" x="156.563104" y="20.241894"/>
<use xlink:href="#glyph-1-2" x="162.589788" y="20.241894"/>
<use xlink:href="#glyph-1-11" x="168.11648" y="20.241894"/>
<use xlink:href="#glyph-1-12" x="173.946738" y="20.241894"/>
<use xlink:href="#glyph-1-13" x="181.482325" y="20.241894"/>
</g>
<g fill="rgb(47.099304%, 47.099304%, 47.099304%)" fill-opacity="1">
<use xlink:href="#glyph-0-0" x="49.286911" y="212.996948"/>
<use xlink:href="#glyph-0-34" x="53.937606" y="212.996948"/>
<use xlink:href="#glyph-0-35" x="58.961309" y="212.996948"/>
</g>
<g fill="rgb(47.099304%, 47.099304%, 47.099304%)" fill-opacity="1">
<use xlink:href="#glyph-0-36" x="65.842116" y="212.996948"/>
<use xlink:href="#glyph-0-1" x="70.167422" y="212.996948"/>
<use xlink:href="#glyph-0-21" x="73.913374" y="212.996948"/>
<use xlink:href="#glyph-0-3" x="77.484727" y="212.996948"/>
</g>
<g fill="rgb(47.099304%, 47.099304%, 47.099304%)" fill-opacity="1">
<use xlink:href="#glyph-0-1" x="81.206871" y="212.996948"/>
</g>
<g fill="rgb(47.099304%, 47.099304%, 47.099304%)" fill-opacity="1">
<use xlink:href="#glyph-0-20" x="84.913142" y="212.996948"/>
<use xlink:href="#glyph-0-29" x="88.92893" y="212.996948"/>
</g>
<g fill="rgb(47.099304%, 47.099304%, 47.099304%)" fill-opacity="1">
<use xlink:href="#glyph-0-11" x="94.984357" y="212.996948"/>
<use xlink:href="#glyph-0-5" x="97.500177" y="212.996948"/>
<use xlink:href="#glyph-0-37" x="100.333451" y="212.996948"/>
<use xlink:href="#glyph-0-4" x="104.896846" y="212.996948"/>
<use xlink:href="#glyph-0-33" x="109.896741" y="212.996948"/>
<use xlink:href="#glyph-0-13" x="113.32524" y="212.996948"/>
<use xlink:href="#glyph-0-1" x="117.650545" y="212.996948"/>
<use xlink:href="#glyph-0-22" x="121.396498" y="212.996948"/>
<use xlink:href="#glyph-0-22" x="123.198047" y="212.996948"/>
<use xlink:href="#glyph-0-14" x="124.999596" y="212.996948"/>
<use xlink:href="#glyph-0-24" x="127.515416" y="212.996948"/>
</g>
<g fill="rgb(47.099304%, 47.099304%, 47.099304%)" fill-opacity="1">
<use xlink:href="#glyph-0-38" x="131.396286" y="212.996948"/>
<use xlink:href="#glyph-0-39" x="138.26122" y="212.996948"/>
</g>
<g fill="rgb(47.099304%, 47.099304%, 47.099304%)" fill-opacity="1">
<use xlink:href="#glyph-0-30" x="147.213412" y="212.996948"/>
<use xlink:href="#glyph-0-23" x="149.77685" y="212.996948"/>
<use xlink:href="#glyph-0-23" x="154.014856" y="212.996948"/>
<use xlink:href="#glyph-0-27" x="158.252861" y="212.996948"/>
<use xlink:href="#glyph-0-36" x="161.03058" y="212.996948"/>
<use xlink:href="#glyph-0-18" x="165.355886" y="212.996948"/>
<use xlink:href="#glyph-0-19" x="168.10186" y="212.996948"/>
<use xlink:href="#glyph-0-2" x="169.903409" y="212.996948"/>
<use xlink:href="#glyph-0-27" x="174.157287" y="212.996948"/>
</g>
<g fill="rgb(47.099304%, 47.099304%, 47.099304%)" fill-opacity="1">
<use xlink:href="#glyph-0-5" x="179.022264" y="212.996948"/>
<use xlink:href="#glyph-0-7" x="181.855537" y="212.996948"/>
</g>
<g fill="rgb(47.099304%, 47.099304%, 47.099304%)" fill-opacity="1">
<use xlink:href="#glyph-2-0" x="186.26025" y="212.996948"/>
</g>
<g fill="rgb(47.099304%, 47.099304%, 47.099304%)" fill-opacity="1">
<use xlink:href="#glyph-0-5" x="192.819349" y="212.996948"/>
<use xlink:href="#glyph-0-6" x="195.652622" y="212.996948"/>
</g>
<g fill="rgb(47.099304%, 47.099304%, 47.099304%)" fill-opacity="1">
<use xlink:href="#glyph-0-25" x="201.962012" y="212.996948"/>
<use xlink:href="#glyph-0-25" x="208.334894" y="212.996948"/>
</g>
</svg>
