<?xml version="1.0" encoding="UTF-8"?>
<svg xmlns="http://www.w3.org/2000/svg" xmlns:xlink="http://www.w3.org/1999/xlink" width="442.69pt" height="173.35pt" viewBox="0 0 442.69 173.35">
<defs>
<g>
<g id="glyph-0-0">
<path d="M 0.6875 -0.40625 L 3.390625 -0.40625 C 5.046875 -0.40625 5.796875 -1.234375 5.796875 -2.34375 C 5.796875 -3.34375 5.25 -3.8125 4.390625 -3.96875 L 4.390625 -4 C 5.1875 -4.25 5.515625 -4.765625 5.515625 -5.5 C 5.515625 -6.59375 4.796875 -7.21875 3.25 -7.21875 L 0.6875 -7.21875 Z M 2.09375 -1.40625 L 2.09375 -3.46875 L 3.09375 -3.46875 C 3.90625 -3.46875 4.34375 -3.171875 4.34375 -2.453125 C 4.34375 -1.75 3.921875 -1.40625 3.140625 -1.40625 Z M 2.09375 -4.328125 L 2.09375 -6.21875 L 3 -6.21875 C 3.734375 -6.21875 4.125 -5.984375 4.125 -5.28125 C 4.125 -4.578125 3.625 -4.328125 2.96875 -4.328125 Z M 2.09375 -4.328125 "/>
</g>
<g id="glyph-0-1">
<path d="M 2.890625 -0.3125 C 3.796875 -0.3125 4.390625 -0.5625 4.75 -0.796875 L 4.75 -1.640625 C 4.3125 -1.453125 3.828125 -1.3125 3.1875 -1.3125 C 2.265625 -1.3125 1.71875 -1.640625 1.640625 -2.625 L 4.9375 -2.625 L 4.9375 -3.109375 C 4.9375 -4.75 4.28125 -5.640625 2.71875 -5.640625 C 1.328125 -5.640625 0.3125 -4.75 0.3125 -3.046875 L 0.3125 -2.921875 C 0.3125 -1.265625 1.171875 -0.3125 2.890625 -0.3125 Z M 2.6875 -4.71875 C 3.328125 -4.71875 3.65625 -4.375 3.65625 -3.46875 L 1.640625 -3.46875 C 1.703125 -4.4375 2.21875 -4.71875 2.6875 -4.71875 Z M 2.6875 -4.71875 "/>
</g>
<g id="glyph-0-2">
<path d="M 0.890625 -0.40625 L 2.1875 -0.40625 L 2.1875 -4.578125 L 3.296875 -4.578125 L 3.296875 -5.546875 L 2.1875 -5.546875 L 2.1875 -6.015625 C 2.1875 -6.5625 2.453125 -6.796875 2.984375 -6.796875 C 3.265625 -6.796875 3.484375 -6.75 3.625 -6.734375 L 3.625 -7.578125 C 3.4375 -7.65625 3.078125 -7.734375 2.59375 -7.734375 C 1.625 -7.734375 0.890625 -7.25 0.890625 -6.15625 L 0.890625 -5.546875 L 0.203125 -5.546875 L 0.203125 -4.578125 L 0.890625 -4.578125 Z M 0.890625 -0.40625 "/>
</g>
<g id="glyph-0-3">
<path d="M 2.78125 -0.3125 C 4.25 -0.3125 5.28125 -1.234375 5.28125 -2.921875 L 5.28125 -3.0625 C 5.28125 -4.71875 4.390625 -5.640625 2.796875 -5.640625 C 1.34375 -5.640625 0.3125 -4.703125 0.3125 -3.03125 L 0.3125 -2.890625 C 0.3125 -1.265625 1.1875 -0.3125 2.78125 -0.3125 Z M 2.8125 -1.265625 C 2.15625 -1.265625 1.640625 -1.609375 1.640625 -2.890625 L 1.640625 -3.109375 C 1.640625 -4.203125 2.0625 -4.6875 2.78125 -4.6875 C 3.4375 -4.6875 3.9375 -4.359375 3.9375 -3.0625 L 3.9375 -2.828125 C 3.9375 -1.75 3.515625 -1.265625 2.8125 -1.265625 Z M 2.8125 -1.265625 "/>
</g>
<g id="glyph-0-4">
<path d="M 0.578125 -0.40625 L 1.875 -0.40625 L 1.875 -4.125 C 2.1875 -4.3125 2.640625 -4.4375 3.09375 -4.4375 C 3.21875 -4.4375 3.390625 -4.421875 3.5 -4.40625 L 3.5 -5.5625 C 3.46875 -5.59375 3.34375 -5.59375 3.203125 -5.59375 C 2.65625 -5.59375 2.140625 -5.328125 1.875 -4.9375 L 1.828125 -4.9375 L 1.828125 -5.546875 L 0.578125 -5.546875 Z M 0.578125 -0.40625 "/>
</g>
<g id="glyph-0-5">
<path d="M 8 -4.109375 L 0.046875 -4.109375 L 0.046875 -3.359375 L 8 -3.359375 Z M 8 -4.109375 "/>
</g>
<g id="glyph-0-6">
<path d="M 0.71875 -0.40625 L 2.140625 -0.40625 L 2.140625 -7.21875 L 0.71875 -7.21875 Z M 0.71875 -0.40625 "/>
</g>
<g id="glyph-0-7">
<path d="M 0.578125 -0.40625 L 1.875 -0.40625 L 1.875 -4.328125 C 2.15625 -4.453125 2.5625 -4.59375 2.921875 -4.59375 C 3.5625 -4.59375 3.734375 -4.390625 3.734375 -3.90625 L 3.734375 -0.40625 L 5.046875 -0.40625 L 5.046875 -4.21875 C 5.046875 -5.234375 4.53125 -5.640625 3.546875 -5.640625 C 2.921875 -5.640625 2.3125 -5.421875 1.875 -5.09375 L 1.828125 -5.09375 L 1.828125 -5.546875 L 0.578125 -5.546875 Z M 0.578125 -0.40625 "/>
</g>
<g id="glyph-0-8">
<path d="M 0.578125 -0.40625 L 1.875 -0.40625 L 1.875 -4.328125 C 2.15625 -4.453125 2.5625 -4.59375 2.921875 -4.59375 C 3.5625 -4.59375 3.734375 -4.390625 3.734375 -3.90625 L 3.734375 -0.40625 L 5.046875 -0.40625 L 5.046875 -4.21875 C 5.046875 -5.234375 4.53125 -5.640625 3.546875 -5.640625 C 2.921875 -5.640625 2.328125 -5.421875 1.9375 -5.125 L 1.875 -5.125 L 1.875 -7.65625 L 0.578125 -7.65625 Z M 0.578125 -0.40625 "/>
</g>
<g id="glyph-0-9">
<path d="M 0.609375 -0.40625 L 1.921875 -0.40625 L 1.921875 -5.546875 L 0.609375 -5.546875 Z M 0.59375 -6.3125 L 1.921875 -6.3125 L 1.921875 -7.4375 L 0.59375 -7.4375 Z M 0.59375 -6.3125 "/>
</g>
<g id="glyph-0-10">
<path d="M 2.390625 -0.34375 C 2.890625 -0.34375 3.203125 -0.453125 3.390625 -0.5625 L 3.390625 -1.421875 C 3.25 -1.375 3.03125 -1.34375 2.84375 -1.34375 C 2.34375 -1.34375 2.15625 -1.484375 2.15625 -1.921875 L 2.15625 -4.578125 L 3.34375 -4.578125 L 3.34375 -5.546875 L 2.15625 -5.546875 L 2.15625 -6.75 L 0.890625 -6.75 L 0.890625 -5.546875 L 0.203125 -5.546875 L 0.203125 -4.578125 L 0.890625 -4.578125 L 0.890625 -1.71875 C 0.890625 -0.6875 1.453125 -0.34375 2.390625 -0.34375 Z M 2.390625 -0.34375 "/>
</g>
<g id="glyph-0-11">
<path d="M 1.890625 -0.3125 C 2.546875 -0.3125 2.96875 -0.53125 3.203125 -0.828125 L 3.265625 -0.828125 L 3.359375 -0.40625 L 4.421875 -0.40625 L 4.421875 -4.09375 C 4.421875 -5.203125 3.71875 -5.640625 2.515625 -5.640625 C 1.796875 -5.640625 1.21875 -5.53125 0.71875 -5.359375 L 0.71875 -4.4375 C 1.046875 -4.546875 1.515625 -4.609375 2.015625 -4.609375 C 2.859375 -4.609375 3.140625 -4.453125 3.140625 -3.8125 L 3.140625 -3.46875 L 2 -3.328125 C 0.96875 -3.1875 0.28125 -2.75 0.28125 -1.78125 C 0.28125 -0.78125 0.953125 -0.3125 1.890625 -0.3125 Z M 2.296875 -1.203125 C 1.875 -1.203125 1.5625 -1.40625 1.5625 -1.875 C 1.5625 -2.34375 1.8125 -2.53125 2.296875 -2.578125 L 3.140625 -2.671875 L 3.140625 -1.484375 C 2.96875 -1.3125 2.625 -1.203125 2.296875 -1.203125 Z M 2.296875 -1.203125 "/>
</g>
<g id="glyph-0-12">
<path d="M 2.78125 -0.3125 C 3.515625 -0.3125 4 -0.5 4.328125 -0.703125 L 4.328125 -1.640625 C 4.0625 -1.515625 3.640625 -1.34375 3.03125 -1.34375 C 2.09375 -1.34375 1.65625 -1.8125 1.65625 -2.9375 L 1.65625 -3.140625 C 1.65625 -4.140625 2.15625 -4.609375 3 -4.609375 C 3.59375 -4.609375 3.875 -4.515625 4.28125 -4.359375 L 4.28125 -5.34375 C 3.953125 -5.53125 3.546875 -5.640625 2.875 -5.640625 C 1.359375 -5.640625 0.3125 -4.78125 0.3125 -3.015625 L 0.3125 -2.875 C 0.3125 -1.1875 1.21875 -0.3125 2.78125 -0.3125 Z M 2.78125 -0.3125 "/>
</g>
<g id="glyph-0-13">
<path d="M 0.09375 -0.40625 L 1.390625 -0.40625 L 1.9375 -2.03125 L 4.359375 -2.03125 L 4.9375 -0.40625 L 6.375 -0.40625 L 3.984375 -7.21875 L 2.515625 -7.21875 Z M 3.109375 -5.609375 L 3.15625 -5.609375 L 4.03125 -3.03125 L 2.265625 -3.03125 Z M 3.109375 -5.609375 "/>
</g>
<g id="glyph-0-14">
<path d="M 0.6875 -0.40625 L 3.03125 -0.40625 C 5.203125 -0.40625 6.328125 -1.5625 6.328125 -3.78125 L 6.328125 -3.984375 C 6.328125 -6.234375 5.125 -7.21875 3.03125 -7.21875 L 0.6875 -7.21875 Z M 2.109375 -1.484375 L 2.109375 -6.15625 L 2.953125 -6.15625 C 4.15625 -6.15625 4.84375 -5.65625 4.84375 -4 L 4.84375 -3.65625 C 4.84375 -2.078125 4.28125 -1.484375 3.03125 -1.484375 Z M 2.109375 -1.484375 "/>
</g>
<g id="glyph-0-15">
<path d="M 0.609375 -0.40625 L 1.921875 -0.40625 L 1.921875 -7.65625 L 0.609375 -7.65625 Z M 0.609375 -0.40625 "/>
</g>
<g id="glyph-0-16">
<path d="M 2.515625 1.0625 C 4.34375 1.0625 5.171875 0.359375 5.171875 -0.671875 C 5.171875 -1.65625 4.484375 -2.015625 3.46875 -2.015625 L 2.046875 -2.015625 C 1.71875 -2.015625 1.625 -2.03125 1.625 -2.265625 C 1.625 -2.375 1.671875 -2.421875 1.765625 -2.515625 C 2 -2.4375 2.265625 -2.421875 2.5625 -2.421875 C 3.765625 -2.421875 4.640625 -2.890625 4.640625 -3.984375 L 4.640625 -4.0625 C 4.640625 -4.375 4.546875 -4.546875 4.390625 -4.75 L 5.15625 -4.75 L 5.15625 -5.546875 L 3.40625 -5.546875 C 3.140625 -5.609375 2.875 -5.640625 2.5625 -5.640625 C 1.3125 -5.640625 0.46875 -5.109375 0.46875 -4.03125 L 0.46875 -3.953125 C 0.46875 -3.359375 0.703125 -2.984375 1.125 -2.734375 C 0.71875 -2.4375 0.515625 -2.265625 0.515625 -1.890625 C 0.515625 -1.5 0.734375 -1.3125 1.046875 -1.1875 L 1.046875 -1.125 C 0.515625 -0.96875 0.09375 -0.65625 0.09375 -0.125 C 0.09375 0.640625 0.859375 1.0625 2.515625 1.0625 Z M 2.484375 0.1875 C 1.640625 0.1875 1.359375 0.046875 1.359375 -0.3125 C 1.359375 -0.640625 1.5625 -0.796875 1.828125 -0.890625 L 3.078125 -0.890625 C 3.671875 -0.890625 3.84375 -0.828125 3.84375 -0.453125 C 3.84375 -0.03125 3.5 0.1875 2.484375 0.1875 Z M 2.5625 -3.21875 C 2.03125 -3.21875 1.71875 -3.40625 1.71875 -3.984375 L 1.71875 -4.09375 C 1.71875 -4.609375 2.015625 -4.828125 2.5625 -4.828125 C 3.0625 -4.828125 3.390625 -4.65625 3.390625 -4.078125 L 3.390625 -3.96875 C 3.390625 -3.40625 3.078125 -3.21875 2.5625 -3.21875 Z M 2.5625 -3.21875 "/>
</g>
<g id="glyph-1-0">
<path d="M 0.765625 -0.375 L 2.78125 -0.375 C 4.125 -0.375 4.8125 -1.078125 4.8125 -2.0625 C 4.8125 -2.96875 4.265625 -3.390625 3.546875 -3.515625 L 3.546875 -3.5625 C 4.25 -3.765625 4.546875 -4.234375 4.546875 -4.859375 C 4.546875 -5.8125 3.984375 -6.375 2.59375 -6.375 L 0.765625 -6.375 Z M 1.46875 -0.96875 L 1.46875 -3.1875 L 2.65625 -3.1875 C 3.5625 -3.1875 4.0625 -2.890625 4.0625 -2.109375 C 4.0625 -1.34375 3.609375 -0.96875 2.734375 -0.96875 Z M 1.46875 -3.75 L 1.46875 -5.78125 L 2.546875 -5.78125 C 3.390625 -5.78125 3.8125 -5.53125 3.8125 -4.78125 C 3.8125 -4 3.25 -3.75 2.5 -3.75 Z M 1.46875 -3.75 "/>
</g>
<g id="glyph-1-1">
<path d="M 2.375 -0.296875 C 3.578125 -0.296875 4.390625 -1.140625 4.390625 -2.546875 L 4.390625 -2.671875 C 4.390625 -4.078125 3.640625 -4.890625 2.390625 -4.890625 C 1.1875 -4.890625 0.375 -4.046875 0.375 -2.640625 L 0.375 -2.515625 C 0.375 -1.09375 1.125 -0.296875 2.375 -0.296875 Z M 2.390625 -0.859375 C 1.65625 -0.859375 1.078125 -1.265625 1.078125 -2.5 L 1.078125 -2.71875 C 1.078125 -3.75 1.578125 -4.328125 2.375 -4.328125 C 3.09375 -4.328125 3.703125 -3.921875 3.703125 -2.6875 L 3.703125 -2.46875 C 3.703125 -1.421875 3.203125 -0.859375 2.390625 -0.859375 Z M 2.390625 -0.859375 "/>
</g>
<g id="glyph-1-2">
<path d="M 0.65625 -0.375 L 1.328125 -0.375 L 1.328125 -6.78125 L 0.65625 -6.78125 Z M 3.28125 -0.375 L 4.0625 -0.375 L 2.1875 -2.71875 L 3.921875 -4.796875 L 3.1875 -4.796875 L 1.40625 -2.65625 Z M 3.28125 -0.375 "/>
</g>
<g id="glyph-1-3">
<path d="M 0.671875 -0.375 L 1.359375 -0.375 L 1.359375 -4.796875 L 0.671875 -4.796875 Z M 0.671875 -5.6875 L 1.375 -5.6875 L 1.375 -6.40625 L 0.671875 -6.40625 Z M 0.671875 -5.6875 "/>
</g>
<g id="glyph-1-4">
<path d="M 0.65625 -0.375 L 1.328125 -0.375 L 1.328125 -3.984375 C 1.703125 -4.140625 2.15625 -4.296875 2.578125 -4.296875 C 3.28125 -4.296875 3.484375 -4.078125 3.484375 -3.546875 L 3.484375 -0.375 L 4.15625 -0.375 L 4.15625 -3.6875 C 4.15625 -4.546875 3.734375 -4.890625 2.875 -4.890625 C 2.328125 -4.890625 1.75 -4.6875 1.34375 -4.421875 L 1.3125 -4.421875 L 1.3125 -4.8125 L 0.65625 -4.8125 Z M 0.65625 -0.375 "/>
</g>
<g id="glyph-1-5">
<path d="M 2.203125 0.9375 C 3.703125 0.9375 4.3125 0.34375 4.3125 -0.421875 C 4.3125 -1.25 3.71875 -1.484375 2.90625 -1.484375 L 1.6875 -1.484375 C 1.390625 -1.484375 1.25 -1.578125 1.25 -1.8125 C 1.25 -1.953125 1.34375 -2.0625 1.453125 -2.171875 C 1.6875 -2.09375 1.9375 -2.046875 2.21875 -2.046875 C 3.140625 -2.046875 3.875 -2.515625 3.875 -3.46875 L 3.875 -3.484375 C 3.875 -3.828125 3.765625 -4.09375 3.5625 -4.296875 L 4.359375 -4.296875 L 4.359375 -4.8125 L 2.84375 -4.8125 C 2.65625 -4.859375 2.453125 -4.890625 2.21875 -4.890625 C 1.25 -4.890625 0.546875 -4.375 0.546875 -3.453125 L 0.546875 -3.4375 C 0.546875 -2.90625 0.765625 -2.5625 1.109375 -2.328125 C 0.765625 -2.078125 0.609375 -1.875 0.609375 -1.59375 C 0.609375 -1.3125 0.796875 -1.125 1.046875 -1.046875 L 1.046875 -1 C 0.59375 -0.84375 0.21875 -0.578125 0.21875 -0.09375 C 0.21875 0.546875 0.84375 0.9375 2.203125 0.9375 Z M 2.1875 0.40625 C 1.3125 0.40625 0.921875 0.203125 0.921875 -0.1875 C 0.921875 -0.5625 1.1875 -0.765625 1.53125 -0.875 L 2.8125 -0.875 C 3.390625 -0.875 3.609375 -0.734375 3.609375 -0.328125 C 3.609375 0.140625 3.21875 0.40625 2.1875 0.40625 Z M 2.21875 -2.578125 C 1.625 -2.578125 1.234375 -2.875 1.234375 -3.453125 L 1.234375 -3.5 C 1.234375 -4.046875 1.609375 -4.375 2.21875 -4.375 C 2.8125 -4.375 3.1875 -4.09375 3.1875 -3.484375 L 3.1875 -3.4375 C 3.1875 -2.875 2.828125 -2.578125 2.21875 -2.578125 Z M 2.21875 -2.578125 "/>
</g>
<g id="glyph-1-6">
<path d="M 0.765625 -0.375 L 1.484375 -0.375 L 1.484375 -2.78125 L 2.703125 -2.78125 C 3.859375 -2.78125 4.625 -3.421875 4.625 -4.609375 C 4.625 -5.734375 3.96875 -6.375 2.625 -6.375 L 0.765625 -6.375 Z M 1.484375 -3.375 L 1.484375 -5.78125 L 2.546875 -5.78125 C 3.515625 -5.78125 3.859375 -5.40625 3.859375 -4.5625 C 3.859375 -3.75 3.5 -3.375 2.5625 -3.375 Z M 1.484375 -3.375 "/>
</g>
<g id="glyph-1-7">
<path d="M 0.65625 -0.375 L 1.34375 -0.375 L 1.34375 -3.859375 C 1.65625 -4.078125 2.078125 -4.25 2.53125 -4.25 C 2.59375 -4.25 2.734375 -4.234375 2.84375 -4.21875 L 2.84375 -4.828125 C 2.8125 -4.84375 2.6875 -4.859375 2.578125 -4.859375 C 2.078125 -4.859375 1.59375 -4.59375 1.34375 -4.3125 L 1.3125 -4.3125 L 1.3125 -4.8125 L 0.65625 -4.8125 Z M 0.65625 -0.375 "/>
</g>
<g id="glyph-1-8">
<path d="M 2.46875 -0.296875 C 3.1875 -0.296875 3.703125 -0.515625 3.96875 -0.703125 L 3.96875 -1.21875 C 3.5625 -1.03125 3.171875 -0.890625 2.578125 -0.890625 C 1.640625 -0.890625 1.109375 -1.3125 1.078125 -2.421875 L 4.09375 -2.421875 L 4.09375 -2.8125 C 4.09375 -4.1875 3.515625 -4.890625 2.3125 -4.890625 C 1.28125 -4.890625 0.375 -4.203125 0.375 -2.65625 L 0.375 -2.53125 C 0.375 -1.140625 1.078125 -0.296875 2.46875 -0.296875 Z M 2.28125 -4.328125 C 3.015625 -4.328125 3.375 -3.9375 3.375 -2.96875 L 1.078125 -2.96875 C 1.140625 -4.015625 1.734375 -4.328125 2.28125 -4.328125 Z M 2.28125 -4.328125 "/>
</g>
<g id="glyph-1-9">
<path d="M 0.65625 -0.375 L 1.328125 -0.375 L 1.328125 -3.984375 C 1.6875 -4.140625 2.078125 -4.296875 2.453125 -4.296875 C 3.046875 -4.296875 3.265625 -4.078125 3.265625 -3.546875 L 3.265625 -0.375 L 3.9375 -0.375 L 3.9375 -3.6875 C 3.9375 -3.796875 3.9375 -3.875 3.921875 -3.984375 C 4.328125 -4.171875 4.703125 -4.296875 5.0625 -4.296875 C 5.65625 -4.296875 5.875 -4.078125 5.875 -3.546875 L 5.875 -0.375 L 6.546875 -0.375 L 6.546875 -3.6875 C 6.546875 -4.546875 6.09375 -4.890625 5.328125 -4.890625 C 4.828125 -4.890625 4.3125 -4.703125 3.828125 -4.390625 L 3.796875 -4.390625 C 3.578125 -4.734375 3.21875 -4.890625 2.71875 -4.890625 C 2.21875 -4.890625 1.75 -4.6875 1.34375 -4.421875 L 1.3125 -4.421875 L 1.3125 -4.8125 L 0.65625 -4.8125 Z M 0.65625 -0.375 "/>
</g>
<g id="glyph-1-10">
<path d="M 1.984375 -0.296875 C 2.515625 -0.296875 3 -0.5 3.390625 -0.78125 L 3.4375 -0.78125 L 3.5 -0.375 L 4.078125 -0.375 L 4.078125 -4.8125 L 3.40625 -4.8125 L 3.40625 -1.234375 C 3.03125 -1.046875 2.640625 -0.890625 2.171875 -0.890625 C 1.515625 -0.890625 1.3125 -1.125 1.3125 -1.6875 L 1.3125 -4.8125 L 0.625 -4.8125 L 0.625 -1.59375 C 0.625 -0.734375 1.125 -0.296875 1.984375 -0.296875 Z M 1.984375 -0.296875 "/>
</g>
<g id="glyph-1-11">
<path d="M 0.765625 -0.375 L 1.46875 -0.375 L 1.46875 -2.953125 L 2.625 -2.953125 L 4.109375 -0.375 L 4.921875 -0.375 L 3.328125 -3.078125 L 3.328125 -3.125 C 4.0625 -3.359375 4.5 -3.828125 4.5 -4.6875 C 4.5 -5.78125 3.828125 -6.375 2.515625 -6.375 L 0.765625 -6.375 Z M 1.46875 -3.5 L 1.46875 -5.78125 L 2.453125 -5.78125 C 3.375 -5.78125 3.75 -5.421875 3.75 -4.6875 C 3.75 -3.90625 3.40625 -3.5 2.46875 -3.5 Z M 1.46875 -3.5 "/>
</g>
<g id="glyph-1-12">
<path d="M 0.671875 -0.375 L 1.359375 -0.375 L 1.359375 -6.78125 L 0.671875 -6.78125 Z M 0.671875 -0.375 "/>
</g>
<g id="glyph-1-13">
<path d="M 1.734375 -0.296875 C 2.328125 -0.296875 2.703125 -0.515625 2.90625 -0.765625 L 2.953125 -0.765625 L 3.03125 -0.375 L 3.578125 -0.375 L 3.578125 -3.578125 C 3.578125 -4.484375 3.03125 -4.890625 2.0625 -4.890625 C 1.5625 -4.890625 1.125 -4.8125 0.734375 -4.640625 L 0.734375 -4.15625 C 1.015625 -4.234375 1.375 -4.296875 1.796875 -4.296875 C 2.59375 -4.296875 2.890625 -4.125 2.890625 -3.4375 L 2.890625 -2.96875 L 1.703125 -2.828125 C 0.84375 -2.71875 0.34375 -2.3125 0.34375 -1.53125 C 0.34375 -0.703125 0.921875 -0.296875 1.734375 -0.296875 Z M 1.90625 -0.828125 C 1.390625 -0.828125 1.0625 -1.078125 1.0625 -1.5625 C 1.0625 -2.0625 1.328125 -2.28125 1.875 -2.34375 L 2.890625 -2.453125 L 2.890625 -1.15625 C 2.703125 -0.96875 2.3125 -0.828125 1.90625 -0.828125 Z M 1.90625 -0.828125 "/>
</g>
<g id="glyph-1-14">
<path d="M 2.078125 -0.375 L 2.78125 -0.375 L 2.78125 -5.78125 L 4.609375 -5.78125 L 4.609375 -6.375 L 0.25 -6.375 L 0.25 -5.78125 L 2.078125 -5.78125 Z M 2.078125 -0.375 "/>
</g>
<g id="glyph-1-15">
<path d="M 0.984375 0.953125 C 1.71875 0.953125 2.09375 0.6875 2.390625 -0.09375 L 4.125 -4.8125 L 3.4375 -4.8125 L 2.25 -1.4375 L 2.21875 -1.4375 L 0.921875 -4.8125 L 0.1875 -4.8125 L 1.890625 -0.53125 L 1.75 -0.171875 C 1.5625 0.3125 1.296875 0.390625 0.859375 0.390625 C 0.703125 0.390625 0.546875 0.34375 0.4375 0.328125 L 0.4375 0.828125 C 0.5625 0.890625 0.78125 0.953125 0.984375 0.953125 Z M 0.984375 0.953125 "/>
</g>
<g id="glyph-1-16">
<path d="M 0.65625 0.953125 L 1.34375 0.953125 L 1.34375 -0.59375 C 1.59375 -0.453125 1.96875 -0.296875 2.46875 -0.296875 C 3.703125 -0.296875 4.484375 -0.96875 4.484375 -2.59375 L 4.484375 -2.703125 C 4.484375 -4.359375 3.640625 -4.890625 2.65625 -4.890625 C 2.09375 -4.890625 1.625 -4.6875 1.34375 -4.4375 L 1.3125 -4.4375 L 1.3125 -4.796875 L 0.65625 -4.796875 Z M 2.40625 -0.859375 C 1.953125 -0.859375 1.546875 -1 1.34375 -1.171875 L 1.34375 -3.984375 C 1.546875 -4.125 1.96875 -4.3125 2.484375 -4.3125 C 3.296875 -4.3125 3.765625 -3.921875 3.765625 -2.671875 L 3.765625 -2.5 C 3.765625 -1.3125 3.25 -0.859375 2.40625 -0.859375 Z M 2.40625 -0.859375 "/>
</g>
<g id="glyph-2-0">
<path d="M 3.75 -2.421875 C 3.75 -2.734375 3.453125 -2.734375 3.359375 -2.734375 L 0.84375 -2.734375 C 0.765625 -2.734375 0.453125 -2.734375 0.453125 -2.421875 C 0.453125 -2.125 0.75 -2.125 0.84375 -2.125 L 3.359375 -2.125 C 3.4375 -2.125 3.75 -2.125 3.75 -2.421875 Z M 3.75 -2.421875 "/>
</g>
<g id="glyph-2-1">
<path d="M 3.609375 -1.03125 C 3.609375 -1.296875 3.375 -1.296875 3.296875 -1.296875 C 3.09375 -1.296875 3.015625 -1.21875 3 -1.03125 C 2.984375 -0.703125 2.703125 -0.484375 2.390625 -0.484375 C 1.8125 -0.484375 1.8125 -0.921875 1.8125 -1.109375 L 1.8125 -2.890625 L 3.078125 -2.890625 C 3.203125 -2.890625 3.421875 -2.890625 3.421875 -3.15625 C 3.421875 -3.421875 3.203125 -3.421875 3.078125 -3.421875 L 1.8125 -3.421875 L 1.8125 -4.0625 C 1.8125 -4.203125 1.8125 -4.390625 1.515625 -4.390625 C 1.203125 -4.390625 1.203125 -4.203125 1.203125 -4.0625 L 1.203125 -3.421875 L 0.546875 -3.421875 C 0.421875 -3.421875 0.203125 -3.421875 0.203125 -3.15625 C 0.203125 -2.890625 0.421875 -2.890625 0.546875 -2.890625 L 1.203125 -2.890625 L 1.203125 -1.09375 C 1.203125 -0.234375 1.8125 0.046875 2.359375 0.046875 C 3.078125 0.046875 3.609375 -0.453125 3.609375 -1.03125 Z M 3.609375 -1.03125 "/>
</g>
<g id="glyph-2-2">
<path d="M 4.015625 -3.15625 C 4.015625 -3.421875 3.78125 -3.421875 3.640625 -3.421875 L 2.765625 -3.421875 C 2.625 -3.421875 2.390625 -3.421875 2.390625 -3.15625 C 2.390625 -3.140625 2.40625 -2.984375 2.546875 -2.921875 C 2.59375 -2.890625 2.796875 -2.890625 2.921875 -2.890625 L 2.53125 -1.703125 C 2.40625 -1.34375 2.234375 -0.8125 2.1875 -0.625 L 2.171875 -0.625 C 2.15625 -0.734375 2.109375 -0.875 1.78125 -1.734375 L 1.3125 -2.890625 C 1.4375 -2.890625 1.625 -2.890625 1.671875 -2.921875 C 1.75 -2.9375 1.828125 -3.03125 1.828125 -3.15625 C 1.828125 -3.421875 1.59375 -3.421875 1.453125 -3.421875 L 0.578125 -3.421875 C 0.4375 -3.421875 0.21875 -3.421875 0.21875 -3.15625 C 0.21875 -3.125 0.234375 -2.953125 0.375 -2.90625 C 0.421875 -2.890625 0.65625 -2.890625 0.78125 -2.890625 L 1.890625 -0.109375 C 1.921875 -0.046875 1.921875 0 1.921875 0 C 1.921875 0.03125 1.71875 0.65625 1.65625 0.796875 C 1.515625 1.078125 1.3125 1.25 1.015625 1.28125 L 1.09375 1.125 C 1.078125 0.875 0.90625 0.75 0.71875 0.75 C 0.5 0.75 0.34375 0.890625 0.34375 1.140625 C 0.34375 1.453125 0.59375 1.796875 1.015625 1.796875 C 1.640625 1.796875 2.046875 1.1875 2.234375 0.65625 L 3.4375 -2.890625 C 3.578125 -2.890625 3.796875 -2.890625 3.84375 -2.90625 C 3.921875 -2.9375 4.015625 -3.015625 4.015625 -3.15625 Z M 4.015625 -3.15625 "/>
</g>
<g id="glyph-2-3">
<path d="M 3.9375 -1.71875 C 3.9375 -2.671875 3.234375 -3.453125 2.34375 -3.453125 C 1.96875 -3.453125 1.640625 -3.328125 1.359375 -3.109375 C 1.359375 -3.421875 1.1875 -3.421875 1.015625 -3.421875 L 0.421875 -3.421875 C 0.296875 -3.421875 0.09375 -3.421875 0.09375 -3.15625 C 0.09375 -2.890625 0.296875 -2.890625 0.421875 -2.890625 L 0.75 -2.890625 L 0.75 1.234375 L 0.421875 1.234375 C 0.296875 1.234375 0.09375 1.234375 0.09375 1.5 C 0.09375 1.765625 0.296875 1.765625 0.421875 1.765625 L 1.6875 1.765625 C 1.8125 1.765625 2.03125 1.765625 2.03125 1.5 C 2.03125 1.234375 1.8125 1.234375 1.6875 1.234375 L 1.359375 1.234375 L 1.359375 -0.328125 C 1.609375 -0.09375 1.90625 0.046875 2.265625 0.046875 C 3.140625 0.046875 3.9375 -0.703125 3.9375 -1.71875 Z M 3.328125 -1.71875 C 3.328125 -0.984375 2.796875 -0.484375 2.234375 -0.484375 C 1.65625 -0.484375 1.359375 -1.140625 1.359375 -1.546875 L 1.359375 -2.09375 C 1.359375 -2.546875 1.828125 -2.9375 2.3125 -2.9375 C 2.859375 -2.9375 3.328125 -2.390625 3.328125 -1.71875 Z M 3.328125 -1.71875 "/>
</g>
<g id="glyph-2-4">
<path d="M 3.734375 -0.859375 C 3.734375 -1.03125 3.59375 -1.109375 3.421875 -1.109375 C 3.296875 -1.109375 3.21875 -1.09375 3.140625 -0.921875 C 2.96875 -0.5625 2.59375 -0.484375 2.328125 -0.484375 C 1.75 -0.484375 1.171875 -0.859375 1.046875 -1.5 L 3.390625 -1.5 C 3.546875 -1.5 3.734375 -1.5 3.734375 -1.796875 C 3.734375 -2.75 3.1875 -3.484375 2.171875 -3.484375 C 1.1875 -3.484375 0.421875 -2.6875 0.421875 -1.71875 C 0.421875 -0.78125 1.21875 0.046875 2.296875 0.046875 C 3.375 0.046875 3.734375 -0.65625 3.734375 -0.859375 Z M 3.109375 -2.015625 L 1.0625 -2.015625 C 1.171875 -2.5625 1.640625 -2.953125 2.171875 -2.953125 C 2.875 -2.953125 3.0625 -2.40625 3.109375 -2.015625 Z M 3.109375 -2.015625 "/>
</g>
<g id="glyph-2-5">
<path d="M 2.640625 -2.875 C 2.640625 -3.203125 2.390625 -3.421875 2.109375 -3.421875 C 1.796875 -3.421875 1.578125 -3.171875 1.578125 -2.890625 C 1.578125 -2.578125 1.828125 -2.34375 2.109375 -2.34375 C 2.421875 -2.34375 2.640625 -2.609375 2.640625 -2.875 Z M 2.640625 -0.53125 C 2.640625 -0.84375 2.390625 -1.078125 2.109375 -1.078125 C 1.796875 -1.078125 1.578125 -0.8125 1.578125 -0.546875 C 1.578125 -0.21875 1.828125 0 2.109375 0 C 2.421875 0 2.640625 -0.25 2.640625 -0.53125 Z M 2.640625 -0.53125 "/>
</g>
<g id="glyph-2-6">
<path d="M 4 -3.921875 L 4 -4.515625 C 4 -4.78125 3.90625 -4.84375 3.65625 -4.84375 L 0.5625 -4.84375 C 0.3125 -4.84375 0.21875 -4.796875 0.21875 -4.515625 L 0.21875 -3.921875 C 0.21875 -3.765625 0.21875 -3.578125 0.515625 -3.578125 C 0.8125 -3.578125 0.8125 -3.765625 0.8125 -3.921875 L 0.8125 -4.328125 L 1.796875 -4.328125 L 1.796875 -0.53125 L 1.421875 -0.53125 C 1.296875 -0.53125 1.078125 -0.53125 1.078125 -0.265625 C 1.078125 0 1.3125 0 1.421875 0 L 2.78125 0 C 2.90625 0 3.140625 0 3.140625 -0.265625 C 3.140625 -0.53125 2.890625 -0.53125 2.78125 -0.53125 L 2.40625 -0.53125 L 2.40625 -4.328125 L 3.390625 -4.328125 L 3.390625 -3.921875 C 3.390625 -3.765625 3.390625 -3.578125 3.6875 -3.578125 C 4 -3.578125 4 -3.765625 4 -3.921875 Z M 4 -3.921875 "/>
</g>
<g id="glyph-3-0">
<path d="M 0.8125 -0.328125 L 1.421875 -0.328125 L 1.421875 -3.765625 L 2.328125 -3.765625 L 2.328125 -4.265625 L 1.421875 -4.265625 L 1.421875 -4.796875 C 1.421875 -5.34375 1.6875 -5.5625 2.15625 -5.5625 C 2.421875 -5.5625 2.59375 -5.53125 2.703125 -5.515625 L 2.703125 -5.9375 C 2.5625 -6.015625 2.34375 -6.078125 2.046875 -6.078125 C 1.328125 -6.078125 0.8125 -5.703125 0.8125 -4.828125 L 0.8125 -4.265625 L 0.234375 -4.265625 L 0.234375 -3.765625 L 0.8125 -3.765625 Z M 0.8125 -0.328125 "/>
</g>
<g id="glyph-3-1">
<path d="M 1.546875 -0.265625 C 2.078125 -0.265625 2.40625 -0.453125 2.59375 -0.671875 L 2.625 -0.671875 L 2.6875 -0.328125 L 3.1875 -0.328125 L 3.1875 -3.1875 C 3.1875 -3.984375 2.703125 -4.34375 1.828125 -4.34375 C 1.375 -4.34375 1 -4.265625 0.65625 -4.125 L 0.65625 -3.6875 C 0.90625 -3.765625 1.21875 -3.8125 1.59375 -3.8125 C 2.296875 -3.8125 2.578125 -3.65625 2.578125 -3.046875 L 2.578125 -2.640625 L 1.515625 -2.515625 C 0.75 -2.421875 0.3125 -2.0625 0.3125 -1.359375 C 0.3125 -0.625 0.828125 -0.265625 1.546875 -0.265625 Z M 1.6875 -0.734375 C 1.234375 -0.734375 0.9375 -0.953125 0.9375 -1.375 C 0.9375 -1.828125 1.1875 -2.03125 1.671875 -2.078125 L 2.578125 -2.1875 L 2.578125 -1.03125 C 2.40625 -0.859375 2.0625 -0.734375 1.6875 -0.734375 Z M 1.6875 -0.734375 "/>
</g>
<g id="glyph-3-2">
<path d="M 1.65625 -0.328125 L 2.25 -0.328125 L 3.71875 -4.265625 L 3.125 -4.265625 L 1.984375 -1.109375 L 1.953125 -1.109375 L 0.84375 -4.265625 L 0.1875 -4.265625 Z M 1.65625 -0.328125 "/>
</g>
<g id="glyph-3-3">
<path d="M 2.109375 -0.265625 C 3.171875 -0.265625 3.90625 -1.015625 3.90625 -2.265625 L 3.90625 -2.375 C 3.90625 -3.625 3.234375 -4.34375 2.125 -4.34375 C 1.0625 -4.34375 0.328125 -3.59375 0.328125 -2.34375 L 0.328125 -2.234375 C 0.328125 -0.96875 1 -0.265625 2.109375 -0.265625 Z M 2.125 -0.765625 C 1.46875 -0.765625 0.953125 -1.125 0.953125 -2.21875 L 0.953125 -2.40625 C 0.953125 -3.328125 1.390625 -3.84375 2.109375 -3.84375 C 2.75 -3.84375 3.28125 -3.484375 3.28125 -2.390625 L 3.28125 -2.1875 C 3.28125 -1.265625 2.84375 -0.765625 2.125 -0.765625 Z M 2.125 -0.765625 "/>
</g>
<g id="glyph-3-4">
<path d="M 0.578125 -0.328125 L 1.1875 -0.328125 L 1.1875 -3.421875 C 1.46875 -3.625 1.84375 -3.765625 2.25 -3.765625 C 2.3125 -3.765625 2.421875 -3.765625 2.53125 -3.75 L 2.53125 -4.296875 C 2.5 -4.296875 2.375 -4.3125 2.296875 -4.3125 C 1.84375 -4.3125 1.421875 -4.078125 1.203125 -3.828125 L 1.15625 -3.828125 L 1.15625 -4.265625 L 0.578125 -4.265625 Z M 0.578125 -0.328125 "/>
</g>
<g id="glyph-3-5">
<path d="M 2.15625 -0.265625 C 2.703125 -0.265625 3.046875 -0.421875 3.296875 -0.578125 L 3.296875 -1.0625 C 3.109375 -0.953125 2.75 -0.78125 2.21875 -0.78125 C 1.375 -0.78125 0.953125 -1.234375 0.953125 -2.25 L 0.953125 -2.4375 C 0.953125 -3.34375 1.421875 -3.828125 2.140625 -3.828125 C 2.65625 -3.828125 2.90625 -3.734375 3.265625 -3.578125 L 3.265625 -4.078125 C 3 -4.25 2.6875 -4.34375 2.171875 -4.34375 C 1.15625 -4.34375 0.328125 -3.734375 0.328125 -2.34375 L 0.328125 -2.21875 C 0.328125 -0.921875 1.03125 -0.265625 2.15625 -0.265625 Z M 2.15625 -0.265625 "/>
</g>
<g id="glyph-3-6">
<path d="M 0.578125 -0.328125 L 1.1875 -0.328125 L 1.1875 -3.53125 C 1.5 -3.6875 1.84375 -3.8125 2.1875 -3.8125 C 2.703125 -3.8125 2.890625 -3.625 2.890625 -3.140625 L 2.890625 -0.328125 L 3.5 -0.328125 L 3.5 -3.265625 C 3.5 -3.359375 3.5 -3.4375 3.484375 -3.53125 C 3.84375 -3.703125 4.1875 -3.8125 4.5 -3.8125 C 5.03125 -3.8125 5.21875 -3.625 5.21875 -3.140625 L 5.21875 -0.328125 L 5.8125 -0.328125 L 5.8125 -3.265625 C 5.8125 -4.03125 5.40625 -4.34375 4.734375 -4.34375 C 4.28125 -4.34375 3.828125 -4.1875 3.390625 -3.90625 L 3.359375 -3.90625 C 3.1875 -4.203125 2.859375 -4.34375 2.421875 -4.34375 C 1.96875 -4.34375 1.5625 -4.15625 1.1875 -3.921875 L 1.15625 -3.921875 L 1.15625 -4.265625 L 0.578125 -4.265625 Z M 0.578125 -0.328125 "/>
</g>
<g id="glyph-3-7">
<path d="M 0.578125 0.84375 L 1.1875 0.84375 L 1.1875 -0.53125 C 1.40625 -0.390625 1.75 -0.265625 2.203125 -0.265625 C 3.28125 -0.265625 3.984375 -0.859375 3.984375 -2.296875 L 3.984375 -2.40625 C 3.984375 -3.859375 3.234375 -4.34375 2.359375 -4.34375 C 1.859375 -4.34375 1.4375 -4.171875 1.203125 -3.9375 L 1.171875 -3.9375 L 1.171875 -4.265625 L 0.578125 -4.265625 Z M 2.140625 -0.765625 C 1.734375 -0.765625 1.375 -0.890625 1.1875 -1.046875 L 1.1875 -3.546875 C 1.375 -3.671875 1.75 -3.828125 2.203125 -3.828125 C 2.921875 -3.828125 3.34375 -3.484375 3.34375 -2.375 L 3.34375 -2.21875 C 3.34375 -1.15625 2.890625 -0.765625 2.140625 -0.765625 Z M 2.140625 -0.765625 "/>
</g>
<g id="glyph-3-8">
<path d="M 1.578125 -0.265625 C 2.4375 -0.265625 2.96875 -0.6875 2.96875 -1.421875 C 2.96875 -2.109375 2.65625 -2.359375 1.90625 -2.5625 L 1.515625 -2.671875 C 1.09375 -2.796875 0.921875 -2.9375 0.921875 -3.28125 C 0.921875 -3.640625 1.1875 -3.828125 1.71875 -3.828125 C 2.15625 -3.828125 2.546875 -3.71875 2.75 -3.625 L 2.75 -4.109375 C 2.546875 -4.21875 2.203125 -4.34375 1.6875 -4.34375 C 0.78125 -4.34375 0.34375 -3.890625 0.34375 -3.21875 C 0.34375 -2.5625 0.734375 -2.296875 1.296875 -2.140625 L 1.6875 -2.03125 C 2.1875 -1.890625 2.375 -1.734375 2.375 -1.359375 C 2.375 -1.015625 2.125 -0.78125 1.5 -0.78125 C 0.9375 -0.78125 0.65625 -0.90625 0.3125 -1.03125 L 0.3125 -0.546875 C 0.640625 -0.359375 1.0625 -0.265625 1.578125 -0.265625 Z M 1.578125 -0.265625 "/>
</g>
<g id="glyph-3-9">
<path d="M 0.609375 -0.328125 L 1.203125 -0.328125 L 1.203125 -4.265625 L 0.609375 -4.265625 Z M 0.59375 -5.0625 L 1.21875 -5.0625 L 1.21875 -5.6875 L 0.59375 -5.6875 Z M 0.59375 -5.0625 "/>
</g>
<g id="glyph-3-10">
<path d="M 1.828125 -0.28125 C 2.171875 -0.28125 2.328125 -0.375 2.5 -0.4375 L 2.5 -0.859375 C 2.328125 -0.8125 2.15625 -0.78125 1.984375 -0.78125 C 1.53125 -0.78125 1.40625 -0.9375 1.40625 -1.3125 L 1.40625 -3.765625 L 2.40625 -3.765625 L 2.40625 -4.265625 L 1.40625 -4.265625 L 1.40625 -5.203125 L 0.796875 -5.203125 L 0.796875 -4.265625 L 0.234375 -4.265625 L 0.234375 -3.765625 L 0.796875 -3.765625 L 0.796875 -1.21875 C 0.796875 -0.5625 1.203125 -0.28125 1.828125 -0.28125 Z M 1.828125 -0.28125 "/>
</g>
<g id="glyph-3-11">
<path d="M 0.578125 -0.328125 L 1.1875 -0.328125 L 1.1875 -3.53125 C 1.515625 -3.6875 1.921875 -3.8125 2.296875 -3.8125 C 2.921875 -3.8125 3.09375 -3.625 3.09375 -3.140625 L 3.09375 -0.328125 L 3.6875 -0.328125 L 3.6875 -3.265625 C 3.6875 -4.03125 3.3125 -4.34375 2.546875 -4.34375 C 2.0625 -4.34375 1.5625 -4.171875 1.1875 -3.921875 L 1.15625 -3.921875 L 1.15625 -4.265625 L 0.578125 -4.265625 Z M 0.578125 -0.328125 "/>
</g>
</g>
</defs>
<g fill="rgb(0%, 0%, 0%)" fill-opacity="1">
<use xlink:href="#glyph-0-0" x="57.820159" y="21.502374"/>
<use xlink:href="#glyph-0-1" x="63.963972" y="21.502374"/>
<use xlink:href="#glyph-0-2" x="69.214499" y="21.502374"/>
<use xlink:href="#glyph-0-3" x="72.708234" y="21.502374"/>
<use xlink:href="#glyph-0-4" x="78.306151" y="21.502374"/>
<use xlink:href="#glyph-0-1" x="82.008319" y="21.502374"/>
</g>
<g fill="rgb(0%, 0%, 0%)" fill-opacity="1">
<use xlink:href="#glyph-0-5" x="89.869222" y="21.502374"/>
</g>
<g fill="rgb(0%, 0%, 0%)" fill-opacity="1">
<use xlink:href="#glyph-0-6" x="100.539009" y="21.502374"/>
<use xlink:href="#glyph-0-7" x="103.41737" y="21.502374"/>
<use xlink:href="#glyph-0-8" x="109.005361" y="21.502374"/>
<use xlink:href="#glyph-0-1" x="114.593352" y="21.502374"/>
<use xlink:href="#glyph-0-4" x="119.84388" y="21.502374"/>
<use xlink:href="#glyph-0-9" x="123.546048" y="21.502374"/>
<use xlink:href="#glyph-0-10" x="126.05717" y="21.502374"/>
<use xlink:href="#glyph-0-11" x="129.739487" y="21.502374"/>
<use xlink:href="#glyph-0-7" x="134.72203" y="21.502374"/>
<use xlink:href="#glyph-0-12" x="140.310021" y="21.502374"/>
<use xlink:href="#glyph-0-1" x="144.905473" y="21.502374"/>
</g>
<path fill-rule="nonzero" fill="rgb(86.274719%, 90.979004%, 96.862793%)" fill-opacity="1" stroke-width="0.3985" stroke-linecap="butt" stroke-linejoin="miter" stroke="rgb(28.234863%, 46.273804%, 71.372986%)" stroke-opacity="1" stroke-miterlimit="10" d="M -87.034372 68.032906 L -168.087156 68.032906 C -169.188928 68.032906 -170.078972 67.138942 -170.078972 66.04109 L -170.078972 47.346253 C -170.078972 46.248402 -169.188928 45.354438 -168.087156 45.354438 L -87.034372 45.354438 C -85.9326 45.354438 -85.038636 46.248402 -85.038636 47.346253 L -85.038636 66.04109 C -85.038636 67.138942 -85.9326 68.032906 -87.034372 68.032906 Z M -87.034372 68.032906 " transform="matrix(0.996264, 0, 0, -0.996264, 231.072525, 113.649854)"/>
<g fill="rgb(0%, 0%, 0%)" fill-opacity="1">
<use xlink:href="#glyph-1-0" x="88.798003" y="60.084704"/>
<use xlink:href="#glyph-1-1" x="94.032686" y="60.084704"/>
<use xlink:href="#glyph-1-1" x="98.802857" y="60.084704"/>
<use xlink:href="#glyph-1-2" x="103.573028" y="60.084704"/>
<use xlink:href="#glyph-1-3" x="107.842957" y="60.084704"/>
<use xlink:href="#glyph-1-4" x="109.870726" y="60.084704"/>
<use xlink:href="#glyph-1-5" x="114.658763" y="60.084704"/>
</g>
<path fill-rule="nonzero" fill="rgb(97.645569%, 87.057495%, 87.057495%)" fill-opacity="1" stroke-width="0.3985" stroke-linecap="butt" stroke-linejoin="miter" stroke="rgb(77.253723%, 36.471558%, 36.471558%)" stroke-opacity="1" stroke-miterlimit="10" d="M -149.39624 11.340656 L -219.11371 11.340656 C -220.211561 11.340656 -221.105525 10.446692 -221.105525 9.344919 L -221.105525 -9.345997 C -221.105525 -10.447769 -220.211561 -11.337812 -219.11371 -11.337812 L -149.39624 -11.337812 C -148.294468 -11.337812 -147.404424 -10.447769 -147.404424 -9.345997 L -147.404424 9.344919 C -147.404424 10.446692 -148.294468 11.340656 -149.39624 11.340656 Z M -149.39624 11.340656 " transform="matrix(0.996264, 0, 0, -0.996264, 231.072525, 113.649854)"/>
<g fill="rgb(0%, 0%, 0%)" fill-opacity="1">
<use xlink:href="#glyph-1-6" x="30.703836" y="116.851848"/>
<use xlink:href="#glyph-1-7" x="35.643732" y="116.851848"/>
<use xlink:href="#glyph-1-8" x="38.734517" y="116.851848"/>
<use xlink:href="#glyph-1-9" x="43.200969" y="116.851848"/>
<use xlink:href="#glyph-1-3" x="50.374092" y="116.851848"/>
<use xlink:href="#glyph-1-10" x="52.401861" y="116.851848"/>
<use xlink:href="#glyph-1-9" x="57.136301" y="116.851848"/>
</g>
<path fill-rule="nonzero" fill="rgb(97.645569%, 87.057495%, 87.057495%)" fill-opacity="1" stroke-width="0.3985" stroke-linecap="butt" stroke-linejoin="miter" stroke="rgb(77.253723%, 36.471558%, 36.471558%)" stroke-opacity="1" stroke-miterlimit="10" d="M -36.007819 11.340656 L -105.725289 11.340656 C -106.827061 11.340656 -107.717104 10.446692 -107.717104 9.344919 L -107.717104 -9.345997 C -107.717104 -10.447769 -106.827061 -11.337812 -105.725289 -11.337812 L -36.007819 -11.337812 C -34.909967 -11.337812 -34.016003 -10.447769 -34.016003 -9.345997 L -34.016003 9.344919 C -34.016003 10.446692 -34.909967 11.340656 -36.007819 11.340656 Z M -36.007819 11.340656 " transform="matrix(0.996264, 0, 0, -0.996264, 231.072525, 113.649854)"/>
<g fill="rgb(0%, 0%, 0%)" fill-opacity="1">
<use xlink:href="#glyph-1-11" x="146.360166" y="116.566916"/>
<use xlink:href="#glyph-1-8" x="151.523385" y="116.566916"/>
<use xlink:href="#glyph-1-5" x="155.989837" y="116.566916"/>
<use xlink:href="#glyph-1-10" x="160.509887" y="116.566916"/>
<use xlink:href="#glyph-1-12" x="165.244327" y="116.566916"/>
<use xlink:href="#glyph-1-13" x="167.272096" y="116.566916"/>
<use xlink:href="#glyph-1-7" x="171.488427" y="116.566916"/>
</g>
<path fill="none" stroke-width="0.49814" stroke-linecap="butt" stroke-linejoin="miter" stroke="rgb(31.373596%, 31.373596%, 31.373596%)" stroke-opacity="1" stroke-miterlimit="10" d="M -184.253014 11.536701 L -134.767373 40.880694 " transform="matrix(0.996264, 0, 0, -0.996264, 231.072525, 113.649854)"/>
<path fill="none" stroke-width="0.49814" stroke-linecap="butt" stroke-linejoin="miter" stroke="rgb(31.373596%, 31.373596%, 31.373596%)" stroke-opacity="1" stroke-miterlimit="10" d="M 7.947868 0.000146831 L 0.250068 3.908413 L 0.249421 0.00203128 L 0.250147 -3.909723 Z M 7.947868 0.000146831 " transform="matrix(0.856887, -0.508125, -0.508125, -0.856887, 96.701369, 72.983947)"/>
<path fill="none" stroke-width="0.49814" stroke-linecap="butt" stroke-linejoin="miter" stroke="rgb(31.373596%, 31.373596%, 31.373596%)" stroke-opacity="1" stroke-miterlimit="10" d="M -70.868514 11.536701 L -120.354155 40.880694 " transform="matrix(0.996264, 0, 0, -0.996264, 231.072525, 113.649854)"/>
<path fill="none" stroke-width="0.49814" stroke-linecap="butt" stroke-linejoin="miter" stroke="rgb(31.373596%, 31.373596%, 31.373596%)" stroke-opacity="1" stroke-miterlimit="10" d="M 7.948099 -0.00000999408 L 0.250378 3.90986 L 0.249652 -0.00189444 L 0.250299 -3.908276 Z M 7.948099 -0.00000999408 " transform="matrix(-0.856887, -0.508125, -0.508125, 0.856887, 111.275461, 72.983947)"/>
<g fill="rgb(0%, 0%, 0%)" fill-opacity="1">
<use xlink:href="#glyph-0-13" x="302.383136" y="20.971365"/>
</g>
<g fill="rgb(0%, 0%, 0%)" fill-opacity="1">
<use xlink:href="#glyph-0-2" x="308.82471" y="20.971365"/>
</g>
<g fill="rgb(0%, 0%, 0%)" fill-opacity="1">
<use xlink:href="#glyph-0-10" x="312.407773" y="20.971365"/>
<use xlink:href="#glyph-0-1" x="316.090091" y="20.971365"/>
<use xlink:href="#glyph-0-4" x="321.340618" y="20.971365"/>
</g>
<g fill="rgb(0%, 0%, 0%)" fill-opacity="1">
<use xlink:href="#glyph-0-5" x="327.653162" y="20.971365"/>
</g>
<g fill="rgb(0%, 0%, 0%)" fill-opacity="1">
<use xlink:href="#glyph-0-14" x="338.322949" y="20.971365"/>
<use xlink:href="#glyph-0-1" x="345.022583" y="20.971365"/>
<use xlink:href="#glyph-0-15" x="350.273111" y="20.971365"/>
<use xlink:href="#glyph-0-1" x="352.784233" y="20.971365"/>
<use xlink:href="#glyph-0-16" x="358.034761" y="20.971365"/>
<use xlink:href="#glyph-0-11" x="363.32499" y="20.971365"/>
<use xlink:href="#glyph-0-10" x="368.307533" y="20.971365"/>
<use xlink:href="#glyph-0-9" x="371.98985" y="20.971365"/>
<use xlink:href="#glyph-0-3" x="374.500972" y="20.971365"/>
<use xlink:href="#glyph-0-7" x="380.098888" y="20.971365"/>
</g>
<path fill-rule="nonzero" fill="rgb(87.449646%, 93.331909%, 87.057495%)" fill-opacity="1" stroke-width="0.3985" stroke-linecap="butt" stroke-linejoin="miter" stroke="rgb(38.822937%, 60.392761%, 36.471558%)" stroke-opacity="1" stroke-miterlimit="10" d="M 159.739045 76.537332 L 67.037276 76.537332 C 65.935504 76.537332 65.04154 75.643367 65.04154 74.545516 L 65.04154 38.841828 C 65.04154 37.743977 65.935504 36.850012 67.037276 36.850012 L 159.739045 36.850012 C 160.840817 36.850012 161.73086 37.743977 161.73086 38.841828 L 161.73086 74.545516 C 161.73086 75.643367 160.840817 76.537332 159.739045 76.537332 Z M 159.739045 76.537332 " transform="matrix(0.996264, 0, 0, -0.996264, 231.072525, 113.649854)"/>
<g fill="rgb(0%, 0%, 0%)" fill-opacity="1">
<use xlink:href="#glyph-1-0" x="298.850383" y="53.21048"/>
<use xlink:href="#glyph-1-1" x="304.085065" y="53.21048"/>
<use xlink:href="#glyph-1-1" x="308.855236" y="53.21048"/>
<use xlink:href="#glyph-1-2" x="313.625407" y="53.21048"/>
<use xlink:href="#glyph-1-3" x="317.895336" y="53.21048"/>
<use xlink:href="#glyph-1-4" x="319.923105" y="53.21048"/>
<use xlink:href="#glyph-1-5" x="324.711142" y="53.21048"/>
</g>
<g fill="rgb(0%, 0%, 0%)" fill-opacity="1">
<use xlink:href="#glyph-2-0" x="298.850383" y="66.094171"/>
</g>
<g fill="rgb(0%, 0%, 0%)" fill-opacity="1">
<use xlink:href="#glyph-2-1" x="306.036378" y="66.094171"/>
<use xlink:href="#glyph-2-2" x="310.252692" y="66.094171"/>
<use xlink:href="#glyph-2-3" x="314.469005" y="66.094171"/>
<use xlink:href="#glyph-2-4" x="318.685319" y="66.094171"/>
<use xlink:href="#glyph-2-5" x="322.901632" y="66.094171"/>
</g>
<g fill="rgb(0%, 0%, 0%)" fill-opacity="1">
<use xlink:href="#glyph-2-6" x="331.588349" y="66.094171"/>
<use xlink:href="#glyph-2-2" x="335.804663" y="66.094171"/>
<use xlink:href="#glyph-2-3" x="340.020976" y="66.094171"/>
<use xlink:href="#glyph-2-4" x="344.23729" y="66.094171"/>
</g>
<path fill-rule="nonzero" fill="rgb(91.372681%, 87.841797%, 96.862793%)" fill-opacity="1" stroke-width="0.3985" stroke-linecap="butt" stroke-linejoin="miter" stroke="rgb(51.763916%, 40.391541%, 71.372986%)" stroke-opacity="1" stroke-miterlimit="10" d="M 102.889959 11.340656 L 33.172489 11.340656 C 32.074638 11.340656 31.180673 10.446692 31.180673 9.344919 L 31.180673 -9.345997 C 31.180673 -10.447769 32.074638 -11.337812 33.172489 -11.337812 L 102.889959 -11.337812 C 103.991731 -11.337812 104.881774 -10.447769 104.881774 -9.345997 L 104.881774 9.344919 C 104.881774 10.446692 103.991731 11.340656 102.889959 11.340656 Z M 102.889959 11.340656 " transform="matrix(0.996264, 0, 0, -0.996264, 231.072525, 113.649854)"/>
<g fill="rgb(0%, 0%, 0%)" fill-opacity="1">
<use xlink:href="#glyph-1-6" x="272.797073" y="116.374637"/>
<use xlink:href="#glyph-1-7" x="277.73697" y="116.374637"/>
<use xlink:href="#glyph-1-8" x="280.827755" y="116.374637"/>
<use xlink:href="#glyph-1-9" x="285.294207" y="116.374637"/>
<use xlink:href="#glyph-1-3" x="292.46733" y="116.374637"/>
<use xlink:href="#glyph-1-10" x="294.495099" y="116.374637"/>
<use xlink:href="#glyph-1-9" x="299.229539" y="116.374637"/>
<use xlink:href="#glyph-1-14" x="306.402661" y="116.374637"/>
<use xlink:href="#glyph-1-15" x="311.262161" y="116.374637"/>
<use xlink:href="#glyph-1-16" x="315.567822" y="116.374637"/>
<use xlink:href="#glyph-1-8" x="320.436255" y="116.374637"/>
</g>
<path fill-rule="nonzero" fill="rgb(91.372681%, 87.841797%, 96.862793%)" fill-opacity="1" stroke-width="0.3985" stroke-linecap="butt" stroke-linejoin="miter" stroke="rgb(51.763916%, 40.391541%, 71.372986%)" stroke-opacity="1" stroke-miterlimit="10" d="M 199.269529 11.340656 L 129.552059 11.340656 C 128.454207 11.340656 127.560243 10.446692 127.560243 9.344919 L 127.560243 -9.345997 C 127.560243 -10.447769 128.454207 -11.337812 129.552059 -11.337812 L 199.269529 -11.337812 C 200.371301 -11.337812 201.261344 -10.447769 201.261344 -9.345997 L 201.261344 9.344919 C 201.261344 10.446692 200.371301 11.340656 199.269529 11.340656 Z M 199.269529 11.340656 " transform="matrix(0.996264, 0, 0, -0.996264, 231.072525, 113.649854)"/>
<g fill="rgb(0%, 0%, 0%)" fill-opacity="1">
<use xlink:href="#glyph-1-11" x="371.509936" y="116.55795"/>
<use xlink:href="#glyph-1-8" x="376.673155" y="116.55795"/>
<use xlink:href="#glyph-1-5" x="381.139607" y="116.55795"/>
<use xlink:href="#glyph-1-10" x="385.659657" y="116.55795"/>
<use xlink:href="#glyph-1-12" x="390.394096" y="116.55795"/>
<use xlink:href="#glyph-1-13" x="392.421866" y="116.55795"/>
<use xlink:href="#glyph-1-7" x="396.638197" y="116.55795"/>
<use xlink:href="#glyph-1-14" x="399.728982" y="116.55795"/>
<use xlink:href="#glyph-1-15" x="404.588482" y="116.55795"/>
<use xlink:href="#glyph-1-16" x="408.894142" y="116.55795"/>
<use xlink:href="#glyph-1-8" x="413.762575" y="116.55795"/>
</g>
<path fill="none" stroke-width="0.44832" stroke-linecap="butt" stroke-linejoin="miter" stroke="rgb(31.373596%, 31.373596%, 31.373596%)" stroke-opacity="1" stroke-miterlimit="10" d="M 97.361494 36.650046 L 79.533175 14.379351 " transform="matrix(0.996264, 0, 0, -0.996264, 231.072525, 113.649854)"/>
<path fill-rule="nonzero" fill="rgb(31.373596%, 31.373596%, 31.373596%)" fill-opacity="1" stroke-width="0.44832" stroke-linecap="butt" stroke-linejoin="miter" stroke="rgb(31.373596%, 31.373596%, 31.373596%)" stroke-opacity="1" stroke-miterlimit="10" d="M 5.032874 0.000293024 L 0.72427 1.624151 L 2.14 -0.0000298618 L 0.721645 -1.622678 Z M 5.032874 0.000293024 " transform="matrix(-0.622576, 0.777704, 0.777704, 0.622576, 311.570616, 97.745888)"/>
<path fill="none" stroke-width="0.44832" stroke-linecap="butt" stroke-linejoin="miter" stroke="rgb(31.373596%, 31.373596%, 31.373596%)" stroke-opacity="1" stroke-miterlimit="10" d="M 131.414485 36.650046 L 151.595342 14.246041 " transform="matrix(0.996264, 0, 0, -0.996264, 231.072525, 113.649854)"/>
<path fill-rule="nonzero" fill="rgb(31.373596%, 31.373596%, 31.373596%)" fill-opacity="1" stroke-width="0.44832" stroke-linecap="butt" stroke-linejoin="miter" stroke="rgb(31.373596%, 31.373596%, 31.373596%)" stroke-opacity="1" stroke-miterlimit="10" d="M 5.032184 -0.000397696 L 0.724613 1.620578 L 2.139322 -0.00177021 L 0.722081 -1.622305 Z M 5.032184 -0.000397696 " transform="matrix(0.6667, 0.740284, 0.740284, -0.6667, 380.750806, 97.958083)"/>
<g fill="rgb(47.099304%, 47.099304%, 47.099304%)" fill-opacity="1">
<use xlink:href="#glyph-3-0" x="186.917092" y="158.627205"/>
</g>
<g fill="rgb(47.099304%, 47.099304%, 47.099304%)" fill-opacity="1">
<use xlink:href="#glyph-3-1" x="189.370653" y="158.627205"/>
</g>
<g fill="rgb(47.099304%, 47.099304%, 47.099304%)" fill-opacity="1">
<use xlink:href="#glyph-3-2" x="193.078786" y="158.627205"/>
<use xlink:href="#glyph-3-3" x="196.985426" y="158.627205"/>
<use xlink:href="#glyph-3-4" x="201.225561" y="158.627205"/>
</g>
<g fill="rgb(47.099304%, 47.099304%, 47.099304%)" fill-opacity="1">
<use xlink:href="#glyph-3-5" x="206.053279" y="158.627205"/>
<use xlink:href="#glyph-3-3" x="209.626426" y="158.627205"/>
<use xlink:href="#glyph-3-6" x="213.866561" y="158.627205"/>
<use xlink:href="#glyph-3-7" x="220.242643" y="158.627205"/>
<use xlink:href="#glyph-3-3" x="224.570121" y="158.627205"/>
<use xlink:href="#glyph-3-8" x="228.810256" y="158.627205"/>
<use xlink:href="#glyph-3-9" x="232.105491" y="158.627205"/>
<use xlink:href="#glyph-3-10" x="233.907945" y="158.627205"/>
<use xlink:href="#glyph-3-9" x="236.68706" y="158.627205"/>
<use xlink:href="#glyph-3-3" x="238.489514" y="158.627205"/>
<use xlink:href="#glyph-3-11" x="242.729648" y="158.627205"/>
</g>
</svg>
